M48
METRIC,LZ,000.000
;FILE_FORMAT=3:3
;TYPE=PLATED
;Layer: PTH_Through_Via
;EasyEDA v6.5.54, 2026-05-14 16:30:12
;fa4692dd088d48a7bfa3324e0a8a9796,3d3f09d9cea3496b8cca675c4301f38a,10
;Gerber Generator version 0.2
;Holesize 1 = 0.310 mm
T01C0.310
%
G05
G90
T01
X027940Y072390
X028575Y069850
X029210Y067310
X076200Y039370
X076835Y036830
X077470Y034290
X078105Y031750
X078740Y029210
X079375Y026670
X080010Y024130
X030480Y036830
X031115Y041910
X077470Y011303
X040386Y014859
X045974Y069850
X027559Y048260
X027559Y046990
X046990Y012700
X033020Y013589
X032385Y014224
X023495Y030226
X032385Y039370
X078105Y016891
X077470Y016256
X074803Y015621
X075438Y014986
X076073Y014351
X080645Y020701
X071755Y023241
X070485Y022606
X080645Y015748
X061849Y032766
X063500Y030988
X063500Y029972
X022860Y084455
X019685Y065786
X020955Y068961
X021590Y078359
X022225Y085725
X026035Y086106
X023495Y075946
X033147Y072771
X056388Y013081
X058166Y013081
X083185Y068580
X088773Y075692
X042672Y080772
X090424Y026670
X089662Y025019
X090932Y025019
X088900Y022479
X090932Y073914
X053340Y015494
X040894Y015494
X049530Y014224
X027305Y074930
X026670Y077470
X026035Y080010
X025400Y082550
X001143Y073660
X001143Y071120
X001143Y068580
X001143Y066040
X001143Y063500
X001143Y060960
X001143Y058420
X001143Y055880
X017526Y064770
X006858Y088646
M30
