M48
METRIC,LZ,000.000
;FILE_FORMAT=3:3
;TYPE=PLATED
;Layer: PTH_Through
;EasyEDA v6.5.54, 2026-05-14 16:30:12
;fa4692dd088d48a7bfa3324e0a8a9796,3d3f09d9cea3496b8cca675c4301f38a,10
;Gerber Generator version 0.2
;Holesize 1 = 0.310 mm
T01C0.310
;Holesize 2 = 0.400 mm
T02C0.400
;Holesize 3 = 0.501 mm
T03C0.501
;Holesize 4 = 0.701 mm
T04C0.701
;Holesize 5 = 0.800 mm
T05C0.800
;Holesize 6 = 0.901 mm
T06C0.901
%
G05
G90
T01
X027940Y072390
X028575Y069850
X029210Y067310
X076200Y039370
X076835Y036830
X077470Y034290
X078105Y031750
X078740Y029210
X079375Y026670
X080010Y024130
X030480Y036830
X031115Y041910
X077470Y011303
X040386Y014859
X045974Y069850
X027559Y048260
X027559Y046990
X046990Y012700
X033020Y013589
X032385Y014224
X023495Y030226
X032385Y039370
X078105Y016891
X077470Y016256
X074803Y015621
X075438Y014986
X076073Y014351
X080645Y020701
X071755Y023241
X070485Y022606
X080645Y015748
X061849Y032766
X063500Y030988
X063500Y029972
X022860Y084455
X019685Y065786
X020955Y068961
X021590Y078359
X022225Y085725
X026035Y086106
X023495Y075946
X033147Y072771
X056388Y013081
X058166Y013081
X083185Y068580
X088773Y075692
X042672Y080772
X090424Y026670
X089662Y025019
X090932Y025019
X088900Y022479
X090932Y073914
X053340Y015494
X040894Y015494
X049530Y014224
X027305Y074930
X026670Y077470
X026035Y080010
X025400Y082550
X001143Y073660
X001143Y071120
X001143Y068580
X001143Y066040
X001143Y063500
X001143Y060960
X001143Y058420
X001143Y055880
X017526Y064770
X006858Y088646
T02
X039370Y054410G85X039370Y054810
X039370Y051870G85X039370Y052270
X039370Y049330G85X039370Y049730
X039370Y046790G85X039370Y047190
X039370Y044250G85X039370Y044650
X039370Y041710G85X039370Y042110
X039370Y039170G85X039370Y039570
X039370Y036630G85X039370Y037030
X039370Y034090G85X039370Y034490
X039370Y031550G85X039370Y031950
X039370Y029010G85X039370Y029410
X039370Y026470G85X039370Y026870
X039370Y023930G85X039370Y024330
X039370Y021390G85X039370Y021790
X024130Y021390G85X024130Y021790
X024130Y023930G85X024130Y024330
X024130Y026470G85X024130Y026870
X024130Y029010G85X024130Y029410
X024130Y031550G85X024130Y031950
X024130Y034090G85X024130Y034490
X024130Y036630G85X024130Y037030
X024130Y041710G85X024130Y042110
X024130Y044250G85X024130Y044650
X024130Y046790G85X024130Y047190
X024130Y049330G85X024130Y049730
X024130Y051870G85X024130Y052270
X024130Y039170G85X024130Y039570
X024130Y054410G85X024130Y054810
X036830Y087430G85X036830Y087830
X044450Y087430G85X044450Y087830
X036830Y084890G85X036830Y085290
X044450Y084890G85X044450Y085290
X036830Y082350G85X036830Y082750
X044450Y082350G85X044450Y082750
X036830Y079810G85X036830Y080210
X044450Y079810G85X044450Y080210
X036830Y077270G85X036830Y077670
X044450Y077270G85X044450Y077670
X036830Y074730G85X036830Y075130
X044450Y074730G85X044450Y075130
X036830Y072190G85X036830Y072590
X044450Y072190G85X044450Y072590
X036830Y069650G85X036830Y070050
X044450Y069650G85X044450Y070050
X036830Y067110G85X036830Y067510
X044450Y067110G85X044450Y067510
X036830Y064570G85X036830Y064970
X044450Y064570G85X044450Y064970
X011430Y087430G85X011430Y087830
X019050Y087430G85X019050Y087830
X011430Y084890G85X011430Y085290
X019050Y084890G85X019050Y085290
X011430Y082350G85X011430Y082750
X019050Y082350G85X019050Y082750
X011430Y079810G85X011430Y080210
X019050Y079810G85X019050Y080210
X011430Y077270G85X011430Y077670
X019050Y077270G85X019050Y077670
X011430Y074730G85X011430Y075130
X019050Y074730G85X019050Y075130
X011430Y072190G85X011430Y072590
X019050Y072190G85X019050Y072590
X011430Y069650G85X011430Y070050
X019050Y069650G85X019050Y070050
X011430Y067110G85X011430Y067510
X019050Y067110G85X019050Y067510
X011430Y064570G85X011430Y064970
X019050Y064570G85X019050Y064970
X024130Y087430G85X024130Y087830
X031750Y087430G85X031750Y087830
X024130Y084890G85X024130Y085290
X031750Y084890G85X031750Y085290
X024130Y082350G85X024130Y082750
X031750Y082350G85X031750Y082750
X024130Y079810G85X024130Y080210
X031750Y079810G85X031750Y080210
X024130Y077270G85X024130Y077670
X031750Y077270G85X031750Y077670
X024130Y074730G85X024130Y075130
X031750Y074730G85X031750Y075130
X024130Y072190G85X024130Y072590
X031750Y072190G85X031750Y072590
X024130Y069650G85X024130Y070050
X031750Y069650G85X031750Y070050
X024130Y067110G85X024130Y067510
X031750Y067110G85X031750Y067510
X024130Y064570G85X024130Y064970
X031750Y064570G85X031750Y064970
X049530Y079810G85X049530Y080210
X049530Y077270G85X049530Y077670
X049530Y074730G85X049530Y075130
X049530Y072190G85X049530Y072590
X049530Y069650G85X049530Y070050
X049530Y067110G85X049530Y067510
X049530Y064570G85X049530Y064970
X057150Y079810G85X057150Y080210
X057150Y077270G85X057150Y077670
X057150Y074730G85X057150Y075130
X057150Y072190G85X057150Y072590
X057150Y069650G85X057150Y070050
X057150Y067110G85X057150Y067510
X057150Y064570G85X057150Y064970
X062230Y079810G85X062230Y080210
X062230Y077270G85X062230Y077670
X062230Y074730G85X062230Y075130
X062230Y072190G85X062230Y072590
X062230Y069650G85X062230Y070050
X062230Y067110G85X062230Y067510
X062230Y064570G85X062230Y064970
X069850Y079810G85X069850Y080210
X069850Y077270G85X069850Y077670
X069850Y074730G85X069850Y075130
X069850Y072190G85X069850Y072590
X069850Y069650G85X069850Y070050
X069850Y067110G85X069850Y067510
X069850Y064570G85X069850Y064970
X074930Y079810G85X074930Y080210
X074930Y077270G85X074930Y077670
X074930Y074730G85X074930Y075130
X074930Y072190G85X074930Y072590
X074930Y069650G85X074930Y070050
X074930Y067110G85X074930Y067510
X074930Y064570G85X074930Y064970
X082550Y079810G85X082550Y080210
X082550Y077270G85X082550Y077670
X082550Y074730G85X082550Y075130
X082550Y072190G85X082550Y072590
X082550Y069650G85X082550Y070050
X082550Y067110G85X082550Y067510
X082550Y064570G85X082550Y064970
X011430Y044250G85X011430Y044650
X019050Y044250G85X019050Y044650
X011430Y041710G85X011430Y042110
X019050Y041710G85X019050Y042110
X011430Y039170G85X011430Y039570
X019050Y039170G85X019050Y039570
X011430Y036630G85X011430Y037030
X019050Y036630G85X019050Y037030
X011430Y034090G85X011430Y034490
X019050Y034090G85X019050Y034490
X011430Y031550G85X011430Y031950
X019050Y031550G85X019050Y031950
X011430Y029010G85X011430Y029410
X019050Y029010G85X019050Y029410
X011430Y026470G85X011430Y026870
X019050Y026470G85X019050Y026870
X011430Y023930G85X011430Y024330
X019050Y023930G85X019050Y024330
X011430Y021390G85X011430Y021790
X019050Y021390G85X019050Y021790
X062230Y044250G85X062230Y044650
X069850Y044250G85X069850Y044650
X062230Y041710G85X062230Y042110
X069850Y041710G85X069850Y042110
X062230Y039170G85X062230Y039570
X069850Y039170G85X069850Y039570
X062230Y036630G85X062230Y037030
X069850Y036630G85X069850Y037030
X062230Y034090G85X062230Y034490
X069850Y034090G85X069850Y034490
X062230Y031550G85X062230Y031950
X069850Y031550G85X069850Y031950
X062230Y029010G85X062230Y029410
X069850Y029010G85X069850Y029410
X062230Y026470G85X062230Y026870
X069850Y026470G85X069850Y026870
X062230Y023930G85X062230Y024330
X069850Y023930G85X069850Y024330
X062230Y021390G85X062230Y021790
X069850Y021390G85X069850Y021790
X074930Y044250G85X074930Y044650
X082550Y044250G85X082550Y044650
X074930Y041710G85X074930Y042110
X082550Y041710G85X082550Y042110
X074930Y039170G85X074930Y039570
X082550Y039170G85X082550Y039570
X074930Y036630G85X074930Y037030
X082550Y036630G85X082550Y037030
X074930Y034090G85X074930Y034490
X082550Y034090G85X082550Y034490
X074930Y031550G85X074930Y031950
X082550Y031550G85X082550Y031950
X074930Y029010G85X074930Y029410
X082550Y029010G85X082550Y029410
X074930Y026470G85X074930Y026870
X082550Y026470G85X082550Y026870
X074930Y023930G85X074930Y024330
X082550Y023930G85X082550Y024330
X074930Y021390G85X074930Y021790
X082550Y021390G85X082550Y021790
X057150Y026870G85X057150Y026470
X057150Y029410G85X057150Y029010
X057150Y031950G85X057150Y031550
X057150Y034490G85X057150Y034090
X057150Y037030G85X057150Y036630
X057150Y039570G85X057150Y039170
X057150Y024330G85X057150Y023930
X057150Y021790G85X057150Y021390
X054610Y039170G85X054610Y039570
X054610Y036630G85X054610Y037030
X054610Y034090G85X054610Y034490
X054610Y031550G85X054610Y031950
X046990Y031550G85X046990Y031950
X046990Y034090G85X046990Y034490
X046990Y036630G85X046990Y037030
X046990Y039170G85X046990Y039570
X046990Y029010G85X046990Y029410
X046990Y026470G85X046990Y026870
X046990Y023930G85X046990Y024330
X054610Y023930G85X054610Y024330
X054610Y026470G85X054610Y026870
X054610Y029010G85X054610Y029410
X054610Y021390G85X054610Y021790
X046990Y021390G85X046990Y021790
X003810Y039170G85X003810Y039570
X003810Y036630G85X003810Y037030
X003810Y034090G85X003810Y034490
X003810Y031550G85X003810Y031950
X-003810Y031550G85X-003810Y031950
X-003810Y034090G85X-003810Y034490
X-003810Y036630G85X-003810Y037030
X-003810Y039170G85X-003810Y039570
X-003810Y029010G85X-003810Y029410
X-003810Y026470G85X-003810Y026870
X-003810Y023930G85X-003810Y024330
X003810Y023930G85X003810Y024330
X003810Y026470G85X003810Y026870
X003810Y029010G85X003810Y029410
X003810Y021390G85X003810Y021790
X-003810Y021390G85X-003810Y021790
X006350Y026870G85X006350Y026470
X006350Y029410G85X006350Y029010
X006350Y031950G85X006350Y031550
X006350Y034490G85X006350Y034090
X006350Y037030G85X006350Y036630
X006350Y039570G85X006350Y039170
X006350Y024330G85X006350Y023930
X006350Y021790G85X006350Y021390
X087630Y036630G85X087630Y037030
X087630Y034090G85X087630Y034490
X087630Y031550G85X087630Y031950
X087630Y029010G85X087630Y029410
X087630Y026470G85X087630Y026870
X087630Y023930G85X087630Y024330
X087630Y021390G85X087630Y021790
X095250Y036630G85X095250Y037030
X095250Y034090G85X095250Y034490
X095250Y031550G85X095250Y031950
X095250Y029010G85X095250Y029410
X095250Y026470G85X095250Y026870
X095250Y023930G85X095250Y024330
X095250Y021390G85X095250Y021790
X095250Y082350G85X095250Y082750
X095250Y079810G85X095250Y080210
X095250Y077270G85X095250Y077670
X095250Y074730G85X095250Y075130
X095250Y072190G85X095250Y072590
X095250Y069650G85X095250Y070050
X095250Y067110G85X095250Y067510
X095250Y064570G85X095250Y064970
X087630Y064570G85X087630Y064970
X087630Y067110G85X087630Y067510
X087630Y069650G85X087630Y070050
X087630Y072190G85X087630Y072590
X087630Y074730G85X087630Y075130
X087630Y077270G85X087630Y077670
X087630Y079810G85X087630Y080210
X087630Y082350G85X087630Y082750
T03
X049530Y052070
X049530Y046990
X052070Y052070
X057150Y046990
X054610Y046990
X052070Y046990
X054610Y052070
X057150Y052070
X090805Y093980
X085725Y093980
X090805Y091440
X085725Y091440
T04
X029210Y092710
X031750Y092710
X041910Y092710
X044450Y092710
X054610Y085090
X057150Y085090
X067310Y085090
X069850Y085090
X080010Y085090
X082550Y085090
X092710Y087630
X095250Y087630
X016510Y049530
X019050Y049530
X044450Y052070
X044450Y054610
X067310Y049530
X069850Y049530
X080010Y049530
X082550Y049530
X092710Y041910
X095250Y041910
X016510Y092710
X019050Y092710
X-001270Y012573
X-001270Y010573
X082550Y010573
X082550Y012573
X013970Y092710
X026670Y092710
X039370Y092710
X052070Y085090
X064770Y085090
X077470Y085090
X090170Y087630
X077470Y049530
X064770Y049530
X013970Y049530
X044450Y049530
X090170Y041910
X089563Y052070
X090805Y098933
X090805Y096393
T05
X016510Y016002
X019050Y016002
X021590Y016002
X024130Y016002
X026670Y016002
X026670Y013462
X024130Y013462
X021590Y013462
X019050Y013462
X016510Y013462
X049784Y092710
X049784Y095250
X049784Y097790
X047244Y092710
X047244Y095250
X047244Y097790
X064770Y092710
X067310Y092710
X019050Y054610
X019050Y057150
T06
X-002794Y099060
X-000254Y099060
X-002794Y096520
X-000254Y096520
X-002794Y093980
X-000254Y093980
X-002794Y091440
X-000254Y091440
X-002794Y088900
X-000254Y088900
X-002794Y086360
X-000254Y086360
X-002794Y083820
X-000254Y083820
X-002794Y081280
X-000254Y081280
X-002794Y078740
X-000254Y078740
X-002794Y076200
X-000254Y076200
X-002794Y073660
X-000254Y073660
X-002794Y071120
X-000254Y071120
X-002794Y068580
X-000254Y068580
X-002794Y066040
X-000254Y066040
X-002794Y063500
X-000254Y063500
X-002794Y060960
X-000254Y060960
X-002794Y058420
X-000254Y058420
X-002794Y055880
X-000254Y055880
X-002794Y053340
X-000254Y053340
X-002794Y050800
X-000258Y050800
M30
