G04 Layer: TopLayer*
G04 EasyEDA v6.5.54, 2026-05-14 16:30:12*
G04 fa4692dd088d48a7bfa3324e0a8a9796,3d3f09d9cea3496b8cca675c4301f38a,10*
G04 Gerber Generator version 0.2*
G04 Scale: 100 percent, Rotated: No, Reflected: No *
G04 Dimensions in millimeters *
G04 leading zeros omitted , absolute positions ,4 integer and 5 decimal *
%FSLAX45Y45*%
%MOMM*%

%ADD10C,1.5240*%
%ADD11C,0.2540*%
%ADD12C,0.5080*%
%ADD13O,1.524X5.499989*%
%ADD14R,1.5240X5.0000*%
%ADD15O,0.499999X0.899998*%
%ADD16C,0.8000*%
%ADD17C,0.0147*%
%ADD18C,1.0000*%
%ADD19C,0.9000*%
%ADD20C,0.6000*%
%ADD21C,0.6200*%

%LPD*%
D10*
X4572000Y5461000D02*
G01*
X4445000Y5461000D01*
D11*
X-25400Y9906000D02*
G01*
X63500Y9817100D01*
X63500Y9626600D01*
X495300Y9194800D01*
X3289300Y9194800D01*
X8915400Y7569200D02*
G01*
X8877300Y7569200D01*
X7493000Y8001000D02*
G01*
X7493000Y7924800D01*
X7493000Y8001000D02*
G01*
X7493000Y7968119D01*
X7449680Y7924800D01*
X7493000Y8001000D02*
G01*
X7493000Y7967959D01*
X7536159Y7924800D01*
X7569200Y7924800D02*
G01*
X7416800Y7924800D01*
X7447462Y8024723D02*
G01*
X7447462Y8021106D01*
X7467584Y8000984D01*
X7467584Y7988284D01*
X7473934Y7981934D01*
X7493000Y8001000D02*
G01*
X7416800Y8077200D01*
X5156200Y8077200D01*
X7447462Y8024723D02*
G01*
X7447462Y7977261D01*
X6832600Y7924800D02*
G01*
X7416800Y7924800D01*
X7493000Y8001000D01*
X8877300Y2552700D02*
G01*
X8877300Y3416300D01*
X8763000Y3530600D01*
X8763000Y3683000D01*
X9525000Y2413000D02*
G01*
X9017000Y2413000D01*
D12*
X-25400Y8636000D02*
G01*
X-25400Y8559800D01*
X-393700Y7366000D02*
G01*
X-279400Y7366000D01*
X-508000Y4940300D02*
G01*
X-508000Y7251700D01*
D11*
X7239000Y2120900D02*
G01*
X7239000Y3149600D01*
X7048500Y3340100D01*
X7048500Y3797300D01*
X6985000Y3860800D01*
X6985000Y3937000D01*
X7175474Y2120887D02*
G01*
X7175474Y2324100D01*
X7112000Y2120900D02*
G01*
X7112000Y3213100D01*
X6985000Y3340100D01*
X6985000Y3429000D01*
X7048500Y2120900D02*
G01*
X7048500Y2260600D01*
X6413500Y2247900D02*
G01*
X6413500Y3136900D01*
X6223000Y3327400D01*
X6223000Y3429000D01*
X6464300Y2235200D02*
G01*
X6464300Y3543300D01*
X6223000Y3784600D01*
X6223000Y3937000D01*
X6515100Y2222500D02*
G01*
X6515100Y2832100D01*
X5334000Y381000D02*
G01*
X5334000Y1549400D01*
X2082800Y8636000D02*
G01*
X2578100Y8636000D01*
X2603500Y8610600D01*
X3289300Y6299200D02*
G01*
X8128000Y6299200D01*
X3175000Y6477000D02*
G01*
X3175000Y6413500D01*
X3276600Y6248400D02*
G01*
X8140700Y6248400D01*
X2984500Y8318500D02*
G01*
X2984500Y6540500D01*
X3263887Y6197600D02*
G01*
X8166100Y6197600D01*
X2921000Y6730974D02*
G01*
X2921000Y6540487D01*
X3251187Y6146800D02*
G01*
X8153400Y6146800D01*
X2857500Y6984974D02*
G01*
X2857500Y6540487D01*
X3238487Y6096000D02*
G01*
X8140700Y6096000D01*
X2794000Y7238974D02*
G01*
X2794000Y6540487D01*
X3225800Y6045200D02*
G01*
X8128000Y6045200D01*
X3213100Y5994400D02*
G01*
X8115300Y5994400D01*
X3200400Y5943600D02*
G01*
X8102600Y5943600D01*
X3187700Y5892800D02*
G01*
X8089900Y5892800D01*
X3175000Y5842000D02*
G01*
X8077200Y5842000D01*
X5715000Y6731000D02*
G01*
X5715000Y6794500D01*
X6604000Y2921000D02*
G01*
X6985000Y2921000D01*
X5715000Y2159000D02*
G01*
X6019800Y2159000D01*
X8699500Y5664200D02*
G01*
X8699500Y2755900D01*
X8255000Y2311400D01*
X8255000Y2159000D01*
X8343900Y5575300D02*
G01*
X8343900Y4140200D01*
X8255000Y4051300D01*
X8255000Y3937000D01*
X6223000Y2362200D02*
G01*
X6223000Y2413000D01*
X3365500Y2730500D02*
G01*
X3365500Y4445000D01*
X2413000Y5397500D01*
X2413000Y5461000D01*
X3937000Y3175000D02*
G01*
X3937000Y3238500D01*
X6096000Y3530600D02*
G01*
X6096000Y3975100D01*
X6223000Y4102100D01*
X6223000Y4191000D01*
D12*
X6985000Y3175000D02*
G01*
X6985000Y3251200D01*
X6908800Y3327400D01*
X6908800Y3530600D01*
X6985000Y3606800D01*
X6985000Y3683000D01*
D11*
X2476500Y2120900D02*
G01*
X2476500Y2959100D01*
X2413000Y3022600D01*
X2413000Y3175000D01*
X2578100Y2095500D02*
G01*
X2578100Y3416300D01*
X2413000Y3581400D01*
X2413000Y3683000D01*
X2527300Y2108200D02*
G01*
X2527300Y3213100D01*
X2413000Y3327400D01*
X2413000Y3429000D01*
X2628900Y2082800D02*
G01*
X2628900Y3619500D01*
X2413000Y3835400D01*
X2413000Y3937000D01*
X2679700Y2070100D02*
G01*
X2679700Y3822700D01*
X2413000Y4089400D01*
X2413000Y4191000D01*
X2730500Y2057400D02*
G01*
X2730500Y3975100D01*
X2413000Y4292600D01*
X2413000Y4445000D01*
X2781300Y2044700D02*
G01*
X2781300Y4178300D01*
X2413000Y4546600D01*
X2413000Y4699000D01*
X2832100Y2032000D02*
G01*
X2832100Y4381500D01*
X2413000Y4800600D01*
X2413000Y4953000D01*
X2159000Y1727200D02*
G01*
X2527300Y1727200D01*
X2032000Y508000D02*
G01*
X2032000Y1600200D01*
X4381500Y6426200D02*
G01*
X4381500Y6515100D01*
X4508500Y6642100D01*
X4508500Y7277100D01*
X4445000Y7340600D01*
X4445000Y7493000D01*
X8115300Y6350000D02*
G01*
X4457700Y6350000D01*
X4470400Y6400800D02*
G01*
X7366000Y6400800D01*
X4445000Y6477000D02*
G01*
X4445000Y6426200D01*
X7429500Y6464300D02*
G01*
X7429500Y7035800D01*
X7493000Y7099300D01*
X7493000Y7239000D01*
X8877300Y7493000D02*
G01*
X8763000Y7493000D01*
X7874000Y7696200D02*
G01*
X7874000Y7620000D01*
X7493000Y8001000D02*
G01*
X7569200Y7924800D01*
X7645400Y7924800D01*
X8102600Y7391400D02*
G01*
X8559800Y7391400D01*
X8763000Y7594600D01*
X8763000Y7747000D01*
X6604000Y7467600D02*
G01*
X6604000Y7696200D01*
X6489700Y6985000D02*
G01*
X6223000Y6985000D01*
X6604000Y7226300D02*
G01*
X6604000Y7099300D01*
X6223000Y7239000D02*
G01*
X6375400Y7239000D01*
X8763000Y7493000D02*
G01*
X8724900Y7493000D01*
X8572500Y7340600D01*
X6718300Y7340600D01*
X4445000Y8001000D02*
G01*
X4445000Y7962900D01*
X4584700Y7823200D01*
X6045200Y7823200D01*
X6223000Y7645400D01*
X6223000Y7493000D01*
X4597400Y6985000D02*
G01*
X4597400Y7747000D01*
X4381500Y7962900D01*
X4381500Y8039100D01*
X4445000Y8102600D01*
X4445000Y8255000D01*
X6223000Y6985000D02*
G01*
X6223000Y7137400D01*
X6159500Y7200900D01*
X6159500Y7302500D01*
X6286500Y7429500D01*
X6286500Y7785100D01*
X6223000Y7848600D01*
X6223000Y8001000D01*
X9093200Y7391400D02*
G01*
X9093200Y7772400D01*
X8763000Y8102600D01*
X8763000Y8255000D01*
X8255000Y6985000D02*
G01*
X8763000Y6985000D01*
X8763000Y7239000D02*
G01*
X8407400Y7239000D01*
X8191500Y7023100D01*
X8191500Y6426200D01*
X4953000Y7747000D02*
G01*
X4953000Y7493000D01*
X4445000Y6731000D02*
G01*
X4445000Y6832600D01*
X4648200Y9817100D02*
G01*
X4648200Y9347200D01*
X4724400Y9271000D01*
X4978400Y9779000D02*
G01*
X4902200Y9855200D01*
X4686300Y9855200D01*
X4978400Y9270972D02*
G01*
X4851389Y9397982D01*
X4851389Y9651982D01*
X4724400Y9778972D01*
X8255000Y6426200D02*
G01*
X8255000Y6477000D01*
X8318500Y6858000D02*
G01*
X8318500Y6426200D01*
X8394700Y5588000D02*
G01*
X8394700Y3975100D01*
X8255000Y3835400D01*
X8255000Y3683000D01*
X8445500Y5600700D02*
G01*
X8445500Y3771900D01*
X8255000Y3581400D01*
X8255000Y3429000D01*
X8496300Y5613400D02*
G01*
X8496300Y3568700D01*
X8255000Y3327400D01*
X8255000Y3175000D01*
X8547100Y5626100D02*
G01*
X8547100Y3365500D01*
X8255000Y3073400D01*
X8255000Y2921000D01*
X8597900Y5638800D02*
G01*
X8597900Y3149600D01*
X8255000Y2806700D01*
X8255000Y2667000D01*
X8648700Y5651500D02*
G01*
X8648700Y2959100D01*
X8255000Y2565400D01*
X8255000Y2413000D01*
D12*
X5575269Y10083800D02*
G01*
X5406768Y10083800D01*
X5854710Y10083800D02*
G01*
X5921453Y10083800D01*
D11*
X635000Y3429000D02*
G01*
X1143000Y3429000D01*
X6223000Y2667000D02*
G01*
X5715000Y2667000D01*
D10*
X7620000Y508000D02*
G01*
X7620000Y757996D01*
X7366000Y508000D02*
G01*
X7366000Y757996D01*
X7112000Y508000D02*
G01*
X7112000Y757996D01*
X6858000Y508000D02*
G01*
X6858000Y757996D01*
X6604000Y508000D02*
G01*
X6604000Y757996D01*
X6350000Y508000D02*
G01*
X6350000Y757996D01*
X6096000Y508000D02*
G01*
X6096000Y757996D01*
X5842000Y508000D02*
G01*
X5842000Y757996D01*
X5334000Y508000D02*
G01*
X5334000Y757996D01*
X5080000Y508000D02*
G01*
X5080000Y757996D01*
X4826000Y508000D02*
G01*
X4826000Y757996D01*
X4572000Y508000D02*
G01*
X4572000Y757996D01*
X4318000Y508000D02*
G01*
X4318000Y757996D01*
X4064000Y508000D02*
G01*
X4064000Y757996D01*
X3810000Y508000D02*
G01*
X3810000Y757996D01*
X3556000Y508000D02*
G01*
X3556000Y757996D01*
X3302000Y508000D02*
G01*
X3302000Y757996D01*
X3048000Y508000D02*
G01*
X3048000Y757996D01*
X2794000Y508000D02*
G01*
X2794000Y757996D01*
X2540000Y508000D02*
G01*
X2540000Y757996D01*
X2286000Y508000D02*
G01*
X2286000Y757996D01*
X2032000Y508000D02*
G01*
X2032000Y757996D01*
X1778000Y508000D02*
G01*
X1778000Y757996D01*
X1524000Y508000D02*
G01*
X1524000Y757996D01*
X1270000Y508000D02*
G01*
X1270000Y757996D01*
X1016000Y508000D02*
G01*
X1016000Y757996D01*
X762000Y508000D02*
G01*
X762000Y757996D01*
X508000Y508000D02*
G01*
X508000Y757996D01*
X254000Y508000D02*
G01*
X254000Y757996D01*
D11*
X3238500Y3937000D02*
G01*
X3238500Y1422400D01*
D10*
X8255000Y1257300D02*
G01*
X9652000Y1257300D01*
D11*
X8064500Y1574800D02*
G01*
X8064500Y1778000D01*
X8597900Y2311400D01*
X9550400Y2311400D01*
X9588500Y2349500D01*
X9588500Y2451100D01*
X9525000Y2514600D01*
X9525000Y2667000D01*
X8763000Y3429000D02*
G01*
X8763000Y3276600D01*
X8826500Y3213100D01*
X8826500Y2603500D01*
X8293100Y2070100D01*
X8064500Y2070100D01*
X5715000Y7747000D02*
G01*
X5715000Y7594600D01*
X5651500Y7531100D01*
X5651500Y6692900D01*
X5715000Y6629400D01*
X5715000Y6477000D01*
X5778500Y6858000D02*
G01*
X6756400Y6858000D01*
X6985000Y7086600D01*
X6985000Y7239000D01*
X2501900Y1828800D02*
G01*
X1752600Y1828800D01*
X1524000Y1600200D02*
G01*
X1524000Y508000D01*
X2514600Y1778000D02*
G01*
X1955800Y1778000D01*
X1778000Y1600200D02*
G01*
X1778000Y508000D01*
X2489200Y1879600D02*
G01*
X1524000Y1879600D01*
X1270000Y1625600D02*
G01*
X1270000Y508000D01*
X2476500Y1930400D02*
G01*
X1511300Y1930400D01*
X1016000Y1435100D02*
G01*
X1016000Y508000D01*
X2463800Y1981200D02*
G01*
X1498600Y1981200D01*
X762000Y1244600D02*
G01*
X762000Y508000D01*
X2451100Y2032000D02*
G01*
X1485900Y2032000D01*
X508000Y1054100D02*
G01*
X508000Y508000D01*
X254000Y508000D02*
G01*
X254000Y863600D01*
X1473200Y2082800D02*
G01*
X2438400Y2082800D01*
X5842000Y508000D02*
G01*
X5842000Y850900D01*
X6553200Y1562100D02*
G01*
X7480300Y1562100D01*
X6096000Y508000D02*
G01*
X6096000Y850900D01*
X6350000Y508000D02*
G01*
X6350000Y863600D01*
X6604000Y508000D02*
G01*
X6604000Y863600D01*
X6858000Y508000D02*
G01*
X6858000Y850900D01*
X7112000Y508000D02*
G01*
X7112000Y850900D01*
X7493000Y4191000D02*
G01*
X7493000Y4038600D01*
X7556500Y3975100D01*
X7556500Y1638300D01*
X6743700Y1498600D02*
G01*
X7543800Y1498600D01*
X7620000Y1574800D02*
G01*
X7620000Y3937000D01*
X7683500Y1511300D02*
G01*
X7683500Y3683000D01*
X6921500Y1435100D02*
G01*
X7607300Y1435100D01*
X7747000Y1130300D02*
G01*
X7747000Y1155700D01*
X8128000Y1536700D01*
X8128000Y1778000D01*
X8610600Y2260600D01*
X8877300Y2260600D01*
X8890000Y2247900D01*
X7620000Y508000D02*
G01*
X7620000Y1092200D01*
X8001000Y1473200D01*
X8001000Y2413000D01*
X7366000Y381000D02*
G01*
X7366000Y901700D01*
X7937500Y1473200D01*
X7937500Y2667000D01*
X7505700Y1244600D02*
G01*
X7645400Y1244600D01*
X7874000Y1473200D01*
X7874000Y2921000D01*
X7315200Y1308100D02*
G01*
X7645400Y1308100D01*
X7810500Y1473200D01*
X7810500Y3175000D01*
X7112000Y1371600D02*
G01*
X7645400Y1371600D01*
X7747000Y1473200D01*
X7747000Y3429000D01*
X5816600Y1308100D02*
G01*
X5638800Y1308100D01*
X2540000Y508000D02*
G01*
X2540000Y1358900D01*
X2984500Y1803400D01*
X2984500Y4635500D01*
X2794000Y4826000D01*
X2755900Y4826000D01*
X2794000Y508000D02*
G01*
X2794000Y1549400D01*
X3048000Y1803400D01*
X3048000Y3683000D01*
X2286000Y508000D02*
G01*
X2286000Y1358900D01*
X2616200Y1689100D01*
X2743200Y1689100D01*
X2882900Y1828800D01*
X2882900Y4610100D01*
X2794000Y4699000D01*
X2755900Y4699000D01*
X3048000Y508000D02*
G01*
X3048000Y1739900D01*
X3111500Y1803400D01*
X3111500Y4191000D01*
X3302000Y381000D02*
G01*
X3302000Y1270000D01*
X3175000Y1397000D01*
X3175000Y4508500D01*
X2476500Y5207000D01*
X2413000Y5207000D01*
X4419600Y8331200D02*
G01*
X4940300Y8331200D01*
X2413000Y3175000D02*
G01*
X2413000Y3263900D01*
X2032000Y3644900D01*
X2032000Y8585200D01*
X2413000Y3429000D02*
G01*
X2413000Y3517900D01*
X2095500Y3835400D01*
X2095500Y6896100D01*
X2413000Y3683000D02*
G01*
X2413000Y3771900D01*
X2159000Y4025900D01*
X2159000Y7835874D01*
X1905000Y4191000D02*
G01*
X1905000Y4343400D01*
X1981200Y4419587D01*
X1981200Y6565874D01*
X1968500Y6578574D01*
X1143000Y4445000D02*
G01*
X1143000Y4292600D01*
X1371600Y4064000D01*
X1905000Y4064000D01*
X1981200Y3987800D02*
G01*
X1981200Y3454400D01*
X2349500Y3086100D01*
X2349500Y3022600D01*
X2413000Y8509000D02*
G01*
X2413000Y8356600D01*
X2476500Y8293100D01*
X2476500Y6540500D01*
X2540000Y6540500D02*
G01*
X2540000Y7213600D01*
X2539994Y8254982D01*
X2603500Y6540500D02*
G01*
X2603500Y8000984D01*
X2667000Y6540500D02*
G01*
X2667000Y7746984D01*
X2730500Y6540500D02*
G01*
X2730500Y7492984D01*
X3302000Y1358900D02*
G01*
X3302000Y4445000D01*
X2349500Y5397500D01*
X2349500Y7594574D01*
X4445000Y7493000D02*
G01*
X4445000Y7645400D01*
X4330700Y7759700D01*
X4330700Y8242300D01*
X3314700Y7277100D02*
G01*
X3314700Y6985000D01*
X3441700Y6858000D02*
G01*
X4419600Y6858000D01*
X3835400Y8077200D02*
G01*
X4267200Y8077200D01*
X3263900Y8775700D02*
G01*
X3263900Y7556500D01*
X3683000Y7137400D01*
X3683000Y6985000D01*
X3314700Y8788400D02*
G01*
X3314700Y7759700D01*
X3683000Y7391400D01*
X3683000Y7239000D01*
X-25400Y9144000D02*
G01*
X228600Y9144000D01*
X431800Y8940800D01*
X3225800Y8940800D01*
X3365500Y8801100D02*
G01*
X3365500Y7962900D01*
X3683000Y7645400D01*
X3683000Y7493000D01*
X-25400Y9398000D02*
G01*
X38100Y9398000D01*
X444500Y8991600D01*
X3238500Y8991600D01*
X3416300Y8813800D02*
G01*
X3416300Y8166100D01*
X3683000Y7899400D01*
X3683000Y7747000D01*
X-279400Y9398000D02*
G01*
X-177800Y9499600D01*
X0Y9499600D01*
X457200Y9042400D01*
X3251200Y9042400D01*
X3467100Y8826500D02*
G01*
X3467100Y8369300D01*
X3683000Y8153400D01*
X3683000Y8001000D01*
X3683000Y8255000D02*
G01*
X3683000Y8394700D01*
X3517900Y8559800D01*
X3517900Y8839200D01*
X3263900Y9093200D02*
G01*
X469900Y9093200D01*
X12700Y9550400D01*
X-177800Y9550400D01*
X-279400Y9652000D01*
X-25400Y9652000D02*
G01*
X482600Y9144000D01*
X3276600Y9144000D01*
X3568700Y8851900D02*
G01*
X3568700Y8712200D01*
X3683000Y8597900D01*
X3683000Y8509000D01*
X3619500Y8864600D02*
G01*
X3619500Y8724900D01*
X3746500Y8597900D01*
X3746500Y8166100D01*
X1143000Y8763000D02*
G01*
X1143000Y8712200D01*
X1168400Y8686800D02*
G01*
X2616200Y8686800D01*
X8966200Y2501900D02*
G01*
X8928100Y2540000D01*
X8928100Y3619500D01*
X8750300Y3797300D01*
X8750300Y6362700D01*
X8928100Y6540500D01*
X8928100Y7442200D01*
X9093200Y2501900D02*
G01*
X8978900Y2616200D01*
X8978900Y3632200D01*
X8801100Y3810000D01*
X8801100Y6350000D01*
X8978900Y6527800D01*
X8978900Y7505700D01*
X9042400Y2667000D02*
G01*
X9042400Y2705100D01*
X9029700Y2717800D01*
X9029700Y3644900D01*
X8851900Y3822700D01*
X8851900Y6337300D01*
X9029700Y6515100D01*
X9029700Y7581900D01*
X8763000Y7848600D01*
X8763000Y8001000D01*
X5080000Y508000D02*
G01*
X5080000Y1549400D01*
X5295900Y1765300D01*
X6883400Y1765300D01*
X4698989Y2921000D02*
G01*
X4305300Y2921000D01*
X3924300Y2540000D01*
X3556000Y2540000D01*
X5460989Y3937000D02*
G01*
X5460989Y3835392D01*
X5715000Y3581382D01*
X5715000Y3429000D01*
X2413000Y3937000D02*
G01*
X2413000Y4025900D01*
X2222500Y4216405D01*
X2222500Y8369274D01*
X2222500Y8572474D01*
D10*
X-381000Y2666994D02*
G01*
X-381000Y3936994D01*
X-127000Y1257300D02*
G01*
X-127000Y2413000D01*
X-381000Y2667000D01*
X9728200Y5207000D02*
G01*
X8956293Y5207000D01*
D12*
X9525000Y4191025D02*
G01*
X9905979Y4191007D01*
X8255000Y4953000D02*
G01*
X8255000Y4445000D01*
D10*
X9652000Y10083800D02*
G01*
X-381000Y10083800D01*
D12*
X1905000Y9271000D02*
G01*
X1905000Y10083779D01*
X4445000Y9270974D02*
G01*
X4444992Y10083779D01*
X5715000Y8508974D02*
G01*
X5714989Y10083779D01*
X6985000Y8508974D02*
G01*
X6984989Y10083779D01*
X8254974Y8508974D02*
G01*
X8254964Y10083779D01*
X1905000Y5461000D02*
G01*
X1905000Y4953000D01*
D10*
X1854197Y5206989D02*
G01*
X1651000Y5207000D01*
X981202Y5207000D01*
X460502Y4686300D01*
X-381000Y4686300D01*
D11*
X571500Y3810000D02*
G01*
X444500Y3810000D01*
X381000Y3873500D02*
G01*
X381000Y3937000D01*
X381000Y3619500D02*
G01*
X381000Y3683000D01*
X635000Y3429000D02*
G01*
X635000Y3492500D01*
X571500Y3556000D02*
G01*
X444500Y3556000D01*
X381000Y3365500D02*
G01*
X381000Y3429000D01*
X635000Y3175000D02*
G01*
X635000Y3238500D01*
X571500Y3302000D02*
G01*
X444500Y3302000D01*
X381000Y3111500D02*
G01*
X381000Y3175000D01*
X635000Y2921000D02*
G01*
X635000Y2984500D01*
X571500Y3048000D02*
G01*
X444500Y3048000D01*
X381000Y2857500D02*
G01*
X381000Y2921000D01*
X635000Y2667000D02*
G01*
X635000Y2730500D01*
X571500Y2794000D02*
G01*
X444500Y2794000D01*
X381000Y2603500D02*
G01*
X381000Y2667000D01*
X635000Y2413000D02*
G01*
X635000Y2476500D01*
X571500Y2540000D02*
G01*
X444500Y2540000D01*
X635000Y2667000D02*
G01*
X635000Y2603500D01*
X698500Y2540000D02*
G01*
X1168400Y2540000D01*
X1905000Y3276600D01*
X1905000Y3429000D01*
X635000Y2413000D02*
G01*
X635000Y2349500D01*
X635000Y2921000D02*
G01*
X635000Y2857500D01*
X698500Y2794000D02*
G01*
X1358900Y2794000D01*
X1841500Y3276600D01*
X1841500Y3721100D01*
X1905000Y3784600D01*
X1905000Y3937000D01*
X698500Y2286000D02*
G01*
X1422400Y2286000D01*
X1905000Y2768600D01*
X1905000Y2921000D01*
X1143000Y2921000D02*
G01*
X1143000Y2984500D01*
X1079500Y3048000D02*
G01*
X698500Y3048000D01*
X635000Y3111500D02*
G01*
X635000Y3175000D01*
X1143000Y3937000D02*
G01*
X1143000Y3873500D01*
X698500Y3810000D02*
G01*
X571500Y3810000D01*
X635000Y3683000D02*
G01*
X635000Y3746500D01*
X1079500Y3810000D02*
G01*
X698500Y3810000D01*
X635000Y3746500D02*
G01*
X635000Y3809992D01*
X4699000Y2667000D02*
G01*
X4699000Y2514600D01*
X4762500Y2451100D01*
X4762500Y2057400D01*
X3556000Y850900D01*
X3556000Y381000D01*
X3810000Y381000D02*
G01*
X3810000Y1041400D01*
X4826000Y2057400D01*
X4826000Y2641600D01*
X4699000Y2768600D01*
X4699000Y2921000D01*
X4064000Y508000D02*
G01*
X4064000Y1231900D01*
X4902200Y2070100D01*
X6235700Y2070100D01*
X4572000Y508000D02*
G01*
X4572000Y1612900D01*
X4927600Y1968500D01*
X6261100Y1968500D01*
X4699000Y1270000D02*
G01*
X4699000Y1676400D01*
X4940300Y1917700D01*
X6845300Y1917700D01*
X4826000Y508000D02*
G01*
X4826000Y1739900D01*
X4953000Y1866900D01*
X6858000Y1866900D01*
X4318000Y508000D02*
G01*
X4318000Y1422400D01*
X4914900Y2019300D01*
X6248400Y2019300D01*
X4953000Y1422400D02*
G01*
X4953000Y1485900D01*
X5283200Y1816100D01*
X6870700Y1816100D01*
X4038600Y1485900D02*
G01*
X4127487Y1485900D01*
X4698987Y2057400D01*
X4698987Y2159000D01*
X4089400Y1549400D02*
G01*
X4127487Y1549400D01*
X4635487Y2057400D01*
X4635487Y2197094D01*
X4698987Y2260594D01*
X4698987Y2413000D01*
D10*
X-635000Y9829800D02*
G01*
X-635000Y4191000D01*
X-381000Y3937000D01*
D12*
X-76200Y8509000D02*
G01*
X-635000Y8509000D01*
X-537857Y8551941D02*
G01*
X-541291Y8548507D01*
X-541291Y8462589D01*
D10*
X9906000Y1511300D02*
G01*
X9906000Y9829800D01*
D12*
X9525000Y8763000D02*
G01*
X9905979Y8762982D01*
D10*
X5715000Y5207000D02*
G01*
X4826000Y5207000D01*
X4699000Y5080000D02*
G01*
X4699000Y3683000D01*
D12*
X6985000Y3683000D02*
G01*
X6985000Y3759200D01*
X6908800Y3835400D01*
X6908800Y3987800D01*
X7061200Y4140200D01*
X7061200Y4483100D01*
X6985000Y4559300D01*
X6985000Y4953000D01*
D10*
X4699000Y5080000D02*
G01*
X4698989Y5333989D01*
D11*
X3937000Y2667000D02*
G01*
X3937000Y2819400D01*
X4140200Y3022600D01*
X6324600Y3022600D01*
X6350000Y2997200D01*
X3937000Y3365500D02*
G01*
X3937000Y3429000D01*
X3975100Y3276600D02*
G01*
X6184900Y3276600D01*
X6350000Y3098800D02*
G01*
X6324600Y3073400D01*
X3975100Y3073400D01*
X3937000Y3035300D02*
G01*
X3937000Y2921000D01*
X5715000Y3429000D02*
G01*
X5994400Y3429000D01*
X6985000Y4191000D02*
G01*
X6985000Y4140200D01*
X6870700Y4025900D01*
X6210300Y4025900D01*
X6146800Y3962400D01*
X6146800Y3530600D01*
X5943600Y3327400D02*
G01*
X3975100Y3327400D01*
X5461000Y2921000D02*
G01*
X5461000Y2768600D01*
X5715000Y2514600D01*
X5715000Y2413000D01*
X5461000Y2667000D02*
G01*
X5461000Y2514600D01*
X5715000Y2260600D01*
X5715000Y2159000D01*
X6223000Y4445000D02*
G01*
X5460979Y4445000D01*
X5206989Y4698989D01*
D12*
X1905000Y5715000D02*
G01*
X1524000Y5334000D01*
X927100Y5334000D01*
X406400Y4813300D01*
X-381000Y4813300D01*
X9080500Y9893300D02*
G01*
X9080500Y9994900D01*
D11*
X8255000Y7493000D02*
G01*
X8597900Y7493000D01*
X8699500Y7594600D01*
X8699500Y8763000D01*
X9080500Y9144000D01*
X8255000Y7747000D02*
G01*
X8559800Y7747000D01*
X8648700Y7835900D01*
X8648700Y9321800D01*
X8572500Y9398000D01*
D12*
X3175000Y9270974D02*
G01*
X3175000Y10083779D01*
D11*
X5029200Y8420100D02*
G01*
X5029200Y9105900D01*
X4724400Y9410700D01*
X4724400Y9525000D01*
X5080000Y8153400D02*
G01*
X5080000Y9283700D01*
X4978400Y9385300D01*
X4978400Y9525000D01*
X2286000Y8445474D02*
G01*
X2286000Y5207000D01*
X2730500Y4762500D01*
X2794000Y4762500D01*
X2933700Y4622800D01*
X2933700Y1816100D01*
X2717800Y1600200D01*
X2667000Y1600200D01*
X-25654Y5080000D02*
G01*
X584205Y5080000D01*
X901700Y5397487D01*
X1498600Y5397487D01*
X1752600Y5651487D01*
X1752600Y6476974D01*
X317500Y7683500D02*
G01*
X317500Y7569174D01*
X368300Y7607300D02*
G01*
X368300Y7493000D01*
X419100Y7531100D02*
G01*
X419100Y7416774D01*
X469900Y7454900D02*
G01*
X469900Y7340600D01*
X520700Y7378700D02*
G01*
X520700Y7264374D01*
X571500Y7302500D02*
G01*
X571500Y7188200D01*
X622300Y7226300D02*
G01*
X622300Y7111974D01*
X673100Y7150100D02*
G01*
X673100Y7035800D01*
X723900Y7073900D02*
G01*
X723900Y6959574D01*
X774700Y6997700D02*
G01*
X774700Y6883400D01*
X825500Y6921500D02*
G01*
X825500Y6807174D01*
X876300Y6845300D02*
G01*
X876300Y6731000D01*
X927100Y6769100D02*
G01*
X927100Y6654774D01*
X977900Y6692900D02*
G01*
X977900Y6578600D01*
X1028700Y6616700D02*
G01*
X1028700Y6502400D01*
X1079500Y6540500D02*
G01*
X1079500Y6426200D01*
X114300Y5461000D02*
G01*
X38100Y5461000D01*
X-25400Y5397500D02*
G01*
X-25400Y5334000D01*
X114300Y5715000D02*
G01*
X38100Y5715000D01*
X-25400Y5651500D02*
G01*
X-25400Y5588000D01*
X114300Y5969000D02*
G01*
X38100Y5969000D01*
X-25400Y5905500D02*
G01*
X-25400Y5842000D01*
X114300Y6223000D02*
G01*
X38100Y6223000D01*
X-25400Y6159500D02*
G01*
X-25400Y6096000D01*
X114300Y6477000D02*
G01*
X38100Y6477000D01*
X-25400Y6413500D02*
G01*
X-25400Y6350000D01*
X114300Y6731000D02*
G01*
X38100Y6731000D01*
X-25400Y6667500D02*
G01*
X-25400Y6604000D01*
X114300Y6985000D02*
G01*
X38100Y6985000D01*
X-25400Y6921500D02*
G01*
X-25400Y6858000D01*
X114300Y7239000D02*
G01*
X38100Y7239000D01*
X-25400Y7175500D02*
G01*
X-25400Y7112000D01*
X1905000Y8509000D02*
G01*
X1905000Y8445500D01*
X1841500Y8382000D02*
G01*
X1143000Y8382000D01*
X1905000Y8255000D02*
G01*
X1905000Y8191500D01*
X1841500Y8128000D02*
G01*
X1143000Y8128000D01*
X1905000Y8001000D02*
G01*
X1905000Y7937500D01*
X1841500Y7874000D02*
G01*
X1143000Y7874000D01*
X1905000Y7747000D02*
G01*
X1905000Y7683500D01*
X1841500Y7620000D02*
G01*
X1143000Y7620000D01*
X1905000Y7493000D02*
G01*
X1905000Y7429500D01*
X1841500Y7366000D02*
G01*
X1143000Y7366000D01*
X1905000Y7239000D02*
G01*
X1905000Y7175500D01*
X1841500Y7112000D02*
G01*
X1143000Y7112000D01*
X1905000Y6985000D02*
G01*
X1905000Y6921500D01*
X1841500Y6858000D02*
G01*
X1143000Y6858000D01*
X1905000Y6731000D02*
G01*
X1905000Y6667500D01*
X1841500Y6604000D02*
G01*
X1143000Y6604000D01*
X-25400Y8128000D02*
G01*
X38100Y8128000D01*
X800100Y8890000D01*
X3213100Y8890000D01*
X-25400Y7874000D02*
G01*
X-25400Y8001000D01*
X812800Y8839200D01*
X3200400Y8839200D01*
X685800Y8864574D02*
G01*
X660392Y8889982D01*
X-25394Y8889982D01*
D13*
G01*
X7620000Y381000D03*
G01*
X7366000Y381000D03*
G01*
X7112000Y381000D03*
G01*
X6858000Y381000D03*
G01*
X6604000Y381000D03*
G01*
X6350000Y381000D03*
G01*
X6096000Y381000D03*
G01*
X5842000Y381000D03*
G01*
X5334000Y381000D03*
G01*
X5080000Y381000D03*
G01*
X4826000Y381000D03*
G01*
X4572000Y381000D03*
G01*
X4318000Y381000D03*
G01*
X4064000Y381000D03*
G01*
X3810000Y381000D03*
G01*
X3556000Y381000D03*
G01*
X3302000Y381000D03*
G01*
X3048000Y381000D03*
G01*
X2794000Y381000D03*
G01*
X2540000Y381000D03*
G01*
X2286000Y381000D03*
G01*
X2032000Y381000D03*
G01*
X1778000Y381000D03*
G01*
X1524000Y381000D03*
G01*
X1270000Y381000D03*
G01*
X1016000Y381000D03*
G01*
X762000Y381000D03*
G01*
X508000Y381000D03*
G01*
X254000Y381000D03*
D14*
G01*
X254000Y508000D03*
G01*
X508000Y508000D03*
G01*
X762000Y508000D03*
G01*
X1016000Y508000D03*
G01*
X1270000Y508000D03*
G01*
X1524000Y508000D03*
G01*
X1778000Y508000D03*
G01*
X2032000Y508000D03*
G01*
X2286000Y508000D03*
G01*
X2540000Y508000D03*
G01*
X2794000Y508000D03*
G01*
X3048000Y508000D03*
G01*
X3302000Y508000D03*
G01*
X3556000Y508000D03*
G01*
X3810000Y508000D03*
G01*
X4064000Y508000D03*
G01*
X4318000Y508000D03*
G01*
X4572000Y508000D03*
G01*
X4826000Y508000D03*
G01*
X5080000Y508000D03*
G01*
X5334000Y508000D03*
G01*
X5842000Y508000D03*
G01*
X6096000Y508000D03*
G01*
X6350000Y508000D03*
G01*
X6604000Y508000D03*
G01*
X6858000Y508000D03*
G01*
X7112000Y508000D03*
G01*
X7366000Y508000D03*
G01*
X7620000Y508000D03*
D11*
G75*
G01*
X1905000Y8445500D02*
G02*
X1841500Y8382000I-63500J0D01*
G75*
G01*
X1905000Y8191500D02*
G02*
X1841500Y8128000I-63500J0D01*
G75*
G01*
X1905000Y7937500D02*
G02*
X1841500Y7874000I-63500J0D01*
G75*
G01*
X1905000Y7683500D02*
G02*
X1841500Y7620000I-63500J0D01*
G75*
G01*
X1905000Y7429500D02*
G02*
X1841500Y7366000I-63500J0D01*
G75*
G01*
X1905000Y7175500D02*
G02*
X1841500Y7112000I-63500J0D01*
G75*
G01*
X1905000Y6921500D02*
G02*
X1841500Y6858000I-63500J0D01*
G75*
G01*
X1905000Y6667500D02*
G02*
X1841500Y6604000I-63500J0D01*
G75*
G01*
X-25400Y5397500D02*
G02*
X38100Y5461000I63500J0D01*
G75*
G01*
X-25400Y5651500D02*
G02*
X38100Y5715000I63500J0D01*
G75*
G01*
X-25400Y5905500D02*
G02*
X38100Y5969000I63500J0D01*
G75*
G01*
X-25400Y6159500D02*
G02*
X38100Y6223000I63500J0D01*
G75*
G01*
X-25400Y6413500D02*
G02*
X38100Y6477000I63500J0D01*
G75*
G01*
X-25400Y6667500D02*
G02*
X38100Y6731000I63500J0D01*
G75*
G01*
X-25400Y6921500D02*
G02*
X38100Y6985000I63500J0D01*
G75*
G01*
X-25400Y7175500D02*
G02*
X38100Y7239000I63500J0D01*
G75*
G01*
X1079500Y6426200D02*
G02*
X114300Y5461000I-965200J0D01*
G75*
G01*
X114300Y5587990D02*
G03*
X1028700Y6502390I0J914400D01*
G75*
G01*
X977900Y6578600D02*
G02*
X114300Y5715000I-863600J0D01*
G75*
G01*
X927100Y6654775D02*
G02*
X114313Y5841987I-812787J0D01*
G75*
G01*
X876300Y6731000D02*
G02*
X114300Y5969000I-762000J0D01*
G75*
G01*
X825500Y6807175D02*
G02*
X114313Y6095987I-711187J0D01*
G75*
G01*
X774700Y6883400D02*
G02*
X114300Y6223000I-660400J0D01*
G75*
G01*
X723900Y6959575D02*
G02*
X114313Y6349987I-609587J0D01*
G75*
G01*
X673100Y7035800D02*
G02*
X114300Y6477000I-558800J0D01*
G75*
G01*
X622300Y7111975D02*
G02*
X114313Y6603987I-507987J0D01*
G75*
G01*
X571500Y7188200D02*
G02*
X114300Y6731000I-457200J0D01*
G75*
G01*
X520700Y7264375D02*
G02*
X114313Y6857987I-406387J0D01*
G75*
G01*
X469900Y7340600D02*
G02*
X114300Y6985000I-355600J0D01*
G75*
G01*
X419100Y7416775D02*
G02*
X114310Y7111985I-304790J0D01*
G75*
G01*
X368300Y7493000D02*
G02*
X114300Y7239000I-254000J0D01*
G75*
G01*
X317500Y7569175D02*
G02*
X114310Y7365985I-203190J0D01*
G75*
G01*
X1079500Y6540500D02*
G02*
X1143000Y6604000I63500J0D01*
G75*
G01*
X1028700Y6616700D02*
G02*
X1143000Y6731000I114300J0D01*
G75*
G01*
X977900Y6692900D02*
G02*
X1143000Y6858000I165100J0D01*
G75*
G01*
X927100Y6769100D02*
G02*
X1143000Y6985000I215900J0D01*
G75*
G01*
X876300Y6845300D02*
G02*
X1143000Y7112000I266700J0D01*
G75*
G01*
X825500Y6921500D02*
G02*
X1143000Y7239000I317500J0D01*
G75*
G01*
X774700Y6997700D02*
G02*
X1143000Y7366000I368300J0D01*
G75*
G01*
X723900Y7073900D02*
G02*
X1143000Y7493000I419100J0D01*
G75*
G01*
X673100Y7150100D02*
G02*
X1143000Y7620000I469900J0D01*
G75*
G01*
X622300Y7226300D02*
G02*
X1143000Y7747000I520700J0D01*
G75*
G01*
X571500Y7302500D02*
G02*
X1143000Y7874000I571500J0D01*
G75*
G01*
X520700Y7378700D02*
G02*
X1143000Y8001000I622300J0D01*
G75*
G01*
X469900Y7454900D02*
G02*
X1143000Y8128000I673100J0D01*
G75*
G01*
X419100Y7531100D02*
G02*
X1143000Y8255000I723900J0D01*
G75*
G01*
X368300Y7607300D02*
G02*
X1143000Y8382000I774700J0D01*
G75*
G01*
X317500Y7683500D02*
G02*
X1143000Y8509000I825500J0D01*
D12*
G75*
G01*
X9080477Y9893264D02*
G02*
X9220197Y10032985I139720J0D01*
G75*
G01*
X9080477Y9893264D02*
G03*
X8940757Y10032985I-139720J0D01*
G75*
G01*
X8254985Y9893280D02*
G02*
X8394705Y10033000I139720J0D01*
D11*
G75*
G01*
X6146800Y3530600D02*
G02*
X5943600Y3327400I-203200J0D01*
G75*
G01*
X3937000Y3035300D02*
G02*
X3975100Y3073400I38100J0D01*
G75*
G01*
X3975100Y3327400D02*
G02*
X3937000Y3365500I0J38100D01*
D10*
G75*
G01*
X4699000Y5334000D02*
G03*
X4572000Y5461000I-127000J0D01*
G75*
G01*
X4826000Y5207000D02*
G02*
X4699000Y5334000I0J127000D01*
G75*
G01*
X4699000Y5080000D02*
G02*
X4826000Y5207000I127000J0D01*
D12*
G75*
G01*
X9715480Y4190992D02*
G02*
X9855200Y4051272I0J-139720D01*
G75*
G01*
X9715480Y8762982D02*
G02*
X9855200Y8623262I0J-139720D01*
G75*
G01*
X-431800Y8508982D02*
G03*
X-584200Y8356582I0J-152400D01*
D11*
G75*
G01*
X635000Y3746500D02*
G02*
X698500Y3810000I63500J0D01*
G75*
G01*
X1143000Y3873500D02*
G02*
X1079500Y3810000I-63500J0D01*
G75*
G01*
X698500Y3048000D02*
G02*
X635000Y3111500I0J63500D01*
G75*
G01*
X1079500Y3048000D02*
G02*
X1143000Y2984500I0J-63500D01*
G75*
G01*
X698500Y2794000D02*
G02*
X635000Y2857500I0J63500D01*
G75*
G01*
X698500Y2286000D02*
G02*
X635000Y2349500I0J63500D01*
G75*
G01*
X698500Y2540000D02*
G02*
X635000Y2603500I0J63500D01*
G75*
G01*
X444500Y3810000D02*
G02*
X381000Y3873500I0J63500D01*
G75*
G01*
X571500Y3810000D02*
G02*
X635000Y3746500I0J-63500D01*
G75*
G01*
X444500Y3556000D02*
G02*
X381000Y3619500I0J63500D01*
G75*
G01*
X571500Y3556000D02*
G02*
X635000Y3492500I0J-63500D01*
G75*
G01*
X444500Y3302000D02*
G02*
X381000Y3365500I0J63500D01*
G75*
G01*
X571500Y3302000D02*
G02*
X635000Y3238500I0J-63500D01*
G75*
G01*
X444500Y3048000D02*
G02*
X381000Y3111500I0J63500D01*
G75*
G01*
X571500Y3048000D02*
G02*
X635000Y2984500I0J-63500D01*
G75*
G01*
X444500Y2794000D02*
G02*
X381000Y2857500I0J63500D01*
G75*
G01*
X571500Y2794000D02*
G02*
X635000Y2730500I0J-63500D01*
G75*
G01*
X444500Y2540000D02*
G02*
X381000Y2603500I0J63500D01*
G75*
G01*
X571500Y2540000D02*
G02*
X635000Y2476500I0J-63500D01*
D12*
G75*
G01*
X1904997Y5016490D02*
G03*
X1765277Y5156210I-139720J0D01*
G75*
G01*
X1765297Y5257790D02*
G03*
X1905018Y5397510I0J139720D01*
G75*
G01*
X6984987Y9893280D02*
G02*
X7124708Y10033000I139721J0D01*
G75*
G01*
X5714990Y9893280D02*
G02*
X5854710Y10033000I139720J0D01*
G75*
G01*
X4444992Y9893280D02*
G02*
X4584713Y10033000I139721J0D01*
G75*
G01*
X3174995Y9893280D02*
G03*
X3035275Y10033000I-139720J0D01*
G75*
G01*
X1904997Y9893280D02*
G02*
X2044718Y10033000I139721J0D01*
G75*
G01*
X9715480Y4190992D02*
G03*
X9855200Y4330713I0J139721D01*
D10*
G75*
G01*
X9728200Y5207000D02*
G03*
X9906000Y5384800I0J177800D01*
G75*
G01*
X9728200Y5207000D02*
G02*
X9906000Y5029200I0J-177800D01*
D11*
G75*
G01*
X1168400Y8686800D02*
G02*
X1143000Y8712200I0J25400D01*
G75*
G01*
X3289300Y9194800D02*
G02*
X3619500Y8864600I0J-330200D01*
G75*
G01*
X3276600Y9144000D02*
G02*
X3568700Y8851900I0J-292100D01*
G75*
G01*
X3263900Y9093200D02*
G02*
X3517900Y8839200I0J-254000D01*
G75*
G01*
X3251200Y9042400D02*
G02*
X3467100Y8826500I0J-215900D01*
G75*
G01*
X3238500Y8991600D02*
G02*
X3416300Y8813800I0J-177800D01*
G75*
G01*
X3225800Y8940800D02*
G02*
X3365500Y8801100I0J-139700D01*
G75*
G01*
X3213100Y8890000D02*
G02*
X3314700Y8788400I0J-101600D01*
G75*
G01*
X3200400Y8839200D02*
G02*
X3263900Y8775700I0J-63500D01*
G75*
G01*
X3835400Y8077200D02*
G02*
X3746500Y8166100I0J88900D01*
G75*
G01*
X3441700Y6858000D02*
G02*
X3314700Y6985000I0J127000D01*
G75*
G01*
X1905000Y4064000D02*
G02*
X1981200Y3987800I0J-76200D01*
G75*
G01*
X4330700Y8242300D02*
G02*
X4419600Y8331200I88900J0D01*
G75*
G01*
X5029200Y8420100D02*
G02*
X4940300Y8331200I-88900J0D01*
D10*
G75*
G01*
X9906000Y1511300D02*
G02*
X9652000Y1257300I-254000J0D01*
D11*
G75*
G01*
X7683500Y1511300D02*
G02*
X7607300Y1435100I-76200J0D01*
G75*
G01*
X7620000Y1574800D02*
G02*
X7543800Y1498600I-76200J0D01*
G75*
G01*
X7556500Y1638300D02*
G02*
X7480300Y1562100I-76200J0D01*
G75*
G01*
X7112000Y850900D02*
G02*
X7505700Y1244600I393700J0D01*
G75*
G01*
X6858000Y850900D02*
G02*
X7315200Y1308100I457200J0D01*
G75*
G01*
X6604000Y863600D02*
G02*
X7112000Y1371600I508000J0D01*
G75*
G01*
X6350000Y863600D02*
G02*
X6921500Y1435100I571500J0D01*
G75*
G01*
X6096000Y850900D02*
G02*
X6743700Y1498600I647700J0D01*
G75*
G01*
X5842000Y850900D02*
G02*
X6553200Y1562100I711200J0D01*
G75*
G01*
X254000Y863600D02*
G02*
X1473200Y2082800I1219200J0D01*
G75*
G01*
X508000Y1054100D02*
G02*
X1485900Y2032000I977900J0D01*
G75*
G01*
X762000Y1244600D02*
G02*
X1498600Y1981200I736600J0D01*
G75*
G01*
X1016000Y1435100D02*
G02*
X1511300Y1930400I495300J0D01*
G75*
G01*
X1270000Y1625600D02*
G02*
X1524000Y1879600I254000J0D01*
G75*
G01*
X1524000Y1600200D02*
G02*
X1752600Y1828800I228600J0D01*
G75*
G01*
X1778000Y1600200D02*
G02*
X1955800Y1778000I177800J0D01*
D12*
G75*
G01*
X-431800Y8508982D02*
G02*
X-584200Y8661382I0J152400D01*
G75*
G01*
X1904997Y9893280D02*
G03*
X1765277Y10033000I-139720J0D01*
G75*
G01*
X3174995Y9893280D02*
G02*
X3314715Y10033000I139720J0D01*
G75*
G01*
X4444992Y9893280D02*
G03*
X4305272Y10033000I-139720J0D01*
G75*
G01*
X6984987Y9893280D02*
G03*
X6845267Y10033000I-139720J0D01*
G75*
G01*
X5714990Y9893280D02*
G03*
X5575270Y10033000I-139720J0D01*
G75*
G01*
X9715480Y8762982D02*
G03*
X9855200Y8902703I0J139721D01*
D10*
G75*
G01*
X-635000Y9829800D02*
G02*
X-381000Y10083800I254000J0D01*
G75*
G01*
X9652000Y10083800D02*
G02*
X9906000Y9829800I0J-254000D01*
D11*
G75*
G01*
X8077200Y5842000D02*
G02*
X8343900Y5575300I0J-266700D01*
G75*
G01*
X8089900Y5892800D02*
G02*
X8394700Y5588000I0J-304800D01*
G75*
G01*
X8102600Y5943600D02*
G02*
X8445500Y5600700I0J-342900D01*
G75*
G01*
X8115300Y5994400D02*
G02*
X8496300Y5613400I0J-381000D01*
G75*
G01*
X8128000Y6045200D02*
G02*
X8547100Y5626100I0J-419100D01*
G75*
G01*
X8140700Y6096000D02*
G02*
X8597900Y5638800I0J-457200D01*
G75*
G01*
X8153400Y6146800D02*
G02*
X8648700Y5651500I0J-495300D01*
G75*
G01*
X8166100Y6197600D02*
G02*
X8699500Y5664200I0J-533400D01*
G75*
G01*
X8318500Y6426200D02*
G02*
X8140700Y6248400I-177800J0D01*
G75*
G01*
X8255000Y6426200D02*
G02*
X8128000Y6299200I-127000J0D01*
G75*
G01*
X8191500Y6426200D02*
G02*
X8115300Y6350000I-76200J0D01*
G75*
G01*
X4648200Y9817100D02*
G02*
X4686300Y9855200I38100J0D01*
G75*
G01*
X5156200Y8077200D02*
G02*
X5080000Y8153400I0J76200D01*
G75*
G01*
X4419600Y6858000D02*
G02*
X4445000Y6832600I0J-25400D01*
G75*
G01*
X6604000Y7226300D02*
G02*
X6718300Y7340600I114300J0D01*
G75*
G01*
X6604000Y7467600D02*
G02*
X6375400Y7239000I-228600J0D01*
G75*
G01*
X6604000Y7099300D02*
G02*
X6489700Y6985000I-114300J0D01*
G75*
G01*
X6604000Y7696200D02*
G02*
X6832600Y7924800I228600J0D01*
G75*
G01*
X7645400Y7924800D02*
G02*
X7874000Y7696200I0J-228600D01*
G75*
G01*
X8102600Y7391400D02*
G02*
X7874000Y7620000I0J228600D01*
G75*
G01*
X8877300Y7493000D02*
G02*
X8928100Y7442200I0J-50800D01*
G75*
G01*
X7429500Y6464300D02*
G02*
X7366000Y6400800I-63500J0D01*
G75*
G01*
X4470400Y6400800D02*
G02*
X4445000Y6426200I0J25400D01*
G75*
G01*
X4457700Y6350000D02*
G02*
X4381500Y6426200I0J76200D01*
G75*
G01*
X2032000Y1600200D02*
G02*
X2159000Y1727200I127000J0D01*
G75*
G01*
X2476500Y2120900D02*
G02*
X2438400Y2082800I-38100J0D01*
G75*
G01*
X2527300Y2108200D02*
G02*
X2451100Y2032000I-76200J0D01*
G75*
G01*
X2578100Y2095500D02*
G02*
X2463800Y1981200I-114300J0D01*
G75*
G01*
X2628900Y2082800D02*
G02*
X2476500Y1930400I-152400J0D01*
G75*
G01*
X2679700Y2070100D02*
G02*
X2489200Y1879600I-190500J0D01*
G75*
G01*
X2730500Y2057400D02*
G02*
X2501900Y1828800I-228600J0D01*
G75*
G01*
X2781300Y2044700D02*
G02*
X2514600Y1778000I-266700J0D01*
G75*
G01*
X2832100Y2032000D02*
G02*
X2527300Y1727200I-304800J0D01*
G75*
G01*
X6096000Y3530600D02*
G02*
X5994400Y3429000I-101600J0D01*
G75*
G01*
X3937000Y3238500D02*
G02*
X3975100Y3276600I38100J0D01*
G75*
G01*
X3556000Y2540000D02*
G02*
X3365500Y2730500I0J190500D01*
G75*
G01*
X6223000Y2362200D02*
G02*
X6019800Y2159000I-203200J0D01*
G75*
G01*
X6515100Y2832100D02*
G02*
X6604000Y2921000I88900J0D01*
G75*
G01*
X5715000Y6794500D02*
G02*
X5778500Y6858000I63500J0D01*
G75*
G01*
X2616200Y8686800D02*
G02*
X2984500Y8318500I0J-368300D01*
G75*
G01*
X3289300Y6299200D02*
G02*
X3175000Y6413500I0J114300D01*
G75*
G01*
X3276600Y6248400D02*
G02*
X2984500Y6540500I0J292100D01*
G75*
G01*
X3263887Y6197600D02*
G02*
X2921000Y6540487I0J342887D01*
G75*
G01*
X3251187Y6146800D02*
G02*
X2857500Y6540487I0J393687D01*
G75*
G01*
X3238487Y6096000D02*
G02*
X2794000Y6540487I0J444487D01*
G75*
G01*
X3225800Y6045200D02*
G02*
X2730500Y6540500I0J495300D01*
G75*
G01*
X3213100Y5994400D02*
G02*
X2667000Y6540500I0J546100D01*
G75*
G01*
X3200400Y5943600D02*
G02*
X2603500Y6540500I0J596900D01*
G75*
G01*
X3187700Y5892800D02*
G02*
X2540000Y6540500I0J647700D01*
G75*
G01*
X3175000Y5842000D02*
G02*
X2476500Y6540500I0J698500D01*
G75*
G01*
X2032000Y8585200D02*
G02*
X2082800Y8636000I50800J0D01*
G75*
G01*
X6413500Y2247900D02*
G02*
X6235700Y2070100I-177800J0D01*
G75*
G01*
X6464300Y2235200D02*
G02*
X6248400Y2019300I-215900J0D01*
G75*
G01*
X6515100Y2222500D02*
G02*
X6261100Y1968500I-254000J0D01*
G75*
G01*
X7048500Y2120900D02*
G02*
X6845300Y1917700I-203200J0D01*
G75*
G01*
X7112000Y2120900D02*
G02*
X6858000Y1866900I-254000J0D01*
G75*
G01*
X7175475Y2120887D02*
G02*
X6870687Y1816100I-304788J0D01*
G75*
G01*
X7239000Y2120900D02*
G02*
X6883400Y1765300I-355600J0D01*
D10*
G75*
G01*
X-381000Y4686290D02*
G02*
X-635020Y4940310I0J254020D01*
G75*
G01*
X-381000Y4686290D02*
G03*
X-635020Y4432270I0J-254020D01*
D12*
G75*
G01*
X-381000Y4813300D02*
G02*
X-508000Y4940300I0J127000D01*
G75*
G01*
X-508000Y7251700D02*
G02*
X-393700Y7366000I114300J0D01*
G75*
G01*
X-25400Y8559800D02*
G02*
X-76200Y8509000I-50800J0D01*
G75*
G01*
X8254985Y9893280D02*
G03*
X8115264Y10033000I-139721J0D01*
D11*
G75*
G01*
X9017000Y2413000D02*
G02*
X8877300Y2552700I0J139700D01*
G75*
G01*
X7394986Y8077200D02*
G02*
X7447463Y8024724I0J-52476D01*
G75*
G01*
X7394986Y7924785D02*
G03*
X7447463Y7977261I0J52476D01*
G75*
G01*
X8915400Y7569200D02*
G02*
X8978900Y7505700I0J-63500D01*
D15*
G01*
X3937000Y5461000D03*
G01*
X3937000Y5207000D03*
G01*
X3937000Y4953000D03*
G01*
X3937000Y4699000D03*
G01*
X3937000Y4445000D03*
G01*
X3937000Y4191000D03*
G01*
X3937000Y3937000D03*
G01*
X3937000Y3683000D03*
G01*
X3937000Y3429000D03*
G01*
X3937000Y3175000D03*
G01*
X3937000Y2921000D03*
G01*
X3937000Y2667000D03*
G01*
X3937000Y2413000D03*
G01*
X3937000Y2159000D03*
G01*
X2413000Y2159000D03*
G01*
X2413000Y2413000D03*
G01*
X2413000Y2667000D03*
G01*
X2413000Y2921000D03*
G01*
X2413000Y3175000D03*
G01*
X2413000Y3429000D03*
G01*
X2413000Y3683000D03*
G01*
X2413000Y4191000D03*
G01*
X2413000Y4445000D03*
G01*
X2413000Y4699000D03*
G01*
X2413000Y4953000D03*
G01*
X2413000Y5207000D03*
G01*
X2413000Y3937000D03*
G01*
X2413000Y5461000D03*
G01*
X3683000Y8763000D03*
G01*
X4445000Y8763000D03*
G01*
X3683000Y8509000D03*
G01*
X4445000Y8509000D03*
G01*
X3683000Y8255000D03*
G01*
X4445000Y8255000D03*
G01*
X3683000Y8001000D03*
G01*
X4445000Y8001000D03*
G01*
X3683000Y7747000D03*
G01*
X4445000Y7747000D03*
G01*
X3683000Y7493000D03*
G01*
X4445000Y7493000D03*
G01*
X3683000Y7239000D03*
G01*
X4445000Y7239000D03*
G01*
X3683000Y6985000D03*
G01*
X4445000Y6985000D03*
G01*
X3683000Y6731000D03*
G01*
X4445000Y6731000D03*
G01*
X3683000Y6477000D03*
G01*
X4445000Y6477000D03*
G01*
X1143000Y8763000D03*
G01*
X1905000Y8763000D03*
G01*
X1143000Y8509000D03*
G01*
X1905000Y8509000D03*
G01*
X1143000Y8255000D03*
G01*
X1905000Y8255000D03*
G01*
X1143000Y8001000D03*
G01*
X1905000Y8001000D03*
G01*
X1143000Y7747000D03*
G01*
X1905000Y7747000D03*
G01*
X1143000Y7493000D03*
G01*
X1905000Y7493000D03*
G01*
X1143000Y7239000D03*
G01*
X1905000Y7239000D03*
G01*
X1143000Y6985000D03*
G01*
X1905000Y6985000D03*
G01*
X1143000Y6731000D03*
G01*
X1905000Y6731000D03*
G01*
X1143000Y6477000D03*
G01*
X1905000Y6477000D03*
G01*
X2413000Y8763000D03*
G01*
X3175000Y8763000D03*
G01*
X2413000Y8509000D03*
G01*
X3175000Y8509000D03*
G01*
X2413000Y8255000D03*
G01*
X3175000Y8255000D03*
G01*
X2413000Y8001000D03*
G01*
X3175000Y8001000D03*
G01*
X2413000Y7747000D03*
G01*
X3175000Y7747000D03*
G01*
X2413000Y7493000D03*
G01*
X3175000Y7493000D03*
G01*
X2413000Y7239000D03*
G01*
X3175000Y7239000D03*
G01*
X2413000Y6985000D03*
G01*
X3175000Y6985000D03*
G01*
X2413000Y6731000D03*
G01*
X3175000Y6731000D03*
G01*
X2413000Y6477000D03*
G01*
X3175000Y6477000D03*
G01*
X4953000Y8001000D03*
G01*
X4953000Y7747000D03*
G01*
X4953000Y7493000D03*
G01*
X4953000Y7239000D03*
G01*
X4953000Y6985000D03*
G01*
X4953000Y6731000D03*
G01*
X4953000Y6477000D03*
G01*
X5715000Y8001000D03*
G01*
X5715000Y7747000D03*
G01*
X5715000Y7493000D03*
G01*
X5715000Y7239000D03*
G01*
X5715000Y6985000D03*
G01*
X5715000Y6731000D03*
G01*
X5715000Y6477000D03*
G01*
X6223000Y8001000D03*
G01*
X6223000Y7747000D03*
G01*
X6223000Y7493000D03*
G01*
X6223000Y7239000D03*
G01*
X6223000Y6985000D03*
G01*
X6223000Y6731000D03*
G01*
X6223000Y6477000D03*
G01*
X6985000Y8001000D03*
G01*
X6985000Y7747000D03*
G01*
X6985000Y7493000D03*
G01*
X6985000Y7239000D03*
G01*
X6985000Y6985000D03*
G01*
X6985000Y6731000D03*
G01*
X6985000Y6477000D03*
G01*
X7493000Y8001000D03*
G01*
X7493000Y7747000D03*
G01*
X7493000Y7493000D03*
G01*
X7493000Y7239000D03*
G01*
X7493000Y6985000D03*
G01*
X7493000Y6731000D03*
G01*
X7493000Y6477000D03*
G01*
X8255000Y8001000D03*
G01*
X8255000Y7747000D03*
G01*
X8255000Y7493000D03*
G01*
X8255000Y7239000D03*
G01*
X8255000Y6985000D03*
G01*
X8255000Y6731000D03*
G01*
X8255000Y6477000D03*
G01*
X1143000Y4445000D03*
G01*
X1905000Y4445000D03*
G01*
X1143000Y4191000D03*
G01*
X1905000Y4191000D03*
G01*
X1143000Y3937000D03*
G01*
X1905000Y3937000D03*
G01*
X1143000Y3683000D03*
G01*
X1905000Y3683000D03*
G01*
X1143000Y3429000D03*
G01*
X1905000Y3429000D03*
G01*
X1143000Y3175000D03*
G01*
X1905000Y3175000D03*
G01*
X1143000Y2921000D03*
G01*
X1905000Y2921000D03*
G01*
X1143000Y2667000D03*
G01*
X1905000Y2667000D03*
G01*
X1143000Y2413000D03*
G01*
X1905000Y2413000D03*
G01*
X1143000Y2159000D03*
G01*
X1905000Y2159000D03*
G01*
X6223000Y4445000D03*
G01*
X6985000Y4445000D03*
G01*
X6223000Y4191000D03*
G01*
X6985000Y4191000D03*
G01*
X6223000Y3937000D03*
G01*
X6985000Y3937000D03*
G01*
X6223000Y3683000D03*
G01*
X6985000Y3683000D03*
G01*
X6223000Y3429000D03*
G01*
X6985000Y3429000D03*
G01*
X6223000Y3175000D03*
G01*
X6985000Y3175000D03*
G01*
X6223000Y2921000D03*
G01*
X6985000Y2921000D03*
G01*
X6223000Y2667000D03*
G01*
X6985000Y2667000D03*
G01*
X6223000Y2413000D03*
G01*
X6985000Y2413000D03*
G01*
X6223000Y2159000D03*
G01*
X6985000Y2159000D03*
G01*
X7493000Y4445000D03*
G01*
X8255000Y4445000D03*
G01*
X7493000Y4191000D03*
G01*
X8255000Y4191000D03*
G01*
X7493000Y3937000D03*
G01*
X8255000Y3937000D03*
G01*
X7493000Y3683000D03*
G01*
X8255000Y3683000D03*
G01*
X7493000Y3429000D03*
G01*
X8255000Y3429000D03*
G01*
X7493000Y3175000D03*
G01*
X8255000Y3175000D03*
G01*
X7493000Y2921000D03*
G01*
X8255000Y2921000D03*
G01*
X7493000Y2667000D03*
G01*
X8255000Y2667000D03*
G01*
X7493000Y2413000D03*
G01*
X8255000Y2413000D03*
G01*
X7493000Y2159000D03*
G01*
X8255000Y2159000D03*
G01*
X5715000Y2667000D03*
G01*
X5715000Y2921000D03*
G01*
X5715000Y3175000D03*
G01*
X5715000Y3429000D03*
G01*
X5715000Y3683000D03*
G01*
X5715000Y3937000D03*
G01*
X5715000Y2413000D03*
G01*
X5715000Y2159000D03*
G01*
X5461000Y3937000D03*
G01*
X5461000Y3683000D03*
G01*
X5461000Y3429000D03*
G01*
X5461000Y3175000D03*
G01*
X4699000Y3175000D03*
G01*
X4699000Y3429000D03*
G01*
X4699000Y3683000D03*
G01*
X4699000Y3937000D03*
G01*
X4699000Y2921000D03*
G01*
X4699000Y2667000D03*
G01*
X4699000Y2413000D03*
G01*
X5461000Y2413000D03*
G01*
X5461000Y2667000D03*
G01*
X5461000Y2921000D03*
G01*
X5461000Y2159000D03*
G01*
X4699000Y2159000D03*
D16*
G01*
X2921000Y9270974D03*
G01*
X3175000Y9270974D03*
G01*
X4191000Y9270974D03*
G01*
X4445000Y9270974D03*
G01*
X5461000Y8508974D03*
G01*
X5715000Y8508974D03*
G01*
X6731000Y8508974D03*
G01*
X6985000Y8508974D03*
G01*
X8000974Y8508974D03*
G01*
X8254974Y8508974D03*
G01*
X9270974Y8762974D03*
G01*
X9524974Y8762974D03*
G01*
X1651000Y4953000D03*
G01*
X1905000Y4953000D03*
G01*
X4445000Y5207000D03*
G01*
X4445000Y5461000D03*
G01*
X6731000Y4953000D03*
G01*
X6985000Y4953000D03*
G01*
X8000974Y4953000D03*
G01*
X8254974Y4953000D03*
G01*
X9270974Y4191000D03*
G01*
X9524974Y4191000D03*
G01*
X1651000Y9271000D03*
G01*
X1905000Y9271000D03*
D18*
G01*
X1651000Y1600200D03*
G01*
X1905000Y1600200D03*
G01*
X2159000Y1600200D03*
G01*
X2413000Y1600200D03*
G01*
X2667000Y1600200D03*
G01*
X2667000Y1346200D03*
G01*
X2413000Y1346200D03*
G01*
X2159000Y1346200D03*
G01*
X1905000Y1346200D03*
G01*
X1651000Y1346200D03*
D16*
G01*
X-127000Y1257300D03*
G01*
X-127000Y1057300D03*
G01*
X8254974Y1057300D03*
G01*
X8254974Y1257300D03*
D15*
G01*
X381000Y3937000D03*
G01*
X381000Y3683000D03*
G01*
X381000Y3429000D03*
G01*
X381000Y3175000D03*
G01*
X-381000Y3175000D03*
G01*
X-381000Y3429000D03*
G01*
X-381000Y3683000D03*
G01*
X-381000Y3937000D03*
G01*
X-381000Y2921000D03*
G01*
X-381000Y2667000D03*
G01*
X-381000Y2413000D03*
G01*
X381000Y2413000D03*
G01*
X381000Y2667000D03*
G01*
X381000Y2921000D03*
G01*
X381000Y2159000D03*
G01*
X-381000Y2159000D03*
G01*
X635000Y2667000D03*
G01*
X635000Y2921000D03*
G01*
X635000Y3175000D03*
G01*
X635000Y3429000D03*
G01*
X635000Y3683000D03*
G01*
X635000Y3937000D03*
G01*
X635000Y2413000D03*
G01*
X635000Y2159000D03*
G01*
X8763000Y3683000D03*
G01*
X8763000Y3429000D03*
G01*
X8763000Y3175000D03*
G01*
X8763000Y2921000D03*
G01*
X8763000Y2667000D03*
G01*
X8763000Y2413000D03*
G01*
X8763000Y2159000D03*
G01*
X9525000Y3683000D03*
G01*
X9525000Y3429000D03*
G01*
X9525000Y3175000D03*
G01*
X9525000Y2921000D03*
G01*
X9525000Y2667000D03*
G01*
X9525000Y2413000D03*
G01*
X9525000Y2159000D03*
G01*
X9525000Y8255000D03*
G01*
X9525000Y8001000D03*
G01*
X9525000Y7747000D03*
G01*
X9525000Y7493000D03*
G01*
X9525000Y7239000D03*
G01*
X9525000Y6985000D03*
G01*
X9525000Y6731000D03*
G01*
X9525000Y6477000D03*
G01*
X8763000Y6477000D03*
G01*
X8763000Y6731000D03*
G01*
X8763000Y6985000D03*
G01*
X8763000Y7239000D03*
G01*
X8763000Y7493000D03*
G01*
X8763000Y7747000D03*
G01*
X8763000Y8001000D03*
G01*
X8763000Y8255000D03*
D18*
G01*
X-279400Y9905974D03*
G01*
X-25400Y9905974D03*
G01*
X-279400Y9651974D03*
G01*
X-25400Y9651974D03*
G01*
X-279400Y9397974D03*
G01*
X-25400Y9397974D03*
G01*
X-279400Y9143974D03*
G01*
X-25400Y9143974D03*
G01*
X-279400Y8889974D03*
G01*
X-25400Y8889974D03*
G01*
X-279400Y8635974D03*
G01*
X-25400Y8635974D03*
G01*
X-279400Y8381974D03*
G01*
X-25400Y8381974D03*
G01*
X-279400Y8127974D03*
G01*
X-25400Y8127974D03*
G01*
X-279400Y7873974D03*
G01*
X-25400Y7873974D03*
G01*
X-279400Y7619974D03*
G01*
X-25400Y7619974D03*
G01*
X-279400Y7365974D03*
G01*
X-25400Y7365974D03*
G01*
X-279400Y7111974D03*
G01*
X-25400Y7111974D03*
G01*
X-279400Y6857974D03*
G01*
X-25400Y6857974D03*
G01*
X-279400Y6603974D03*
G01*
X-25400Y6603974D03*
G01*
X-279400Y6349974D03*
G01*
X-25400Y6349974D03*
G01*
X-279400Y6095974D03*
G01*
X-25400Y6095974D03*
G01*
X-279400Y5841974D03*
G01*
X-25400Y5841974D03*
G01*
X-279400Y5587974D03*
G01*
X-25400Y5587974D03*
G01*
X-279400Y5333974D03*
G01*
X-25400Y5333974D03*
G01*
X-279400Y5079974D03*
G01*
X-25755Y5079974D03*
D19*
G01*
X4978400Y9270974D03*
G01*
X4978400Y9524974D03*
G01*
X4978400Y9778974D03*
G01*
X4724400Y9270974D03*
G01*
X4724400Y9524974D03*
G01*
X4724400Y9778974D03*
G01*
X6477000Y9270949D03*
G01*
X6731000Y9270974D03*
G01*
X1905000Y5461000D03*
G01*
X1905000Y5715000D03*
D20*
G01*
X4953000Y5207000D03*
G01*
X4953000Y4699000D03*
G01*
X5207000Y5207000D03*
D16*
G01*
X1397000Y9270974D03*
G01*
X2667000Y9270974D03*
G01*
X3937000Y9270974D03*
G01*
X5207000Y8508974D03*
G01*
X6477000Y8508974D03*
G01*
X7746974Y8508974D03*
G01*
X9016974Y8762974D03*
G01*
X7746974Y4953000D03*
G01*
X6477000Y4953000D03*
G01*
X1397000Y4953000D03*
G01*
X4445000Y4953000D03*
G01*
X9016974Y4191000D03*
D20*
G01*
X5715000Y4699000D03*
G01*
X5461000Y4699000D03*
G01*
X5207000Y4699000D03*
G01*
X5461000Y5207000D03*
G01*
X5715000Y5207000D03*
D16*
G01*
X8956293Y5207000D03*
D20*
G01*
X9080474Y9397974D03*
D16*
G01*
X9080474Y9893274D03*
G01*
X9080474Y9639274D03*
D20*
G01*
X8572474Y9397974D03*
G01*
X9080474Y9143974D03*
G01*
X8572474Y9143974D03*
D21*
G01*
X2794000Y7238974D03*
G01*
X2857500Y6984974D03*
G01*
X2921000Y6730974D03*
G01*
X7619974Y3937000D03*
G01*
X7683474Y3683000D03*
G01*
X7746974Y3429000D03*
G01*
X7810474Y3175000D03*
G01*
X7873974Y2921000D03*
G01*
X7937474Y2667000D03*
G01*
X8000974Y2413000D03*
G01*
X3048000Y3683000D03*
G01*
X3111500Y4191000D03*
G01*
X7746974Y1130300D03*
G01*
X4038600Y1485900D03*
G01*
X4597400Y6984974D03*
G01*
X2755900Y4826000D03*
G01*
X2755900Y4699000D03*
G01*
X4699000Y1270000D03*
G01*
X3302000Y1358900D03*
G01*
X3238500Y1422400D03*
G01*
X2349500Y3022600D03*
G01*
X3238500Y3937000D03*
G01*
X7810474Y1689100D03*
G01*
X7746974Y1625600D03*
G01*
X7480274Y1562100D03*
G01*
X7543774Y1498600D03*
G01*
X7607274Y1435100D03*
G01*
X8064474Y2070100D03*
G01*
X7175474Y2324100D03*
G01*
X7048474Y2260600D03*
G01*
X8064474Y1574800D03*
G01*
X6184900Y3276600D03*
G01*
X6350000Y3098800D03*
G01*
X6350000Y2997200D03*
G01*
X2286000Y8445474D03*
G01*
X1968500Y6578574D03*
G01*
X2095500Y6896074D03*
G01*
X2159000Y7835874D03*
G01*
X2222500Y8572474D03*
G01*
X2603500Y8610574D03*
G01*
X2349500Y7594574D03*
G01*
X3314700Y7277074D03*
G01*
X5638800Y1308100D03*
G01*
X5816600Y1308100D03*
G01*
X8318474Y6857974D03*
G01*
X8877274Y7569174D03*
G01*
X4267200Y8077174D03*
G01*
X9042374Y2667000D03*
G01*
X8966174Y2501900D03*
G01*
X9093174Y2501900D03*
G01*
X8889974Y2247900D03*
G01*
X9093174Y7391374D03*
G01*
X5334000Y1549400D03*
G01*
X4089400Y1549400D03*
G01*
X4953000Y1422400D03*
G01*
X2730500Y7492974D03*
G01*
X2667000Y7746974D03*
G01*
X2603500Y8000974D03*
G01*
X2540000Y8254974D03*
G01*
X114300Y7365974D03*
G01*
X114300Y7111974D03*
G01*
X114300Y6857974D03*
G01*
X114300Y6603974D03*
G01*
X114300Y6349974D03*
G01*
X114300Y6095974D03*
G01*
X114300Y5841974D03*
G01*
X114300Y5588000D03*
G01*
X1752600Y6476974D03*
G01*
X685800Y8864574D03*
M02*
