G04 Layer: BottomSolderMaskLayer*
G04 EasyEDA v6.5.54, 2026-05-14 16:30:12*
G04 fa4692dd088d48a7bfa3324e0a8a9796,3d3f09d9cea3496b8cca675c4301f38a,10*
G04 Gerber Generator version 0.2*
G04 Scale: 100 percent, Rotated: No, Reflected: No *
G04 Dimensions in millimeters *
G04 leading zeros omitted , absolute positions ,4 integer and 5 decimal *
%FSLAX45Y45*%
%MOMM*%

%AMMACRO1*4,1,8,-0.8211,-0.8508,-0.8508,-0.821,-0.8508,0.8211,-0.8211,0.8508,0.821,0.8508,0.8508,0.8211,0.8508,-0.821,0.821,-0.8508,-0.8211,-0.8508,0*%
%AMMACRO2*4,1,8,-0.8043,-2.852,-0.864,-2.7922,-0.864,2.7922,-0.8043,2.852,0.8042,2.852,0.864,2.7922,0.864,-2.7922,0.8042,-2.852,-0.8043,-2.852,0*%
%AMMACRO3*4,1,8,-0.8043,-2.602,-0.864,-2.5422,-0.864,2.5423,-0.8043,2.602,0.8042,2.602,0.864,2.5423,0.864,-2.5422,0.8042,-2.602,-0.8043,-2.602,0*%
%AMMACRO4*4,1,8,-0.8711,-0.9008,-0.9008,-0.871,-0.9008,0.8711,-0.8711,0.9008,0.871,0.9008,0.9008,0.8711,0.9008,-0.871,0.871,-0.9008,-0.8711,-0.9008,0*%
%AMMACRO5*4,1,8,-1.0211,-0.5008,-1.0508,-0.471,-1.0508,0.471,-1.0211,0.5008,1.021,0.5008,1.0508,0.471,1.0508,-0.471,1.021,-0.5008,-1.0211,-0.5008,0*%
%AMMACRO6*4,1,8,-0.5211,-0.8008,-0.5508,-0.771,-0.5508,0.7711,-0.5211,0.8008,0.521,0.8008,0.5508,0.7711,0.5508,-0.771,0.521,-0.8008,-0.5211,-0.8008,0*%
%AMMACRO7*4,1,8,-0.7711,-0.5508,-0.8008,-0.521,-0.8008,0.5211,-0.7711,0.5508,0.771,0.5508,0.8008,0.5211,0.8008,-0.521,0.771,-0.5508,-0.7711,-0.5508,0*%
%AMMACRO8*4,1,8,-1.0211,-0.5008,-1.0508,-0.471,-1.0508,0.4711,-1.0211,0.5008,1.021,0.5008,1.0508,0.4711,1.0508,-0.471,1.021,-0.5008,-1.0211,-0.5008,0*%
%ADD10C,1.8016*%
%ADD11C,1.7016*%
%ADD12MACRO1*%
%ADD13MACRO2*%
%ADD14O,1.728013X5.704002*%
%ADD15MACRO3*%
%ADD16O,2.101596X1.001598*%
%ADD17MACRO4*%
%ADD18C,0.0147*%
%ADD19MACRO5*%
%ADD20MACRO6*%
%ADD21MACRO7*%
%ADD22O,0.601599X1.001598*%
%ADD23MACRO8*%
%ADD24O,1.101598X1.601597*%
%ADD25C,0.9016*%
%ADD26O,1.601597X1.101598*%
%ADD27C,1.1016*%
%ADD28C,1.0016*%
%ADD29C,0.7016*%

%LPD*%
G36*
X-961288Y10073436D02*
G01*
X-974090Y10071912D01*
X-986688Y10067340D01*
X-998118Y10060381D01*
X-1007516Y10051338D01*
X-1022502Y10033558D01*
X-1025601Y10029139D01*
X-1028395Y10024516D01*
X-1030833Y10019741D01*
X-1032916Y10014762D01*
X-1034491Y10009682D01*
X-1035558Y10004602D01*
X-1036269Y9999522D01*
X-1036472Y9994442D01*
X-1036472Y9949484D01*
X-995324Y9949484D01*
X-995273Y9996068D01*
X-994765Y9999370D01*
X-994308Y10001046D01*
X-992784Y10004247D01*
X-990752Y10007396D01*
X-975004Y10026243D01*
X-971702Y10028885D01*
X-969670Y10030002D01*
X-965403Y10031526D01*
X-961288Y10032034D01*
X-880770Y10032034D01*
X-876503Y10031526D01*
X-872388Y10030002D01*
X-868578Y10027716D01*
X-865784Y10024922D01*
X-850798Y10007142D01*
X-848766Y10003891D01*
X-847242Y10000792D01*
X-846277Y9997541D01*
X-845972Y9994442D01*
X-846023Y9947808D01*
X-846683Y9944658D01*
X-847953Y9941458D01*
X-850798Y9936530D01*
X-866902Y9917430D01*
X-870356Y9914737D01*
X-874420Y9912756D01*
X-878636Y9911740D01*
X-963421Y9911740D01*
X-967638Y9912756D01*
X-971600Y9914737D01*
X-974902Y9917430D01*
X-991006Y9936784D01*
X-992987Y9939680D01*
X-994308Y9942880D01*
X-995070Y9946030D01*
X-995324Y9949484D01*
X-1036472Y9949484D01*
X-1036269Y9943795D01*
X-1035558Y9938715D01*
X-1034491Y9933787D01*
X-1032916Y9928910D01*
X-1030935Y9923983D01*
X-1028547Y9919258D01*
X-1025702Y9914585D01*
X-1022502Y9910114D01*
X-1007516Y9892334D01*
X-998118Y9883241D01*
X-986688Y9876332D01*
X-974090Y9871913D01*
X-961288Y9870490D01*
X-880770Y9870490D01*
X-867562Y9871913D01*
X-854862Y9876332D01*
X-843229Y9883241D01*
X-833780Y9892334D01*
X-819556Y9910114D01*
X-816203Y9914585D01*
X-813308Y9919258D01*
X-810869Y9923983D01*
X-808888Y9928910D01*
X-807313Y9933787D01*
X-806196Y9938715D01*
X-805535Y9943795D01*
X-805332Y9948976D01*
X-805332Y9994442D01*
X-805535Y9999522D01*
X-806196Y10004602D01*
X-807313Y10009682D01*
X-808888Y10014762D01*
X-810971Y10019741D01*
X-813460Y10024516D01*
X-816305Y10029139D01*
X-819556Y10033558D01*
X-833780Y10051338D01*
X-843229Y10060279D01*
X-854862Y10067340D01*
X-867562Y10071912D01*
X-880770Y10073436D01*
G37*
G36*
X-1014120Y9769906D02*
G01*
X-1018743Y9769551D01*
X-1022959Y9768484D01*
X-1026718Y9766757D01*
X-1030122Y9764318D01*
X-1032916Y9761220D01*
X-1034897Y9757867D01*
X-1036066Y9754260D01*
X-1036472Y9750348D01*
X-1036116Y9745878D01*
X-1034999Y9741814D01*
X-1033170Y9738258D01*
X-1030630Y9735108D01*
X-1027328Y9732518D01*
X-1023569Y9730587D01*
X-1019352Y9729317D01*
X-1014628Y9728758D01*
X-866038Y9723678D01*
X-861923Y9723069D01*
X-858164Y9721900D01*
X-854811Y9720021D01*
X-851814Y9717582D01*
X-849477Y9714585D01*
X-847801Y9711283D01*
X-846785Y9707626D01*
X-846480Y9703612D01*
X-846531Y9675571D01*
X-847039Y9672269D01*
X-848258Y9669170D01*
X-850696Y9664954D01*
X-888644Y9608616D01*
X-1013612Y9608616D01*
X-1018438Y9608261D01*
X-1022807Y9607194D01*
X-1026718Y9605467D01*
X-1030122Y9603028D01*
X-1032916Y9599879D01*
X-1034897Y9596323D01*
X-1036066Y9592411D01*
X-1036472Y9588042D01*
X-1036066Y9583674D01*
X-1034897Y9579762D01*
X-1032916Y9576308D01*
X-1030122Y9573310D01*
X-1026718Y9570720D01*
X-1022807Y9568891D01*
X-1018438Y9567824D01*
X-1013612Y9567468D01*
X-742086Y9567468D01*
X-737057Y9567824D01*
X-732536Y9568840D01*
X-728675Y9570618D01*
X-725322Y9573056D01*
X-722528Y9576054D01*
X-720547Y9579559D01*
X-719378Y9583572D01*
X-718972Y9588042D01*
X-719378Y9592259D01*
X-720598Y9596170D01*
X-722680Y9599625D01*
X-725576Y9602774D01*
X-728980Y9605314D01*
X-732891Y9607143D01*
X-737260Y9608210D01*
X-742086Y9608616D01*
X-839114Y9608616D01*
X-818286Y9640214D01*
X-812342Y9650222D01*
X-808431Y9659467D01*
X-806094Y9668611D01*
X-805332Y9677704D01*
X-805332Y9703612D01*
X-806399Y9715703D01*
X-809599Y9726828D01*
X-814882Y9737039D01*
X-822350Y9746284D01*
X-831545Y9754108D01*
X-841908Y9759797D01*
X-853389Y9763353D01*
X-866038Y9764826D01*
G37*
G36*
X-1015898Y9467392D02*
G01*
X-1020267Y9466986D01*
X-1024229Y9465767D01*
X-1027734Y9463786D01*
X-1030884Y9461042D01*
X-1033322Y9457639D01*
X-1035050Y9453727D01*
X-1036116Y9449358D01*
X-1036472Y9444532D01*
X-1036472Y9362490D01*
X-1036218Y9357258D01*
X-1035507Y9351975D01*
X-1034338Y9346692D01*
X-1032662Y9341408D01*
X-1030478Y9336176D01*
X-1028090Y9331350D01*
X-1025398Y9327032D01*
X-1022502Y9323120D01*
X-989990Y9286036D01*
X-979932Y9276791D01*
X-968654Y9270034D01*
X-956411Y9266021D01*
X-943508Y9264700D01*
X-898296Y9264700D01*
X-885596Y9266021D01*
X-873404Y9270034D01*
X-861923Y9276791D01*
X-851814Y9286036D01*
X-819556Y9323120D01*
X-816508Y9327032D01*
X-813765Y9331350D01*
X-811326Y9336176D01*
X-809142Y9341408D01*
X-807466Y9346692D01*
X-806297Y9351975D01*
X-805586Y9357258D01*
X-805332Y9362490D01*
X-805332Y9444532D01*
X-805688Y9449358D01*
X-806805Y9453727D01*
X-808634Y9457639D01*
X-811174Y9461042D01*
X-814273Y9463786D01*
X-817778Y9465767D01*
X-821639Y9466986D01*
X-825906Y9467392D01*
X-830224Y9466986D01*
X-834085Y9465868D01*
X-837488Y9463938D01*
X-840384Y9461296D01*
X-842822Y9457944D01*
X-844550Y9454032D01*
X-845616Y9449562D01*
X-845972Y9444532D01*
X-846074Y9360712D01*
X-846836Y9357258D01*
X-848360Y9353804D01*
X-850798Y9350146D01*
X-884072Y9311690D01*
X-886714Y9309303D01*
X-890168Y9307372D01*
X-893978Y9306204D01*
X-897788Y9305848D01*
X-945540Y9305950D01*
X-949604Y9306712D01*
X-951636Y9307372D01*
X-955040Y9309252D01*
X-957732Y9311436D01*
X-989736Y9348520D01*
X-992530Y9352584D01*
X-994308Y9356140D01*
X-995070Y9359239D01*
X-995324Y9362490D01*
X-995324Y9444532D01*
X-995680Y9449460D01*
X-996797Y9453930D01*
X-998626Y9457842D01*
X-1001166Y9461296D01*
X-1004265Y9463938D01*
X-1007770Y9465868D01*
X-1011631Y9466986D01*
G37*
G36*
X-1014120Y9164624D02*
G01*
X-1018743Y9164218D01*
X-1022959Y9163151D01*
X-1026718Y9161322D01*
X-1030122Y9158782D01*
X-1032916Y9155684D01*
X-1034897Y9152280D01*
X-1036066Y9148572D01*
X-1036472Y9144558D01*
X-1036116Y9140393D01*
X-1035151Y9136684D01*
X-1033475Y9133281D01*
X-1031138Y9130334D01*
X-1028192Y9127896D01*
X-1024636Y9125915D01*
X-1020571Y9124442D01*
X-1015898Y9123476D01*
X-1031138Y9099600D01*
X-1033221Y9095384D01*
X-1034948Y9090456D01*
X-1036066Y9085630D01*
X-1036472Y9081312D01*
X-1036472Y9022892D01*
X-995324Y9022892D01*
X-995324Y9077756D01*
X-970432Y9121952D01*
X-952398Y9121444D01*
X-948385Y9121038D01*
X-944727Y9119971D01*
X-941374Y9118142D01*
X-938428Y9115602D01*
X-935990Y9112402D01*
X-934212Y9108998D01*
X-933196Y9105290D01*
X-932840Y9101378D01*
X-932840Y9022384D01*
X-933196Y9018676D01*
X-934313Y9015171D01*
X-936142Y9011920D01*
X-938682Y9008922D01*
X-941832Y9006230D01*
X-945286Y9004350D01*
X-948944Y9003182D01*
X-952906Y9002826D01*
X-975766Y9002826D01*
X-979576Y9003182D01*
X-983132Y9004249D01*
X-986434Y9006078D01*
X-989482Y9008668D01*
X-992022Y9011716D01*
X-993851Y9015120D01*
X-994968Y9018828D01*
X-995324Y9022892D01*
X-1036472Y9022892D01*
X-1035354Y9010650D01*
X-1032002Y8999372D01*
X-1026464Y8989060D01*
X-1018692Y8979712D01*
X-1009345Y8971788D01*
X-999083Y8966149D01*
X-987856Y8962796D01*
X-975766Y8961678D01*
X-952906Y8961678D01*
X-940765Y8962796D01*
X-929538Y8966250D01*
X-919175Y8971940D01*
X-909726Y8979966D01*
X-901852Y8989415D01*
X-896213Y8999677D01*
X-892810Y9010853D01*
X-891692Y9022892D01*
X-891743Y9103868D01*
X-892098Y9108541D01*
X-892911Y9113012D01*
X-894181Y9117330D01*
X-894994Y9119412D01*
X-866038Y9117888D01*
X-861821Y9117330D01*
X-858012Y9116161D01*
X-854710Y9114383D01*
X-851814Y9112046D01*
X-849477Y9109049D01*
X-847801Y9105696D01*
X-846785Y9101937D01*
X-846480Y9097822D01*
X-846480Y9024924D01*
X-846124Y9019997D01*
X-845058Y9015628D01*
X-843330Y9011869D01*
X-840892Y9008668D01*
X-837844Y9006078D01*
X-834339Y9004249D01*
X-830376Y9003182D01*
X-825906Y9002826D01*
X-821537Y9003182D01*
X-817575Y9004350D01*
X-814019Y9006230D01*
X-810920Y9008922D01*
X-808482Y9012174D01*
X-806704Y9015933D01*
X-805688Y9020200D01*
X-805332Y9024924D01*
X-805332Y9097822D01*
X-806399Y9109811D01*
X-809599Y9120936D01*
X-814882Y9131147D01*
X-822350Y9140494D01*
X-831545Y9148318D01*
X-841908Y9154007D01*
X-853389Y9157563D01*
X-866038Y9159036D01*
G37*
G36*
X-1014120Y8865920D02*
G01*
X-1018743Y8865514D01*
X-1022959Y8864447D01*
X-1026718Y8862618D01*
X-1030122Y8860078D01*
X-1032916Y8856980D01*
X-1034897Y8853576D01*
X-1036066Y8849868D01*
X-1036472Y8845854D01*
X-1036116Y8841486D01*
X-1034999Y8837574D01*
X-1033170Y8834120D01*
X-1030630Y8831122D01*
X-1027328Y8828532D01*
X-1023518Y8826601D01*
X-1019200Y8825331D01*
X-1014374Y8824772D01*
X-852627Y8819540D01*
X-851103Y8819083D01*
X-849731Y8818372D01*
X-848512Y8817406D01*
X-847598Y8816187D01*
X-846582Y8813393D01*
X-846582Y8810294D01*
X-847293Y8808008D01*
X-848055Y8806738D01*
X-870610Y8780830D01*
X-1013612Y8780830D01*
X-1018438Y8780424D01*
X-1022807Y8779357D01*
X-1026718Y8777528D01*
X-1030122Y8774988D01*
X-1032916Y8771940D01*
X-1034897Y8768486D01*
X-1036066Y8764574D01*
X-1036472Y8760256D01*
X-1036066Y8755888D01*
X-1034897Y8751976D01*
X-1032916Y8748522D01*
X-1030122Y8745524D01*
X-1026718Y8742934D01*
X-1022807Y8741105D01*
X-1018438Y8740038D01*
X-1013612Y8739682D01*
X-855116Y8739682D01*
X-853490Y8739479D01*
X-851916Y8738971D01*
X-850442Y8738108D01*
X-849020Y8736888D01*
X-847902Y8735314D01*
X-847090Y8733688D01*
X-846632Y8732012D01*
X-846582Y8728760D01*
X-847394Y8726373D01*
X-872388Y8695486D01*
X-1013612Y8695486D01*
X-1018438Y8695131D01*
X-1022807Y8694064D01*
X-1026718Y8692337D01*
X-1030122Y8689898D01*
X-1032916Y8686850D01*
X-1034897Y8683345D01*
X-1036066Y8679332D01*
X-1036472Y8674912D01*
X-1036066Y8670645D01*
X-1034897Y8666784D01*
X-1032916Y8663279D01*
X-1030122Y8660180D01*
X-1026718Y8657590D01*
X-1022807Y8655761D01*
X-1018438Y8654694D01*
X-1013612Y8654338D01*
X-827938Y8654338D01*
X-823010Y8654694D01*
X-818591Y8655710D01*
X-814730Y8657488D01*
X-811428Y8659926D01*
X-808736Y8662924D01*
X-806856Y8666429D01*
X-805688Y8670442D01*
X-805332Y8674912D01*
X-805586Y8678316D01*
X-806297Y8681415D01*
X-807466Y8684260D01*
X-809142Y8686850D01*
X-811276Y8689136D01*
X-813917Y8691168D01*
X-817016Y8692946D01*
X-820572Y8694470D01*
X-814984Y8701328D01*
X-812596Y8704732D01*
X-808939Y8711590D01*
X-807618Y8715044D01*
X-806602Y8718448D01*
X-805891Y8722156D01*
X-805484Y8726068D01*
X-805332Y8730284D01*
X-805637Y8736025D01*
X-806450Y8741562D01*
X-807923Y8746947D01*
X-809904Y8752128D01*
X-812495Y8757005D01*
X-815797Y8761780D01*
X-819759Y8766403D01*
X-824382Y8770924D01*
X-816457Y8781084D01*
X-813053Y8785961D01*
X-810361Y8790381D01*
X-808380Y8794292D01*
X-807059Y8798052D01*
X-806094Y8801963D01*
X-805535Y8806027D01*
X-805332Y8810294D01*
X-806145Y8820505D01*
X-808634Y8829751D01*
X-812749Y8838133D01*
X-818540Y8845600D01*
X-825703Y8851849D01*
X-833729Y8856522D01*
X-842568Y8859469D01*
X-852322Y8860840D01*
G37*
G36*
X-1014120Y8558834D02*
G01*
X-1018743Y8558479D01*
X-1022959Y8557361D01*
X-1026718Y8555532D01*
X-1030122Y8552992D01*
X-1032916Y8549894D01*
X-1034897Y8546490D01*
X-1036066Y8542782D01*
X-1036472Y8538768D01*
X-1036116Y8534603D01*
X-1035151Y8530894D01*
X-1033475Y8527491D01*
X-1031138Y8524544D01*
X-1028192Y8522106D01*
X-1024636Y8520125D01*
X-1020571Y8518652D01*
X-1015898Y8517686D01*
X-1031138Y8493810D01*
X-1033221Y8489594D01*
X-1034948Y8484666D01*
X-1036066Y8479840D01*
X-1036472Y8475522D01*
X-1036472Y8417102D01*
X-995324Y8417102D01*
X-995324Y8471966D01*
X-970432Y8516162D01*
X-952398Y8515654D01*
X-948385Y8515248D01*
X-944727Y8514181D01*
X-941374Y8512352D01*
X-938428Y8509812D01*
X-935990Y8506612D01*
X-934212Y8503208D01*
X-933196Y8499500D01*
X-932840Y8495588D01*
X-932840Y8416594D01*
X-933196Y8412886D01*
X-934313Y8409381D01*
X-936142Y8406130D01*
X-938682Y8403132D01*
X-941832Y8400440D01*
X-945286Y8398560D01*
X-948944Y8397392D01*
X-952906Y8397036D01*
X-975766Y8397036D01*
X-979576Y8397392D01*
X-983132Y8398459D01*
X-986434Y8400288D01*
X-989482Y8402878D01*
X-992022Y8405926D01*
X-993851Y8409330D01*
X-994968Y8413038D01*
X-995324Y8417102D01*
X-1036472Y8417102D01*
X-1035354Y8404860D01*
X-1032002Y8393582D01*
X-1026464Y8383270D01*
X-1018692Y8373922D01*
X-1009345Y8365998D01*
X-999083Y8360359D01*
X-987856Y8357006D01*
X-975766Y8355888D01*
X-952906Y8355888D01*
X-940765Y8357006D01*
X-929538Y8360460D01*
X-919175Y8366150D01*
X-909726Y8374176D01*
X-901852Y8383625D01*
X-896213Y8393887D01*
X-892810Y8405063D01*
X-891692Y8417102D01*
X-891743Y8498078D01*
X-892098Y8502751D01*
X-892911Y8507222D01*
X-894181Y8511540D01*
X-894994Y8513622D01*
X-866038Y8512098D01*
X-861821Y8511540D01*
X-858012Y8510371D01*
X-854710Y8508593D01*
X-851814Y8506256D01*
X-849477Y8503259D01*
X-847801Y8499906D01*
X-846785Y8496147D01*
X-846480Y8492032D01*
X-846480Y8419134D01*
X-846124Y8414207D01*
X-845058Y8409838D01*
X-843330Y8406079D01*
X-840892Y8402878D01*
X-837844Y8400288D01*
X-834339Y8398459D01*
X-830376Y8397392D01*
X-825906Y8397036D01*
X-821537Y8397392D01*
X-817575Y8398560D01*
X-814019Y8400440D01*
X-810920Y8403132D01*
X-808482Y8406384D01*
X-806704Y8410143D01*
X-805688Y8414410D01*
X-805332Y8419134D01*
X-805332Y8492032D01*
X-806399Y8504021D01*
X-809599Y8515146D01*
X-814882Y8525357D01*
X-822350Y8534704D01*
X-831545Y8542426D01*
X-841908Y8548065D01*
X-853389Y8551672D01*
X-866038Y8553246D01*
G37*
G36*
X-1015898Y8255812D02*
G01*
X-1020267Y8255406D01*
X-1024229Y8254187D01*
X-1027734Y8252206D01*
X-1030884Y8249462D01*
X-1033322Y8246008D01*
X-1035050Y8242147D01*
X-1036116Y8237778D01*
X-1036472Y8232952D01*
X-1036472Y8160308D01*
X-1034186Y8142325D01*
X-1027328Y8127034D01*
X-1021943Y8120278D01*
X-1015237Y8113979D01*
X-1007211Y8108188D01*
X-997864Y8102904D01*
X-909269Y8058708D01*
X-905357Y8057184D01*
X-901242Y8055914D01*
X-892606Y8054086D01*
X-888085Y8053527D01*
X-878484Y8053120D01*
X-868273Y8053527D01*
X-863498Y8054086D01*
X-854456Y8055914D01*
X-850239Y8057184D01*
X-846226Y8058708D01*
X-757834Y8102904D01*
X-748588Y8107984D01*
X-740613Y8113674D01*
X-733958Y8119922D01*
X-728624Y8126780D01*
X-721360Y8142122D01*
X-718972Y8160308D01*
X-718972Y8232952D01*
X-719328Y8237778D01*
X-720445Y8242147D01*
X-722274Y8246008D01*
X-724814Y8249462D01*
X-727913Y8252206D01*
X-731418Y8254187D01*
X-735279Y8255406D01*
X-739546Y8255812D01*
X-743813Y8255406D01*
X-747674Y8254187D01*
X-751179Y8252206D01*
X-754278Y8249462D01*
X-756818Y8246008D01*
X-758647Y8242147D01*
X-759764Y8237778D01*
X-760120Y8232952D01*
X-760120Y8160308D01*
X-760323Y8157311D01*
X-760984Y8154365D01*
X-762101Y8151571D01*
X-763676Y8148878D01*
X-765505Y8146440D01*
X-767588Y8144205D01*
X-770077Y8142224D01*
X-772820Y8140496D01*
X-860602Y8097621D01*
X-865022Y8096097D01*
X-869746Y8095183D01*
X-874979Y8094827D01*
X-880567Y8094827D01*
X-885748Y8095183D01*
X-890524Y8096097D01*
X-895096Y8097621D01*
X-982370Y8140496D01*
X-985164Y8142224D01*
X-987653Y8144205D01*
X-989837Y8146440D01*
X-991768Y8148878D01*
X-993343Y8151571D01*
X-994410Y8154365D01*
X-995121Y8157311D01*
X-995324Y8160308D01*
X-995324Y8232952D01*
X-995680Y8237778D01*
X-996797Y8242147D01*
X-998626Y8246008D01*
X-1001166Y8249462D01*
X-1004265Y8252206D01*
X-1007770Y8254187D01*
X-1011631Y8255406D01*
G37*
G36*
X-974242Y7801152D02*
G01*
X-986586Y7799984D01*
X-998067Y7796479D01*
X-1008583Y7790688D01*
X-1018184Y7782610D01*
X-1026160Y7773009D01*
X-1031900Y7762544D01*
X-1035303Y7751165D01*
X-1036472Y7738922D01*
X-1036472Y7657896D01*
X-1035710Y7647330D01*
X-1033373Y7637119D01*
X-1029462Y7627162D01*
X-1024026Y7617510D01*
X-1011377Y7603388D01*
X-998880Y7598714D01*
X-994918Y7599070D01*
X-991209Y7600137D01*
X-987704Y7601966D01*
X-984402Y7604556D01*
X-981710Y7607604D01*
X-979830Y7611008D01*
X-978662Y7614716D01*
X-978306Y7618780D01*
X-978814Y7622387D01*
X-980389Y7626654D01*
X-983030Y7631531D01*
X-990447Y7642656D01*
X-993140Y7647990D01*
X-994765Y7653070D01*
X-995324Y7657896D01*
X-995324Y7738922D01*
X-994918Y7742986D01*
X-993800Y7746796D01*
X-991869Y7750352D01*
X-989228Y7753654D01*
X-985926Y7756398D01*
X-982319Y7758379D01*
X-978408Y7759598D01*
X-974242Y7760004D01*
X-971143Y7759750D01*
X-968146Y7759090D01*
X-965301Y7757972D01*
X-962558Y7756448D01*
X-960069Y7754366D01*
X-957935Y7752029D01*
X-956106Y7749438D01*
X-954684Y7746542D01*
X-906678Y7636052D01*
X-898499Y7622235D01*
X-887120Y7611922D01*
X-873353Y7605217D01*
X-858418Y7603032D01*
X-847801Y7603998D01*
X-837946Y7606893D01*
X-829005Y7611719D01*
X-820826Y7618526D01*
X-814019Y7626654D01*
X-809193Y7635646D01*
X-806297Y7645450D01*
X-805332Y7656118D01*
X-805332Y7743240D01*
X-806094Y7753045D01*
X-808380Y7762392D01*
X-812190Y7771333D01*
X-817524Y7779816D01*
X-830071Y7792364D01*
X-842924Y7796580D01*
X-847090Y7796174D01*
X-850900Y7795056D01*
X-854456Y7793126D01*
X-857656Y7790484D01*
X-860196Y7787284D01*
X-862025Y7783779D01*
X-863142Y7780020D01*
X-863498Y7776006D01*
X-862939Y7772095D01*
X-861314Y7768031D01*
X-858621Y7763865D01*
X-851204Y7755178D01*
X-848563Y7750962D01*
X-846988Y7746796D01*
X-846480Y7742732D01*
X-846480Y7656118D01*
X-846683Y7653578D01*
X-847293Y7651292D01*
X-848309Y7649260D01*
X-849782Y7647482D01*
X-851712Y7646009D01*
X-853897Y7644993D01*
X-856386Y7644384D01*
X-859180Y7644180D01*
X-860552Y7644282D01*
X-863346Y7645298D01*
X-864768Y7646212D01*
X-867257Y7648651D01*
X-869086Y7651546D01*
X-916584Y7762798D01*
X-926287Y7778648D01*
X-939698Y7790738D01*
X-956056Y7798511D01*
G37*
G36*
X-1014120Y7498638D02*
G01*
X-1018743Y7498232D01*
X-1022959Y7497165D01*
X-1026718Y7495336D01*
X-1030122Y7492796D01*
X-1032916Y7489698D01*
X-1034897Y7486294D01*
X-1036066Y7482586D01*
X-1036472Y7478572D01*
X-1036116Y7474407D01*
X-1035151Y7470698D01*
X-1033475Y7467295D01*
X-1031138Y7464348D01*
X-1028192Y7461910D01*
X-1024636Y7459929D01*
X-1020571Y7458456D01*
X-1015898Y7457490D01*
X-1031138Y7433614D01*
X-1033221Y7429449D01*
X-1034948Y7424724D01*
X-1036066Y7419695D01*
X-1036472Y7415326D01*
X-1036472Y7356906D01*
X-995324Y7356906D01*
X-995324Y7411770D01*
X-970432Y7455966D01*
X-952398Y7455712D01*
X-948385Y7455306D01*
X-944727Y7454188D01*
X-941374Y7452258D01*
X-938428Y7449616D01*
X-935990Y7446416D01*
X-934212Y7443012D01*
X-933196Y7439304D01*
X-932840Y7435392D01*
X-932840Y7356652D01*
X-933196Y7352842D01*
X-934313Y7349286D01*
X-936142Y7345984D01*
X-938682Y7342936D01*
X-941832Y7340244D01*
X-945286Y7338364D01*
X-948944Y7337196D01*
X-952906Y7336840D01*
X-975766Y7336840D01*
X-979576Y7337196D01*
X-983132Y7338263D01*
X-986434Y7340092D01*
X-989482Y7342682D01*
X-992022Y7345730D01*
X-993851Y7349134D01*
X-994968Y7352842D01*
X-995324Y7356906D01*
X-1036472Y7356906D01*
X-1035354Y7344765D01*
X-1032002Y7333538D01*
X-1026464Y7323175D01*
X-1018692Y7313726D01*
X-1009345Y7305802D01*
X-999083Y7300163D01*
X-987856Y7296810D01*
X-975766Y7295692D01*
X-952906Y7295692D01*
X-940765Y7296810D01*
X-929538Y7300264D01*
X-919175Y7305954D01*
X-909726Y7313980D01*
X-901852Y7323429D01*
X-896213Y7333691D01*
X-892810Y7344867D01*
X-891692Y7356906D01*
X-891743Y7437881D01*
X-892098Y7442708D01*
X-892911Y7447178D01*
X-894994Y7453426D01*
X-866038Y7451902D01*
X-861821Y7451445D01*
X-858012Y7450277D01*
X-854710Y7448499D01*
X-851814Y7446060D01*
X-849477Y7443063D01*
X-847801Y7439710D01*
X-846785Y7435951D01*
X-846480Y7431836D01*
X-846480Y7358938D01*
X-846124Y7354011D01*
X-845058Y7349642D01*
X-843330Y7345883D01*
X-840892Y7342682D01*
X-837844Y7340092D01*
X-834339Y7338263D01*
X-830376Y7337196D01*
X-825906Y7336840D01*
X-821537Y7337196D01*
X-817575Y7338364D01*
X-814019Y7340244D01*
X-810920Y7342936D01*
X-808482Y7346188D01*
X-806704Y7349947D01*
X-805688Y7354214D01*
X-805332Y7358938D01*
X-805332Y7431836D01*
X-806399Y7443825D01*
X-809599Y7454950D01*
X-814882Y7465161D01*
X-822350Y7474508D01*
X-831545Y7482331D01*
X-841908Y7488021D01*
X-853389Y7491577D01*
X-866038Y7493050D01*
G37*
G36*
X-1015898Y7195870D02*
G01*
X-1020267Y7195464D01*
X-1024229Y7194194D01*
X-1027734Y7192162D01*
X-1030884Y7189266D01*
X-1033322Y7185812D01*
X-1035050Y7181951D01*
X-1036116Y7177582D01*
X-1036472Y7172756D01*
X-1036472Y7090714D01*
X-1036218Y7085584D01*
X-1035507Y7080351D01*
X-1034338Y7075017D01*
X-1032662Y7069632D01*
X-1030478Y7064400D01*
X-1028090Y7059574D01*
X-1025398Y7055256D01*
X-1022502Y7051344D01*
X-989990Y7014514D01*
X-979932Y7005116D01*
X-968654Y6998258D01*
X-956411Y6994245D01*
X-943508Y6992924D01*
X-898296Y6992924D01*
X-885596Y6994245D01*
X-873404Y6998258D01*
X-861923Y7005116D01*
X-851814Y7014514D01*
X-819556Y7051344D01*
X-816508Y7055256D01*
X-813765Y7059574D01*
X-811326Y7064400D01*
X-809142Y7069632D01*
X-807466Y7075017D01*
X-806297Y7080351D01*
X-805586Y7085584D01*
X-805332Y7090714D01*
X-805332Y7172756D01*
X-805688Y7177582D01*
X-806805Y7181951D01*
X-808634Y7185812D01*
X-811174Y7189266D01*
X-814273Y7192162D01*
X-817778Y7194194D01*
X-821639Y7195464D01*
X-825906Y7195870D01*
X-830224Y7195464D01*
X-834085Y7194346D01*
X-837488Y7192416D01*
X-840384Y7189774D01*
X-842822Y7186422D01*
X-844550Y7182459D01*
X-845616Y7177887D01*
X-845972Y7172756D01*
X-846074Y7088936D01*
X-846836Y7085482D01*
X-848360Y7082129D01*
X-852322Y7076490D01*
X-885291Y7038695D01*
X-888339Y7036511D01*
X-892048Y7034936D01*
X-895858Y7034174D01*
X-943508Y7034072D01*
X-947572Y7034428D01*
X-951636Y7035596D01*
X-955040Y7037476D01*
X-957732Y7039660D01*
X-989736Y7076744D01*
X-992530Y7080808D01*
X-994308Y7084364D01*
X-995070Y7087463D01*
X-995324Y7090714D01*
X-995324Y7172756D01*
X-995680Y7177684D01*
X-996797Y7182154D01*
X-998626Y7186066D01*
X-1001166Y7189520D01*
X-1004265Y7192264D01*
X-1007770Y7194245D01*
X-1011631Y7195464D01*
G37*
G36*
X-1013612Y6892848D02*
G01*
X-1018438Y6892442D01*
X-1022807Y6891375D01*
X-1026718Y6889546D01*
X-1030122Y6887006D01*
X-1032916Y6883958D01*
X-1034897Y6880504D01*
X-1036066Y6876592D01*
X-1036472Y6872274D01*
X-1036066Y6867906D01*
X-1034897Y6863994D01*
X-1032916Y6860540D01*
X-1030122Y6857542D01*
X-1026718Y6854952D01*
X-1022807Y6853123D01*
X-1018438Y6852056D01*
X-1013612Y6851700D01*
X-1000912Y6851700D01*
X-1017676Y6827316D01*
X-1025906Y6814007D01*
X-1031748Y6801154D01*
X-1035303Y6788607D01*
X-1036472Y6776516D01*
X-1036472Y6758228D01*
X-1035303Y6743446D01*
X-1031748Y6730695D01*
X-1025906Y6719976D01*
X-1017676Y6711238D01*
X-1010818Y6706362D01*
X-1002842Y6702348D01*
X-993749Y6699097D01*
X-983487Y6696659D01*
X-972058Y6695033D01*
X-959510Y6694220D01*
X-827430Y6689902D01*
X-822807Y6690258D01*
X-818591Y6691325D01*
X-814781Y6693153D01*
X-811428Y6695744D01*
X-808736Y6698843D01*
X-806856Y6702348D01*
X-805688Y6706209D01*
X-805332Y6710476D01*
X-805688Y6714794D01*
X-806856Y6718706D01*
X-808736Y6722160D01*
X-811428Y6725208D01*
X-814781Y6727545D01*
X-818743Y6729323D01*
X-823264Y6730492D01*
X-828446Y6731050D01*
X-961542Y6735876D01*
X-976731Y6738213D01*
X-987196Y6743242D01*
X-990752Y6746798D01*
X-993292Y6751116D01*
X-994816Y6756196D01*
X-995324Y6762038D01*
X-995324Y6775246D01*
X-992835Y6786981D01*
X-983945Y6803745D01*
X-952906Y6851700D01*
X-828446Y6851700D01*
X-823366Y6852056D01*
X-818845Y6853072D01*
X-814882Y6854850D01*
X-811428Y6857288D01*
X-808736Y6860286D01*
X-806856Y6863791D01*
X-805688Y6867804D01*
X-805332Y6872274D01*
X-805738Y6876491D01*
X-806907Y6880402D01*
X-808888Y6883857D01*
X-811682Y6887006D01*
X-815086Y6889546D01*
X-819048Y6891375D01*
X-823468Y6892442D01*
X-828446Y6892848D01*
G37*
G36*
X-1015898Y6590080D02*
G01*
X-1020267Y6589674D01*
X-1024229Y6588404D01*
X-1027734Y6586372D01*
X-1030884Y6583476D01*
X-1033322Y6580073D01*
X-1035050Y6576161D01*
X-1036116Y6571792D01*
X-1036472Y6566966D01*
X-1036472Y6387134D01*
X-742086Y6387134D01*
X-737057Y6387490D01*
X-732536Y6388506D01*
X-728675Y6390284D01*
X-725322Y6392722D01*
X-722528Y6395720D01*
X-720547Y6399225D01*
X-719378Y6403238D01*
X-718972Y6407708D01*
X-719378Y6411925D01*
X-720598Y6415836D01*
X-722680Y6419291D01*
X-725576Y6422440D01*
X-728980Y6424980D01*
X-732891Y6426809D01*
X-737260Y6427876D01*
X-742086Y6428282D01*
X-995324Y6428282D01*
X-995324Y6566966D01*
X-995680Y6571894D01*
X-996797Y6576364D01*
X-998626Y6580276D01*
X-1001166Y6583730D01*
X-1004265Y6586474D01*
X-1007770Y6588455D01*
X-1011631Y6589674D01*
G37*
G36*
X-1015898Y6135674D02*
G01*
X-1020267Y6135268D01*
X-1024229Y6133998D01*
X-1027734Y6131966D01*
X-1030884Y6129070D01*
X-1033322Y6125616D01*
X-1035050Y6121755D01*
X-1036116Y6117386D01*
X-1036472Y6112560D01*
X-1036472Y6011214D01*
X-1036269Y6006033D01*
X-1035558Y6000953D01*
X-1034491Y5996025D01*
X-1032916Y5991148D01*
X-1030935Y5986221D01*
X-1028547Y5981496D01*
X-1025702Y5976823D01*
X-1022502Y5972352D01*
X-1007516Y5954826D01*
X-998118Y5945530D01*
X-986688Y5938570D01*
X-974090Y5934151D01*
X-961288Y5932728D01*
X-880770Y5932728D01*
X-867562Y5934151D01*
X-854862Y5938570D01*
X-843229Y5945530D01*
X-833780Y5954826D01*
X-819556Y5972352D01*
X-816203Y5976823D01*
X-813308Y5981496D01*
X-810869Y5986221D01*
X-808888Y5991148D01*
X-807313Y5996025D01*
X-806196Y6000953D01*
X-805535Y6006033D01*
X-805332Y6011214D01*
X-805332Y6056680D01*
X-805535Y6061760D01*
X-806196Y6066840D01*
X-807313Y6071920D01*
X-808888Y6077000D01*
X-810971Y6081979D01*
X-813460Y6086754D01*
X-816305Y6091377D01*
X-819556Y6095796D01*
X-833780Y6113576D01*
X-843229Y6122619D01*
X-854862Y6129578D01*
X-867562Y6134150D01*
X-880770Y6135674D01*
X-929792Y6135674D01*
X-934059Y6135268D01*
X-937920Y6133998D01*
X-941425Y6131966D01*
X-944524Y6129070D01*
X-947064Y6125616D01*
X-948893Y6121755D01*
X-950010Y6117386D01*
X-950366Y6112560D01*
X-950366Y6094526D01*
X-880770Y6094526D01*
X-876503Y6094018D01*
X-872388Y6092494D01*
X-870356Y6091377D01*
X-867054Y6088735D01*
X-850798Y6069380D01*
X-848766Y6066231D01*
X-847242Y6063030D01*
X-846277Y6059779D01*
X-845972Y6056680D01*
X-846023Y6010148D01*
X-846683Y6006998D01*
X-847953Y6003696D01*
X-850798Y5998768D01*
X-866902Y5979668D01*
X-870356Y5976975D01*
X-874420Y5974994D01*
X-878636Y5973978D01*
X-908456Y5973876D01*
X-908456Y6094526D01*
X-950366Y6094526D01*
X-950366Y5973876D01*
X-963421Y5973978D01*
X-967638Y5974994D01*
X-971600Y5976975D01*
X-974902Y5979668D01*
X-991006Y5998768D01*
X-992987Y6001613D01*
X-994308Y6004610D01*
X-995070Y6007912D01*
X-995324Y6011722D01*
X-995324Y6112560D01*
X-995680Y6117488D01*
X-996797Y6121958D01*
X-998626Y6125870D01*
X-1001166Y6129324D01*
X-1004265Y6132068D01*
X-1007770Y6134049D01*
X-1011631Y6135268D01*
G37*
G36*
X-1014120Y5681268D02*
G01*
X-1018743Y5680913D01*
X-1022959Y5679795D01*
X-1026718Y5677966D01*
X-1030122Y5675426D01*
X-1032916Y5672328D01*
X-1034897Y5668924D01*
X-1036066Y5665216D01*
X-1036472Y5661202D01*
X-1036116Y5657037D01*
X-1035151Y5653328D01*
X-1033475Y5649925D01*
X-1031138Y5646978D01*
X-1028192Y5644540D01*
X-1024636Y5642559D01*
X-1020571Y5641086D01*
X-1015898Y5640120D01*
X-1031138Y5616244D01*
X-1033221Y5612028D01*
X-1034948Y5607100D01*
X-1036066Y5602274D01*
X-1036472Y5597956D01*
X-1036472Y5539536D01*
X-995324Y5539536D01*
X-995324Y5594400D01*
X-970432Y5638596D01*
X-952398Y5638088D01*
X-948385Y5637682D01*
X-944727Y5636615D01*
X-941374Y5634786D01*
X-938428Y5632246D01*
X-935990Y5629046D01*
X-934212Y5625642D01*
X-933196Y5621934D01*
X-932840Y5618022D01*
X-932840Y5539028D01*
X-933196Y5535320D01*
X-934313Y5531815D01*
X-936142Y5528564D01*
X-938682Y5525566D01*
X-941832Y5522874D01*
X-945286Y5520994D01*
X-948944Y5519826D01*
X-952906Y5519470D01*
X-975766Y5519470D01*
X-979576Y5519826D01*
X-983132Y5520893D01*
X-986434Y5522722D01*
X-989482Y5525312D01*
X-992022Y5528360D01*
X-993851Y5531764D01*
X-994968Y5535472D01*
X-995324Y5539536D01*
X-1036472Y5539536D01*
X-1035354Y5527395D01*
X-1032002Y5516168D01*
X-1026464Y5505805D01*
X-1018692Y5496356D01*
X-1009345Y5488432D01*
X-999083Y5482793D01*
X-987856Y5479440D01*
X-975766Y5478322D01*
X-952906Y5478322D01*
X-940765Y5479440D01*
X-929538Y5482894D01*
X-919175Y5488584D01*
X-909726Y5496610D01*
X-901852Y5506059D01*
X-896213Y5516321D01*
X-892810Y5527497D01*
X-891692Y5539536D01*
X-891743Y5620512D01*
X-892098Y5625338D01*
X-892911Y5629808D01*
X-894994Y5636056D01*
X-866038Y5634532D01*
X-861821Y5633974D01*
X-858012Y5632805D01*
X-854710Y5631027D01*
X-851814Y5628690D01*
X-849477Y5625693D01*
X-847801Y5622340D01*
X-846785Y5618581D01*
X-846480Y5614466D01*
X-846480Y5541568D01*
X-846124Y5536641D01*
X-845058Y5532272D01*
X-843330Y5528513D01*
X-840892Y5525312D01*
X-837844Y5522722D01*
X-834339Y5520893D01*
X-830376Y5519826D01*
X-825906Y5519470D01*
X-821537Y5519826D01*
X-817575Y5520994D01*
X-814019Y5522874D01*
X-810920Y5525566D01*
X-808482Y5528818D01*
X-806704Y5532577D01*
X-805688Y5536844D01*
X-805332Y5541568D01*
X-805332Y5614466D01*
X-806399Y5626455D01*
X-809599Y5637580D01*
X-814882Y5647791D01*
X-822350Y5657138D01*
X-831545Y5664962D01*
X-841908Y5670651D01*
X-853389Y5674207D01*
X-866038Y5675680D01*
G37*
G36*
X-1015898Y5357672D02*
G01*
X-1020267Y5357266D01*
X-1024229Y5356047D01*
X-1027734Y5354066D01*
X-1030884Y5351322D01*
X-1033322Y5348020D01*
X-1035050Y5344261D01*
X-1036116Y5339994D01*
X-1036472Y5335320D01*
X-1036472Y5218480D01*
X-1036116Y5213604D01*
X-1035050Y5209235D01*
X-1033322Y5205374D01*
X-1030884Y5201970D01*
X-1027734Y5199176D01*
X-1024229Y5197195D01*
X-1020267Y5195976D01*
X-1015898Y5195620D01*
X-1011631Y5195976D01*
X-1007770Y5197195D01*
X-1004265Y5199176D01*
X-1001166Y5201970D01*
X-998626Y5205476D01*
X-996797Y5209387D01*
X-995680Y5213705D01*
X-995324Y5218480D01*
X-995324Y5255818D01*
X-846480Y5255818D01*
X-846480Y5218480D01*
X-846124Y5213502D01*
X-845007Y5209082D01*
X-843178Y5205120D01*
X-840638Y5201716D01*
X-837641Y5199024D01*
X-834136Y5197144D01*
X-830275Y5195976D01*
X-825906Y5195620D01*
X-821639Y5195976D01*
X-817778Y5197195D01*
X-814273Y5199176D01*
X-811174Y5201970D01*
X-808634Y5205476D01*
X-806805Y5209387D01*
X-805688Y5213705D01*
X-805332Y5218480D01*
X-805332Y5274614D01*
X-805688Y5279440D01*
X-806704Y5283809D01*
X-808482Y5287670D01*
X-810920Y5291124D01*
X-814019Y5293868D01*
X-817575Y5295849D01*
X-821537Y5297068D01*
X-825906Y5297474D01*
X-995324Y5297474D01*
X-995324Y5335320D01*
X-995680Y5340045D01*
X-996797Y5344312D01*
X-998626Y5348173D01*
X-1001166Y5351576D01*
X-1004163Y5354218D01*
X-1007618Y5356148D01*
X-1011529Y5357266D01*
G37*
G36*
X-739546Y5297474D02*
G01*
X-743813Y5297068D01*
X-747674Y5295849D01*
X-751179Y5293868D01*
X-754278Y5291124D01*
X-756818Y5287619D01*
X-758647Y5283657D01*
X-759764Y5279339D01*
X-760120Y5274614D01*
X-760120Y5258612D01*
X-759764Y5253634D01*
X-758698Y5249265D01*
X-756970Y5245404D01*
X-754532Y5242102D01*
X-751484Y5239308D01*
X-747979Y5237327D01*
X-744016Y5236159D01*
X-739546Y5235752D01*
X-722528Y5235752D01*
X-718159Y5236159D01*
X-714197Y5237327D01*
X-710641Y5239308D01*
X-707542Y5242102D01*
X-705104Y5245506D01*
X-703326Y5249367D01*
X-702310Y5253736D01*
X-701954Y5258612D01*
X-701954Y5278932D01*
X-702310Y5282285D01*
X-703478Y5285536D01*
X-705358Y5288635D01*
X-708050Y5291632D01*
X-711352Y5294172D01*
X-714857Y5296001D01*
X-718566Y5297068D01*
X-722528Y5297474D01*
G37*
G36*
X-1015898Y5075478D02*
G01*
X-1020267Y5075072D01*
X-1024229Y5073853D01*
X-1027734Y5071872D01*
X-1030884Y5069128D01*
X-1033322Y5065623D01*
X-1035050Y5061661D01*
X-1036116Y5057343D01*
X-1036472Y5052618D01*
X-1036472Y4970322D01*
X-1036218Y4965192D01*
X-1035507Y4959959D01*
X-1034338Y4954625D01*
X-1032662Y4949240D01*
X-1030478Y4944008D01*
X-1028090Y4939182D01*
X-1025398Y4934864D01*
X-1022502Y4930952D01*
X-989990Y4894122D01*
X-979932Y4884775D01*
X-968654Y4878120D01*
X-956411Y4873904D01*
X-943508Y4872532D01*
X-898296Y4872532D01*
X-885596Y4873904D01*
X-873404Y4878120D01*
X-861923Y4884775D01*
X-851814Y4894122D01*
X-819556Y4930952D01*
X-816508Y4934864D01*
X-813765Y4939182D01*
X-811326Y4944008D01*
X-809142Y4949240D01*
X-807466Y4954625D01*
X-806297Y4959959D01*
X-805586Y4965192D01*
X-805332Y4970322D01*
X-805332Y5052618D01*
X-805688Y5057343D01*
X-806805Y5061661D01*
X-808634Y5065623D01*
X-811174Y5069128D01*
X-814273Y5071872D01*
X-817778Y5073853D01*
X-821639Y5075072D01*
X-825906Y5075478D01*
X-830224Y5075072D01*
X-834085Y5073954D01*
X-837488Y5072024D01*
X-840384Y5069382D01*
X-842822Y5066030D01*
X-844550Y5062118D01*
X-845616Y5057648D01*
X-845972Y5052618D01*
X-846074Y4968544D01*
X-846836Y4965090D01*
X-848360Y4961788D01*
X-850798Y4958232D01*
X-884072Y4919776D01*
X-886714Y4917287D01*
X-888339Y4916271D01*
X-892048Y4914646D01*
X-895858Y4913782D01*
X-943508Y4913680D01*
X-947572Y4914087D01*
X-951636Y4915458D01*
X-955040Y4917236D01*
X-956513Y4918303D01*
X-989736Y4956606D01*
X-992530Y4960569D01*
X-994308Y4963972D01*
X-995070Y4967071D01*
X-995324Y4970322D01*
X-995324Y5052618D01*
X-995680Y5057444D01*
X-996797Y5061813D01*
X-998626Y5065674D01*
X-1001166Y5069128D01*
X-1004265Y5071872D01*
X-1007770Y5073853D01*
X-1011631Y5075072D01*
G37*
G36*
X-1015898Y4751882D02*
G01*
X-1020267Y4751476D01*
X-1024229Y4750257D01*
X-1027734Y4748276D01*
X-1030884Y4745532D01*
X-1033322Y4742129D01*
X-1035050Y4738319D01*
X-1036116Y4734153D01*
X-1036472Y4729530D01*
X-1036472Y4612690D01*
X-1036116Y4607814D01*
X-1035050Y4603445D01*
X-1033322Y4599584D01*
X-1030884Y4596180D01*
X-1027734Y4593386D01*
X-1024229Y4591405D01*
X-1020267Y4590186D01*
X-1015898Y4589830D01*
X-1011631Y4590186D01*
X-1007770Y4591405D01*
X-1004265Y4593386D01*
X-1001166Y4596180D01*
X-998626Y4599686D01*
X-996797Y4603597D01*
X-995680Y4607915D01*
X-995324Y4612690D01*
X-995324Y4650028D01*
X-846480Y4650028D01*
X-846480Y4612690D01*
X-846124Y4607712D01*
X-845007Y4603292D01*
X-843178Y4599330D01*
X-840638Y4595926D01*
X-837641Y4593234D01*
X-834136Y4591354D01*
X-830275Y4590186D01*
X-825906Y4589830D01*
X-821639Y4590186D01*
X-817778Y4591405D01*
X-814273Y4593386D01*
X-811174Y4596180D01*
X-808634Y4599686D01*
X-806805Y4603597D01*
X-805688Y4607915D01*
X-805332Y4612690D01*
X-805332Y4668824D01*
X-805688Y4673650D01*
X-806704Y4678019D01*
X-808482Y4681931D01*
X-810920Y4685334D01*
X-814019Y4688078D01*
X-817575Y4690059D01*
X-821537Y4691278D01*
X-825906Y4691684D01*
X-995324Y4691684D01*
X-995324Y4729530D01*
X-995680Y4734255D01*
X-996797Y4738522D01*
X-998626Y4742383D01*
X-1001166Y4745786D01*
X-1004163Y4748428D01*
X-1007618Y4750358D01*
X-1011529Y4751476D01*
G37*
G36*
X-739546Y4691684D02*
G01*
X-743813Y4691278D01*
X-747674Y4690059D01*
X-751179Y4688078D01*
X-754278Y4685334D01*
X-756818Y4681829D01*
X-758647Y4677867D01*
X-759764Y4673549D01*
X-760120Y4668824D01*
X-760120Y4652822D01*
X-759764Y4647844D01*
X-758698Y4643475D01*
X-756970Y4639614D01*
X-754532Y4636312D01*
X-751484Y4633518D01*
X-747979Y4631537D01*
X-744016Y4630318D01*
X-739546Y4629962D01*
X-722528Y4629962D01*
X-718159Y4630318D01*
X-714197Y4631537D01*
X-710641Y4633518D01*
X-707542Y4636312D01*
X-705104Y4639716D01*
X-703326Y4643577D01*
X-702310Y4647946D01*
X-701954Y4652822D01*
X-701954Y4673142D01*
X-702310Y4676495D01*
X-703478Y4679746D01*
X-705358Y4682845D01*
X-708050Y4685842D01*
X-711352Y4688382D01*
X-714857Y4690211D01*
X-718566Y4691329D01*
X-722528Y4691684D01*
G37*
G36*
X-980084Y4469180D02*
G01*
X-990498Y4468012D01*
X-1000455Y4464608D01*
X-1009954Y4458868D01*
X-1018946Y4450892D01*
X-1026617Y4441444D01*
X-1032103Y4431233D01*
X-1035354Y4420260D01*
X-1036472Y4408474D01*
X-1036472Y4368342D01*
X-1035354Y4356100D01*
X-1031951Y4344771D01*
X-1026312Y4334357D01*
X-1018438Y4324908D01*
X-1008989Y4316984D01*
X-998626Y4311345D01*
X-987399Y4307992D01*
X-975258Y4306874D01*
X-846480Y4306874D01*
X-846480Y4289856D01*
X-846124Y4284776D01*
X-845007Y4280306D01*
X-843178Y4276394D01*
X-840638Y4273092D01*
X-837641Y4270298D01*
X-834136Y4268317D01*
X-830275Y4267149D01*
X-825906Y4266742D01*
X-821639Y4267149D01*
X-817778Y4268368D01*
X-814273Y4270451D01*
X-811174Y4273346D01*
X-808634Y4276750D01*
X-806805Y4280611D01*
X-805688Y4284980D01*
X-805332Y4289856D01*
X-805332Y4306874D01*
X-758850Y4306874D01*
X-753821Y4307230D01*
X-749401Y4308297D01*
X-745540Y4310126D01*
X-742340Y4312716D01*
X-739648Y4315714D01*
X-737768Y4319168D01*
X-736600Y4323080D01*
X-736244Y4327448D01*
X-736650Y4331817D01*
X-737819Y4335830D01*
X-739800Y4339437D01*
X-742594Y4342688D01*
X-745896Y4345228D01*
X-749706Y4347057D01*
X-754024Y4348124D01*
X-758850Y4348530D01*
X-805332Y4348530D01*
X-805332Y4426508D01*
X-805688Y4431436D01*
X-806704Y4435906D01*
X-808482Y4439818D01*
X-810920Y4443272D01*
X-814019Y4446016D01*
X-817575Y4447997D01*
X-821537Y4449216D01*
X-825906Y4449622D01*
X-830173Y4449216D01*
X-834034Y4447946D01*
X-837539Y4445914D01*
X-840638Y4443018D01*
X-843178Y4439615D01*
X-845007Y4435703D01*
X-846124Y4431334D01*
X-846480Y4426508D01*
X-846480Y4348530D01*
X-975766Y4348530D01*
X-979779Y4348886D01*
X-983437Y4349902D01*
X-986739Y4351680D01*
X-989736Y4354118D01*
X-992174Y4357166D01*
X-993902Y4360570D01*
X-994968Y4364278D01*
X-995324Y4368342D01*
X-995324Y4408982D01*
X-995121Y4412081D01*
X-994410Y4414977D01*
X-993343Y4417771D01*
X-991768Y4420412D01*
X-989685Y4422800D01*
X-987196Y4424832D01*
X-984351Y4426610D01*
X-977798Y4429302D01*
X-965047Y4436922D01*
X-960780Y4449114D01*
X-961136Y4453128D01*
X-962253Y4456836D01*
X-964082Y4460240D01*
X-966622Y4463338D01*
X-969670Y4465878D01*
X-972921Y4467707D01*
X-976376Y4468774D01*
G37*
G36*
X-1015898Y4166666D02*
G01*
X-1020267Y4166260D01*
X-1024229Y4165041D01*
X-1027734Y4163060D01*
X-1030884Y4160316D01*
X-1033322Y4156862D01*
X-1035050Y4153001D01*
X-1036116Y4148632D01*
X-1036472Y4143806D01*
X-1036472Y4042460D01*
X-1036269Y4037279D01*
X-1035558Y4032148D01*
X-1034491Y4027119D01*
X-1032916Y4022140D01*
X-1030935Y4017365D01*
X-1028547Y4012641D01*
X-1025702Y4008069D01*
X-1022502Y4003598D01*
X-1007516Y3985818D01*
X-998118Y3976725D01*
X-986688Y3969816D01*
X-974090Y3965397D01*
X-961288Y3963974D01*
X-880770Y3963974D01*
X-867562Y3965397D01*
X-854862Y3969816D01*
X-843229Y3976725D01*
X-833780Y3985818D01*
X-819556Y4003598D01*
X-816203Y4008069D01*
X-813308Y4012641D01*
X-810869Y4017365D01*
X-808888Y4022140D01*
X-807313Y4027119D01*
X-806196Y4032148D01*
X-805535Y4037279D01*
X-805332Y4042460D01*
X-805332Y4087926D01*
X-805535Y4093006D01*
X-806196Y4098086D01*
X-807313Y4103166D01*
X-808888Y4108246D01*
X-810971Y4113225D01*
X-813460Y4118000D01*
X-816305Y4122623D01*
X-819556Y4127042D01*
X-833780Y4144822D01*
X-843229Y4153763D01*
X-854862Y4160824D01*
X-867562Y4165193D01*
X-880770Y4166666D01*
X-929792Y4166666D01*
X-934059Y4166260D01*
X-937920Y4165041D01*
X-941425Y4163060D01*
X-944524Y4160316D01*
X-947064Y4156862D01*
X-948893Y4153001D01*
X-950010Y4148632D01*
X-950366Y4143806D01*
X-950366Y4125518D01*
X-880770Y4125518D01*
X-876503Y4125010D01*
X-872388Y4123486D01*
X-868578Y4121200D01*
X-865784Y4118406D01*
X-850798Y4100372D01*
X-848766Y4097324D01*
X-847242Y4094276D01*
X-846277Y4091025D01*
X-845972Y4087926D01*
X-846023Y4041140D01*
X-846683Y4037990D01*
X-847953Y4034790D01*
X-850798Y4030014D01*
X-866902Y4010914D01*
X-870356Y4008221D01*
X-874420Y4006240D01*
X-878636Y4005224D01*
X-908456Y4005122D01*
X-908456Y4125518D01*
X-950366Y4125518D01*
X-950366Y4005122D01*
X-963421Y4005224D01*
X-967638Y4006240D01*
X-971600Y4008221D01*
X-974902Y4010914D01*
X-991006Y4030014D01*
X-992987Y4032859D01*
X-994308Y4035856D01*
X-995070Y4038955D01*
X-995324Y4042714D01*
X-995324Y4143806D01*
X-995680Y4148632D01*
X-996797Y4153001D01*
X-998626Y4156862D01*
X-1001166Y4160316D01*
X-1004265Y4163060D01*
X-1007770Y4165041D01*
X-1011631Y4166260D01*
G37*
G36*
X-1015898Y3863898D02*
G01*
X-1020267Y3863492D01*
X-1024229Y3862222D01*
X-1027734Y3860190D01*
X-1030884Y3857294D01*
X-1033322Y3853840D01*
X-1035050Y3849979D01*
X-1036116Y3845610D01*
X-1036472Y3840784D01*
X-1036472Y3660952D01*
X-742086Y3660952D01*
X-737057Y3661308D01*
X-732536Y3662324D01*
X-728675Y3664102D01*
X-725322Y3666540D01*
X-722528Y3669537D01*
X-720547Y3673043D01*
X-719378Y3677056D01*
X-718972Y3681526D01*
X-719378Y3685743D01*
X-720598Y3689654D01*
X-722680Y3693109D01*
X-725576Y3696258D01*
X-728980Y3698798D01*
X-732891Y3700627D01*
X-737260Y3701745D01*
X-742086Y3702100D01*
X-995324Y3702100D01*
X-995324Y3840784D01*
X-995680Y3845712D01*
X-996797Y3850182D01*
X-998626Y3854094D01*
X-1001166Y3857548D01*
X-1004265Y3860292D01*
X-1007770Y3862273D01*
X-1011631Y3863492D01*
G37*
G36*
X-991006Y3409492D02*
G01*
X-1001420Y3408730D01*
X-1010513Y3406495D01*
X-1018286Y3402736D01*
X-1024788Y3397554D01*
X-1029919Y3391052D01*
X-1033526Y3383229D01*
X-1035761Y3374136D01*
X-1036158Y3368344D01*
X-933094Y3368344D01*
X-933094Y3247694D01*
X-995324Y3247694D01*
X-995324Y3368344D01*
X-1036158Y3368344D01*
X-1036472Y3363772D01*
X-1036472Y3252012D01*
X-1035761Y3241700D01*
X-1033526Y3232607D01*
X-1029919Y3224784D01*
X-1024788Y3218230D01*
X-1018286Y3213100D01*
X-1010513Y3209442D01*
X-1001420Y3207258D01*
X-991006Y3206546D01*
X-742086Y3206546D01*
X-737057Y3206902D01*
X-732536Y3207918D01*
X-728675Y3209696D01*
X-725322Y3212134D01*
X-722528Y3215233D01*
X-720547Y3218789D01*
X-719378Y3222752D01*
X-718972Y3227120D01*
X-718972Y3245408D01*
X-719328Y3250234D01*
X-720445Y3254603D01*
X-722274Y3258515D01*
X-724814Y3261918D01*
X-727913Y3264662D01*
X-731418Y3266643D01*
X-735279Y3267862D01*
X-739546Y3268268D01*
X-743458Y3267913D01*
X-747115Y3266846D01*
X-750468Y3265119D01*
X-753516Y3262680D01*
X-756005Y3259632D01*
X-757936Y3256127D01*
X-759307Y3252114D01*
X-760120Y3247694D01*
X-891946Y3247694D01*
X-891946Y3363772D01*
X-892708Y3374136D01*
X-894943Y3383229D01*
X-898652Y3391052D01*
X-903884Y3397554D01*
X-910336Y3402736D01*
X-918108Y3406495D01*
X-927100Y3408730D01*
X-937412Y3409492D01*
G37*
G36*
X-1015898Y3106724D02*
G01*
X-1020267Y3106318D01*
X-1024229Y3105048D01*
X-1027734Y3103016D01*
X-1030884Y3100120D01*
X-1033322Y3096666D01*
X-1035050Y3092805D01*
X-1036116Y3088436D01*
X-1036472Y3083610D01*
X-1036472Y2903778D01*
X-898296Y2903778D01*
X-882497Y2906725D01*
X-869086Y2915716D01*
X-860145Y2928975D01*
X-857148Y2944926D01*
X-857148Y3065576D01*
X-760120Y3065576D01*
X-760120Y2926638D01*
X-759764Y2921660D01*
X-758698Y2917240D01*
X-756970Y2913278D01*
X-754532Y2909874D01*
X-751484Y2907182D01*
X-747979Y2905302D01*
X-744016Y2904134D01*
X-739546Y2903778D01*
X-735279Y2904134D01*
X-731418Y2905353D01*
X-727913Y2907334D01*
X-724814Y2910128D01*
X-722274Y2913634D01*
X-720445Y2917545D01*
X-719328Y2921863D01*
X-718972Y2926638D01*
X-718972Y3065576D01*
X-722020Y3081172D01*
X-731164Y3094532D01*
X-744372Y3103676D01*
X-760120Y3106724D01*
X-857148Y3106724D01*
X-873099Y3103676D01*
X-886358Y3094532D01*
X-895299Y3081172D01*
X-898296Y3065576D01*
X-898296Y2944926D01*
X-995324Y2944926D01*
X-995324Y3083610D01*
X-995680Y3088538D01*
X-996797Y3093008D01*
X-998626Y3096920D01*
X-1001166Y3100374D01*
X-1004265Y3103118D01*
X-1007770Y3105099D01*
X-1011631Y3106318D01*
G37*
G36*
X-991006Y2803702D02*
G01*
X-1001420Y2802940D01*
X-1010513Y2800705D01*
X-1018286Y2796946D01*
X-1024788Y2791764D01*
X-1029919Y2785262D01*
X-1033526Y2777439D01*
X-1035761Y2768346D01*
X-1036158Y2762554D01*
X-760120Y2762554D01*
X-760120Y2641904D01*
X-995324Y2641904D01*
X-995324Y2762554D01*
X-1036158Y2762554D01*
X-1036472Y2757982D01*
X-1036472Y2646222D01*
X-1035761Y2635910D01*
X-1033526Y2626817D01*
X-1029919Y2618994D01*
X-1024788Y2612440D01*
X-1018286Y2607310D01*
X-1010513Y2603652D01*
X-1001420Y2601468D01*
X-991006Y2600756D01*
X-764438Y2600756D01*
X-754126Y2601468D01*
X-745134Y2603652D01*
X-737362Y2607310D01*
X-730910Y2612440D01*
X-725678Y2618994D01*
X-721969Y2626817D01*
X-719734Y2635910D01*
X-718972Y2646222D01*
X-718972Y2757982D01*
X-719734Y2768346D01*
X-721969Y2777439D01*
X-725678Y2785262D01*
X-730910Y2791764D01*
X-737362Y2796946D01*
X-745134Y2800705D01*
X-754126Y2802940D01*
X-764438Y2803702D01*
G37*
G36*
X-1015898Y2500934D02*
G01*
X-1020267Y2500528D01*
X-1024229Y2499258D01*
X-1027734Y2497226D01*
X-1030884Y2494330D01*
X-1033322Y2490876D01*
X-1035050Y2487015D01*
X-1036116Y2482646D01*
X-1036472Y2477820D01*
X-1036472Y2297988D01*
X-898296Y2297988D01*
X-882497Y2300935D01*
X-869086Y2309926D01*
X-860145Y2323185D01*
X-857148Y2339136D01*
X-857148Y2459786D01*
X-760120Y2459786D01*
X-760120Y2320848D01*
X-759764Y2315870D01*
X-758698Y2311450D01*
X-756970Y2307488D01*
X-754532Y2304084D01*
X-751484Y2301392D01*
X-747979Y2299512D01*
X-744016Y2298344D01*
X-739546Y2297988D01*
X-735279Y2298344D01*
X-731418Y2299563D01*
X-727913Y2301544D01*
X-724814Y2304338D01*
X-722274Y2307844D01*
X-720445Y2311755D01*
X-719328Y2316073D01*
X-718972Y2320848D01*
X-718972Y2459786D01*
X-722020Y2475382D01*
X-731164Y2488742D01*
X-744372Y2497886D01*
X-760120Y2500934D01*
X-857148Y2500934D01*
X-873099Y2497886D01*
X-886358Y2488742D01*
X-895299Y2475382D01*
X-898296Y2459786D01*
X-898296Y2339136D01*
X-995324Y2339136D01*
X-995324Y2477820D01*
X-995680Y2482748D01*
X-996797Y2487218D01*
X-998626Y2491130D01*
X-1001166Y2494584D01*
X-1004265Y2497328D01*
X-1007770Y2499309D01*
X-1011631Y2500528D01*
G37*
G36*
X-919581Y2022602D02*
G01*
X-934008Y2021332D01*
X-947775Y2017522D01*
X-961694Y2010867D01*
X-975969Y2001012D01*
X-1026261Y1962150D01*
X-1030071Y1958390D01*
X-1031595Y1956409D01*
X-1033983Y1951939D01*
X-1034745Y1949551D01*
X-1035253Y1947113D01*
X-1035405Y1944624D01*
X-1035050Y1940712D01*
X-1033932Y1937105D01*
X-1032103Y1933854D01*
X-1029563Y1930907D01*
X-1026617Y1928469D01*
X-1023416Y1926691D01*
X-1019911Y1925675D01*
X-1016101Y1925320D01*
X-1012850Y1925675D01*
X-1009243Y1926843D01*
X-1005687Y1928672D01*
X-1002131Y1931162D01*
X-944626Y1975104D01*
X-941273Y1977136D01*
X-937768Y1978914D01*
X-934059Y1980438D01*
X-930300Y1981657D01*
X-926642Y1982520D01*
X-923036Y1983079D01*
X-919581Y1983232D01*
X-847445Y1983232D01*
X-843889Y1983079D01*
X-840282Y1982520D01*
X-836625Y1981657D01*
X-829208Y1978914D01*
X-825652Y1977136D01*
X-822248Y1975104D01*
X-818997Y1972818D01*
X-763473Y1929841D01*
X-759917Y1927707D01*
X-756310Y1926183D01*
X-753008Y1925421D01*
X-751433Y1925320D01*
X-747522Y1925675D01*
X-743864Y1926793D01*
X-740511Y1928622D01*
X-737463Y1931162D01*
X-734923Y1934108D01*
X-733094Y1937308D01*
X-731977Y1940814D01*
X-731621Y1944624D01*
X-731774Y1947011D01*
X-732231Y1949399D01*
X-733044Y1951736D01*
X-735431Y1956155D01*
X-738733Y1960067D01*
X-740765Y1961896D01*
X-791311Y2001012D01*
X-805738Y2010664D01*
X-819505Y2017268D01*
X-833221Y2021281D01*
X-847445Y2022602D01*
G37*
G36*
X-1016101Y1790446D02*
G01*
X-1020216Y1790039D01*
X-1023975Y1788871D01*
X-1027328Y1786889D01*
X-1030325Y1784096D01*
X-1032662Y1780844D01*
X-1034338Y1777085D01*
X-1035303Y1772970D01*
X-1035659Y1768348D01*
X-1035659Y1689607D01*
X-1035405Y1684629D01*
X-1034694Y1679549D01*
X-1033526Y1674469D01*
X-1031849Y1669288D01*
X-1029919Y1664309D01*
X-1027633Y1659686D01*
X-1025093Y1655521D01*
X-1022197Y1651762D01*
X-990955Y1616456D01*
X-981405Y1607515D01*
X-970635Y1600962D01*
X-964844Y1598726D01*
X-958900Y1597152D01*
X-952753Y1596186D01*
X-946505Y1595882D01*
X-903071Y1595882D01*
X-896924Y1596186D01*
X-890879Y1597152D01*
X-884986Y1598726D01*
X-879195Y1600962D01*
X-868222Y1607515D01*
X-858621Y1616456D01*
X-827633Y1651762D01*
X-824636Y1655521D01*
X-821994Y1659686D01*
X-819658Y1664309D01*
X-817727Y1669288D01*
X-816051Y1674469D01*
X-814882Y1679549D01*
X-814171Y1684629D01*
X-813917Y1689607D01*
X-813917Y1768348D01*
X-814273Y1772970D01*
X-815289Y1777085D01*
X-817067Y1780844D01*
X-819505Y1784096D01*
X-822452Y1786889D01*
X-825804Y1788871D01*
X-829462Y1790039D01*
X-833475Y1790446D01*
X-837793Y1790090D01*
X-841603Y1788972D01*
X-844905Y1787143D01*
X-847699Y1784604D01*
X-849934Y1781403D01*
X-851509Y1777593D01*
X-852474Y1773275D01*
X-852779Y1768348D01*
X-852881Y1687931D01*
X-853643Y1684629D01*
X-855167Y1681327D01*
X-857605Y1677924D01*
X-889609Y1641093D01*
X-891997Y1638757D01*
X-895197Y1636776D01*
X-898956Y1635607D01*
X-902563Y1635251D01*
X-948385Y1635353D01*
X-950315Y1635607D01*
X-954125Y1636776D01*
X-957478Y1638655D01*
X-959967Y1640839D01*
X-990701Y1676400D01*
X-993444Y1680210D01*
X-995019Y1683512D01*
X-995984Y1686560D01*
X-996289Y1689607D01*
X-996289Y1768348D01*
X-996645Y1773072D01*
X-997661Y1777288D01*
X-999439Y1781048D01*
X-1001877Y1784350D01*
X-1004773Y1786991D01*
X-1008075Y1788922D01*
X-1011885Y1790039D01*
G37*
G36*
X-1016101Y1460754D02*
G01*
X-1019911Y1460398D01*
X-1023416Y1459331D01*
X-1026617Y1457604D01*
X-1029563Y1455166D01*
X-1032103Y1452118D01*
X-1033932Y1448866D01*
X-1035050Y1445412D01*
X-1035405Y1441704D01*
X-1035253Y1439113D01*
X-1034745Y1436624D01*
X-1033983Y1434287D01*
X-1031595Y1429867D01*
X-1030071Y1427784D01*
X-1028293Y1425905D01*
X-975969Y1385062D01*
X-961694Y1375410D01*
X-947775Y1368806D01*
X-934008Y1364792D01*
X-919581Y1363472D01*
X-847445Y1363472D01*
X-833221Y1364742D01*
X-819505Y1368552D01*
X-805738Y1375206D01*
X-791311Y1385062D01*
X-741019Y1424178D01*
X-737006Y1427937D01*
X-735431Y1429918D01*
X-733044Y1434388D01*
X-732231Y1436725D01*
X-731774Y1439214D01*
X-731621Y1441704D01*
X-731977Y1445412D01*
X-733094Y1448866D01*
X-734923Y1452118D01*
X-737463Y1455166D01*
X-740511Y1457604D01*
X-743864Y1459331D01*
X-747522Y1460398D01*
X-751433Y1460754D01*
X-754786Y1460449D01*
X-758291Y1459484D01*
X-761796Y1457909D01*
X-765149Y1455674D01*
X-818997Y1413256D01*
X-822248Y1410970D01*
X-825652Y1408988D01*
X-829208Y1407312D01*
X-836625Y1404670D01*
X-840282Y1403807D01*
X-843889Y1403248D01*
X-847445Y1403096D01*
X-919581Y1403096D01*
X-922934Y1403248D01*
X-926439Y1403807D01*
X-930046Y1404670D01*
X-937412Y1407312D01*
X-940968Y1408988D01*
X-944422Y1410970D01*
X-947775Y1413256D01*
X-1002131Y1455674D01*
X-1005687Y1457909D01*
X-1009243Y1459484D01*
X-1012596Y1460449D01*
G37*
G36*
X0Y749300D02*
G01*
X0Y0D01*
X8128000Y0D01*
X8128000Y749300D01*
G37*
D10*
G01*
X1651000Y1600200D03*
G01*
X1905000Y1600200D03*
G01*
X2159000Y1600200D03*
G01*
X2413000Y1600200D03*
G01*
X2667000Y1600200D03*
G01*
X2667000Y1346200D03*
G01*
X2413000Y1346200D03*
G01*
X2159000Y1346200D03*
G01*
X1905000Y1346200D03*
G01*
X1651000Y1346200D03*
D11*
G01*
X-127000Y1257300D03*
D12*
G01*
X-127000Y1057300D03*
D13*
G01*
X7874000Y381000D03*
D14*
G01*
X7620000Y381000D03*
G01*
X7366000Y381000D03*
G01*
X7112000Y381000D03*
G01*
X6096000Y381000D03*
G01*
X5334000Y381000D03*
G01*
X5080000Y381000D03*
G01*
X4826000Y381000D03*
G01*
X4572000Y381000D03*
G01*
X2794000Y381000D03*
G01*
X2286000Y381000D03*
G01*
X2032000Y381000D03*
G01*
X1778000Y381000D03*
G01*
X762000Y381000D03*
D13*
G01*
X254000Y381000D03*
D15*
G01*
X254000Y508000D03*
G01*
X762000Y508000D03*
G01*
X1778000Y508000D03*
G01*
X2032000Y508000D03*
G01*
X2286000Y508000D03*
G01*
X2794000Y508000D03*
G01*
X4572000Y508000D03*
G01*
X4826000Y508000D03*
G01*
X5080000Y508000D03*
G01*
X5334000Y508000D03*
G01*
X6096000Y508000D03*
G01*
X7112000Y508000D03*
G01*
X7366000Y508000D03*
G01*
X7620000Y508000D03*
G01*
X7874000Y508000D03*
D12*
G01*
X8254974Y1057300D03*
D11*
G01*
X8254974Y1257300D03*
D10*
G01*
X4724400Y9778974D03*
G01*
X4978400Y9779000D03*
G01*
X4978400Y9524974D03*
G01*
X4724400Y9525000D03*
G01*
X4724400Y9271000D03*
G01*
X4978400Y9271000D03*
G01*
X6731000Y9270974D03*
G01*
X6477000Y9270949D03*
G01*
X1905000Y5715000D03*
G01*
X1905000Y5461000D03*
D16*
G01*
X381000Y3937000D03*
G01*
X381000Y3683000D03*
G01*
X381000Y3429000D03*
G01*
X381000Y3175000D03*
G01*
X-381000Y3175000D03*
G01*
X-381000Y3429000D03*
G01*
X-381000Y3683000D03*
G01*
X-381000Y3937000D03*
G01*
X-381000Y2921000D03*
G01*
X-381000Y2667000D03*
G01*
X381000Y2667000D03*
G01*
X381000Y2921000D03*
G01*
X381000Y2159000D03*
G01*
X-381000Y2159000D03*
D17*
G01*
X635001Y3936998D03*
D10*
G01*
X635000Y3683000D03*
G01*
X635000Y3429000D03*
G01*
X635000Y3175000D03*
G01*
X635000Y2921000D03*
G01*
X635000Y2667000D03*
G01*
X635000Y2413000D03*
D19*
G01*
X8763000Y2159000D03*
D16*
G01*
X8763000Y2413000D03*
G01*
X8763000Y2667000D03*
G01*
X8763000Y2921000D03*
G01*
X8763000Y3175000D03*
G01*
X8763000Y3429000D03*
G01*
X8763000Y3683000D03*
G01*
X9525000Y3683000D03*
D19*
G01*
X9525000Y3175000D03*
G01*
X9525000Y2921000D03*
D16*
G01*
X9525000Y2667000D03*
G01*
X9525000Y2413000D03*
G01*
X9525000Y2159000D03*
G01*
X9525000Y8255000D03*
G01*
X9525000Y7747000D03*
G01*
X9525000Y7493000D03*
G01*
X9525000Y6731000D03*
G01*
X9525000Y6477000D03*
D19*
G01*
X8763000Y6477000D03*
D16*
G01*
X8763000Y6985000D03*
G01*
X8763000Y7239000D03*
G01*
X8763000Y7493000D03*
G01*
X8763000Y7747000D03*
G01*
X8763000Y8001000D03*
G01*
X8763000Y8255000D03*
D17*
G01*
X-279398Y9905947D03*
D10*
G01*
X-25400Y9905949D03*
G01*
X-279400Y9651949D03*
G01*
X-25400Y9651949D03*
G01*
X-279400Y9397949D03*
G01*
X-25400Y9397949D03*
G01*
X-25400Y9143949D03*
G01*
X-25400Y8889949D03*
D17*
G01*
X-279398Y8635947D03*
D10*
G01*
X-25400Y8635949D03*
D17*
G01*
X-279398Y8381947D03*
G01*
X-279398Y8127947D03*
D10*
G01*
X-25400Y8127949D03*
D17*
G01*
X-279398Y7873947D03*
D10*
G01*
X-25400Y7873949D03*
D17*
G01*
X-279398Y7619947D03*
D10*
G01*
X-279400Y7365949D03*
D17*
G01*
X-25398Y7365947D03*
D10*
G01*
X-279400Y7111949D03*
G01*
X-25400Y7111949D03*
G01*
X-279400Y6857949D03*
G01*
X-25400Y6857949D03*
G01*
X-279400Y6603949D03*
G01*
X-25400Y6603949D03*
G01*
X-279400Y6349949D03*
G01*
X-25400Y6349949D03*
G01*
X-279400Y6095949D03*
G01*
X-25400Y6095949D03*
G01*
X-279400Y5841949D03*
G01*
X-25400Y5841949D03*
G01*
X-279400Y5587949D03*
G01*
X-25400Y5587949D03*
G01*
X-279400Y5333974D03*
G01*
X-25400Y5333974D03*
D17*
G01*
X-279398Y5079973D03*
D10*
G01*
X-25374Y5079974D03*
G01*
X5207000Y4699000D03*
G01*
X4953000Y4699000D03*
G01*
X4953000Y5207000D03*
G01*
X5207000Y5207000D03*
D20*
G01*
X1396997Y9270980D03*
G01*
X2666994Y9270980D03*
G01*
X3936992Y9270980D03*
G01*
X5206989Y8508980D03*
G01*
X6476987Y8508980D03*
G01*
X7746984Y8508980D03*
G01*
X9016982Y8762980D03*
G01*
X7746984Y4952988D03*
G01*
X6476987Y4952988D03*
G01*
X1396997Y4952988D03*
D21*
G01*
X4444993Y4952989D03*
D20*
G01*
X9016982Y4190991D03*
D10*
G01*
X5715025Y4699025D03*
G01*
X5461025Y4699025D03*
G01*
X5461000Y5207000D03*
G01*
X5715000Y5207000D03*
G01*
X9080474Y9893274D03*
G01*
X9080474Y9639274D03*
G01*
X9080474Y9397974D03*
G01*
X9080500Y9144000D03*
G01*
X8572474Y9143974D03*
G01*
X8572500Y9398000D03*
D16*
G01*
X3937000Y5461000D03*
G01*
X3937000Y5207000D03*
G01*
X3937000Y4953000D03*
G01*
X3937000Y4699000D03*
G01*
X3937000Y4445000D03*
G01*
X3937000Y4191000D03*
G01*
X3937000Y3937000D03*
G01*
X3937000Y3683000D03*
G01*
X3937000Y3429000D03*
G01*
X3937000Y3175000D03*
G01*
X3937000Y2921000D03*
G01*
X3937000Y2667000D03*
G01*
X3937000Y2413000D03*
G01*
X3937000Y2159000D03*
D19*
G01*
X2412997Y2158994D03*
D16*
G01*
X2413000Y2413000D03*
G01*
X2413000Y2667000D03*
G01*
X2413000Y2921000D03*
G01*
X2413000Y3175000D03*
G01*
X2413000Y3429000D03*
G01*
X2413000Y3683000D03*
G01*
X2413000Y4191000D03*
G01*
X2413000Y4445000D03*
G01*
X2413000Y4699000D03*
G01*
X2413000Y4953000D03*
G01*
X2413000Y5207000D03*
G01*
X2413000Y3937000D03*
G01*
X2413000Y5461000D03*
D22*
G01*
X3937000Y5461000D03*
G01*
X3937000Y5207000D03*
G01*
X3937000Y4953000D03*
G01*
X3937000Y4699000D03*
G01*
X3937000Y4445000D03*
G01*
X3937000Y4191000D03*
G01*
X3937000Y3937000D03*
G01*
X3937000Y3683000D03*
G01*
X3937000Y3429000D03*
G01*
X3937000Y3175000D03*
G01*
X3937000Y2921000D03*
G01*
X3937000Y2667000D03*
G01*
X3937000Y2413000D03*
G01*
X3937000Y2159000D03*
G01*
X2413000Y2159000D03*
G01*
X2413000Y2413000D03*
G01*
X2413000Y2667000D03*
G01*
X2413000Y2921000D03*
G01*
X2413000Y3175000D03*
G01*
X2413000Y3429000D03*
G01*
X2413000Y3683000D03*
G01*
X2413000Y4191000D03*
G01*
X2413000Y4445000D03*
G01*
X2413000Y4699000D03*
G01*
X2413000Y4953000D03*
G01*
X2413000Y5207000D03*
G01*
X2413000Y3937000D03*
G01*
X2413000Y5461000D03*
D19*
G01*
X3683000Y8763000D03*
D16*
G01*
X4445000Y8763000D03*
G01*
X3683000Y8509000D03*
D19*
G01*
X4445000Y8509000D03*
D16*
G01*
X3683000Y8255000D03*
G01*
X4445000Y8255000D03*
G01*
X3683000Y8001000D03*
G01*
X4445000Y8001000D03*
G01*
X3683000Y7747000D03*
G01*
X4445000Y7747000D03*
G01*
X3683000Y7493000D03*
G01*
X4445000Y7493000D03*
G01*
X3683000Y7239000D03*
G01*
X4445000Y7239000D03*
G01*
X3683000Y6984974D03*
G01*
X4445000Y6984974D03*
G01*
X3683000Y6730949D03*
G01*
X4445000Y6730949D03*
D19*
G01*
X3683000Y6476949D03*
D16*
G01*
X4445000Y6476949D03*
D22*
G01*
X3683000Y8763000D03*
G01*
X4445000Y8763000D03*
G01*
X3683000Y8509000D03*
G01*
X4445000Y8509000D03*
G01*
X3683000Y8255000D03*
G01*
X4445000Y8255000D03*
G01*
X3683000Y8001000D03*
G01*
X4445000Y8001000D03*
G01*
X3683000Y7747000D03*
G01*
X4445000Y7747000D03*
G01*
X3683000Y7493000D03*
G01*
X4445000Y7493000D03*
G01*
X3683000Y7239000D03*
G01*
X4445000Y7239000D03*
G01*
X3683000Y6985000D03*
G01*
X4445000Y6985000D03*
G01*
X3683000Y6731000D03*
G01*
X4445000Y6731000D03*
G01*
X3683000Y6477000D03*
G01*
X4445000Y6477000D03*
D16*
G01*
X1143000Y8763000D03*
G01*
X1905000Y8763000D03*
G01*
X1143000Y8509000D03*
G01*
X1905000Y8509000D03*
G01*
X1143000Y8255000D03*
G01*
X1905000Y8255000D03*
G01*
X1143000Y8001000D03*
G01*
X1905000Y8001000D03*
G01*
X1143000Y7747000D03*
G01*
X1905000Y7747000D03*
G01*
X1143000Y7493000D03*
G01*
X1905000Y7493000D03*
G01*
X1143000Y7239000D03*
G01*
X1905000Y7239000D03*
G01*
X1143000Y6984974D03*
G01*
X1905000Y6984974D03*
G01*
X1143000Y6730949D03*
G01*
X1905000Y6730949D03*
D19*
G01*
X1143000Y6476949D03*
D16*
G01*
X1905000Y6476949D03*
D22*
G01*
X1143000Y8763000D03*
G01*
X1905000Y8763000D03*
G01*
X1143000Y8509000D03*
G01*
X1905000Y8509000D03*
G01*
X1143000Y8255000D03*
G01*
X1905000Y8255000D03*
G01*
X1143000Y8001000D03*
G01*
X1905000Y8001000D03*
G01*
X1143000Y7747000D03*
G01*
X1905000Y7747000D03*
G01*
X1143000Y7493000D03*
G01*
X1905000Y7493000D03*
G01*
X1143000Y7239000D03*
G01*
X1905000Y7239000D03*
G01*
X1143000Y6985000D03*
G01*
X1905000Y6985000D03*
G01*
X1143000Y6731000D03*
G01*
X1905000Y6731000D03*
G01*
X1143000Y6477000D03*
G01*
X1905000Y6477000D03*
D16*
G01*
X2413000Y8763000D03*
G01*
X3175000Y8763000D03*
G01*
X2413000Y8509000D03*
G01*
X3175000Y8509000D03*
G01*
X2413000Y8255000D03*
G01*
X3175000Y8255000D03*
G01*
X2413000Y8001000D03*
G01*
X3175000Y8001000D03*
G01*
X2413000Y7747000D03*
G01*
X3175000Y7747000D03*
G01*
X2413000Y7493000D03*
G01*
X3175000Y7493000D03*
G01*
X2413000Y7239000D03*
G01*
X3175000Y7239000D03*
G01*
X2413000Y6984974D03*
G01*
X3175000Y6984974D03*
G01*
X2413000Y6730949D03*
G01*
X3175000Y6730949D03*
D19*
G01*
X2413000Y6476949D03*
D16*
G01*
X3175000Y6476949D03*
D22*
G01*
X2413000Y8763000D03*
G01*
X3175000Y8763000D03*
G01*
X2413000Y8509000D03*
G01*
X3175000Y8509000D03*
G01*
X2413000Y8255000D03*
G01*
X3175000Y8255000D03*
G01*
X2413000Y8001000D03*
G01*
X3175000Y8001000D03*
G01*
X2413000Y7747000D03*
G01*
X3175000Y7747000D03*
G01*
X2413000Y7493000D03*
G01*
X3175000Y7493000D03*
G01*
X2413000Y7239000D03*
G01*
X3175000Y7239000D03*
G01*
X2413000Y6985000D03*
G01*
X3175000Y6985000D03*
G01*
X2413000Y6731000D03*
G01*
X3175000Y6731000D03*
G01*
X2413000Y6477000D03*
G01*
X3175000Y6477000D03*
D19*
G01*
X4953000Y6477000D03*
D16*
G01*
X4953000Y6731000D03*
G01*
X4953000Y6985000D03*
G01*
X4953000Y7239000D03*
G01*
X4953000Y7493000D03*
G01*
X4953000Y7747000D03*
G01*
X4953000Y8001000D03*
G01*
X5715000Y8001000D03*
G01*
X5715000Y7747000D03*
G01*
X5715000Y7493000D03*
G01*
X5715000Y7239000D03*
G01*
X5715000Y6985000D03*
G01*
X5715000Y6731000D03*
G01*
X5715000Y6477000D03*
D22*
G01*
X4953000Y8001000D03*
G01*
X4953000Y7747000D03*
G01*
X4953000Y7493000D03*
G01*
X4953000Y7239000D03*
G01*
X4953000Y6985000D03*
G01*
X4953000Y6731000D03*
G01*
X4953000Y6477000D03*
G01*
X5715000Y8001000D03*
G01*
X5715000Y7747000D03*
G01*
X5715000Y7493000D03*
G01*
X5715000Y7239000D03*
G01*
X5715000Y6985000D03*
G01*
X5715000Y6731000D03*
G01*
X5715000Y6477000D03*
D19*
G01*
X6223000Y6477000D03*
D16*
G01*
X6223000Y6731000D03*
G01*
X6223000Y6985000D03*
G01*
X6223000Y7239000D03*
G01*
X6223000Y7493000D03*
G01*
X6223000Y7747000D03*
G01*
X6223000Y8001000D03*
G01*
X6985000Y8001000D03*
D19*
G01*
X6985000Y7747000D03*
D16*
G01*
X6985000Y7493000D03*
G01*
X6985000Y7239000D03*
G01*
X6985000Y6985000D03*
G01*
X6985000Y6731000D03*
G01*
X6985000Y6477000D03*
D22*
G01*
X6223000Y8001000D03*
G01*
X6223000Y7747000D03*
G01*
X6223000Y7493000D03*
G01*
X6223000Y7239000D03*
G01*
X6223000Y6985000D03*
G01*
X6223000Y6731000D03*
G01*
X6223000Y6477000D03*
G01*
X6985000Y8001000D03*
G01*
X6985000Y7747000D03*
G01*
X6985000Y7493000D03*
G01*
X6985000Y7239000D03*
G01*
X6985000Y6985000D03*
G01*
X6985000Y6731000D03*
G01*
X6985000Y6477000D03*
D19*
G01*
X7493000Y6477000D03*
D16*
G01*
X7493000Y6731000D03*
G01*
X7493000Y6985000D03*
G01*
X7493000Y7239000D03*
G01*
X7493000Y7493000D03*
G01*
X7493000Y7747000D03*
G01*
X7493000Y8001000D03*
G01*
X8255000Y8001000D03*
G01*
X8255000Y7747000D03*
G01*
X8255000Y7493000D03*
G01*
X8255000Y7239000D03*
G01*
X8255000Y6985000D03*
G01*
X8255000Y6731000D03*
G01*
X8255000Y6477000D03*
D22*
G01*
X7493000Y8001000D03*
G01*
X7493000Y7747000D03*
G01*
X7493000Y7493000D03*
G01*
X7493000Y7239000D03*
G01*
X7493000Y6985000D03*
G01*
X7493000Y6731000D03*
G01*
X7493000Y6477000D03*
G01*
X8255000Y8001000D03*
G01*
X8255000Y7747000D03*
G01*
X8255000Y7493000D03*
G01*
X8255000Y7239000D03*
G01*
X8255000Y6985000D03*
G01*
X8255000Y6731000D03*
G01*
X8255000Y6477000D03*
D16*
G01*
X1143000Y4445000D03*
G01*
X1905000Y4445000D03*
G01*
X1143000Y4191000D03*
G01*
X1905000Y4191000D03*
G01*
X1143000Y3937000D03*
G01*
X1905000Y3937000D03*
G01*
X1143000Y3683000D03*
G01*
X1905000Y3683000D03*
G01*
X1143000Y3429000D03*
G01*
X1905000Y3429000D03*
G01*
X1143000Y3175000D03*
G01*
X1905000Y3175000D03*
G01*
X1143000Y2921000D03*
G01*
X1905000Y2921000D03*
D23*
G01*
X1143000Y2666973D03*
D16*
G01*
X1905000Y2666974D03*
D19*
G01*
X1143000Y2412949D03*
G01*
X1905000Y2412949D03*
G01*
X1143000Y2158949D03*
G01*
X1905000Y2158949D03*
D22*
G01*
X1143000Y4445000D03*
G01*
X1905000Y4445000D03*
G01*
X1143000Y4191000D03*
G01*
X1905000Y4191000D03*
G01*
X1143000Y3937000D03*
G01*
X1905000Y3937000D03*
G01*
X1143000Y3683000D03*
G01*
X1905000Y3683000D03*
G01*
X1143000Y3429000D03*
G01*
X1905000Y3429000D03*
G01*
X1143000Y3175000D03*
G01*
X1905000Y3175000D03*
G01*
X1143000Y2921000D03*
G01*
X1905000Y2921000D03*
G01*
X1143000Y2667000D03*
G01*
X1905000Y2667000D03*
G01*
X1143000Y2413000D03*
G01*
X1905000Y2413000D03*
G01*
X1143000Y2159000D03*
G01*
X1905000Y2159000D03*
D16*
G01*
X6223000Y4445000D03*
G01*
X6985000Y4445000D03*
G01*
X6223000Y4191000D03*
G01*
X6985000Y4191000D03*
G01*
X6223000Y3937000D03*
G01*
X6985000Y3937000D03*
G01*
X6223000Y3683000D03*
G01*
X6985000Y3683000D03*
G01*
X6223000Y3429000D03*
G01*
X6985000Y3429000D03*
G01*
X6223000Y3175000D03*
G01*
X6985000Y3175000D03*
G01*
X6223000Y2921000D03*
G01*
X6985000Y2921000D03*
G01*
X6223000Y2666974D03*
D23*
G01*
X6985000Y2666973D03*
D16*
G01*
X6223000Y2412949D03*
D19*
G01*
X6985000Y2412949D03*
G01*
X6223000Y2158949D03*
G01*
X6985000Y2158949D03*
D22*
G01*
X6223000Y4445000D03*
G01*
X6985000Y4445000D03*
G01*
X6223000Y4191000D03*
G01*
X6985000Y4191000D03*
G01*
X6223000Y3937000D03*
G01*
X6985000Y3937000D03*
G01*
X6223000Y3683000D03*
G01*
X6985000Y3683000D03*
G01*
X6223000Y3429000D03*
G01*
X6985000Y3429000D03*
G01*
X6223000Y3175000D03*
G01*
X6985000Y3175000D03*
G01*
X6223000Y2921000D03*
G01*
X6985000Y2921000D03*
G01*
X6223000Y2667000D03*
G01*
X6985000Y2667000D03*
G01*
X6223000Y2413000D03*
G01*
X6985000Y2413000D03*
G01*
X6223000Y2159000D03*
G01*
X6985000Y2159000D03*
D16*
G01*
X7493000Y4445000D03*
G01*
X8255000Y4445000D03*
G01*
X7493000Y4191000D03*
G01*
X8255000Y4191000D03*
G01*
X7493000Y3937000D03*
G01*
X8255000Y3937000D03*
G01*
X7493000Y3683000D03*
G01*
X8255000Y3683000D03*
G01*
X7493000Y3429000D03*
G01*
X8255000Y3429000D03*
G01*
X7493000Y3175000D03*
G01*
X8255000Y3175000D03*
G01*
X7493000Y2921000D03*
G01*
X8255000Y2921000D03*
G01*
X7493000Y2666974D03*
G01*
X8255000Y2666974D03*
G01*
X7493000Y2412949D03*
G01*
X8255000Y2412949D03*
D19*
G01*
X7493000Y2158949D03*
D16*
G01*
X8255000Y2158949D03*
D22*
G01*
X7493000Y4445000D03*
G01*
X8255000Y4445000D03*
G01*
X7493000Y4191000D03*
G01*
X8255000Y4191000D03*
G01*
X7493000Y3937000D03*
G01*
X8255000Y3937000D03*
G01*
X7493000Y3683000D03*
G01*
X8255000Y3683000D03*
G01*
X7493000Y3429000D03*
G01*
X8255000Y3429000D03*
G01*
X7493000Y3175000D03*
G01*
X8255000Y3175000D03*
G01*
X7493000Y2921000D03*
G01*
X8255000Y2921000D03*
G01*
X7493000Y2667000D03*
G01*
X8255000Y2667000D03*
G01*
X7493000Y2413000D03*
G01*
X8255000Y2413000D03*
G01*
X7493000Y2159000D03*
G01*
X8255000Y2159000D03*
D17*
G01*
X5715001Y3936998D03*
D10*
G01*
X5715000Y3683000D03*
G01*
X5715000Y3429000D03*
G01*
X5715000Y3175000D03*
G01*
X5715000Y2921000D03*
G01*
X5715000Y2667000D03*
G01*
X5715000Y2413000D03*
G01*
X5715000Y2159000D03*
D22*
G01*
X5715000Y2667000D03*
G01*
X5715000Y2921000D03*
G01*
X5715000Y3175000D03*
G01*
X5715000Y3429000D03*
G01*
X5715000Y3683000D03*
G01*
X5715000Y3937000D03*
G01*
X5715000Y2413000D03*
G01*
X5715000Y2159000D03*
D16*
G01*
X5461000Y3937000D03*
G01*
X5461000Y3683000D03*
G01*
X5461000Y3429000D03*
G01*
X5461000Y3175000D03*
G01*
X4699000Y3175000D03*
G01*
X4699000Y3429000D03*
G01*
X4699000Y3683000D03*
G01*
X4699000Y3937000D03*
G01*
X4699000Y2921000D03*
G01*
X4699000Y2667000D03*
G01*
X4699000Y2413000D03*
G01*
X5461000Y2413000D03*
G01*
X5461000Y2667000D03*
G01*
X5461000Y2921000D03*
G01*
X5461000Y2159000D03*
G01*
X4699000Y2159000D03*
D22*
G01*
X5461000Y3937000D03*
G01*
X5461000Y3683000D03*
G01*
X5461000Y3429000D03*
G01*
X5461000Y3175000D03*
G01*
X4699000Y3175000D03*
G01*
X4699000Y3429000D03*
G01*
X4699000Y3683000D03*
G01*
X4699000Y3937000D03*
G01*
X4699000Y2921000D03*
G01*
X4699000Y2667000D03*
G01*
X4699000Y2413000D03*
G01*
X5461000Y2413000D03*
G01*
X5461000Y2667000D03*
G01*
X5461000Y2921000D03*
G01*
X5461000Y2159000D03*
G01*
X4699000Y2159000D03*
D20*
G01*
X2921000Y9270973D03*
D24*
G01*
X3175000Y9270974D03*
D25*
G01*
X2921000Y9270974D03*
G01*
X3175000Y9270974D03*
D20*
G01*
X4191000Y9270973D03*
D24*
G01*
X4445000Y9270974D03*
D25*
G01*
X4191000Y9270974D03*
G01*
X4445000Y9270974D03*
D20*
G01*
X5461000Y8508973D03*
D24*
G01*
X5715000Y8508974D03*
D25*
G01*
X5461000Y8508974D03*
G01*
X5715000Y8508974D03*
D20*
G01*
X6731000Y8508973D03*
D24*
G01*
X6985000Y8508974D03*
D25*
G01*
X6731000Y8508974D03*
G01*
X6985000Y8508974D03*
D20*
G01*
X8000974Y8508973D03*
D24*
G01*
X8254974Y8508974D03*
D25*
G01*
X8000974Y8508974D03*
G01*
X8254974Y8508974D03*
D20*
G01*
X9270974Y8762973D03*
D24*
G01*
X9524974Y8762974D03*
D25*
G01*
X9270974Y8762974D03*
G01*
X9524974Y8762974D03*
D20*
G01*
X1651000Y4952998D03*
D24*
G01*
X1905000Y4953000D03*
D25*
G01*
X1651000Y4953000D03*
G01*
X1905000Y4953000D03*
D21*
G01*
X4445000Y5207000D03*
D26*
G01*
X4445000Y5461000D03*
D25*
G01*
X4445000Y5207000D03*
G01*
X4445000Y5461000D03*
D20*
G01*
X6731000Y4952998D03*
D24*
G01*
X6985000Y4953000D03*
D25*
G01*
X6731000Y4953000D03*
G01*
X6985000Y4953000D03*
D20*
G01*
X8000974Y4952998D03*
D24*
G01*
X8254974Y4953000D03*
D25*
G01*
X8000974Y4953000D03*
G01*
X8254974Y4953000D03*
D20*
G01*
X9270974Y4190998D03*
D24*
G01*
X9524974Y4191000D03*
D25*
G01*
X9270974Y4191000D03*
G01*
X9524974Y4191000D03*
D20*
G01*
X1651000Y9270998D03*
D24*
G01*
X1905000Y9271000D03*
D25*
G01*
X1651000Y9271000D03*
G01*
X1905000Y9271000D03*
D27*
G01*
X1651000Y1600200D03*
G01*
X1905000Y1600200D03*
G01*
X2159000Y1600200D03*
G01*
X2413000Y1600200D03*
G01*
X2667000Y1600200D03*
G01*
X2667000Y1346200D03*
G01*
X2413000Y1346200D03*
G01*
X2159000Y1346200D03*
G01*
X1905000Y1346200D03*
G01*
X1651000Y1346200D03*
D25*
G01*
X-127000Y1257300D03*
G01*
X-127000Y1057300D03*
G01*
X8254974Y1057300D03*
G01*
X8254974Y1257300D03*
D22*
G01*
X381000Y3937000D03*
G01*
X381000Y3683000D03*
G01*
X381000Y3429000D03*
G01*
X381000Y3175000D03*
G01*
X-381000Y3175000D03*
G01*
X-381000Y3429000D03*
G01*
X-381000Y3683000D03*
G01*
X-381000Y3937000D03*
G01*
X-381000Y2921000D03*
G01*
X-381000Y2667000D03*
G01*
X-381000Y2413000D03*
G01*
X381000Y2413000D03*
G01*
X381000Y2667000D03*
G01*
X381000Y2921000D03*
G01*
X381000Y2159000D03*
G01*
X-381000Y2159000D03*
G01*
X635000Y2667000D03*
G01*
X635000Y2921000D03*
G01*
X635000Y3175000D03*
G01*
X635000Y3429000D03*
G01*
X635000Y3683000D03*
G01*
X635000Y3937000D03*
G01*
X635000Y2413000D03*
G01*
X635000Y2159000D03*
G01*
X8763000Y3683000D03*
G01*
X8763000Y3429000D03*
G01*
X8763000Y3175000D03*
G01*
X8763000Y2921000D03*
G01*
X8763000Y2667000D03*
G01*
X8763000Y2413000D03*
G01*
X8763000Y2159000D03*
G01*
X9525000Y3683000D03*
G01*
X9525000Y3429000D03*
G01*
X9525000Y3175000D03*
G01*
X9525000Y2921000D03*
G01*
X9525000Y2667000D03*
G01*
X9525000Y2413000D03*
G01*
X9525000Y2159000D03*
G01*
X9525000Y8255000D03*
G01*
X9525000Y8001000D03*
G01*
X9525000Y7747000D03*
G01*
X9525000Y7493000D03*
G01*
X9525000Y7239000D03*
G01*
X9525000Y6985000D03*
G01*
X9525000Y6731000D03*
G01*
X9525000Y6477000D03*
G01*
X8763000Y6477000D03*
G01*
X8763000Y6731000D03*
G01*
X8763000Y6985000D03*
G01*
X8763000Y7239000D03*
G01*
X8763000Y7493000D03*
G01*
X8763000Y7747000D03*
G01*
X8763000Y8001000D03*
G01*
X8763000Y8255000D03*
D27*
G01*
X-279400Y9905974D03*
G01*
X-25400Y9905974D03*
G01*
X-279400Y9651974D03*
G01*
X-25400Y9651974D03*
G01*
X-279400Y9397974D03*
G01*
X-25400Y9397974D03*
G01*
X-279400Y9143974D03*
G01*
X-25400Y9143974D03*
G01*
X-279400Y8889974D03*
G01*
X-25400Y8889974D03*
G01*
X-279400Y8635974D03*
G01*
X-25400Y8635974D03*
G01*
X-279400Y8381974D03*
G01*
X-25400Y8381974D03*
G01*
X-279400Y8127974D03*
G01*
X-25400Y8127974D03*
G01*
X-279400Y7873974D03*
G01*
X-25400Y7873974D03*
G01*
X-279400Y7619974D03*
G01*
X-25400Y7619974D03*
G01*
X-279400Y7365974D03*
G01*
X-25400Y7365974D03*
G01*
X-279400Y7111974D03*
G01*
X-25400Y7111974D03*
G01*
X-279400Y6857974D03*
G01*
X-25400Y6857974D03*
G01*
X-279400Y6603974D03*
G01*
X-25400Y6603974D03*
G01*
X-279400Y6349974D03*
G01*
X-25400Y6349974D03*
G01*
X-279400Y6095974D03*
G01*
X-25400Y6095974D03*
G01*
X-279400Y5841974D03*
G01*
X-25400Y5841974D03*
G01*
X-279400Y5587974D03*
G01*
X-25400Y5587974D03*
G01*
X-279400Y5333974D03*
G01*
X-25400Y5333974D03*
G01*
X-279400Y5079974D03*
G01*
X-25755Y5079974D03*
D28*
G01*
X4978400Y9270974D03*
G01*
X4978400Y9524974D03*
G01*
X4978400Y9778974D03*
G01*
X4724400Y9270974D03*
G01*
X4724400Y9524974D03*
G01*
X4724400Y9778974D03*
G01*
X6477000Y9270949D03*
G01*
X6731000Y9270974D03*
G01*
X1905000Y5461000D03*
G01*
X1905000Y5715000D03*
D29*
G01*
X4953000Y5207000D03*
G01*
X4953000Y4699000D03*
G01*
X5207000Y5207000D03*
D25*
G01*
X1397000Y9270974D03*
G01*
X2667000Y9270974D03*
G01*
X3937000Y9270974D03*
G01*
X5207000Y8508974D03*
G01*
X6477000Y8508974D03*
G01*
X7746974Y8508974D03*
G01*
X9016974Y8762974D03*
G01*
X7746974Y4953000D03*
G01*
X6477000Y4953000D03*
G01*
X1397000Y4953000D03*
G01*
X4445000Y4953000D03*
G01*
X9016974Y4191000D03*
D29*
G01*
X5715000Y4699000D03*
G01*
X5461000Y4699000D03*
G01*
X5207000Y4699000D03*
G01*
X5461000Y5207000D03*
G01*
X5715000Y5207000D03*
D25*
G01*
X8956293Y5207000D03*
D29*
G01*
X9080474Y9397974D03*
D25*
G01*
X9080474Y9893274D03*
G01*
X9080474Y9639274D03*
D29*
G01*
X8572474Y9397974D03*
G01*
X9080474Y9143974D03*
G01*
X8572474Y9143974D03*
M02*
