G04 Layer: BottomPasteMaskLayer*
G04 EasyEDA v6.5.54, 2026-05-14 16:30:12*
G04 fa4692dd088d48a7bfa3324e0a8a9796,3d3f09d9cea3496b8cca675c4301f38a,10*
G04 Gerber Generator version 0.2*
G04 Scale: 100 percent, Rotated: No, Reflected: No *
G04 Dimensions in millimeters *
G04 leading zeros omitted , absolute positions ,4 integer and 5 decimal *
%FSLAX45Y45*%
%MOMM*%

%ADD10C,1.7000*%
%ADD11C,1.6000*%
%ADD12R,1.6000X1.6000*%
%ADD13R,1.5240X5.5000*%
%ADD14O,1.524X5.499989*%
%ADD15O,0.0143X5.499989*%
%ADD16R,1.5240X5.0000*%
%ADD17O,1.999996X0.899998*%
%ADD18R,1.7000X1.7000*%
%ADD19R,2.0000X0.9000*%
%ADD20R,1.0000X1.5000*%
%ADD21R,1.5000X1.0000*%
%ADD22O,0.999998X1.499997*%
%ADD23O,1.499997X0.999998*%

%LPD*%
D10*
G01*
X1651000Y1600200D03*
G01*
X1905000Y1600200D03*
G01*
X2159000Y1600200D03*
G01*
X2413000Y1600200D03*
G01*
X2667000Y1600200D03*
G01*
X2667000Y1346200D03*
G01*
X2413000Y1346200D03*
G01*
X2159000Y1346200D03*
G01*
X1905000Y1346200D03*
G01*
X1651000Y1346200D03*
D11*
G01*
X-127000Y1257300D03*
D12*
G01*
X-127000Y1057300D03*
D13*
G01*
X7874000Y381000D03*
D14*
G01*
X7620000Y381000D03*
G01*
X7366000Y381000D03*
G01*
X7112000Y381000D03*
G01*
X6096000Y381000D03*
G01*
X5334000Y381000D03*
G01*
X5080000Y381000D03*
G01*
X4826000Y381000D03*
G01*
X4572000Y381000D03*
G01*
X2794000Y381000D03*
G01*
X2286000Y381000D03*
G01*
X2032000Y381000D03*
G01*
X1778000Y381000D03*
G01*
X762000Y381000D03*
D13*
G01*
X254000Y381000D03*
D16*
G01*
X254000Y508000D03*
G01*
X762000Y508000D03*
G01*
X1778000Y508000D03*
G01*
X2032000Y508000D03*
G01*
X2286000Y508000D03*
G01*
X2794000Y508000D03*
G01*
X4572000Y508000D03*
G01*
X4826000Y508000D03*
G01*
X5080000Y508000D03*
G01*
X5334000Y508000D03*
G01*
X6096000Y508000D03*
G01*
X7112000Y508000D03*
G01*
X7366000Y508000D03*
G01*
X7620000Y508000D03*
G01*
X7874000Y508000D03*
D12*
G01*
X8254974Y1057300D03*
D11*
G01*
X8254974Y1257300D03*
D10*
G01*
X4724400Y9778974D03*
G01*
X4978400Y9779000D03*
G01*
X4978400Y9524974D03*
G01*
X4724400Y9525000D03*
G01*
X4724400Y9271000D03*
G01*
X4978400Y9271000D03*
G01*
X6731000Y9270974D03*
G01*
X6477000Y9270949D03*
G01*
X1905000Y5715000D03*
G01*
X1905000Y5461000D03*
D17*
G01*
X381000Y3937000D03*
G01*
X381000Y3683000D03*
G01*
X381000Y3429000D03*
G01*
X381000Y3175000D03*
G01*
X-381000Y3175000D03*
G01*
X-381000Y3429000D03*
G01*
X-381000Y3683000D03*
G01*
X-381000Y3937000D03*
G01*
X-381000Y2921000D03*
G01*
X-381000Y2667000D03*
G01*
X381000Y2667000D03*
G01*
X381000Y2921000D03*
G01*
X381000Y2159000D03*
G01*
X-381000Y2159000D03*
D18*
G01*
X635000Y3937000D03*
D10*
G01*
X635000Y3683000D03*
G01*
X635000Y3429000D03*
G01*
X635000Y3175000D03*
G01*
X635000Y2921000D03*
G01*
X635000Y2667000D03*
G01*
X635000Y2413000D03*
D19*
G01*
X8763000Y2159000D03*
D17*
G01*
X8763000Y2413000D03*
G01*
X8763000Y2667000D03*
G01*
X8763000Y2921000D03*
G01*
X8763000Y3175000D03*
G01*
X8763000Y3429000D03*
G01*
X8763000Y3683000D03*
G01*
X9525000Y3683000D03*
D19*
G01*
X9525000Y3175000D03*
G01*
X9525000Y2921000D03*
D17*
G01*
X9525000Y2667000D03*
G01*
X9525000Y2413000D03*
G01*
X9525000Y2159000D03*
G01*
X9525000Y8255000D03*
G01*
X9525000Y7747000D03*
G01*
X9525000Y7493000D03*
G01*
X9525000Y6731000D03*
G01*
X9525000Y6477000D03*
D19*
G01*
X8763000Y6477000D03*
D17*
G01*
X8763000Y6985000D03*
G01*
X8763000Y7239000D03*
G01*
X8763000Y7493000D03*
G01*
X8763000Y7747000D03*
G01*
X8763000Y8001000D03*
G01*
X8763000Y8255000D03*
D18*
G01*
X-279400Y9905949D03*
D10*
G01*
X-25400Y9905949D03*
G01*
X-279400Y9651949D03*
G01*
X-25400Y9651949D03*
G01*
X-279400Y9397949D03*
G01*
X-25400Y9397949D03*
G01*
X-25400Y9143949D03*
G01*
X-25400Y8889949D03*
D18*
G01*
X-279400Y8635949D03*
D10*
G01*
X-25400Y8635949D03*
D18*
G01*
X-279400Y8381949D03*
G01*
X-279400Y8127949D03*
D10*
G01*
X-25400Y8127949D03*
D18*
G01*
X-279400Y7873949D03*
D10*
G01*
X-25400Y7873949D03*
D18*
G01*
X-279400Y7619949D03*
D10*
G01*
X-279400Y7365949D03*
D18*
G01*
X-25400Y7365949D03*
D10*
G01*
X-279400Y7111949D03*
G01*
X-25400Y7111949D03*
G01*
X-279400Y6857949D03*
G01*
X-25400Y6857949D03*
G01*
X-279400Y6603949D03*
G01*
X-25400Y6603949D03*
G01*
X-279400Y6349949D03*
G01*
X-25400Y6349949D03*
G01*
X-279400Y6095949D03*
G01*
X-25400Y6095949D03*
G01*
X-279400Y5841949D03*
G01*
X-25400Y5841949D03*
G01*
X-279400Y5587949D03*
G01*
X-25400Y5587949D03*
G01*
X-279400Y5333974D03*
G01*
X-25400Y5333974D03*
D18*
G01*
X-279400Y5079974D03*
D10*
G01*
X-25374Y5079974D03*
G01*
X5207000Y4699000D03*
G01*
X4953000Y4699000D03*
G01*
X4953000Y5207000D03*
G01*
X5207000Y5207000D03*
D20*
G01*
X1397000Y9270974D03*
G01*
X2667000Y9270974D03*
G01*
X3937000Y9270974D03*
G01*
X5207000Y8508974D03*
G01*
X6477000Y8508974D03*
G01*
X7746974Y8508974D03*
G01*
X9016974Y8762974D03*
G01*
X7746974Y4953000D03*
G01*
X6477000Y4953000D03*
G01*
X1397000Y4953000D03*
D21*
G01*
X4445000Y4953000D03*
D20*
G01*
X9016974Y4191000D03*
D10*
G01*
X5715025Y4699025D03*
G01*
X5461025Y4699025D03*
G01*
X5461000Y5207000D03*
G01*
X5715000Y5207000D03*
G01*
X9080474Y9893274D03*
G01*
X9080474Y9639274D03*
G01*
X9080474Y9397974D03*
G01*
X9080500Y9144000D03*
G01*
X8572474Y9143974D03*
G01*
X8572500Y9398000D03*
D17*
G01*
X3937000Y5461000D03*
G01*
X3937000Y5207000D03*
G01*
X3937000Y4953000D03*
G01*
X3937000Y4699000D03*
G01*
X3937000Y4445000D03*
G01*
X3937000Y4191000D03*
G01*
X3937000Y3937000D03*
G01*
X3937000Y3683000D03*
G01*
X3937000Y3429000D03*
G01*
X3937000Y3175000D03*
G01*
X3937000Y2921000D03*
G01*
X3937000Y2667000D03*
G01*
X3937000Y2413000D03*
G01*
X3937000Y2159000D03*
D19*
G01*
X2413000Y2159000D03*
D17*
G01*
X2413000Y2413000D03*
G01*
X2413000Y2667000D03*
G01*
X2413000Y2921000D03*
G01*
X2413000Y3175000D03*
G01*
X2413000Y3429000D03*
G01*
X2413000Y3683000D03*
G01*
X2413000Y4191000D03*
G01*
X2413000Y4445000D03*
G01*
X2413000Y4699000D03*
G01*
X2413000Y4953000D03*
G01*
X2413000Y5207000D03*
G01*
X2413000Y3937000D03*
G01*
X2413000Y5461000D03*
D19*
G01*
X3683000Y8763000D03*
D17*
G01*
X4445000Y8763000D03*
G01*
X3683000Y8509000D03*
D19*
G01*
X4445000Y8509000D03*
D17*
G01*
X3683000Y8255000D03*
G01*
X4445000Y8255000D03*
G01*
X3683000Y8001000D03*
G01*
X4445000Y8001000D03*
G01*
X3683000Y7747000D03*
G01*
X4445000Y7747000D03*
G01*
X3683000Y7493000D03*
G01*
X4445000Y7493000D03*
G01*
X3683000Y7239000D03*
G01*
X4445000Y7239000D03*
G01*
X3683000Y6984974D03*
G01*
X4445000Y6984974D03*
G01*
X3683000Y6730949D03*
G01*
X4445000Y6730949D03*
D19*
G01*
X3683000Y6476949D03*
D17*
G01*
X4445000Y6476949D03*
G01*
X1143000Y8763000D03*
G01*
X1905000Y8763000D03*
G01*
X1143000Y8509000D03*
G01*
X1905000Y8509000D03*
G01*
X1143000Y8255000D03*
G01*
X1905000Y8255000D03*
G01*
X1143000Y8001000D03*
G01*
X1905000Y8001000D03*
G01*
X1143000Y7747000D03*
G01*
X1905000Y7747000D03*
G01*
X1143000Y7493000D03*
G01*
X1905000Y7493000D03*
G01*
X1143000Y7239000D03*
G01*
X1905000Y7239000D03*
G01*
X1143000Y6984974D03*
G01*
X1905000Y6984974D03*
G01*
X1143000Y6730949D03*
G01*
X1905000Y6730949D03*
D19*
G01*
X1143000Y6476949D03*
D17*
G01*
X1905000Y6476949D03*
G01*
X2413000Y8763000D03*
G01*
X3175000Y8763000D03*
G01*
X2413000Y8509000D03*
G01*
X3175000Y8509000D03*
G01*
X2413000Y8255000D03*
G01*
X3175000Y8255000D03*
G01*
X2413000Y8001000D03*
G01*
X3175000Y8001000D03*
G01*
X2413000Y7747000D03*
G01*
X3175000Y7747000D03*
G01*
X2413000Y7493000D03*
G01*
X3175000Y7493000D03*
G01*
X2413000Y7239000D03*
G01*
X3175000Y7239000D03*
G01*
X2413000Y6984974D03*
G01*
X3175000Y6984974D03*
G01*
X2413000Y6730949D03*
G01*
X3175000Y6730949D03*
D19*
G01*
X2413000Y6476949D03*
D17*
G01*
X3175000Y6476949D03*
D19*
G01*
X4953000Y6477000D03*
D17*
G01*
X4953000Y6731000D03*
G01*
X4953000Y6985000D03*
G01*
X4953000Y7239000D03*
G01*
X4953000Y7493000D03*
G01*
X4953000Y7747000D03*
G01*
X4953000Y8001000D03*
G01*
X5715000Y8001000D03*
G01*
X5715000Y7747000D03*
G01*
X5715000Y7493000D03*
G01*
X5715000Y7239000D03*
G01*
X5715000Y6985000D03*
G01*
X5715000Y6731000D03*
G01*
X5715000Y6477000D03*
D19*
G01*
X6223000Y6477000D03*
D17*
G01*
X6223000Y6731000D03*
G01*
X6223000Y6985000D03*
G01*
X6223000Y7239000D03*
G01*
X6223000Y7493000D03*
G01*
X6223000Y7747000D03*
G01*
X6223000Y8001000D03*
G01*
X6985000Y8001000D03*
D19*
G01*
X6985000Y7747000D03*
D17*
G01*
X6985000Y7493000D03*
G01*
X6985000Y7239000D03*
G01*
X6985000Y6985000D03*
G01*
X6985000Y6731000D03*
G01*
X6985000Y6477000D03*
D19*
G01*
X7493000Y6477000D03*
D17*
G01*
X7493000Y6731000D03*
G01*
X7493000Y6985000D03*
G01*
X7493000Y7239000D03*
G01*
X7493000Y7493000D03*
G01*
X7493000Y7747000D03*
G01*
X7493000Y8001000D03*
G01*
X8255000Y8001000D03*
G01*
X8255000Y7747000D03*
G01*
X8255000Y7493000D03*
G01*
X8255000Y7239000D03*
G01*
X8255000Y6985000D03*
G01*
X8255000Y6731000D03*
G01*
X8255000Y6477000D03*
G01*
X1143000Y4445000D03*
G01*
X1905000Y4445000D03*
G01*
X1143000Y4191000D03*
G01*
X1905000Y4191000D03*
G01*
X1143000Y3937000D03*
G01*
X1905000Y3937000D03*
G01*
X1143000Y3683000D03*
G01*
X1905000Y3683000D03*
G01*
X1143000Y3429000D03*
G01*
X1905000Y3429000D03*
G01*
X1143000Y3175000D03*
G01*
X1905000Y3175000D03*
G01*
X1143000Y2921000D03*
G01*
X1905000Y2921000D03*
D19*
G01*
X1143000Y2666974D03*
D17*
G01*
X1905000Y2666974D03*
D19*
G01*
X1143000Y2412949D03*
G01*
X1905000Y2412949D03*
G01*
X1143000Y2158949D03*
G01*
X1905000Y2158949D03*
D17*
G01*
X6223000Y4445000D03*
G01*
X6985000Y4445000D03*
G01*
X6223000Y4191000D03*
G01*
X6985000Y4191000D03*
G01*
X6223000Y3937000D03*
G01*
X6985000Y3937000D03*
G01*
X6223000Y3683000D03*
G01*
X6985000Y3683000D03*
G01*
X6223000Y3429000D03*
G01*
X6985000Y3429000D03*
G01*
X6223000Y3175000D03*
G01*
X6985000Y3175000D03*
G01*
X6223000Y2921000D03*
G01*
X6985000Y2921000D03*
G01*
X6223000Y2666974D03*
D19*
G01*
X6985000Y2666974D03*
D17*
G01*
X6223000Y2412949D03*
D19*
G01*
X6985000Y2412949D03*
G01*
X6223000Y2158949D03*
G01*
X6985000Y2158949D03*
D17*
G01*
X7493000Y4445000D03*
G01*
X8255000Y4445000D03*
G01*
X7493000Y4191000D03*
G01*
X8255000Y4191000D03*
G01*
X7493000Y3937000D03*
G01*
X8255000Y3937000D03*
G01*
X7493000Y3683000D03*
G01*
X8255000Y3683000D03*
G01*
X7493000Y3429000D03*
G01*
X8255000Y3429000D03*
G01*
X7493000Y3175000D03*
G01*
X8255000Y3175000D03*
G01*
X7493000Y2921000D03*
G01*
X8255000Y2921000D03*
G01*
X7493000Y2666974D03*
G01*
X8255000Y2666974D03*
G01*
X7493000Y2412949D03*
G01*
X8255000Y2412949D03*
D19*
G01*
X7493000Y2158949D03*
D17*
G01*
X8255000Y2158949D03*
D18*
G01*
X5715000Y3937000D03*
D10*
G01*
X5715000Y3683000D03*
G01*
X5715000Y3429000D03*
G01*
X5715000Y3175000D03*
G01*
X5715000Y2921000D03*
G01*
X5715000Y2667000D03*
G01*
X5715000Y2413000D03*
G01*
X5715000Y2159000D03*
D17*
G01*
X5461000Y3937000D03*
G01*
X5461000Y3683000D03*
G01*
X5461000Y3429000D03*
G01*
X5461000Y3175000D03*
G01*
X4699000Y3175000D03*
G01*
X4699000Y3429000D03*
G01*
X4699000Y3683000D03*
G01*
X4699000Y3937000D03*
G01*
X4699000Y2921000D03*
G01*
X4699000Y2667000D03*
G01*
X4699000Y2413000D03*
G01*
X5461000Y2413000D03*
G01*
X5461000Y2667000D03*
G01*
X5461000Y2921000D03*
G01*
X5461000Y2159000D03*
G01*
X4699000Y2159000D03*
D20*
G01*
X2921000Y9270974D03*
D22*
G01*
X3175000Y9270974D03*
D20*
G01*
X4191000Y9270974D03*
D22*
G01*
X4445000Y9270974D03*
D20*
G01*
X5461000Y8508974D03*
D22*
G01*
X5715000Y8508974D03*
D20*
G01*
X6731000Y8508974D03*
D22*
G01*
X6985000Y8508974D03*
D20*
G01*
X8000974Y8508974D03*
D22*
G01*
X8254974Y8508974D03*
D20*
G01*
X9270974Y8762974D03*
D22*
G01*
X9524974Y8762974D03*
D20*
G01*
X1651000Y4953000D03*
D22*
G01*
X1905000Y4953000D03*
D21*
G01*
X4445000Y5207000D03*
D23*
G01*
X4445000Y5461000D03*
D20*
G01*
X6731000Y4953000D03*
D22*
G01*
X6985000Y4953000D03*
D20*
G01*
X8000974Y4953000D03*
D22*
G01*
X8254974Y4953000D03*
D20*
G01*
X9270974Y4191000D03*
D22*
G01*
X9524974Y4191000D03*
D20*
G01*
X1651000Y9271000D03*
D22*
G01*
X1905000Y9271000D03*
M02*
