G04 Layer: TopPasteMaskLayer*
G04 EasyEDA v6.5.54, 2026-05-14 16:30:12*
G04 fa4692dd088d48a7bfa3324e0a8a9796,3d3f09d9cea3496b8cca675c4301f38a,10*
G04 Gerber Generator version 0.2*
G04 Scale: 100 percent, Rotated: No, Reflected: No *
G04 Dimensions in millimeters *
G04 leading zeros omitted , absolute positions ,4 integer and 5 decimal *
%FSLAX45Y45*%
%MOMM*%

%ADD10O,1.524X5.499989*%
%ADD11R,1.5240X5.0000*%
%ADD12R,0.0149X5.0000*%

%LPD*%
D10*
G01*
X7620000Y381000D03*
G01*
X7366000Y381000D03*
G01*
X7112000Y381000D03*
G01*
X6858000Y381000D03*
G01*
X6604000Y381000D03*
G01*
X6350000Y381000D03*
G01*
X6096000Y381000D03*
G01*
X5842000Y381000D03*
G01*
X5334000Y381000D03*
G01*
X5080000Y381000D03*
G01*
X4826000Y381000D03*
G01*
X4572000Y381000D03*
G01*
X4318000Y381000D03*
G01*
X4064000Y381000D03*
G01*
X3810000Y381000D03*
G01*
X3556000Y381000D03*
G01*
X3302000Y381000D03*
G01*
X3048000Y381000D03*
G01*
X2794000Y381000D03*
G01*
X2540000Y381000D03*
G01*
X2286000Y381000D03*
G01*
X2032000Y381000D03*
G01*
X1778000Y381000D03*
G01*
X1524000Y381000D03*
G01*
X1270000Y381000D03*
G01*
X1016000Y381000D03*
G01*
X762000Y381000D03*
G01*
X508000Y381000D03*
G01*
X254000Y381000D03*
D11*
G01*
X254000Y508000D03*
G01*
X508000Y508000D03*
G01*
X762000Y508000D03*
G01*
X1016000Y508000D03*
G01*
X1270000Y508000D03*
G01*
X1524000Y508000D03*
G01*
X1778000Y508000D03*
G01*
X2032000Y508000D03*
G01*
X2286000Y508000D03*
G01*
X2540000Y508000D03*
G01*
X2794000Y508000D03*
G01*
X3048000Y508000D03*
G01*
X3302000Y508000D03*
G01*
X3556000Y508000D03*
G01*
X3810000Y508000D03*
G01*
X4064000Y508000D03*
G01*
X4318000Y508000D03*
G01*
X4572000Y508000D03*
G01*
X4826000Y508000D03*
G01*
X5080000Y508000D03*
G01*
X5334000Y508000D03*
G01*
X5842000Y508000D03*
G01*
X6096000Y508000D03*
G01*
X6350000Y508000D03*
G01*
X6604000Y508000D03*
G01*
X6858000Y508000D03*
G01*
X7112000Y508000D03*
G01*
X7366000Y508000D03*
G01*
X7620000Y508000D03*
M02*
