M48
METRIC,LZ,000.000
;FILE_FORMAT=3:3
;TYPE=PLATED
;Layer: PTH_Through_Via
;EasyEDA v6.5.54, 2026-05-14 14:21:07
;0c5b4b3912a54398864f23029d2967d4,3d3f09d9cea3496b8cca675c4301f38a,10
;Gerber Generator version 0.2
;Holesize 1 = 0.310 mm
T01C0.310
%
G05
G90
T01
X014097Y073787
X014097Y056007
X014097Y058547
X014097Y061087
X014097Y063627
X014097Y066167
X014097Y068707
X014097Y071247
X082550Y002540
X039751Y038100
X040640Y035560
X040894Y027940
X040894Y033020
X040386Y040640
X046482Y020320
X046990Y017780
X047625Y015240
X049149Y046736
X048514Y046228
X047879Y045720
X047244Y045212
X046609Y044704
X045974Y044196
X045339Y043688
X044704Y043180
X053975Y021844
X055118Y021082
X097409Y009017
X096774Y009525
X096139Y010033
X094869Y011049
X034925Y031623
X034290Y032131
X033655Y032639
X067310Y005969
X067310Y002540
X024257Y076835
X030861Y029718
X095504Y010541
X098044Y022860
X094869Y027178
X096139Y039370
X097409Y044323
X096393Y076200
X098044Y067056
X096774Y062484
X098679Y066548
X098044Y017018
X101219Y064516
X101854Y064008
X100584Y018669
X098044Y021209
X053340Y023622
X052705Y022352
X052070Y024257
X102489Y063500
X102489Y023749
X100584Y065024
X100584Y021844
X099314Y066040
X099314Y024384
X099949Y065532
X098044Y019304
X025527Y076835
X033147Y029210
X029083Y027813
X034290Y027178
X039116Y078740
X059690Y002540
X057150Y002540
X054610Y002540
X052070Y002540
X060960Y002540
X060960Y005969
X059690Y005969
X057150Y005969
X054610Y005969
X052070Y005969
X017653Y012319
X023622Y056896
X034417Y023749
X081661Y077343
X072517Y078740
X073406Y078740
X093472Y080518
X087757Y079883
X088392Y079375
X089027Y079883
X089662Y079375
X043180Y089154
X067945Y076200
X082423Y068580
X063119Y089154
X033655Y005969
X037338Y005969
X094107Y090170
M30
