M48
METRIC,LZ,000.000
;FILE_FORMAT=3:3
;TYPE=PLATED
;Layer: PTH_Through
;EasyEDA v6.5.54, 2026-05-14 14:21:07
;0c5b4b3912a54398864f23029d2967d4,3d3f09d9cea3496b8cca675c4301f38a,10
;Gerber Generator version 0.2
;Holesize 1 = 0.301 mm
T01C0.301
;Holesize 2 = 0.310 mm
T02C0.310
;Holesize 3 = 0.400 mm
T03C0.400
;Holesize 4 = 0.501 mm
T04C0.501
;Holesize 5 = 0.701 mm
T05C0.701
;Holesize 6 = 0.800 mm
T06C0.800
;Holesize 7 = 0.901 mm
T07C0.901
;Holesize 8 = 1.101 mm
T08C1.101
%
G05
G90
T01
X044854Y091280G85X044854Y091680
X044854Y093780G85X044854Y094180
X044854Y096280G85X044854Y096680
X041504Y091280G85X041504Y091680
X041504Y093780G85X041504Y094180
X041504Y096280G85X041504Y096680
T02
X014097Y073787
X014097Y056007
X014097Y058547
X014097Y061087
X014097Y063627
X014097Y066167
X014097Y068707
X014097Y071247
X082550Y002540
X039751Y038100
X040640Y035560
X040894Y027940
X040894Y033020
X040386Y040640
X046482Y020320
X046990Y017780
X047625Y015240
X049149Y046736
X048514Y046228
X047879Y045720
X047244Y045212
X046609Y044704
X045974Y044196
X045339Y043688
X044704Y043180
X053975Y021844
X055118Y021082
X097409Y009017
X096774Y009525
X096139Y010033
X094869Y011049
X034925Y031623
X034290Y032131
X033655Y032639
X067310Y005969
X067310Y002540
X024257Y076835
X030861Y029718
X095504Y010541
X098044Y022860
X094869Y027178
X096139Y039370
X097409Y044323
X096393Y076200
X098044Y067056
X096774Y062484
X098679Y066548
X098044Y017018
X101219Y064516
X101854Y064008
X100584Y018669
X098044Y021209
X053340Y023622
X052705Y022352
X052070Y024257
X102489Y063500
X102489Y023749
X100584Y065024
X100584Y021844
X099314Y066040
X099314Y024384
X099949Y065532
X098044Y019304
X025527Y076835
X033147Y029210
X029083Y027813
X034290Y027178
X039116Y078740
X059690Y002540
X057150Y002540
X054610Y002540
X052070Y002540
X060960Y002540
X060960Y005969
X059690Y005969
X057150Y005969
X054610Y005969
X052070Y005969
X017653Y012319
X023622Y056896
X034417Y023749
X081661Y077343
X072517Y078740
X073406Y078740
X093472Y080518
X087757Y079883
X088392Y079375
X089027Y079883
X089662Y079375
X043180Y089154
X067945Y076200
X082423Y068580
X063119Y089154
X033655Y005969
X037338Y005969
X094107Y090170
T03
X049330Y087630G85X049730Y087630
X051870Y087630G85X052270Y087630
X054410Y087630G85X054810Y087630
X056950Y087630G85X057350Y087630
X059490Y087630G85X059890Y087630
X062030Y087630G85X062430Y087630
X082350Y087630G85X082750Y087630
X079810Y087630G85X080210Y087630
X077270Y087630G85X077670Y087630
X074730Y087630G85X075130Y087630
X072190Y087630G85X072590Y087630
X069650Y087630G85X070050Y087630
X084890Y087630G85X085290Y087630
X087430Y087630G85X087830Y087630
X091440Y097590G85X091440Y097990
X091440Y095050G85X091440Y095450
X091440Y092510G85X091440Y092910
X091440Y089970G85X091440Y090370
X091440Y087430G85X091440Y087830
X049330Y097790G85X049730Y097790
X051870Y097790G85X052270Y097790
X054410Y097790G85X054810Y097790
X056950Y097790G85X057350Y097790
X059490Y097790G85X059890Y097790
X062030Y097790G85X062430Y097790
X062030Y090170G85X062430Y090170
X059490Y090170G85X059890Y090170
X056950Y090170G85X057350Y090170
X054410Y090170G85X054810Y090170
X051870Y090170G85X052270Y090170
X049330Y090170G85X049730Y090170
X069650Y097790G85X070050Y097790
X072190Y097790G85X072590Y097790
X074730Y097790G85X075130Y097790
X077270Y097790G85X077670Y097790
X077270Y090170G85X077670Y090170
X074730Y090170G85X075130Y090170
X072190Y090170G85X072590Y090170
X069650Y090170G85X070050Y090170
X079810Y090170G85X080210Y090170
X082350Y090170G85X082750Y090170
X084890Y090170G85X085290Y090170
X084890Y097790G85X085290Y097790
X082350Y097790G85X082750Y097790
X079810Y097790G85X080210Y097790
X087430Y097790G85X087830Y097790
X087430Y090170G85X087830Y090170
X020320Y078540G85X020320Y078940
X027940Y078540G85X027940Y078940
X020320Y076000G85X020320Y076400
X027940Y076000G85X027940Y076400
X020320Y073460G85X020320Y073860
X027940Y073460G85X027940Y073860
X020320Y070920G85X020320Y071320
X027940Y070920G85X027940Y071320
X020320Y068380G85X020320Y068780
X027940Y068380G85X027940Y068780
X020320Y065840G85X020320Y066240
X027940Y065840G85X027940Y066240
X020320Y063300G85X020320Y063700
X027940Y063300G85X027940Y063700
X020320Y060760G85X020320Y061160
X027940Y060760G85X027940Y061160
X020320Y058220G85X020320Y058620
X027940Y058220G85X027940Y058620
X020320Y055680G85X020320Y056080
X027940Y055680G85X027940Y056080
X033020Y078540G85X033020Y078940
X040640Y078540G85X040640Y078940
X033020Y076000G85X033020Y076400
X040640Y076000G85X040640Y076400
X033020Y073460G85X033020Y073860
X040640Y073460G85X040640Y073860
X033020Y070920G85X033020Y071320
X040640Y070920G85X040640Y071320
X033020Y068380G85X033020Y068780
X040640Y068380G85X040640Y068780
X033020Y065840G85X033020Y066240
X040640Y065840G85X040640Y066240
X033020Y063300G85X033020Y063700
X040640Y063300G85X040640Y063700
X033020Y060760G85X033020Y061160
X040640Y060760G85X040640Y061160
X033020Y058220G85X033020Y058620
X040640Y058220G85X040640Y058620
X033020Y055680G85X033020Y056080
X040640Y055680G85X040640Y056080
X058420Y078540G85X058420Y078940
X066040Y078540G85X066040Y078940
X058420Y076000G85X058420Y076400
X066040Y076000G85X066040Y076400
X058420Y073460G85X058420Y073860
X066040Y073460G85X066040Y073860
X058420Y070920G85X058420Y071320
X066040Y070920G85X066040Y071320
X058420Y068380G85X058420Y068780
X066040Y068380G85X066040Y068780
X058420Y065840G85X058420Y066240
X066040Y065840G85X066040Y066240
X058420Y063300G85X058420Y063700
X066040Y063300G85X066040Y063700
X058420Y060760G85X058420Y061160
X066040Y060760G85X066040Y061160
X058420Y058220G85X058420Y058620
X066040Y058220G85X066040Y058620
X058420Y055680G85X058420Y056080
X066040Y055680G85X066040Y056080
X071120Y078540G85X071120Y078940
X078740Y078540G85X078740Y078940
X071120Y076000G85X071120Y076400
X078740Y076000G85X078740Y076400
X071120Y073460G85X071120Y073860
X078740Y073460G85X078740Y073860
X071120Y070920G85X071120Y071320
X078740Y070920G85X078740Y071320
X071120Y068380G85X071120Y068780
X078740Y068380G85X078740Y068780
X071120Y065840G85X071120Y066240
X078740Y065840G85X078740Y066240
X071120Y063300G85X071120Y063700
X078740Y063300G85X078740Y063700
X071120Y060760G85X071120Y061160
X078740Y060760G85X078740Y061160
X071120Y058220G85X071120Y058620
X078740Y058220G85X078740Y058620
X071120Y055680G85X071120Y056080
X078740Y055680G85X078740Y056080
X083820Y078540G85X083820Y078940
X091440Y078540G85X091440Y078940
X083820Y076000G85X083820Y076400
X091440Y076000G85X091440Y076400
X083820Y073460G85X083820Y073860
X091440Y073460G85X091440Y073860
X083820Y070920G85X083820Y071320
X091440Y070920G85X091440Y071320
X083820Y068380G85X083820Y068780
X091440Y068380G85X091440Y068780
X083820Y065840G85X083820Y066240
X091440Y065840G85X091440Y066240
X083820Y063300G85X083820Y063700
X091440Y063300G85X091440Y063700
X083820Y060760G85X083820Y061160
X091440Y060760G85X091440Y061160
X083820Y058220G85X083820Y058620
X091440Y058220G85X091440Y058620
X083820Y055680G85X083820Y056080
X091440Y055680G85X091440Y056080
X045720Y078540G85X045720Y078940
X053340Y078540G85X053340Y078940
X045720Y076000G85X045720Y076400
X053340Y076000G85X053340Y076400
X045720Y073460G85X045720Y073860
X053340Y073460G85X053340Y073860
X045720Y070920G85X045720Y071320
X053340Y070920G85X053340Y071320
X045720Y068380G85X045720Y068780
X053340Y068380G85X053340Y068780
X045720Y065840G85X045720Y066240
X053340Y065840G85X053340Y066240
X045720Y063300G85X045720Y063700
X053340Y063300G85X053340Y063700
X045720Y060760G85X045720Y061160
X053340Y060760G85X053340Y061160
X045720Y058220G85X045720Y058620
X053340Y058220G85X053340Y058620
X045720Y055680G85X045720Y056080
X053340Y055680G85X053340Y056080
X083820Y027740G85X083820Y028140
X083820Y025200G85X083820Y025600
X083820Y022660G85X083820Y023060
X083820Y020120G85X083820Y020520
X083820Y017580G85X083820Y017980
X083820Y015040G85X083820Y015440
X083820Y012500G85X083820Y012900
X091440Y027740G85X091440Y028140
X091440Y025200G85X091440Y025600
X091440Y022660G85X091440Y023060
X091440Y020120G85X091440Y020520
X091440Y017580G85X091440Y017980
X091440Y015040G85X091440Y015440
X091440Y012500G85X091440Y012900
X058420Y027740G85X058420Y028140
X058420Y025200G85X058420Y025600
X058420Y022660G85X058420Y023060
X058420Y020120G85X058420Y020520
X058420Y017580G85X058420Y017980
X058420Y015040G85X058420Y015440
X058420Y012500G85X058420Y012900
X066040Y027740G85X066040Y028140
X066040Y025200G85X066040Y025600
X066040Y022660G85X066040Y023060
X066040Y020120G85X066040Y020520
X066040Y017580G85X066040Y017980
X066040Y015040G85X066040Y015440
X066040Y012500G85X066040Y012900
X071120Y027740G85X071120Y028140
X071120Y025200G85X071120Y025600
X071120Y022660G85X071120Y023060
X071120Y020120G85X071120Y020520
X071120Y017580G85X071120Y017980
X071120Y015040G85X071120Y015440
X071120Y012500G85X071120Y012900
X078740Y027740G85X078740Y028140
X078740Y025200G85X078740Y025600
X078740Y022660G85X078740Y023060
X078740Y020120G85X078740Y020520
X078740Y017580G85X078740Y017980
X078740Y015040G85X078740Y015440
X078740Y012500G85X078740Y012900
X076400Y038100G85X076000Y038100
X078940Y038100G85X078540Y038100
X081480Y038100G85X081080Y038100
X084020Y038100G85X083620Y038100
X086560Y038100G85X086160Y038100
X089100Y038100G85X088700Y038100
X091640Y038100G85X091240Y038100
X076400Y045720G85X076000Y045720
X078940Y045720G85X078540Y045720
X081480Y045720G85X081080Y045720
X084020Y045720G85X083620Y045720
X086560Y045720G85X086160Y045720
X089100Y045720G85X088700Y045720
X091640Y045720G85X091240Y045720
X027940Y030280G85X027940Y030680
X027940Y027740G85X027940Y028140
X027940Y025200G85X027940Y025600
X027940Y022660G85X027940Y023060
X027940Y020120G85X027940Y020520
X027940Y017580G85X027940Y017980
X027940Y015040G85X027940Y015440
X027940Y012500G85X027940Y012900
X020320Y012500G85X020320Y012900
X020320Y015040G85X020320Y015440
X020320Y017580G85X020320Y017980
X020320Y020120G85X020320Y020520
X020320Y022660G85X020320Y023060
X020320Y025200G85X020320Y025600
X020320Y027740G85X020320Y028140
X020320Y030280G85X020320Y030680
X050800Y045520G85X050800Y045920
X050800Y042980G85X050800Y043380
X050800Y040440G85X050800Y040840
X050800Y037900G85X050800Y038300
X050800Y035360G85X050800Y035760
X050800Y032820G85X050800Y033220
X050800Y030280G85X050800Y030680
X050800Y027740G85X050800Y028140
X050800Y025200G85X050800Y025600
X050800Y022660G85X050800Y023060
X050800Y020120G85X050800Y020520
X050800Y017580G85X050800Y017980
X050800Y015040G85X050800Y015440
X050800Y012500G85X050800Y012900
X035560Y012500G85X035560Y012900
X035560Y015040G85X035560Y015440
X035560Y017580G85X035560Y017980
X035560Y020120G85X035560Y020520
X035560Y022660G85X035560Y023060
X035560Y025200G85X035560Y025600
X035560Y027740G85X035560Y028140
X035560Y032820G85X035560Y033220
X035560Y035360G85X035560Y035760
X035560Y037900G85X035560Y038300
X035560Y040440G85X035560Y040840
X035560Y042980G85X035560Y043380
X035560Y030280G85X035560Y030680
X035560Y045520G85X035560Y045920
T04
X022860Y091440
X027940Y091440
X022860Y088900
X027940Y088900
T05
X010922Y012700
X012922Y012700
X098838Y012700
X100838Y012700
X022860Y083820
X027940Y083820
X035560Y083820
X040640Y083820
X060960Y083820
X066040Y083820
X086360Y033020
X091440Y033020
X060960Y033020
X066040Y033020
X073660Y033020
X078740Y033020
X022860Y035560
X027940Y035560
X073660Y083820
X078740Y083820
X055880Y040640
X055880Y045720
X086360Y083820
X091440Y083820
X048260Y083820
X053340Y083820
X071120Y040640
X071120Y045720
X017780Y096520
X020320Y096520
T06
X025400Y096520
X027940Y096520
X031750Y006350
X031750Y003810
X029210Y006350
X029210Y003810
X026670Y006350
X026670Y003810
X024130Y006350
X024130Y003810
X021590Y006350
X021590Y003810
X009144Y025400
X009144Y022860
T07
X010160Y099060
X012700Y099060
X010160Y096520
X012700Y096520
X010160Y093980
X012700Y093980
X010160Y091440
X012700Y091440
X010160Y088900
X012700Y088900
X010160Y086360
X012700Y086360
X010160Y083820
X012700Y083820
X010160Y081280
X012700Y081280
X010160Y078740
X012700Y078740
X010160Y076200
X012700Y076200
X010160Y073660
X012700Y073660
X010160Y071120
X012700Y071120
X010160Y068580
X012700Y068580
X010160Y066040
X012700Y066040
X010160Y063500
X012700Y063500
X010160Y060960
X012700Y060960
X010160Y058420
X012700Y058420
X010160Y055880
X012700Y055880
X010160Y053340
X012700Y053340
X010160Y050800
X012696Y050800
T08
X012700Y033080
X012700Y035580
X012700Y038080
X012700Y040580
M30
