G04 Layer: BottomSolderMaskLayer*
G04 EasyEDA v6.5.54, 2026-05-14 14:21:07*
G04 0c5b4b3912a54398864f23029d2967d4,3d3f09d9cea3496b8cca675c4301f38a,10*
G04 Gerber Generator version 0.2*
G04 Scale: 100 percent, Rotated: No, Reflected: No *
G04 Dimensions in millimeters *
G04 leading zeros omitted , absolute positions ,4 integer and 5 decimal *
%FSLAX45Y45*%
%MOMM*%

%AMMACRO1*4,1,8,-0.8711,-0.5008,-0.9008,-0.471,-0.9008,0.4711,-0.8711,0.5008,0.871,0.5008,0.9008,0.4711,0.9008,-0.471,0.871,-0.5008,-0.8711,-0.5008,0*%
%AMMACRO2*4,1,8,-0.4711,-0.9008,-0.5008,-0.871,-0.5008,0.8711,-0.4711,0.9008,0.471,0.9008,0.5008,0.8711,0.5008,-0.871,0.471,-0.9008,-0.4711,-0.9008,0*%
%AMMACRO3*4,1,8,-0.8711,-0.5008,-0.9008,-0.471,-0.9008,0.471,-0.8711,0.5008,0.871,0.5008,0.9008,0.471,0.9008,-0.471,0.871,-0.5008,-0.8711,-0.5008,0*%
%AMMACRO4*4,1,8,-0.8711,-0.9008,-0.9008,-0.871,-0.9008,0.8711,-0.8711,0.9008,0.871,0.9008,0.9008,0.8711,0.9008,-0.871,0.871,-0.9008,-0.8711,-0.9008,0*%
%ADD10MACRO1*%
%ADD11O,1.801597X1.001598*%
%ADD12C,1.8000*%
%ADD13MACRO2*%
%ADD14O,1.001598X1.801597*%
%ADD15MACRO3*%
%ADD16C,0.0127*%
%ADD17MACRO4*%
%ADD18C,1.8016*%
%ADD19O,1.799996X0.999998*%
%ADD20O,1.199998X1.799996*%
%ADD21O,1.801597X0.901598*%
%ADD22O,1.001598X0.601599*%
%ADD23C,0.9016*%
%ADD24C,1.3016*%
%ADD25C,1.0016*%
%ADD26C,1.1016*%
%ADD27C,1.0000*%
%ADD28C,0.7016*%
%ADD29O,0.599999X0.999998*%
%ADD30O,0.501599X0.901598*%
%ADD31O,0.999998X0.599999*%
%ADD32O,0.601599X1.001598*%

%LPD*%
G36*
X10235184Y9906000D02*
G01*
X10230358Y9904526D01*
X10228529Y9902494D01*
X10228310Y9749078D01*
X10257078Y9749078D01*
X10257332Y9876485D01*
X10262158Y9877552D01*
X10384129Y9877653D01*
X10385704Y9875926D01*
X10385602Y9754108D01*
X10384485Y9749332D01*
X10228310Y9749078D01*
X10228275Y9729165D01*
X10229342Y9722916D01*
X10230815Y9721291D01*
X10237165Y9720224D01*
X10410545Y9720529D01*
X10412577Y9722358D01*
X10414000Y9727184D01*
X10413949Y9902393D01*
X10412679Y9904679D01*
X10410393Y9905949D01*
G37*
G36*
X9865969Y9906000D02*
G01*
X9863124Y9903155D01*
X9863124Y9774885D01*
X9865969Y9772091D01*
X9888016Y9772091D01*
X9889540Y9770618D01*
X9889540Y9749129D01*
X9970617Y9749129D01*
X9970617Y9770516D01*
X9972395Y9772091D01*
X9994239Y9772091D01*
X9997033Y9774885D01*
X9997033Y9796881D01*
X9998760Y9798507D01*
X10019893Y9798507D01*
X10021468Y9796729D01*
X10021468Y9774885D01*
X10024313Y9772091D01*
X10047020Y9772091D01*
X10049814Y9774885D01*
X10049814Y9823297D01*
X10051542Y9824872D01*
X10120172Y9824872D01*
X10121798Y9823145D01*
X10121798Y9802012D01*
X10120020Y9800437D01*
X10098176Y9800437D01*
X10095382Y9797592D01*
X10095382Y9749129D01*
X10093858Y9747605D01*
X10071811Y9747605D01*
X10069017Y9744811D01*
X10069017Y9722815D01*
X10067239Y9721240D01*
X10051389Y9721240D01*
X10049814Y9723018D01*
X10049814Y9744811D01*
X10047020Y9747605D01*
X10024313Y9747605D01*
X10021468Y9744811D01*
X10021468Y9722815D01*
X10019741Y9721240D01*
X9998608Y9721240D01*
X9997033Y9723018D01*
X9997033Y9744811D01*
X9994239Y9747605D01*
X9972141Y9747605D01*
X9970617Y9749129D01*
X9889540Y9749129D01*
X9888016Y9747605D01*
X9865969Y9747605D01*
X9863124Y9744811D01*
X9863124Y9722764D01*
X9891471Y9722764D01*
X9891471Y9744202D01*
X9892944Y9745726D01*
X9914331Y9745726D01*
X9915906Y9743948D01*
X9915906Y9722764D01*
X9944252Y9722764D01*
X9944252Y9744100D01*
X9945979Y9745726D01*
X9967214Y9745726D01*
X9968687Y9744202D01*
X9968687Y9722815D01*
X9966960Y9721240D01*
X9945725Y9721240D01*
X9944252Y9722764D01*
X9915906Y9722764D01*
X9914432Y9721240D01*
X9892944Y9721240D01*
X9891471Y9722764D01*
X9863124Y9722764D01*
X9863124Y9722104D01*
X9865969Y9719310D01*
X9888016Y9719310D01*
X9889540Y9717786D01*
X9889540Y9696602D01*
X9917836Y9696602D01*
X9917836Y9717786D01*
X9919360Y9719310D01*
X9940798Y9719310D01*
X9942322Y9717786D01*
X9942322Y9696348D01*
X9940798Y9694824D01*
X9919411Y9694824D01*
X9917836Y9696602D01*
X9889540Y9696602D01*
X9889540Y9643567D01*
X9917836Y9643567D01*
X9917836Y9664954D01*
X9919614Y9666528D01*
X9941407Y9666528D01*
X9944252Y9669322D01*
X9944252Y9691420D01*
X9945725Y9692944D01*
X9967112Y9692944D01*
X9968687Y9691166D01*
X9968687Y9669322D01*
X9971532Y9666528D01*
X9994239Y9666528D01*
X9997033Y9669322D01*
X9997033Y9691319D01*
X9998760Y9692944D01*
X10019893Y9692944D01*
X10021468Y9691166D01*
X10021468Y9643567D01*
X10019995Y9642043D01*
X9997897Y9642043D01*
X9995103Y9639249D01*
X9995103Y9590887D01*
X9993325Y9589262D01*
X9972141Y9589262D01*
X9970617Y9590786D01*
X9970617Y9612884D01*
X9967823Y9615678D01*
X9945725Y9615678D01*
X9944252Y9617202D01*
X9944252Y9639249D01*
X9941407Y9642043D01*
X9919360Y9642043D01*
X9917836Y9643567D01*
X9889540Y9643567D01*
X9889540Y9642957D01*
X9892334Y9640163D01*
X9914432Y9640163D01*
X9915906Y9638639D01*
X9915906Y9616541D01*
X9918750Y9613747D01*
X9940798Y9613747D01*
X9942322Y9612223D01*
X9942322Y9590176D01*
X9945116Y9587382D01*
X9967214Y9587382D01*
X9968687Y9585858D01*
X9968687Y9564624D01*
X9967112Y9562896D01*
X9945116Y9562896D01*
X9942322Y9560102D01*
X9942322Y9543542D01*
X10023398Y9543542D01*
X10023398Y9638639D01*
X10024922Y9640163D01*
X10046360Y9640163D01*
X10047884Y9638639D01*
X10047884Y9590176D01*
X10050678Y9587382D01*
X10067391Y9587382D01*
X10069017Y9585604D01*
X10069017Y9564420D01*
X10097312Y9564420D01*
X10097312Y9585756D01*
X10099040Y9587382D01*
X10120172Y9587382D01*
X10121798Y9585604D01*
X10121798Y9564420D01*
X10120274Y9562896D01*
X10098836Y9562896D01*
X10097312Y9564420D01*
X10069017Y9564420D01*
X10069017Y9563760D01*
X10071811Y9560966D01*
X10093858Y9560966D01*
X10095382Y9559442D01*
X10095382Y9543338D01*
X10093655Y9541764D01*
X10071811Y9541764D01*
X10069017Y9538970D01*
X10069017Y9516872D01*
X10067493Y9515398D01*
X10051288Y9515398D01*
X10049814Y9516872D01*
X10049814Y9538970D01*
X10047020Y9541764D01*
X10025024Y9541764D01*
X10023398Y9543542D01*
X9942322Y9543542D01*
X9940747Y9541764D01*
X9919360Y9541764D01*
X9917836Y9543288D01*
X9917836Y9560102D01*
X9915042Y9562896D01*
X9892944Y9562896D01*
X9891471Y9564420D01*
X9891471Y9612884D01*
X9888626Y9615678D01*
X9866833Y9615678D01*
X9865055Y9617252D01*
X9865055Y9692030D01*
X9862261Y9694824D01*
X9839553Y9694824D01*
X9836759Y9692030D01*
X9836759Y9590176D01*
X9839553Y9587382D01*
X9861397Y9587382D01*
X9863124Y9585756D01*
X9863124Y9564420D01*
X9861651Y9562896D01*
X9839553Y9562896D01*
X9836759Y9560102D01*
X9836759Y9543542D01*
X9835184Y9541764D01*
X9761016Y9541764D01*
X9759492Y9543288D01*
X9759492Y9559442D01*
X9761016Y9560966D01*
X9783064Y9560966D01*
X9785908Y9563760D01*
X9785908Y9585858D01*
X9787382Y9587382D01*
X9809480Y9587382D01*
X9812274Y9590176D01*
X9812274Y9639249D01*
X9809480Y9642043D01*
X9761270Y9642043D01*
X9759492Y9643668D01*
X9759492Y9664801D01*
X9761067Y9666528D01*
X9783064Y9666528D01*
X9785908Y9669322D01*
X9785908Y9692030D01*
X9783064Y9694824D01*
X9707626Y9694824D01*
X9704781Y9692030D01*
X9704781Y9669983D01*
X9703308Y9668459D01*
X9681819Y9668459D01*
X9680295Y9669983D01*
X9680295Y9692030D01*
X9677501Y9694824D01*
X9654794Y9694824D01*
X9652000Y9692030D01*
X9652000Y9669322D01*
X9654794Y9666528D01*
X9676892Y9666528D01*
X9678416Y9665004D01*
X9678416Y9590176D01*
X9681210Y9587382D01*
X9703917Y9587382D01*
X9706711Y9590176D01*
X9706711Y9665004D01*
X9708235Y9666528D01*
X9729419Y9666528D01*
X9731197Y9664954D01*
X9731197Y9616541D01*
X9733991Y9613747D01*
X9782200Y9613747D01*
X9783978Y9612172D01*
X9783978Y9590786D01*
X9782454Y9589262D01*
X9760356Y9589262D01*
X9757562Y9586468D01*
X9757562Y9564420D01*
X9756089Y9562896D01*
X9707626Y9562896D01*
X9704781Y9560102D01*
X9704781Y9516872D01*
X9703308Y9515398D01*
X9654794Y9515398D01*
X9652000Y9512554D01*
X9652000Y9489897D01*
X9654794Y9487052D01*
X9676638Y9487052D01*
X9678416Y9485477D01*
X9678416Y9463481D01*
X9681210Y9460687D01*
X9729673Y9460687D01*
X9731197Y9459163D01*
X9731197Y9437979D01*
X9729622Y9436201D01*
X9681210Y9436201D01*
X9678416Y9433407D01*
X9678416Y9411563D01*
X9676790Y9409836D01*
X9654794Y9409836D01*
X9652000Y9406991D01*
X9652000Y9384944D01*
X9706711Y9384944D01*
X9706711Y9406331D01*
X9708489Y9407906D01*
X9756698Y9407906D01*
X9759492Y9410700D01*
X9759492Y9432696D01*
X9761270Y9434271D01*
X9783064Y9434271D01*
X9785908Y9437116D01*
X9785908Y9459772D01*
X9783064Y9462617D01*
X9734600Y9462617D01*
X9733127Y9464090D01*
X9733127Y9486188D01*
X9730282Y9488982D01*
X9708286Y9488982D01*
X9706711Y9490760D01*
X9706711Y9511944D01*
X9708235Y9513468D01*
X9730282Y9513468D01*
X9733127Y9516262D01*
X9733127Y9538258D01*
X9734854Y9539833D01*
X9756089Y9539833D01*
X9757562Y9538360D01*
X9757562Y9489897D01*
X9760356Y9487052D01*
X9862261Y9487052D01*
X9865055Y9489897D01*
X9865055Y9559442D01*
X9866579Y9560966D01*
X9888016Y9560966D01*
X9889540Y9559442D01*
X9889540Y9542678D01*
X9892334Y9539833D01*
X9914432Y9539833D01*
X9915906Y9538360D01*
X9915906Y9516973D01*
X9914178Y9515398D01*
X9892334Y9515398D01*
X9889540Y9512554D01*
X9889540Y9489897D01*
X9892334Y9487052D01*
X9941407Y9487052D01*
X9944252Y9489897D01*
X9944252Y9511893D01*
X9945979Y9513468D01*
X10046360Y9513468D01*
X10047884Y9511944D01*
X10047884Y9490760D01*
X10070896Y9490760D01*
X10070896Y9511944D01*
X10072420Y9513468D01*
X10093807Y9513468D01*
X10095382Y9511690D01*
X10095382Y9490557D01*
X10093655Y9488982D01*
X10072522Y9488982D01*
X10070896Y9490760D01*
X10047884Y9490760D01*
X10047884Y9437979D01*
X10097312Y9437979D01*
X10097312Y9459112D01*
X10099040Y9460687D01*
X10120884Y9460687D01*
X10123678Y9463481D01*
X10123678Y9485477D01*
X10125456Y9487052D01*
X10146588Y9487052D01*
X10148163Y9485325D01*
X10148163Y9463481D01*
X10150957Y9460687D01*
X10172954Y9460687D01*
X10174579Y9458909D01*
X10174518Y9437725D01*
X10229240Y9437725D01*
X10229240Y9459112D01*
X10231018Y9460687D01*
X10252252Y9460687D01*
X10253726Y9459163D01*
X10253726Y9437776D01*
X10251998Y9436201D01*
X10230764Y9436201D01*
X10229240Y9437725D01*
X10174518Y9437725D01*
X10172801Y9436201D01*
X10098887Y9436201D01*
X10097312Y9437979D01*
X10047884Y9437979D01*
X10047884Y9437776D01*
X10046106Y9436201D01*
X10024922Y9436201D01*
X10023398Y9437725D01*
X10023398Y9459772D01*
X10020604Y9462617D01*
X9998506Y9462617D01*
X9997033Y9464090D01*
X9997033Y9486188D01*
X9994239Y9488982D01*
X9971532Y9488982D01*
X9968687Y9486188D01*
X9968687Y9463481D01*
X9971532Y9460687D01*
X9993579Y9460687D01*
X9995103Y9459163D01*
X9995103Y9437116D01*
X9997897Y9434271D01*
X10019995Y9434271D01*
X10021468Y9432798D01*
X10021468Y9411563D01*
X10202875Y9411563D01*
X10202875Y9432696D01*
X10204602Y9434271D01*
X10225836Y9434271D01*
X10227360Y9432798D01*
X10227360Y9411309D01*
X10225836Y9409836D01*
X10204450Y9409836D01*
X10202875Y9411563D01*
X10021468Y9411563D01*
X10019741Y9409836D01*
X9972243Y9409836D01*
X9970617Y9411563D01*
X9970617Y9433407D01*
X9967823Y9436201D01*
X9945725Y9436201D01*
X9944252Y9437725D01*
X9944252Y9459772D01*
X9941407Y9462617D01*
X9865969Y9462617D01*
X9863124Y9459772D01*
X9863124Y9437725D01*
X9861651Y9436201D01*
X9839553Y9436201D01*
X9836759Y9433407D01*
X9836759Y9411309D01*
X9835235Y9409836D01*
X9813188Y9409836D01*
X9810343Y9406991D01*
X9810343Y9385198D01*
X9838690Y9385198D01*
X9838690Y9406382D01*
X9840163Y9407906D01*
X9862261Y9407906D01*
X9865055Y9410700D01*
X9865055Y9432798D01*
X9866579Y9434271D01*
X9887966Y9434271D01*
X9889540Y9432544D01*
X9889540Y9384995D01*
X9887762Y9383420D01*
X9840264Y9383420D01*
X9838690Y9385198D01*
X9810343Y9385198D01*
X9810343Y9384995D01*
X9808616Y9383420D01*
X9708235Y9383420D01*
X9706711Y9384944D01*
X9652000Y9384944D01*
X9652000Y9358528D01*
X9680295Y9358528D01*
X9680295Y9379915D01*
X9682073Y9381490D01*
X9703308Y9381490D01*
X9704781Y9380016D01*
X9704781Y9358528D01*
X9703308Y9357055D01*
X9681819Y9357055D01*
X9680295Y9358528D01*
X9652000Y9358528D01*
X9652000Y9357918D01*
X9654794Y9355124D01*
X9676892Y9355124D01*
X9678416Y9353600D01*
X9678416Y9305747D01*
X9706711Y9305747D01*
X9706711Y9353600D01*
X9708235Y9355124D01*
X9755987Y9355124D01*
X9757562Y9353346D01*
X9757562Y9279636D01*
X9785908Y9279636D01*
X9785908Y9353550D01*
X9787636Y9355124D01*
X9861550Y9355124D01*
X9863124Y9353346D01*
X9863124Y9332417D01*
X9917836Y9332417D01*
X9917836Y9432696D01*
X9919614Y9434271D01*
X9940798Y9434271D01*
X9942322Y9432798D01*
X9942322Y9384334D01*
X9945116Y9381490D01*
X9967112Y9381490D01*
X9968687Y9379762D01*
X9968687Y9358528D01*
X9997033Y9358528D01*
X9997033Y9379915D01*
X9998760Y9381490D01*
X10019893Y9381490D01*
X10021468Y9379762D01*
X10021468Y9358630D01*
X10019741Y9357055D01*
X9998506Y9357055D01*
X9997033Y9358528D01*
X9968687Y9358528D01*
X9968687Y9357918D01*
X9971532Y9355124D01*
X9993579Y9355124D01*
X9995103Y9353600D01*
X9995103Y9306001D01*
X10023398Y9306001D01*
X10023398Y9327134D01*
X10025176Y9328708D01*
X10046360Y9328708D01*
X10047884Y9327235D01*
X10047884Y9305848D01*
X10046106Y9304274D01*
X10025024Y9304274D01*
X10023398Y9306001D01*
X9995103Y9306001D01*
X9995103Y9279432D01*
X9993325Y9277858D01*
X9972141Y9277858D01*
X9970617Y9279382D01*
X9970617Y9301429D01*
X9967823Y9304274D01*
X9945725Y9304274D01*
X9944252Y9305747D01*
X9944252Y9327845D01*
X9941407Y9330639D01*
X9919411Y9330639D01*
X9917836Y9332417D01*
X9863124Y9332417D01*
X9863124Y9279636D01*
X9891471Y9279636D01*
X9891471Y9300718D01*
X9893198Y9302343D01*
X9940798Y9302343D01*
X9942322Y9300819D01*
X9942322Y9278721D01*
X9945116Y9275927D01*
X9967214Y9275927D01*
X9968687Y9274454D01*
X9968687Y9252966D01*
X9967214Y9251492D01*
X9919360Y9251492D01*
X9917836Y9252966D01*
X9917836Y9275064D01*
X9915042Y9277858D01*
X9893046Y9277858D01*
X9891471Y9279636D01*
X9863124Y9279636D01*
X9863124Y9279432D01*
X9861397Y9277858D01*
X9787483Y9277858D01*
X9785908Y9279636D01*
X9757562Y9279636D01*
X9757562Y9279432D01*
X9755835Y9277858D01*
X9734702Y9277858D01*
X9733127Y9279636D01*
X9733127Y9301429D01*
X9730282Y9304274D01*
X9708235Y9304274D01*
X9706711Y9305747D01*
X9678416Y9305747D01*
X9678416Y9305137D01*
X9681210Y9302343D01*
X9703308Y9302343D01*
X9704781Y9300819D01*
X9704781Y9279636D01*
X9703206Y9277858D01*
X9654794Y9277858D01*
X9652000Y9275064D01*
X9652000Y9252356D01*
X9654794Y9249562D01*
X9676638Y9249562D01*
X9678416Y9247936D01*
X9678416Y9226854D01*
X9733127Y9226854D01*
X9733127Y9247936D01*
X9734854Y9249562D01*
X9755987Y9249562D01*
X9757562Y9247784D01*
X9757562Y9226600D01*
X9785908Y9226600D01*
X9785908Y9247936D01*
X9787636Y9249562D01*
X9808768Y9249562D01*
X9810343Y9247784D01*
X9810343Y9226600D01*
X9808870Y9225076D01*
X9787382Y9225076D01*
X9785908Y9226600D01*
X9757562Y9226600D01*
X9756089Y9225076D01*
X9734702Y9225076D01*
X9733127Y9226854D01*
X9678416Y9226854D01*
X9678416Y9226600D01*
X9676892Y9225076D01*
X9654794Y9225076D01*
X9652000Y9222282D01*
X9652000Y9173819D01*
X9680295Y9173819D01*
X9680295Y9221673D01*
X9681819Y9223146D01*
X9703206Y9223146D01*
X9704781Y9221419D01*
X9704781Y9173819D01*
X9703308Y9172295D01*
X9681819Y9172295D01*
X9680295Y9173819D01*
X9652000Y9173819D01*
X9652000Y9173159D01*
X9654794Y9170365D01*
X9676892Y9170365D01*
X9678416Y9168841D01*
X9678416Y9146794D01*
X9681210Y9144000D01*
X9703917Y9144000D01*
X9706711Y9146794D01*
X9706711Y9168841D01*
X9708235Y9170365D01*
X9729419Y9170365D01*
X9731197Y9168790D01*
X9731197Y9146794D01*
X9733991Y9144000D01*
X9756698Y9144000D01*
X9759492Y9146794D01*
X9759492Y9221673D01*
X9761016Y9223146D01*
X9782454Y9223146D01*
X9783978Y9221673D01*
X9783978Y9199575D01*
X9786772Y9196781D01*
X9809480Y9196781D01*
X9812274Y9199575D01*
X9812274Y9221673D01*
X9813798Y9223146D01*
X9862261Y9223146D01*
X9865055Y9225940D01*
X9865055Y9247784D01*
X9866630Y9249562D01*
X9914432Y9249562D01*
X9915906Y9248038D01*
X9915906Y9226854D01*
X9970617Y9226854D01*
X9970617Y9248038D01*
X9972141Y9249562D01*
X9993528Y9249562D01*
X9995103Y9247784D01*
X9995103Y9226600D01*
X9993579Y9225076D01*
X9972243Y9225076D01*
X9970617Y9226854D01*
X9915906Y9226854D01*
X9915906Y9200438D01*
X9914331Y9198660D01*
X9865969Y9198660D01*
X9863124Y9195866D01*
X9863124Y9173819D01*
X9944252Y9173819D01*
X9944252Y9195155D01*
X9945979Y9196781D01*
X9967112Y9196781D01*
X9968687Y9195003D01*
X9968687Y9173870D01*
X9966960Y9172295D01*
X9945725Y9172295D01*
X9944252Y9173819D01*
X9863124Y9173819D01*
X9863124Y9146794D01*
X9865969Y9144000D01*
X9888626Y9144000D01*
X9891471Y9146794D01*
X9891471Y9168638D01*
X9893046Y9170365D01*
X9940798Y9170365D01*
X9942322Y9168841D01*
X9942322Y9146794D01*
X9945116Y9144000D01*
X9994239Y9144000D01*
X9997033Y9146794D01*
X9997033Y9221673D01*
X9998506Y9223146D01*
X10019741Y9223146D01*
X10021468Y9221571D01*
X10021468Y9199575D01*
X10024313Y9196781D01*
X10046360Y9196781D01*
X10047884Y9195257D01*
X10047884Y9173819D01*
X10046360Y9172295D01*
X10024313Y9172295D01*
X10021468Y9169501D01*
X10021468Y9146794D01*
X10024313Y9144000D01*
X10047020Y9144000D01*
X10049814Y9146794D01*
X10049814Y9168841D01*
X10051288Y9170365D01*
X10068102Y9170365D01*
X10070896Y9173159D01*
X10070896Y9195866D01*
X10068102Y9198660D01*
X10051288Y9198660D01*
X10049814Y9200184D01*
X10049814Y9274200D01*
X10051389Y9275927D01*
X10146639Y9275927D01*
X10148163Y9274454D01*
X10148163Y9253220D01*
X10146588Y9251492D01*
X10071811Y9251492D01*
X10069017Y9248648D01*
X10069017Y9225940D01*
X10071811Y9223146D01*
X10172801Y9223146D01*
X10174579Y9221571D01*
X10174579Y9200438D01*
X10172954Y9198660D01*
X10150957Y9198660D01*
X10148163Y9195866D01*
X10148163Y9146794D01*
X10150957Y9144000D01*
X10200081Y9144000D01*
X10202875Y9146794D01*
X10202875Y9248648D01*
X10200081Y9251492D01*
X10178237Y9251492D01*
X10176510Y9253067D01*
X10176510Y9275064D01*
X10173665Y9277858D01*
X10151618Y9277858D01*
X10150094Y9279382D01*
X10150094Y9327845D01*
X10147300Y9330639D01*
X10125456Y9330639D01*
X10123678Y9332214D01*
X10123678Y9354210D01*
X10120884Y9357055D01*
X10071811Y9357055D01*
X10069017Y9354210D01*
X10069017Y9332417D01*
X10067391Y9330639D01*
X10051288Y9330639D01*
X10049814Y9332163D01*
X10049814Y9379762D01*
X10051389Y9381490D01*
X10068102Y9381490D01*
X10070896Y9384334D01*
X10070896Y9406128D01*
X10072522Y9407906D01*
X10172801Y9407906D01*
X10174579Y9406331D01*
X10174579Y9385198D01*
X10229240Y9385198D01*
X10229240Y9406382D01*
X10230764Y9407906D01*
X10278618Y9407906D01*
X10280142Y9406382D01*
X10280142Y9384995D01*
X10278364Y9383420D01*
X10230866Y9383420D01*
X10229240Y9385198D01*
X10174579Y9385198D01*
X10174579Y9384944D01*
X10173055Y9383420D01*
X10150957Y9383420D01*
X10148163Y9380626D01*
X10148163Y9358528D01*
X10176510Y9358528D01*
X10176510Y9380016D01*
X10177983Y9381490D01*
X10199370Y9381490D01*
X10200944Y9379762D01*
X10200944Y9358528D01*
X10199471Y9357055D01*
X10177983Y9357055D01*
X10176510Y9358528D01*
X10148163Y9358528D01*
X10148163Y9357918D01*
X10150957Y9355124D01*
X10173055Y9355124D01*
X10174579Y9353600D01*
X10174579Y9331502D01*
X10177373Y9328708D01*
X10200081Y9328708D01*
X10202875Y9331502D01*
X10202875Y9353600D01*
X10204399Y9355124D01*
X10332008Y9355124D01*
X10334853Y9357918D01*
X10334853Y9380016D01*
X10336326Y9381490D01*
X10357815Y9381490D01*
X10359288Y9380016D01*
X10359288Y9357918D01*
X10362133Y9355124D01*
X10384790Y9355124D01*
X10387634Y9357918D01*
X10387634Y9380626D01*
X10384790Y9383420D01*
X10362742Y9383420D01*
X10361218Y9384944D01*
X10361218Y9406991D01*
X10358424Y9409836D01*
X10335717Y9409836D01*
X10332923Y9406991D01*
X10332923Y9384944D01*
X10331399Y9383420D01*
X10310215Y9383420D01*
X10308437Y9384995D01*
X10308437Y9406991D01*
X10305643Y9409836D01*
X10283545Y9409836D01*
X10282072Y9411309D01*
X10282072Y9432544D01*
X10283647Y9434271D01*
X10384180Y9434271D01*
X10385704Y9432798D01*
X10385704Y9410700D01*
X10388498Y9407906D01*
X10411206Y9407906D01*
X10414000Y9410700D01*
X10414000Y9433407D01*
X10411206Y9436201D01*
X10389108Y9436201D01*
X10387634Y9437725D01*
X10387634Y9486188D01*
X10384790Y9488982D01*
X10362133Y9488982D01*
X10359288Y9486188D01*
X10359288Y9464344D01*
X10357713Y9462617D01*
X10336580Y9462617D01*
X10334853Y9464192D01*
X10334853Y9486188D01*
X10332008Y9488982D01*
X10310215Y9488982D01*
X10308437Y9490557D01*
X10308437Y9512554D01*
X10305643Y9515398D01*
X10282936Y9515398D01*
X10280142Y9512554D01*
X10280142Y9464344D01*
X10278516Y9462617D01*
X10257180Y9462617D01*
X10255656Y9464090D01*
X10255656Y9486188D01*
X10252862Y9488982D01*
X10231018Y9488982D01*
X10229240Y9490557D01*
X10229240Y9511690D01*
X10230866Y9513468D01*
X10252862Y9513468D01*
X10255656Y9516262D01*
X10255656Y9538970D01*
X10252862Y9541764D01*
X10203738Y9541764D01*
X10200944Y9538970D01*
X10200944Y9517126D01*
X10199370Y9515398D01*
X10125456Y9515398D01*
X10123678Y9516973D01*
X10123678Y9559442D01*
X10125202Y9560966D01*
X10252862Y9560966D01*
X10255656Y9563760D01*
X10255656Y9585858D01*
X10257180Y9587382D01*
X10279227Y9587382D01*
X10282072Y9590176D01*
X10282072Y9612884D01*
X10279227Y9615678D01*
X10257180Y9615678D01*
X10255656Y9617202D01*
X10255656Y9639249D01*
X10252862Y9642043D01*
X10230154Y9642043D01*
X10227360Y9639249D01*
X10227360Y9616541D01*
X10230154Y9613747D01*
X10252252Y9613747D01*
X10253726Y9612223D01*
X10253726Y9590786D01*
X10252252Y9589262D01*
X10178237Y9589262D01*
X10176510Y9590887D01*
X10176510Y9612020D01*
X10178084Y9613747D01*
X10200081Y9613747D01*
X10202875Y9616541D01*
X10202875Y9639249D01*
X10200081Y9642043D01*
X10051288Y9642043D01*
X10049814Y9643567D01*
X10049814Y9664801D01*
X10051389Y9666528D01*
X10068102Y9666528D01*
X10070896Y9669322D01*
X10070896Y9691166D01*
X10072522Y9692944D01*
X10094518Y9692944D01*
X10097312Y9695738D01*
X10097312Y9744202D01*
X10098836Y9745726D01*
X10120020Y9745726D01*
X10121798Y9744100D01*
X10121798Y9722104D01*
X10124592Y9719310D01*
X10147300Y9719310D01*
X10150094Y9722104D01*
X10150094Y9796729D01*
X10151668Y9798507D01*
X10172801Y9798507D01*
X10174579Y9796881D01*
X10174579Y9774885D01*
X10177373Y9772091D01*
X10200081Y9772091D01*
X10202875Y9774885D01*
X10202875Y9850374D01*
X10200081Y9853218D01*
X10177983Y9853218D01*
X10176510Y9854692D01*
X10176510Y9875926D01*
X10178084Y9877653D01*
X10200081Y9877653D01*
X10202875Y9880498D01*
X10202875Y9903155D01*
X10200081Y9906000D01*
X10150957Y9906000D01*
X10148163Y9903155D01*
X10148163Y9881362D01*
X10146588Y9879584D01*
X10098176Y9879584D01*
X10095382Y9876790D01*
X10095382Y9854946D01*
X10093807Y9853218D01*
X10072674Y9853218D01*
X10070896Y9854793D01*
X10070896Y9876790D01*
X10068102Y9879584D01*
X10051288Y9879584D01*
X10049814Y9881108D01*
X10049814Y9903155D01*
X10047020Y9906000D01*
X10024313Y9906000D01*
X10021468Y9903155D01*
X10021468Y9880498D01*
X10024313Y9877653D01*
X10046360Y9877653D01*
X10047884Y9876180D01*
X10047884Y9854946D01*
X10046309Y9853218D01*
X9998506Y9853218D01*
X9997033Y9854692D01*
X9997033Y9876790D01*
X9994239Y9879584D01*
X9971532Y9879584D01*
X9968687Y9876790D01*
X9968687Y9854082D01*
X9971532Y9851288D01*
X9993579Y9851288D01*
X9995103Y9849764D01*
X9995103Y9828580D01*
X10150094Y9828580D01*
X10150094Y9849713D01*
X10151872Y9851288D01*
X10173055Y9851288D01*
X10174579Y9849764D01*
X10174579Y9828377D01*
X10172801Y9826802D01*
X10151668Y9826802D01*
X10150094Y9828580D01*
X9995103Y9828580D01*
X9993528Y9826802D01*
X9971532Y9826802D01*
X9968687Y9824008D01*
X9968687Y9802164D01*
X9967112Y9800437D01*
X9945979Y9800437D01*
X9944252Y9802012D01*
X9944252Y9824008D01*
X9941407Y9826802D01*
X9918750Y9826802D01*
X9915906Y9824008D01*
X9915906Y9775799D01*
X9914331Y9774021D01*
X9892944Y9774021D01*
X9891471Y9775545D01*
X9891471Y9875926D01*
X9893046Y9877653D01*
X9914178Y9877653D01*
X9915906Y9876078D01*
X9915906Y9854082D01*
X9918750Y9851288D01*
X9941407Y9851288D01*
X9944252Y9854082D01*
X9944252Y9903155D01*
X9941407Y9906000D01*
G37*
G36*
X9656775Y9906000D02*
G01*
X9653524Y9904628D01*
X9652254Y9902393D01*
X9652207Y9876078D01*
X9680295Y9876078D01*
X9682073Y9877653D01*
X9803892Y9877552D01*
X9808667Y9876485D01*
X9808921Y9749078D01*
X9681514Y9749332D01*
X9680397Y9754108D01*
X9680295Y9876078D01*
X9652207Y9876078D01*
X9651949Y9730130D01*
X9653066Y9723526D01*
X9655759Y9720529D01*
X9834829Y9720529D01*
X9837470Y9723170D01*
X9837724Y9902494D01*
X9835997Y9904628D01*
X9831222Y9905898D01*
G37*
G36*
X10284002Y9853218D02*
G01*
X10281716Y9852152D01*
X10280142Y9849459D01*
X10280142Y9775342D01*
X10283393Y9772091D01*
X10357459Y9772091D01*
X10360202Y9773716D01*
X10361218Y9776002D01*
X10361218Y9850831D01*
X10358882Y9853218D01*
G37*
G36*
X9707626Y9853218D02*
G01*
X9704781Y9850374D01*
X9704781Y9775342D01*
X9708083Y9772091D01*
X9782606Y9772091D01*
X9785908Y9775342D01*
X9785908Y9850374D01*
X9783064Y9853218D01*
G37*
G36*
X10177373Y9747605D02*
G01*
X10174579Y9744811D01*
X10174579Y9722104D01*
X10177373Y9719310D01*
X10200081Y9719310D01*
X10202875Y9722104D01*
X10202875Y9744811D01*
X10200081Y9747605D01*
G37*
G36*
X10309352Y9694824D02*
G01*
X10306507Y9692030D01*
X10306507Y9590786D01*
X10334853Y9590786D01*
X10334853Y9664954D01*
X10336580Y9666528D01*
X10357713Y9666528D01*
X10359288Y9664801D01*
X10359288Y9590887D01*
X10357561Y9589262D01*
X10336326Y9589262D01*
X10334853Y9590786D01*
X10306507Y9590786D01*
X10306507Y9590176D01*
X10309352Y9587382D01*
X10331399Y9587382D01*
X10332923Y9585858D01*
X10332923Y9543288D01*
X10361218Y9543288D01*
X10361218Y9559391D01*
X10362996Y9560966D01*
X10384129Y9560966D01*
X10385704Y9559239D01*
X10385704Y9543288D01*
X10384180Y9541764D01*
X10362742Y9541764D01*
X10361218Y9543288D01*
X10332923Y9543288D01*
X10332923Y9542678D01*
X10335717Y9539833D01*
X10357815Y9539833D01*
X10359288Y9538360D01*
X10359288Y9516262D01*
X10362133Y9513468D01*
X10384790Y9513468D01*
X10387634Y9516262D01*
X10387634Y9538360D01*
X10389108Y9539833D01*
X10411206Y9539833D01*
X10414000Y9542678D01*
X10414000Y9612884D01*
X10411206Y9615678D01*
X10389362Y9615678D01*
X10387634Y9617252D01*
X10387634Y9638385D01*
X10389209Y9640163D01*
X10411206Y9640163D01*
X10414000Y9642957D01*
X10414000Y9692030D01*
X10411206Y9694824D01*
G37*
G36*
X10230154Y9694824D02*
G01*
X10227360Y9692030D01*
X10227360Y9669322D01*
X10230154Y9666528D01*
X10252862Y9666528D01*
X10255656Y9669322D01*
X10255656Y9692030D01*
X10252862Y9694824D01*
G37*
G36*
X10177373Y9694824D02*
G01*
X10174579Y9692030D01*
X10174579Y9669322D01*
X10177373Y9666528D01*
X10200081Y9666528D01*
X10202875Y9669322D01*
X10202875Y9692030D01*
X10200081Y9694824D01*
G37*
G36*
X10124592Y9694824D02*
G01*
X10121798Y9692030D01*
X10121798Y9669322D01*
X10124592Y9666528D01*
X10147300Y9666528D01*
X10150094Y9669322D01*
X10150094Y9692030D01*
X10147300Y9694824D01*
G37*
G36*
X10282936Y9562896D02*
G01*
X10280142Y9560102D01*
X10280142Y9542678D01*
X10282936Y9539833D01*
X10305643Y9539833D01*
X10308437Y9542678D01*
X10308437Y9560102D01*
X10305643Y9562896D01*
G37*
G36*
X9813188Y9330639D02*
G01*
X9810343Y9327845D01*
X9810343Y9305137D01*
X9813188Y9302343D01*
X9835845Y9302343D01*
X9838690Y9305137D01*
X9838690Y9327845D01*
X9835845Y9330639D01*
G37*
G36*
X10410698Y9329724D02*
G01*
X10231221Y9329420D01*
X10228529Y9326778D01*
X10228529Y9173514D01*
X10257332Y9173514D01*
X10257332Y9301124D01*
X10262158Y9302242D01*
X10384129Y9302343D01*
X10385704Y9300565D01*
X10385704Y9173870D01*
X10383926Y9172295D01*
X10262158Y9172397D01*
X10257332Y9173514D01*
X10228529Y9173514D01*
X10228529Y9147860D01*
X10231221Y9145168D01*
X10410952Y9144914D01*
X10413034Y9147149D01*
X10414000Y9152280D01*
X10414000Y9322460D01*
X10412933Y9327438D01*
G37*
G36*
X10283393Y9277858D02*
G01*
X10280142Y9274606D01*
X10280142Y9200032D01*
X10283393Y9196781D01*
X10358424Y9196781D01*
X10361218Y9199575D01*
X10361218Y9275064D01*
X10358424Y9277858D01*
G37*
G36*
X10098176Y9198660D02*
G01*
X10095382Y9195866D01*
X10095382Y9146794D01*
X10098176Y9144000D01*
X10120884Y9144000D01*
X10123678Y9146794D01*
X10123678Y9195866D01*
X10120884Y9198660D01*
G37*
G36*
X9813188Y9172295D02*
G01*
X9810343Y9169501D01*
X9810343Y9146794D01*
X9813188Y9144000D01*
X9835845Y9144000D01*
X9838690Y9146794D01*
X9838690Y9169501D01*
X9835845Y9172295D01*
G37*
G36*
X6546088Y5522976D02*
G01*
X6540347Y5517692D01*
X6530492Y5504942D01*
X6523177Y5492546D01*
X6514592Y5475427D01*
X6509766Y5462828D01*
X6504279Y5443423D01*
X6502654Y5435447D01*
X6499910Y5430113D01*
X6491478Y5440375D01*
X6491478Y5442559D01*
X6476492Y5458206D01*
X6474409Y5454853D01*
X6474358Y5453278D01*
X6476644Y5451856D01*
X6485077Y5438851D01*
X6488988Y5431993D01*
X6495389Y5419445D01*
X6494678Y5416042D01*
X6492036Y5414365D01*
X6466789Y5414314D01*
X6457797Y5409996D01*
X6447536Y5408117D01*
X6470091Y5406694D01*
X6473240Y5402427D01*
X6465773Y5398008D01*
X6455511Y5390946D01*
X6450939Y5387492D01*
X6431381Y5368036D01*
X6423304Y5355488D01*
X6417564Y5345226D01*
X6414668Y5336082D01*
X6412992Y5333796D01*
X6407143Y5310530D01*
X6418376Y5310530D01*
X6418376Y5314848D01*
X6424168Y5332628D01*
X6428689Y5342331D01*
X6428689Y5343347D01*
X6436004Y5355488D01*
X6446875Y5369458D01*
X6461810Y5383428D01*
X6475933Y5392775D01*
X6486956Y5398363D01*
X6508648Y5405374D01*
X6510731Y5409285D01*
X6514490Y5438851D01*
X6521246Y5462828D01*
X6527190Y5477713D01*
X6533794Y5490819D01*
X6539433Y5490819D01*
X6540449Y5485688D01*
X6543040Y5458256D01*
X6545326Y5449519D01*
X6551422Y5451043D01*
X6562852Y5462828D01*
X6572351Y5471261D01*
X6589115Y5482539D01*
X6606286Y5490616D01*
X6615379Y5494477D01*
X6635750Y5501132D01*
X6641846Y5501132D01*
X6643166Y5499760D01*
X6638188Y5492445D01*
X6629704Y5482031D01*
X6629704Y5475986D01*
X6631736Y5475986D01*
X6648500Y5482996D01*
X6674815Y5489702D01*
X6712000Y5492242D01*
X6746036Y5489702D01*
X6775297Y5483098D01*
X6791299Y5478018D01*
X6806133Y5472430D01*
X6819849Y5466537D01*
X6842658Y5455158D01*
X6864858Y5442305D01*
X6864959Y5439511D01*
X6860540Y5437174D01*
X6830110Y5437073D01*
X6836968Y5433415D01*
X6840372Y5430520D01*
X6850684Y5427929D01*
X6871208Y5420766D01*
X6878726Y5413248D01*
X6873494Y5412181D01*
X6847230Y5411012D01*
X6839712Y5408320D01*
X6843674Y5403951D01*
X6851802Y5399125D01*
X6867804Y5388610D01*
X6888530Y5368036D01*
X6895236Y5358942D01*
X6901434Y5349189D01*
X6908139Y5336082D01*
X6914083Y5320842D01*
X6914083Y5312816D01*
X6911797Y5311394D01*
X6893915Y5330190D01*
X6890105Y5328716D01*
X6891528Y5321249D01*
X6895693Y5310581D01*
X6899198Y5285181D01*
X6899198Y5269331D01*
X6895642Y5243728D01*
X6889851Y5226456D01*
X6884111Y5211572D01*
X6871614Y5183022D01*
X6865620Y5169916D01*
X6863689Y5169916D01*
X6860082Y5178450D01*
X6860184Y5202428D01*
X6863588Y5218074D01*
X6866128Y5220665D01*
X6870750Y5217769D01*
X6872935Y5219141D01*
X6871462Y5225288D01*
X6867804Y5230977D01*
X6856374Y5246014D01*
X6851802Y5252364D01*
X6833006Y5276697D01*
X6819849Y5293156D01*
X6818274Y5293258D01*
X6816750Y5288381D01*
X6828231Y5258409D01*
X6829806Y5247690D01*
X6823811Y5246166D01*
X6820966Y5248402D01*
X6811822Y5251297D01*
X6782155Y5265674D01*
X6770725Y5272989D01*
X6760464Y5279948D01*
X6746748Y5291429D01*
X6729069Y5308092D01*
X6725767Y5308092D01*
X6724497Y5306060D01*
X6741414Y5272125D01*
X6742175Y5264099D01*
X6735318Y5264454D01*
X6721602Y5269382D01*
X6711950Y5273852D01*
X6710629Y5273852D01*
X6699910Y5278577D01*
X6683908Y5286451D01*
X6672529Y5293156D01*
X6663588Y5298033D01*
X6647383Y5309666D01*
X6636766Y5318353D01*
X6634276Y5318353D01*
X6631431Y5322925D01*
X6629653Y5322925D01*
X6631178Y5316677D01*
X6633159Y5315864D01*
X6636766Y5308854D01*
X6643979Y5299506D01*
X6651040Y5289245D01*
X6654698Y5282133D01*
X6653275Y5280660D01*
X6646722Y5280660D01*
X6616547Y5290108D01*
X6595973Y5298033D01*
X6574281Y5308854D01*
X6558280Y5319776D01*
X6540246Y5335524D01*
X6537452Y5335524D01*
X6536435Y5323332D01*
X6523634Y5306364D01*
X6508038Y5291226D01*
X6493916Y5281726D01*
X6491630Y5274411D01*
X6490106Y5264505D01*
X6483654Y5246827D01*
X6474917Y5232450D01*
X6471869Y5226862D01*
X6474612Y5197957D01*
X6473037Y5177536D01*
X6471361Y5173116D01*
X6464198Y5179110D01*
X6462623Y5184190D01*
X6447078Y5218430D01*
X6441338Y5233263D01*
X6435394Y5252212D01*
X6432296Y5268671D01*
X6430772Y5289245D01*
X6435090Y5322874D01*
X6433108Y5326380D01*
X6431026Y5326380D01*
X6426504Y5317490D01*
X6422847Y5316118D01*
X6420459Y5309260D01*
X6418376Y5310530D01*
X6407143Y5310530D01*
X6406388Y5307533D01*
X6406388Y5265928D01*
X6409080Y5263286D01*
X6413601Y5272125D01*
X6420459Y5278628D01*
X6421678Y5274411D01*
X6423304Y5258409D01*
X6430772Y5229860D01*
X6435293Y5217312D01*
X6451854Y5181904D01*
X6451904Y5175707D01*
X6448856Y5172049D01*
X6441643Y5169052D01*
X6430213Y5157419D01*
X6423507Y5140756D01*
X6423507Y5119065D01*
X6430721Y5119065D01*
X6431838Y5138470D01*
X6436360Y5150205D01*
X6442608Y5158384D01*
X6453022Y5165344D01*
X6454343Y5165242D01*
X6459880Y5162194D01*
X6464350Y5151069D01*
X6465490Y5147157D01*
X6478930Y5147157D01*
X6478930Y5156454D01*
X6483705Y5192166D01*
X6482283Y5208168D01*
X6480251Y5225288D01*
X6490157Y5241290D01*
X6496253Y5255920D01*
X6498386Y5269839D01*
X6502247Y5277154D01*
X6509207Y5280050D01*
X6523939Y5292547D01*
X6530594Y5300167D01*
X6542430Y5316677D01*
X6546900Y5317134D01*
X6560566Y5305653D01*
X6573164Y5297424D01*
X6595973Y5286654D01*
X6610858Y5280863D01*
X6627977Y5275224D01*
X6650075Y5269382D01*
X6671005Y5265724D01*
X6674205Y5268417D01*
X6674205Y5272836D01*
X6671868Y5277205D01*
X6677659Y5278628D01*
X6682790Y5275326D01*
X6711340Y5262778D01*
X6728459Y5256834D01*
X6747662Y5250992D01*
X6753199Y5250992D01*
X6757263Y5253177D01*
X6752996Y5265877D01*
X6755384Y5270398D01*
X6757009Y5270347D01*
X6766153Y5263692D01*
X6787845Y5251450D01*
X6803847Y5244338D01*
X6830314Y5234025D01*
X6838797Y5232450D01*
X6843115Y5236362D01*
X6841032Y5241848D01*
X6842759Y5246573D01*
X6845909Y5240731D01*
X6848703Y5240731D01*
X6854647Y5225846D01*
X6854647Y5219547D01*
X6852361Y5211572D01*
X6849922Y5191658D01*
X6852462Y5161330D01*
X6854698Y5148580D01*
X6847687Y5125923D01*
X6840016Y5099659D01*
X6834022Y5076799D01*
X6831601Y5069433D01*
X6844385Y5069433D01*
X6844385Y5076240D01*
X6851040Y5097373D01*
X6857136Y5117947D01*
X6862978Y5135626D01*
X6865772Y5137912D01*
X6873036Y5136489D01*
X6877303Y5128209D01*
X6878878Y5134356D01*
X6868363Y5145278D01*
X6868464Y5151069D01*
X6875780Y5164785D01*
X6882892Y5165445D01*
X6892950Y5157825D01*
X6901586Y5144922D01*
X6904228Y5126532D01*
X6901688Y5106365D01*
X6895744Y5092141D01*
X6887921Y5081371D01*
X6880250Y5075377D01*
X6867804Y5069027D01*
X6850227Y5067960D01*
X6844385Y5069433D01*
X6831601Y5069433D01*
X6826910Y5055108D01*
X6819341Y5041392D01*
X6809181Y5029504D01*
X6798513Y5020208D01*
X6785559Y5011826D01*
X6777583Y5007406D01*
X6751320Y4993995D01*
X6749592Y4993995D01*
X6739890Y4989576D01*
X6726174Y4984750D01*
X6700672Y4977079D01*
X6671360Y4973167D01*
X6641693Y4974488D01*
X6623354Y4977841D01*
X6607403Y4982768D01*
X6589115Y4989322D01*
X6574688Y4995316D01*
X6553708Y5006035D01*
X6533896Y5018227D01*
X6519976Y5030825D01*
X6509969Y5044846D01*
X6504076Y5059680D01*
X6498183Y5080254D01*
X6495135Y5093970D01*
X6488176Y5119065D01*
X6483604Y5134711D01*
X6478930Y5147157D01*
X6465490Y5147157D01*
X6466179Y5144820D01*
X6460083Y5139639D01*
X6456070Y5133441D01*
X6456070Y5132222D01*
X6460591Y5132222D01*
X6463030Y5136794D01*
X6467348Y5136794D01*
X6472072Y5130749D01*
X6474460Y5121351D01*
X6477812Y5113375D01*
X6482334Y5096256D01*
X6488074Y5075682D01*
X6489446Y5069687D01*
X6482130Y5067147D01*
X6466789Y5069332D01*
X6453276Y5075529D01*
X6442862Y5085943D01*
X6435394Y5099659D01*
X6430721Y5119065D01*
X6423507Y5119065D01*
X6423507Y5108803D01*
X6429705Y5092395D01*
X6436563Y5080254D01*
X6448653Y5068620D01*
X6457797Y5063337D01*
X6473799Y5059121D01*
X6489750Y5057597D01*
X6494780Y5054346D01*
X6497574Y5045964D01*
X6504990Y5032502D01*
X6514744Y5020868D01*
X6528054Y5009438D01*
X6548018Y4996180D01*
X6575958Y4982616D01*
X6577177Y4982616D01*
X6586829Y4978146D01*
X6615887Y4968646D01*
X6617360Y4958638D01*
X6615785Y4952339D01*
X6613398Y4949494D01*
X6564020Y4949393D01*
X6555181Y4947361D01*
X6547866Y4940300D01*
X6545021Y4929124D01*
X6544623Y4928768D01*
X6554063Y4928768D01*
X6556654Y4936591D01*
X6562394Y4939182D01*
X6566306Y4938979D01*
X6574281Y4936439D01*
X6577126Y4933594D01*
X6588302Y4933594D01*
X6592366Y4938064D01*
X6603238Y4938064D01*
X6606997Y4934305D01*
X6602831Y4930140D01*
X6595973Y4928819D01*
X6588302Y4933594D01*
X6577126Y4933594D01*
X6589217Y4921504D01*
X6592804Y4917541D01*
X6604152Y4917541D01*
X6620205Y4932934D01*
X6625234Y4946446D01*
X6627875Y4956911D01*
X6631178Y4960874D01*
X6687820Y4959197D01*
X6689953Y4956911D01*
X6692239Y4940858D01*
X6695358Y4934305D01*
X6706260Y4934305D01*
X6711696Y4936794D01*
X6713067Y4933289D01*
X6711899Y4931410D01*
X6707327Y4932629D01*
X6706260Y4934305D01*
X6695358Y4934305D01*
X6699300Y4926076D01*
X6701993Y4922418D01*
X6700570Y4916932D01*
X6665671Y4881321D01*
X6655917Y4872939D01*
X6646316Y4872939D01*
X6606946Y4912258D01*
X6604152Y4917541D01*
X6592804Y4917541D01*
X6604762Y4904384D01*
X6636207Y4872380D01*
X6639864Y4865217D01*
X6634835Y4859477D01*
X6620256Y4834128D01*
X6613042Y4834128D01*
X6594602Y4852974D01*
X6582308Y4867808D01*
X6567474Y4890668D01*
X6560921Y4903216D01*
X6555587Y4918608D01*
X6554063Y4928768D01*
X6544623Y4928768D01*
X6541160Y4925669D01*
X6528562Y4923383D01*
X6516674Y4918710D01*
X6503466Y4911293D01*
X6496608Y4906670D01*
X6487617Y4899812D01*
X6477457Y4889500D01*
X6469075Y4878070D01*
X6463842Y4867859D01*
X6457492Y4849520D01*
X6442354Y4801006D01*
X6440220Y4794707D01*
X6433058Y4770729D01*
X6428841Y4758182D01*
X6420337Y4728768D01*
X6430975Y4728768D01*
X6437934Y4731664D01*
X6449822Y4725619D01*
X6455054Y4725619D01*
X6461252Y4720996D01*
X6473190Y4719574D01*
X6473190Y4723079D01*
X6468059Y4724450D01*
X6463233Y4724501D01*
X6457696Y4728819D01*
X6447739Y4731512D01*
X6441795Y4735576D01*
X6435293Y4739538D01*
X6436461Y4746752D01*
X6459372Y4820970D01*
X6469837Y4854092D01*
X6478016Y4871872D01*
X6487718Y4885029D01*
X6500063Y4895342D01*
X6506006Y4899050D01*
X6508953Y4893614D01*
X6507378Y4864404D01*
X6504076Y4826711D01*
X6504053Y4789017D01*
X6511188Y4789017D01*
X6514287Y4857546D01*
X6516573Y4884928D01*
X6519011Y4906619D01*
X6523888Y4911801D01*
X6530035Y4911801D01*
X6531152Y4907584D01*
X6530340Y4872583D01*
X6528104Y4859832D01*
X6524599Y4817567D01*
X6521196Y4798161D01*
X6518909Y4776114D01*
X6516979Y4770831D01*
X6512763Y4777282D01*
X6511188Y4789017D01*
X6504053Y4789017D01*
X6504025Y4775098D01*
X6508800Y4752441D01*
X6508699Y4735220D01*
X6505092Y4718253D01*
X6500215Y4713071D01*
X6490360Y4713071D01*
X6490360Y4711192D01*
X6501130Y4707940D01*
X6502704Y4700117D01*
X6500164Y4694529D01*
X6492036Y4695647D01*
X6470345Y4704029D01*
X6434429Y4720183D01*
X6432397Y4722774D01*
X6430975Y4728768D01*
X6420337Y4728768D01*
X6418376Y4722317D01*
X6418376Y4717796D01*
X6423964Y4713630D01*
X6437680Y4705908D01*
X6439154Y4697120D01*
X6437630Y4681677D01*
X6433108Y4649673D01*
X6427266Y4623409D01*
X6423964Y4609693D01*
X6418630Y4577740D01*
X6416903Y4560570D01*
X6416598Y4440682D01*
X6408978Y4417822D01*
X6407200Y4415536D01*
X6400190Y4391558D01*
X6397345Y4370984D01*
X6397244Y4333290D01*
X6398570Y4326483D01*
X6406388Y4326483D01*
X6406388Y4372152D01*
X6411722Y4394962D01*
X6418783Y4415536D01*
X6420459Y4417822D01*
X6426708Y4438396D01*
X6428435Y4576572D01*
X6429654Y4581144D01*
X6434480Y4607407D01*
X6437985Y4621123D01*
X6444742Y4655362D01*
X6448094Y4690770D01*
X6448094Y4694783D01*
X6452666Y4699355D01*
X6454343Y4699152D01*
X6484061Y4686655D01*
X6494780Y4683048D01*
X6497523Y4676394D01*
X6493764Y4655362D01*
X6489192Y4627016D01*
X6487058Y4618837D01*
X6484518Y4600549D01*
X6475323Y4550968D01*
X6472377Y4532020D01*
X6468770Y4512614D01*
X6462776Y4478375D01*
X6458102Y4453483D01*
X6458821Y4443984D01*
X6467500Y4443984D01*
X6467602Y4455515D01*
X6478016Y4509211D01*
X6500571Y4636058D01*
X6506870Y4675378D01*
X6513220Y4711344D01*
X6516420Y4734915D01*
X6517690Y4736236D01*
X6520586Y4729632D01*
X6520586Y4728057D01*
X6528054Y4728057D01*
X6528054Y4739894D01*
X6534505Y4747209D01*
X6590741Y4747260D01*
X6595414Y4741316D01*
X6595414Y4728057D01*
X6591808Y4724501D01*
X6533083Y4724501D01*
X6528054Y4728057D01*
X6520586Y4728057D01*
X6520586Y4643678D01*
X6525564Y4643678D01*
X6526987Y4707940D01*
X6528155Y4715357D01*
X6533032Y4719929D01*
X6591503Y4719929D01*
X6595414Y4713274D01*
X6595414Y4641443D01*
X6592976Y4634484D01*
X6581394Y4629708D01*
X6540550Y4629708D01*
X6536588Y4631740D01*
X6530390Y4634179D01*
X6525564Y4643678D01*
X6520586Y4643678D01*
X6520586Y4638090D01*
X6526784Y4628794D01*
X6534302Y4624628D01*
X6585153Y4623816D01*
X6597903Y4629861D01*
X6601002Y4637379D01*
X6602628Y4742688D01*
X6596227Y4751882D01*
X6528968Y4751882D01*
X6522313Y4747158D01*
X6520942Y4750714D01*
X6521957Y4760468D01*
X6525564Y4779873D01*
X6527952Y4794707D01*
X6530289Y4805680D01*
X6532676Y4835194D01*
X6535826Y4857546D01*
X6537401Y4891582D01*
X6539890Y4897069D01*
X6545732Y4900269D01*
X6541922Y4900371D01*
X6538315Y4903927D01*
X6538315Y4909515D01*
X6542887Y4914087D01*
X6546240Y4914087D01*
X6549847Y4908600D01*
X6551168Y4899812D01*
X6557467Y4892954D01*
X6561023Y4885893D01*
X6572961Y4867808D01*
X6584442Y4852974D01*
X6601714Y4834636D01*
X6614515Y4823866D01*
X6620256Y4823866D01*
X6629755Y4834686D01*
X6637578Y4843018D01*
X6639864Y4835855D01*
X6637731Y4722774D01*
X6635546Y4626813D01*
X6634124Y4405274D01*
X6633057Y4400042D01*
X6627063Y4397756D01*
X6582054Y4401159D01*
X6576568Y4403496D01*
X6550558Y4406950D01*
X6548018Y4409033D01*
X6528612Y4412945D01*
X6526174Y4414875D01*
X6513779Y4418228D01*
X6504685Y4422952D01*
X6502146Y4422952D01*
X6478320Y4434941D01*
X6470345Y4440428D01*
X6467500Y4443984D01*
X6458821Y4443984D01*
X6459575Y4434738D01*
X6454952Y4408881D01*
X6454952Y4402632D01*
X6462623Y4402632D01*
X6465316Y4411522D01*
X6471259Y4414621D01*
X6468668Y4416247D01*
X6468668Y4427067D01*
X6471361Y4429810D01*
X6473799Y4429607D01*
X6480200Y4427677D01*
X6483553Y4424934D01*
X6498793Y4417263D01*
X6501180Y4417263D01*
X6508038Y4413605D01*
X6524040Y4407966D01*
X6536588Y4404614D01*
X6551422Y4400245D01*
X6562852Y4398822D01*
X6574281Y4395571D01*
X6614261Y4392066D01*
X6628536Y4390085D01*
X6634175Y4386427D01*
X6633528Y4362450D01*
X6638747Y4362450D01*
X6641134Y4601718D01*
X6643268Y4649673D01*
X6644741Y4841544D01*
X6647027Y4849063D01*
X6642912Y4860391D01*
X6647637Y4866690D01*
X6651345Y4867402D01*
X6653391Y4865319D01*
X6662928Y4865319D01*
X6666280Y4871821D01*
X6700012Y4905502D01*
X6718198Y4926076D01*
X6727342Y4934915D01*
X6736486Y4939131D01*
X6741058Y4939080D01*
X6747205Y4935728D01*
X6748780Y4927549D01*
X6747408Y4914442D01*
X6740245Y4896510D01*
X6728714Y4878070D01*
X6715963Y4860950D01*
X6688734Y4833213D01*
X6682028Y4832197D01*
X6676186Y4841443D01*
X6665874Y4860950D01*
X6662928Y4865319D01*
X6653391Y4865319D01*
X6657086Y4861610D01*
X6656984Y4856378D01*
X6654190Y4848402D01*
X6657441Y4841748D01*
X6655765Y4675936D01*
X6653784Y4614265D01*
X6651647Y4402937D01*
X6656730Y4402937D01*
X6658203Y4533188D01*
X6660692Y4584547D01*
X6662369Y4839258D01*
X6664198Y4843272D01*
X6666280Y4843272D01*
X6668363Y4837734D01*
X6678930Y4823866D01*
X6682689Y4821783D01*
X6688277Y4823917D01*
X6699910Y4833366D01*
X6714388Y4847234D01*
X6728714Y4864404D01*
X6741109Y4882642D01*
X6750659Y4898948D01*
X6754164Y4900269D01*
X6754164Y4911344D01*
X6756908Y4914087D01*
X6759295Y4913934D01*
X6764426Y4911852D01*
X6764426Y4905248D01*
X6759702Y4899202D01*
X6763258Y4897831D01*
X6765391Y4889500D01*
X6765971Y4876952D01*
X6771233Y4876952D01*
X6771386Y4911140D01*
X6774129Y4912868D01*
X6780377Y4911648D01*
X6782612Y4903216D01*
X6782823Y4899863D01*
X6791553Y4899863D01*
X6797090Y4902403D01*
X6808419Y4894122D01*
X6819900Y4882642D01*
X6827926Y4871262D01*
X6832803Y4860950D01*
X6836613Y4850688D01*
X6842252Y4832400D01*
X6845604Y4819853D01*
X6849922Y4807305D01*
X6857187Y4782159D01*
X6868312Y4744923D01*
X6866890Y4737912D01*
X6858660Y4734509D01*
X6855256Y4731562D01*
X6845046Y4728819D01*
X6842658Y4725822D01*
X6830212Y4723282D01*
X6826707Y4720234D01*
X6812991Y4717592D01*
X6810451Y4714189D01*
X6800951Y4714189D01*
X6798919Y4719320D01*
X6794753Y4736490D01*
X6794804Y4758182D01*
X6798157Y4767326D01*
X6797903Y4814112D01*
X6795262Y4834686D01*
X6791553Y4899863D01*
X6782823Y4899863D01*
X6785102Y4864404D01*
X6787184Y4843830D01*
X6790944Y4780330D01*
X6788150Y4777028D01*
X6785102Y4777028D01*
X6783019Y4785563D01*
X6780174Y4810709D01*
X6778294Y4814265D01*
X6774535Y4857546D01*
X6771233Y4876952D01*
X6765971Y4876952D01*
X6766864Y4858664D01*
X6770014Y4835855D01*
X6772656Y4806442D01*
X6774840Y4799279D01*
X6779209Y4771898D01*
X6782460Y4759299D01*
X6791424Y4706162D01*
X6802120Y4706162D01*
X6807250Y4709414D01*
X6812991Y4711039D01*
X6816394Y4713935D01*
X6827113Y4715459D01*
X6832396Y4719574D01*
X6843217Y4721199D01*
X6846468Y4724400D01*
X6856171Y4726584D01*
X6862572Y4731359D01*
X6871868Y4731359D01*
X6873138Y4728108D01*
X6872376Y4722012D01*
X6857542Y4714392D01*
X6830923Y4702759D01*
X6829501Y4702759D01*
X6819849Y4698339D01*
X6808114Y4693970D01*
X6803847Y4696307D01*
X6802170Y4698796D01*
X6802120Y4706162D01*
X6791424Y4706162D01*
X6796372Y4676800D01*
X6806285Y4676800D01*
X6809536Y4682591D01*
X6835851Y4693361D01*
X6848398Y4698949D01*
X6852970Y4697984D01*
X6854698Y4696358D01*
X6858050Y4658106D01*
X6861352Y4645101D01*
X6863791Y4628642D01*
X6866077Y4623409D01*
X6873900Y4583176D01*
X6877812Y4537760D01*
X6876542Y4457903D01*
X6879945Y4435043D01*
X6883450Y4426966D01*
X6886498Y4417822D01*
X6894677Y4396130D01*
X6900519Y4363110D01*
X6900672Y4331004D01*
X6895693Y4315053D01*
X6888530Y4307687D01*
X6885482Y4310176D01*
X6885482Y4313326D01*
X6890054Y4321860D01*
X6889902Y4339031D01*
X6888124Y4343603D01*
X6886803Y4339031D01*
X6885279Y4324197D01*
X6881774Y4318660D01*
X6878980Y4308043D01*
X6871004Y4297629D01*
X6867652Y4299508D01*
X6869277Y4313580D01*
X6871817Y4316069D01*
X6871817Y4342333D01*
X6869734Y4340148D01*
X6867245Y4325315D01*
X6861556Y4304893D01*
X6855053Y4296765D01*
X6848805Y4293717D01*
X6841947Y4296562D01*
X6838543Y4301744D01*
X6838340Y4308652D01*
X6845808Y4324197D01*
X6848805Y4331004D01*
X6850278Y4340555D01*
X6848652Y4351324D01*
X6846519Y4347514D01*
X6843420Y4336745D01*
X6838594Y4323029D01*
X6831787Y4316730D01*
X6829755Y4316730D01*
X6825894Y4326788D01*
X6829602Y4369460D01*
X6832396Y4379874D01*
X6846265Y4392066D01*
X6850532Y4399940D01*
X6847840Y4415536D01*
X6844487Y4430369D01*
X6845757Y4458919D01*
X6841998Y4476089D01*
X6836206Y4508042D01*
X6831888Y4534255D01*
X6829501Y4544618D01*
X6814616Y4632553D01*
X6812534Y4639411D01*
X6811111Y4650841D01*
X6806285Y4676800D01*
X6796372Y4676800D01*
X6800037Y4655362D01*
X6805574Y4627727D01*
X6805574Y4622698D01*
X6809994Y4602835D01*
X6816953Y4561738D01*
X6820611Y4543552D01*
X6824980Y4517186D01*
X6836664Y4455515D01*
X6837730Y4446219D01*
X6831990Y4439361D01*
X6816394Y4429048D01*
X6808012Y4426254D01*
X6805472Y4423206D01*
X6798106Y4421835D01*
X6790131Y4417618D01*
X6778752Y4414824D01*
X6776364Y4412792D01*
X6758228Y4409084D01*
X6754469Y4407052D01*
X6729628Y4403445D01*
X6722770Y4401108D01*
X6678218Y4397908D01*
X6659473Y4397857D01*
X6656730Y4402937D01*
X6651647Y4402937D01*
X6651246Y4363262D01*
X6656120Y4363262D01*
X6657441Y4386580D01*
X6662216Y4389628D01*
X6731914Y4395571D01*
X6743293Y4398822D01*
X6754723Y4400245D01*
X6773011Y4405528D01*
X6782155Y4407966D01*
X6798462Y4413656D01*
X6802729Y4416044D01*
X6810705Y4419650D01*
X6825538Y4427677D01*
X6831838Y4429658D01*
X6835241Y4424730D01*
X6835241Y4417364D01*
X6830212Y4413859D01*
X6837425Y4412437D01*
X6839813Y4405477D01*
X6839813Y4396841D01*
X6833971Y4392269D01*
X6824421Y4387951D01*
X6812991Y4383176D01*
X6796989Y4377436D01*
X6777583Y4371797D01*
X6751320Y4366006D01*
X6725056Y4361383D01*
X6701078Y4359097D01*
X6664655Y4356658D01*
X6658559Y4357979D01*
X6656120Y4363262D01*
X6651246Y4363262D01*
X6649161Y4357878D01*
X6641185Y4357878D01*
X6638747Y4362450D01*
X6633528Y4362450D01*
X6633514Y4361992D01*
X6627418Y4357420D01*
X6590436Y4360418D01*
X6549186Y4367072D01*
X6528612Y4371848D01*
X6508038Y4377436D01*
X6494322Y4382211D01*
X6473901Y4390034D01*
X6464096Y4396790D01*
X6462623Y4402632D01*
X6454952Y4402632D01*
X6454952Y4397705D01*
X6458458Y4390898D01*
X6473088Y4380077D01*
X6474582Y4370984D01*
X6486347Y4370984D01*
X6492036Y4371390D01*
X6500469Y4369104D01*
X6502704Y4362653D01*
X6498691Y4355033D01*
X6495745Y4345889D01*
X6493713Y4343247D01*
X6488125Y4342231D01*
X6486398Y4352747D01*
X6486347Y4370984D01*
X6474582Y4370984D01*
X6477711Y4351578D01*
X6480048Y4332224D01*
X6480048Y4322572D01*
X6477355Y4316628D01*
X6470345Y4317339D01*
X6466128Y4326483D01*
X6463080Y4329938D01*
X6460540Y4350359D01*
X6459728Y4351172D01*
X6456934Y4342688D01*
X6458000Y4327499D01*
X6462725Y4318457D01*
X6467754Y4307433D01*
X6466402Y4300626D01*
X6489954Y4300626D01*
X6489954Y4307941D01*
X6494678Y4311802D01*
X6495440Y4317593D01*
X6492392Y4321302D01*
X6493814Y4327042D01*
X6496913Y4327042D01*
X6498285Y4335780D01*
X6502958Y4339996D01*
X6504381Y4349038D01*
X6508597Y4352645D01*
X6508699Y4357319D01*
X6511645Y4364126D01*
X6516928Y4353915D01*
X6518757Y4358792D01*
X6522466Y4360875D01*
X6537756Y4358894D01*
X6550304Y4355744D01*
X6592570Y4348835D01*
X6630111Y4346295D01*
X6633870Y4344263D01*
X6636766Y4340758D01*
X6643166Y4345279D01*
X6650329Y4345279D01*
X6658000Y4342079D01*
X6660235Y4338066D01*
X6661658Y4342434D01*
X6666331Y4345381D01*
X6711340Y4348683D01*
X6722770Y4350105D01*
X6760464Y4356557D01*
X6770725Y4359198D01*
X6789013Y4358436D01*
X6789724Y4363567D01*
X6792417Y4363313D01*
X6792671Y4363059D01*
X6803593Y4363059D01*
X6805675Y4368647D01*
X6806234Y4369206D01*
X6814515Y4372660D01*
X6819544Y4368596D01*
X6817156Y4346600D01*
X6814566Y4341825D01*
X6812686Y4342993D01*
X6806895Y4355033D01*
X6803593Y4363059D01*
X6792671Y4363059D01*
X6798411Y4357319D01*
X6799783Y4348175D01*
X6803085Y4345787D01*
X6805625Y4336237D01*
X6808571Y4334459D01*
X6811518Y4327093D01*
X6815836Y4322114D01*
X6815836Y4316374D01*
X6812127Y4312259D01*
X6816394Y4303623D01*
X6815988Y4286504D01*
X6812584Y4270502D01*
X6810095Y4245356D01*
X6807606Y4225950D01*
X6802018Y4217670D01*
X6793585Y4216349D01*
X6759295Y4214672D01*
X6768439Y4212742D01*
X6802729Y4212234D01*
X6805828Y4210253D01*
X6804304Y4187139D01*
X6799986Y4139133D01*
X6798665Y4099712D01*
X6794195Y4087876D01*
X6798411Y4083964D01*
X6799529Y3988409D01*
X6797548Y3984548D01*
X6793585Y3983380D01*
X6769608Y3980738D01*
X6727342Y3980535D01*
X6703364Y3983380D01*
X6694779Y3985615D01*
X6691020Y3991356D01*
X6692493Y4007815D01*
X6693916Y4013047D01*
X6700266Y4011676D01*
X6701942Y4014368D01*
X6698792Y4016349D01*
X6696608Y4017111D01*
X6696456Y4077462D01*
X6691426Y4107179D01*
X6687870Y4131157D01*
X6683400Y4165447D01*
X6681114Y4174540D01*
X6677558Y4204258D01*
X6676339Y4207662D01*
X6671919Y4243070D01*
X6669684Y4254500D01*
X6666077Y4280763D01*
X6663740Y4288790D01*
X6664502Y4296765D01*
X6671208Y4296054D01*
X6676796Y4291634D01*
X6679387Y4291634D01*
X6682231Y4287062D01*
X6685330Y4287062D01*
X6693966Y4280204D01*
X6696811Y4280204D01*
X6698081Y4283506D01*
X6690461Y4285996D01*
X6689293Y4290466D01*
X6684416Y4290466D01*
X6683095Y4294022D01*
X6674205Y4298543D01*
X6674205Y4302760D01*
X6677101Y4305147D01*
X6685076Y4306112D01*
X6674053Y4306468D01*
X6662826Y4311294D01*
X6664198Y4313529D01*
X6671259Y4317796D01*
X6666788Y4319219D01*
X6658813Y4322318D01*
X6644081Y4323232D01*
X6643217Y4325874D01*
X6639559Y4322216D01*
X6631381Y4323740D01*
X6611162Y4326940D01*
X6608368Y4329277D01*
X6590284Y4331970D01*
X6587896Y4334814D01*
X6579463Y4336440D01*
X6573164Y4334764D01*
X6581140Y4331766D01*
X6586169Y4331614D01*
X6587998Y4328261D01*
X6600850Y4324959D01*
X6607403Y4321606D01*
X6625336Y4317898D01*
X6626250Y4317898D01*
X6626250Y4311040D01*
X6619646Y4311040D01*
X6614972Y4303166D01*
X6605625Y4300372D01*
X6608572Y4298492D01*
X6618325Y4298492D01*
X6636664Y4303217D01*
X6640220Y4300270D01*
X6638747Y4284218D01*
X6635343Y4267047D01*
X6632092Y4241952D01*
X6625081Y4199686D01*
X6621627Y4175709D01*
X6617258Y4150563D01*
X6615836Y4138015D01*
X6612636Y4120896D01*
X6610146Y4100322D01*
X6605270Y4071772D01*
X6605117Y4014673D01*
X6607962Y4003344D01*
X6608368Y3987495D01*
X6603593Y3983634D01*
X6571996Y3980434D01*
X6535470Y3980687D01*
X6509207Y3983482D01*
X6505346Y3985564D01*
X6503873Y3990187D01*
X6506464Y4014673D01*
X6508242Y4086606D01*
X6506413Y4107179D01*
X6502806Y4172254D01*
X6500114Y4204258D01*
X6500063Y4215688D01*
X6512001Y4220260D01*
X6512052Y4223207D01*
X6519468Y4226560D01*
X6508038Y4225340D01*
X6501587Y4225086D01*
X6498132Y4228541D01*
X6493713Y4264812D01*
X6490004Y4293362D01*
X6489954Y4300626D01*
X6466402Y4300626D01*
X6466332Y4300270D01*
X6460236Y4293920D01*
X6453886Y4293920D01*
X6445961Y4300880D01*
X6443319Y4309313D01*
X6440322Y4316171D01*
X6438798Y4335576D01*
X6437020Y4343603D01*
X6434937Y4336745D01*
X6435039Y4311599D01*
X6439154Y4300982D01*
X6437680Y4296257D01*
X6430060Y4303877D01*
X6427825Y4308195D01*
X6426352Y4315917D01*
X6422999Y4318457D01*
X6420256Y4341266D01*
X6418173Y4333290D01*
X6418986Y4316628D01*
X6421577Y4315053D01*
X6422288Y4311599D01*
X6420612Y4305300D01*
X6412941Y4312767D01*
X6406388Y4326483D01*
X6398570Y4326483D01*
X6400241Y4317593D01*
X6406743Y4304741D01*
X6417818Y4293514D01*
X6434886Y4285386D01*
X6463639Y4285335D01*
X6477203Y4297222D01*
X6478879Y4294174D01*
X6482486Y4268317D01*
X6483451Y4266793D01*
X6488074Y4222546D01*
X6490157Y4206544D01*
X6492849Y4167733D01*
X6494830Y4150563D01*
X6497523Y4069486D01*
X6494881Y3987241D01*
X6491579Y3962146D01*
X6490287Y3939794D01*
X6497370Y3939794D01*
X6498234Y3943858D01*
X6502146Y3969765D01*
X6505752Y3974185D01*
X6524040Y3971442D01*
X6586829Y3971391D01*
X6601256Y3974236D01*
X6604000Y3975100D01*
X6608825Y3973169D01*
X6610350Y3969156D01*
X6613855Y3941927D01*
X6612534Y3936441D01*
X6607251Y3933037D01*
X6581140Y3926890D01*
X6527444Y3926738D01*
X6502806Y3933393D01*
X6497370Y3939794D01*
X6490287Y3939794D01*
X6490004Y3934714D01*
X6496100Y3927449D01*
X6506209Y3923588D01*
X6507632Y3917035D01*
X6503263Y3910736D01*
X6497370Y3899306D01*
X6483350Y3866184D01*
X6471716Y3844544D01*
X6461404Y3829659D01*
X6454190Y3820515D01*
X6446875Y3809441D01*
X6444196Y3802887D01*
X6454952Y3802887D01*
X6458102Y3810406D01*
X6472885Y3829659D01*
X6485788Y3848709D01*
X6485788Y3850995D01*
X6490004Y3857040D01*
X6492494Y3863898D01*
X6499402Y3880561D01*
X6502907Y3884066D01*
X6502907Y3888181D01*
X6511086Y3906164D01*
X6516725Y3913581D01*
X6523329Y3917035D01*
X6528816Y3917035D01*
X6530340Y3915511D01*
X6530340Y3911244D01*
X6525046Y3904538D01*
X6539433Y3904538D01*
X6539433Y3906774D01*
X6545326Y3909009D01*
X6553708Y3908856D01*
X6559143Y3906723D01*
X6556349Y3903370D01*
X6548374Y3901897D01*
X6539433Y3904538D01*
X6525046Y3904538D01*
X6521196Y3899662D01*
X6521196Y3896410D01*
X6517741Y3895090D01*
X6531254Y3895090D01*
X6538874Y3897477D01*
X6551422Y3898544D01*
X6556400Y3897477D01*
X6558701Y3894734D01*
X6565849Y3894734D01*
X6567119Y3901033D01*
X6569100Y3901033D01*
X6572656Y3894175D01*
X6574790Y3894175D01*
X6580581Y3881983D01*
X6580581Y3877005D01*
X6574586Y3874262D01*
X6571437Y3878630D01*
X6571437Y3883964D01*
X6565849Y3894734D01*
X6558701Y3894734D01*
X6559042Y3894328D01*
X6556756Y3890111D01*
X6533845Y3892448D01*
X6531254Y3895090D01*
X6517741Y3895090D01*
X6517741Y3882745D01*
X6516776Y3882745D01*
X6510883Y3884980D01*
X6510883Y3882085D01*
X6513474Y3879494D01*
X6512102Y3875887D01*
X6507937Y3875887D01*
X6505194Y3878630D01*
X6505194Y3875430D01*
X6528054Y3875430D01*
X6528054Y3883660D01*
X6535216Y3886200D01*
X6557670Y3886200D01*
X6559092Y3880561D01*
X6562445Y3877767D01*
X6557162Y3874820D01*
X6549186Y3874770D01*
X6542633Y3878173D01*
X6530797Y3878173D01*
X6528054Y3875430D01*
X6505194Y3875430D01*
X6505194Y3875024D01*
X6508242Y3866184D01*
X6508096Y3865626D01*
X6517182Y3865626D01*
X6522770Y3869944D01*
X6530898Y3871315D01*
X6550304Y3871061D01*
X6562547Y3869283D01*
X6566204Y3865626D01*
X6562496Y3861917D01*
X6520383Y3863594D01*
X6517182Y3865626D01*
X6508096Y3865626D01*
X6506260Y3858818D01*
X6499512Y3855161D01*
X6512001Y3855161D01*
X6523583Y3857650D01*
X6554876Y3857244D01*
X6562852Y3856329D01*
X6564782Y3854450D01*
X6562039Y3849268D01*
X6521754Y3850690D01*
X6513271Y3853129D01*
X6512001Y3855161D01*
X6499512Y3855161D01*
X6495186Y3849065D01*
X6497472Y3844036D01*
X6500215Y3843020D01*
X6536588Y3846118D01*
X6554419Y3846220D01*
X6561124Y3842715D01*
X6567424Y3844137D01*
X6574739Y3847388D01*
X6576212Y3852113D01*
X6574688Y3860393D01*
X6571691Y3866184D01*
X6574891Y3869182D01*
X6581495Y3871468D01*
X6582613Y3875887D01*
X6586270Y3875887D01*
X6586270Y3883456D01*
X6581648Y3893616D01*
X6580022Y3896258D01*
X6569151Y3911854D01*
X6573164Y3914901D01*
X6598716Y3914140D01*
X6605117Y3909466D01*
X6610502Y3898290D01*
X6611721Y3861511D01*
X6609029Y3856482D01*
X6596634Y3857955D01*
X6589979Y3855212D01*
X6587540Y3849827D01*
X6586582Y3844594D01*
X6593992Y3844594D01*
X6597853Y3848506D01*
X6601714Y3848404D01*
X6608064Y3844950D01*
X6610248Y3839210D01*
X6610248Y3825087D01*
X6607860Y3816502D01*
X6602831Y3810812D01*
X6599936Y3812692D01*
X6595262Y3825087D01*
X6593992Y3844594D01*
X6586582Y3844594D01*
X6586067Y3841953D01*
X6588658Y3823919D01*
X6593281Y3808323D01*
X6591909Y3802227D01*
X6583425Y3795217D01*
X6575602Y3792524D01*
X6574974Y3791965D01*
X6601815Y3791965D01*
X6602475Y3797655D01*
X6613042Y3808526D01*
X6614718Y3808526D01*
X6619392Y3803497D01*
X6619748Y3797655D01*
X6619189Y3790848D01*
X6614922Y3782466D01*
X6608775Y3777640D01*
X6605066Y3780993D01*
X6601815Y3791965D01*
X6574974Y3791965D01*
X6571996Y3789324D01*
X6558280Y3786530D01*
X6556857Y3784244D01*
X6536588Y3782212D01*
X6504635Y3783634D01*
X6498488Y3786581D01*
X6478371Y3789426D01*
X6474764Y3792524D01*
X6461760Y3795115D01*
X6454952Y3802887D01*
X6444196Y3802887D01*
X6441236Y3795572D01*
X6441236Y3792524D01*
X6452666Y3792524D01*
X6455511Y3792321D01*
X6462369Y3789222D01*
X6467449Y3789121D01*
X6476187Y3784549D01*
X6494068Y3782263D01*
X6496964Y3779875D01*
X6518300Y3777487D01*
X6557162Y3778300D01*
X6565138Y3782415D01*
X6576415Y3784549D01*
X6580124Y3787952D01*
X6586981Y3789273D01*
X6589826Y3785870D01*
X6577736Y3777945D01*
X6571996Y3776268D01*
X6565138Y3772204D01*
X6543548Y3769309D01*
X6537756Y3766261D01*
X6515963Y3766261D01*
X6511442Y3769461D01*
X6485229Y3772204D01*
X6481775Y3775252D01*
X6466078Y3778148D01*
X6463385Y3780790D01*
X6457797Y3782466D01*
X6452666Y3785717D01*
X6452666Y3792524D01*
X6441236Y3792524D01*
X6441236Y3774490D01*
X6442312Y3770782D01*
X6451346Y3770782D01*
X6452108Y3775710D01*
X6455816Y3778046D01*
X6464960Y3773271D01*
X6477711Y3770934D01*
X6483248Y3767277D01*
X6508851Y3765245D01*
X6512306Y3762349D01*
X6544614Y3762400D01*
X6549390Y3764991D01*
X6569709Y3767531D01*
X6574281Y3770477D01*
X6583425Y3773373D01*
X6587998Y3777335D01*
X6591401Y3778453D01*
X6597142Y3776979D01*
X6596888Y3768953D01*
X6590944Y3755948D01*
X6579514Y3744772D01*
X6565138Y3737864D01*
X6542938Y3733139D01*
X6517182Y3733139D01*
X6485229Y3738676D01*
X6470294Y3744569D01*
X6458813Y3754628D01*
X6451346Y3770782D01*
X6442312Y3770782D01*
X6446926Y3754882D01*
X6453682Y3744010D01*
X6468008Y3733241D01*
X6487464Y3726332D01*
X6514896Y3722573D01*
X6550304Y3723944D01*
X6566306Y3727297D01*
X6580378Y3732885D01*
X6590842Y3740099D01*
X6599681Y3751986D01*
X6606946Y3765905D01*
X6619036Y3773576D01*
X6627977Y3786225D01*
X6627977Y3807968D01*
X6620103Y3827373D01*
X6621018Y3889044D01*
X6617055Y3910380D01*
X6611416Y3920083D01*
X6611416Y3923639D01*
X6619240Y3928262D01*
X6623151Y3934256D01*
X6622846Y3949547D01*
X6619290Y3971290D01*
X6617157Y4015536D01*
X6614820Y4038346D01*
X6614871Y4058056D01*
X6618224Y4087774D01*
X6622999Y4118610D01*
X6627571Y4145991D01*
X6628434Y4152849D01*
X6645605Y4262526D01*
X6648196Y4280763D01*
X6652463Y4289196D01*
X6654596Y4290466D01*
X6662826Y4231081D01*
X6673037Y4161993D01*
X6675424Y4142587D01*
X6677659Y4132326D01*
X6682282Y4099204D01*
X6685483Y4080510D01*
X6688124Y4048912D01*
X6681470Y3997553D01*
X6683095Y3980484D01*
X6682231Y3978097D01*
X6677659Y3946144D01*
X6677659Y3939387D01*
X6685940Y3939387D01*
X6691477Y3970883D01*
X6694220Y3975354D01*
X6698792Y3974287D01*
X6717030Y3971391D01*
X6783273Y3971645D01*
X6797548Y3974896D01*
X6800697Y3971290D01*
X6803034Y3966667D01*
X6805625Y3941013D01*
X6802170Y3934358D01*
X6780987Y3927246D01*
X6752386Y3924757D01*
X6717030Y3927195D01*
X6692188Y3933139D01*
X6685940Y3939387D01*
X6677659Y3939387D01*
X6677659Y3935069D01*
X6681419Y3928668D01*
X6690207Y3923741D01*
X6690207Y3919016D01*
X6685788Y3911854D01*
X6680962Y3887876D01*
X6681208Y3859072D01*
X6690207Y3859072D01*
X6690207Y3879951D01*
X6692595Y3899154D01*
X6698488Y3911549D01*
X6706108Y3914749D01*
X6731050Y3914749D01*
X6733590Y3911650D01*
X6729814Y3906316D01*
X6747357Y3906316D01*
X6750050Y3909009D01*
X6757009Y3908958D01*
X6760921Y3905961D01*
X6758279Y3903319D01*
X6749897Y3903319D01*
X6747357Y3906316D01*
X6729814Y3906316D01*
X6728104Y3903878D01*
X6719722Y3887876D01*
X6719316Y3878122D01*
X6722770Y3875989D01*
X6726174Y3888232D01*
X6729882Y3892448D01*
X6732625Y3900982D01*
X6734505Y3902151D01*
X6737350Y3898696D01*
X6736696Y3894023D01*
X6742175Y3894023D01*
X6745579Y3897325D01*
X6753606Y3898442D01*
X6767982Y3896817D01*
X6770065Y3894734D01*
X6768033Y3891432D01*
X6746748Y3890568D01*
X6742175Y3894023D01*
X6736689Y3893972D01*
X6736080Y3889248D01*
X6731050Y3882440D01*
X6731637Y3877614D01*
X6743903Y3877614D01*
X6743903Y3883964D01*
X6746748Y3884828D01*
X6768439Y3886098D01*
X6772452Y3882898D01*
X6783831Y3882898D01*
X6785152Y3885031D01*
X6786168Y3885031D01*
X6786168Y3881475D01*
X6783831Y3882898D01*
X6772452Y3882898D01*
X6772452Y3879850D01*
X6768033Y3876040D01*
X6745935Y3874414D01*
X6743903Y3877614D01*
X6731637Y3877614D01*
X6732320Y3871569D01*
X6728206Y3867861D01*
X6722109Y3870147D01*
X6720840Y3866896D01*
X6722151Y3864762D01*
X6740448Y3864762D01*
X6740448Y3867759D01*
X6745528Y3871315D01*
X6773011Y3871010D01*
X6778548Y3869994D01*
X6784035Y3866387D01*
X6779869Y3862273D01*
X6743801Y3861968D01*
X6740448Y3864762D01*
X6722211Y3864660D01*
X6728866Y3863187D01*
X6730238Y3859580D01*
X6726732Y3855720D01*
X6726732Y3848760D01*
X6727205Y3848404D01*
X6736943Y3848404D01*
X6738467Y3854348D01*
X6743852Y3856431D01*
X6783273Y3857701D01*
X6789877Y3854704D01*
X6786168Y3851656D01*
X6757009Y3849522D01*
X6753199Y3847439D01*
X6738467Y3845915D01*
X6736943Y3848404D01*
X6727205Y3848404D01*
X6735318Y3842207D01*
X6758178Y3842461D01*
X6769608Y3846423D01*
X6789013Y3844950D01*
X6802120Y3842664D01*
X6806438Y3845001D01*
X6807657Y3849674D01*
X6800240Y3857040D01*
X6794906Y3860647D01*
X6792315Y3877614D01*
X6795668Y3883507D01*
X6791299Y3889552D01*
X6788505Y3889603D01*
X6786270Y3893820D01*
X6779006Y3901592D01*
X6770878Y3911498D01*
X6773265Y3915308D01*
X6782155Y3915765D01*
X6786727Y3913835D01*
X6791706Y3907078D01*
X6798614Y3891737D01*
X6800088Y3883863D01*
X6803237Y3882136D01*
X6812280Y3855923D01*
X6819188Y3842765D01*
X6827520Y3829659D01*
X6834886Y3820515D01*
X6842709Y3809085D01*
X6845300Y3803243D01*
X6841540Y3798519D01*
X6835851Y3795064D01*
X6823252Y3792220D01*
X6821881Y3790086D01*
X6798157Y3786581D01*
X6790944Y3783380D01*
X6750100Y3783380D01*
X6745579Y3786581D01*
X6727545Y3789629D01*
X6724954Y3792169D01*
X6715912Y3795166D01*
X6709054Y3800805D01*
X6707174Y3804056D01*
X6709714Y3820363D01*
X6711797Y3822852D01*
X6714185Y3837635D01*
X6714185Y3848150D01*
X6711746Y3855110D01*
X6704990Y3857955D01*
X6693204Y3856532D01*
X6690207Y3859072D01*
X6681208Y3859072D01*
X6681407Y3835857D01*
X6691071Y3835857D01*
X6692595Y3844036D01*
X6699910Y3848506D01*
X6702196Y3848252D01*
X6706108Y3847185D01*
X6707581Y3839311D01*
X6704075Y3825087D01*
X6702552Y3814318D01*
X6699758Y3810508D01*
X6694678Y3813200D01*
X6692747Y3818331D01*
X6691071Y3835857D01*
X6681407Y3835857D01*
X6681470Y3828491D01*
X6676288Y3815943D01*
X6672884Y3806850D01*
X6672804Y3796233D01*
X6680809Y3796233D01*
X6682028Y3805275D01*
X6682790Y3806037D01*
X6688480Y3807460D01*
X6696709Y3797655D01*
X6697878Y3791305D01*
X6696922Y3786022D01*
X6708597Y3786022D01*
X6710832Y3790187D01*
X6718198Y3788867D01*
X6724396Y3784549D01*
X6740855Y3782212D01*
X6744258Y3779418D01*
X6798360Y3779418D01*
X6802170Y3782568D01*
X6822541Y3784447D01*
X6831228Y3789121D01*
X6836054Y3789121D01*
X6842658Y3791204D01*
X6849262Y3792626D01*
X6847840Y3788918D01*
X6847840Y3785615D01*
X6839254Y3782009D01*
X6830110Y3777742D01*
X6818071Y3775405D01*
X6812940Y3772052D01*
X6779869Y3769563D01*
X6772859Y3767378D01*
X6766712Y3767378D01*
X6766712Y3769258D01*
X6736486Y3772154D01*
X6729628Y3776370D01*
X6720484Y3777996D01*
X6714032Y3783380D01*
X6711238Y3783380D01*
X6708597Y3786022D01*
X6696913Y3785971D01*
X6695897Y3780637D01*
X6693916Y3778605D01*
X6687159Y3782110D01*
X6680809Y3796233D01*
X6672804Y3796233D01*
X6672732Y3790391D01*
X6678879Y3777843D01*
X6683042Y3774338D01*
X6702552Y3774338D01*
X6705346Y3777691D01*
X6710172Y3777538D01*
X6715099Y3775557D01*
X6716522Y3773271D01*
X6723888Y3771696D01*
X6733590Y3767328D01*
X6756044Y3765194D01*
X6762292Y3762857D01*
X6783730Y3762857D01*
X6785000Y3764889D01*
X6806133Y3766413D01*
X6819849Y3768750D01*
X6822389Y3770833D01*
X6835851Y3773271D01*
X6840880Y3776522D01*
X6846112Y3776522D01*
X6849465Y3774389D01*
X6844131Y3757676D01*
X6831838Y3745941D01*
X6814870Y3738879D01*
X6778701Y3732936D01*
X6753606Y3734155D01*
X6733031Y3738778D01*
X6720687Y3744823D01*
X6709816Y3755694D01*
X6704177Y3766820D01*
X6702552Y3774338D01*
X6683042Y3774338D01*
X6695643Y3764076D01*
X6697268Y3757676D01*
X6705041Y3744874D01*
X6714998Y3735679D01*
X6732117Y3727551D01*
X6753606Y3723589D01*
X6790131Y3723487D01*
X6810705Y3726383D01*
X6828993Y3732326D01*
X6840931Y3739032D01*
X6850684Y3749903D01*
X6857034Y3762501D01*
X6858660Y3786225D01*
X6857136Y3801516D01*
X6851091Y3813657D01*
X6842658Y3826205D01*
X6841337Y3827373D01*
X6828383Y3846169D01*
X6817004Y3869283D01*
X6817004Y3871264D01*
X6811518Y3883304D01*
X6809841Y3889044D01*
X6798462Y3913022D01*
X6795008Y3916934D01*
X6796430Y3922674D01*
X6809536Y3929024D01*
X6814921Y3937000D01*
X6811365Y3969004D01*
X6808978Y4013911D01*
X6808978Y4103776D01*
X6812432Y4173423D01*
X6814616Y4189425D01*
X6818223Y4230522D01*
X6820306Y4241952D01*
X6824065Y4276140D01*
X6827316Y4293311D01*
X6830618Y4296613D01*
X6840372Y4286097D01*
X6851497Y4284472D01*
X6870953Y4286046D01*
X6886092Y4292142D01*
X6900316Y4306214D01*
X6907580Y4321911D01*
X6909663Y4347006D01*
X6907275Y4385868D01*
X6900418Y4412132D01*
X6891324Y4434179D01*
X6886397Y4457801D01*
X6887565Y4520590D01*
X6885482Y4577740D01*
X6882130Y4597146D01*
X6877659Y4620310D01*
X6874306Y4632553D01*
X6869633Y4653076D01*
X6868312Y4661103D01*
X6864045Y4699508D01*
X6865670Y4705654D01*
X6881977Y4714951D01*
X6885482Y4717897D01*
X6885482Y4725822D01*
X6880098Y4742180D01*
X6857136Y4818684D01*
X6849973Y4843830D01*
X6845553Y4856022D01*
X6845553Y4859832D01*
X6833666Y4883810D01*
X6809536Y4907788D01*
X6779259Y4923129D01*
X6763867Y4925771D01*
X6759803Y4927904D01*
X6753301Y4942027D01*
X6748780Y4946091D01*
X6741058Y4948580D01*
X6703618Y4949291D01*
X6700520Y4952390D01*
X6699046Y4962956D01*
X6707936Y4968646D01*
X6719722Y4971338D01*
X6754723Y4983784D01*
X6786727Y4999685D01*
X6806133Y5012537D01*
X6820458Y5025085D01*
X6830771Y5039563D01*
X6840423Y5058562D01*
X6854088Y5059121D01*
X6874357Y5062677D01*
X6887413Y5069941D01*
X6894068Y5075682D01*
X6901078Y5084826D01*
X6906920Y5095087D01*
X6911594Y5112207D01*
X6913118Y5125923D01*
X6910882Y5138470D01*
X6907174Y5151831D01*
X6899909Y5162397D01*
X6894068Y5167680D01*
X6883501Y5173218D01*
X6882079Y5176926D01*
X6882079Y5180076D01*
X6892086Y5201310D01*
X6895592Y5209286D01*
X6900418Y5221884D01*
X6907123Y5247284D01*
X6909612Y5273243D01*
X6908139Y5286298D01*
X6910882Y5294579D01*
X6921347Y5278983D01*
X6928205Y5271566D01*
X6930034Y5274411D01*
X6929881Y5292699D01*
X6928103Y5304078D01*
X6923024Y5328005D01*
X6921195Y5330342D01*
X6919518Y5336082D01*
X6912609Y5352084D01*
X6902246Y5367782D01*
X6889496Y5381548D01*
X6873494Y5394960D01*
X6866128Y5402275D01*
X6871157Y5404154D01*
X6884924Y5401818D01*
X6904329Y5397347D01*
X6910781Y5394909D01*
X6917334Y5394909D01*
X6918756Y5397144D01*
X6902043Y5413857D01*
X6892340Y5419293D01*
X6892340Y5422341D01*
X6886092Y5424932D01*
X6893153Y5426506D01*
X6895795Y5428132D01*
X6895795Y5431231D01*
X6884365Y5441492D01*
X6865467Y5455005D01*
X6834682Y5472023D01*
X6818680Y5479186D01*
X6804964Y5484825D01*
X6791299Y5489498D01*
X6770928Y5495594D01*
X6752437Y5498846D01*
X6725056Y5502452D01*
X6685076Y5501233D01*
X6675932Y5498795D01*
X6665823Y5496763D01*
X6660388Y5498795D01*
X6673646Y5510428D01*
X6673646Y5512866D01*
X6669786Y5515305D01*
X6638239Y5512562D01*
X6610858Y5504789D01*
X6597548Y5499760D01*
X6578853Y5489295D01*
X6562852Y5477357D01*
X6557314Y5471414D01*
X6551117Y5471414D01*
X6549694Y5477713D01*
X6548374Y5515406D01*
G37*
G36*
X6032906Y5483860D02*
G01*
X6016955Y5481929D01*
X5991809Y5478119D01*
X5970117Y5472430D01*
X5952998Y5466486D01*
X5944971Y5463184D01*
X5930138Y5456123D01*
X5907278Y5442407D01*
X5904280Y5439410D01*
X5902604Y5439410D01*
X5898134Y5435447D01*
X5886754Y5426354D01*
X5865926Y5405323D01*
X5853379Y5388610D01*
X5841288Y5370576D01*
X5824931Y5338368D01*
X5813145Y5307533D01*
X5807151Y5286959D01*
X5801563Y5262981D01*
X5795010Y5224170D01*
X5790234Y5165902D01*
X5790234Y5119217D01*
X5796127Y5051704D01*
X5798210Y5042204D01*
X5800598Y5010099D01*
X5798261Y4987747D01*
X5792673Y4970627D01*
X5787390Y4960315D01*
X5778906Y4947767D01*
X5772048Y4938623D01*
X5757265Y4916932D01*
X5750001Y4900930D01*
X5744565Y4878476D01*
X5744565Y4859832D01*
X5745184Y4857546D01*
X5755487Y4857546D01*
X5755589Y4879238D01*
X5760821Y4896358D01*
X5771896Y4917440D01*
X5795060Y4951984D01*
X5803087Y4969459D01*
X5804763Y4970119D01*
X5808522Y4972862D01*
X5811926Y4986121D01*
X5811875Y5017414D01*
X5808472Y5041392D01*
X5802731Y5088229D01*
X5800547Y5113375D01*
X5800598Y5172760D01*
X5802731Y5200142D01*
X5807202Y5239156D01*
X5812078Y5264099D01*
X5817920Y5286959D01*
X5824575Y5308650D01*
X5829300Y5321249D01*
X5834227Y5332577D01*
X5848451Y5361178D01*
X5852515Y5368036D01*
X5864809Y5386324D01*
X5877966Y5402326D01*
X5898184Y5421884D01*
X5909564Y5431028D01*
X5922162Y5439156D01*
X5940399Y5449316D01*
X5948426Y5452364D01*
X5950762Y5454142D01*
X5967069Y5460034D01*
X5990691Y5466740D01*
X6027216Y5472734D01*
X6075172Y5473547D01*
X6095746Y5471414D01*
X6112865Y5468162D01*
X6122009Y5466740D01*
X6139129Y5462016D01*
X6161989Y5454497D01*
X6173419Y5449519D01*
X6190132Y5441594D01*
X6212230Y5426608D01*
X6226962Y5413756D01*
X6233922Y5406694D01*
X6243116Y5396585D01*
X6255918Y5379466D01*
X6266281Y5363413D01*
X6279032Y5337911D01*
X6279032Y5336692D01*
X6284772Y5324195D01*
X6294069Y5296103D01*
X6300876Y5269839D01*
X6305499Y5244693D01*
X6308598Y5221884D01*
X6311239Y5176164D01*
X6309817Y5140756D01*
X6307480Y5108803D01*
X6304280Y5092801D01*
X6298488Y5047691D01*
X6298488Y5023154D01*
X6304076Y4994605D01*
X6308801Y4982006D01*
X6319316Y4960315D01*
X6325565Y4950053D01*
X6341668Y4922621D01*
X6352336Y4900930D01*
X6359042Y4879238D01*
X6360464Y4859680D01*
X6357772Y4844135D01*
X6352133Y4830114D01*
X6342075Y4816703D01*
X6333794Y4809896D01*
X6330492Y4812639D01*
X6328918Y4820970D01*
X6326174Y4810455D01*
X6317335Y4800854D01*
X6304229Y4794148D01*
X6281572Y4791557D01*
X6273342Y4793132D01*
X6268923Y4797806D01*
X6266637Y4808423D01*
X6265164Y4821682D01*
X6260033Y4823612D01*
X6246164Y4851806D01*
X6236106Y4866690D01*
X6217005Y4894072D01*
X6211824Y4905502D01*
X6207099Y4934305D01*
X6207099Y4953609D01*
X6209182Y4966055D01*
X6211773Y4986578D01*
X6217259Y5004866D01*
X6219748Y5014569D01*
X6221730Y5014569D01*
X6224219Y5007406D01*
X6224371Y4985461D01*
X6226098Y4976317D01*
X6227521Y5024272D01*
X6229756Y5034534D01*
X6232499Y5055311D01*
X6236208Y5060137D01*
X6256426Y5062626D01*
X6271310Y5068570D01*
X6285331Y5082540D01*
X6291275Y5092801D01*
X6296761Y5107635D01*
X6296710Y5141925D01*
X6289141Y5157876D01*
X6287414Y5159044D01*
X6274816Y5173218D01*
X6276695Y5184190D01*
X6279286Y5203596D01*
X6278473Y5265521D01*
X6275527Y5269077D01*
X6273088Y5291531D01*
X6269736Y5300675D01*
X6266535Y5315000D01*
X6263335Y5320080D01*
X6260541Y5332069D01*
X6258661Y5332069D01*
X6254750Y5344058D01*
X6253124Y5345226D01*
X6248146Y5355488D01*
X6243370Y5364632D01*
X6241745Y5365750D01*
X6237376Y5373624D01*
X6219901Y5395620D01*
X6197396Y5416600D01*
X6194602Y5416600D01*
X6192164Y5421172D01*
X6189167Y5421172D01*
X6185357Y5425389D01*
X6176264Y5429504D01*
X6176264Y5431231D01*
X6166002Y5435193D01*
X6166002Y5436971D01*
X6153404Y5440629D01*
X6153404Y5442508D01*
X6144615Y5445150D01*
X6139332Y5445150D01*
X6135319Y5448757D01*
X6113678Y5451805D01*
X6109055Y5454294D01*
X6078778Y5454294D01*
X6074867Y5450738D01*
X6057290Y5450738D01*
X6051194Y5454853D01*
X6005322Y5454853D01*
X6002070Y5452160D01*
X5980430Y5448401D01*
X5979058Y5446166D01*
X5964478Y5442762D01*
X5960973Y5439714D01*
X5953760Y5438140D01*
X5948629Y5433720D01*
X5946038Y5433720D01*
X5929274Y5422849D01*
X5917590Y5414365D01*
X5911392Y5409184D01*
X5897016Y5395264D01*
X5887212Y5384038D01*
X5875324Y5367934D01*
X5872480Y5363464D01*
X5857748Y5337200D01*
X5857595Y5333542D01*
X5853328Y5328056D01*
X5851652Y5320080D01*
X5847537Y5312003D01*
X5845911Y5302961D01*
X5841593Y5293258D01*
X5839358Y5275935D01*
X5835954Y5265826D01*
X5834378Y5235448D01*
X5840476Y5235448D01*
X5840526Y5260695D01*
X5843574Y5266588D01*
X5846368Y5289245D01*
X5850534Y5298389D01*
X5852109Y5308650D01*
X5855106Y5313426D01*
X5858611Y5324652D01*
X5863336Y5333695D01*
X5863336Y5337657D01*
X5865723Y5339130D01*
X5876137Y5358790D01*
X5879338Y5361940D01*
X5879338Y5363718D01*
X5891326Y5379821D01*
X5901588Y5391810D01*
X5911850Y5401970D01*
X5927852Y5415076D01*
X5934710Y5419445D01*
X5936996Y5421172D01*
X5944971Y5426303D01*
X5972403Y5439308D01*
X5979160Y5440730D01*
X5988405Y5444845D01*
X6002070Y5446369D01*
X6016345Y5449874D01*
X6046622Y5448808D01*
X6060338Y5445556D01*
X6081826Y5447334D01*
X6084214Y5449722D01*
X6097066Y5449722D01*
X6098235Y5448604D01*
X6131255Y5444083D01*
X6137960Y5440629D01*
X6150000Y5438140D01*
X6150000Y5436209D01*
X6158382Y5433415D01*
X6181394Y5420868D01*
X6182563Y5419445D01*
X6193586Y5411470D01*
X6210249Y5397246D01*
X6223660Y5381498D01*
X6234176Y5368036D01*
X6243421Y5352084D01*
X6257340Y5323281D01*
X6257340Y5318861D01*
X6262065Y5309819D01*
X6264300Y5296357D01*
X6267704Y5289804D01*
X6271260Y5260695D01*
X6273698Y5256174D01*
X6274816Y5222240D01*
X6271920Y5209336D01*
X6264503Y5224170D01*
X6261760Y5240121D01*
X6256121Y5261864D01*
X6250279Y5280101D01*
X6243269Y5300675D01*
X6241643Y5302961D01*
X6238798Y5312105D01*
X6220815Y5352389D01*
X6212941Y5366308D01*
X6204407Y5379466D01*
X6192977Y5393182D01*
X6182360Y5403443D01*
X6167780Y5414873D01*
X6156350Y5422290D01*
X6154166Y5422290D01*
X6150559Y5425490D01*
X6139180Y5429300D01*
X6136182Y5431790D01*
X6115151Y5436311D01*
X6093104Y5437276D01*
X6065977Y5428081D01*
X6060338Y5429504D01*
X6057798Y5431485D01*
X6037478Y5436158D01*
X6020358Y5438089D01*
X6006642Y5436920D01*
X5983833Y5432247D01*
X5967272Y5425643D01*
X5958687Y5420817D01*
X5939282Y5408015D01*
X5914034Y5382920D01*
X5904992Y5369610D01*
X5893206Y5349290D01*
X5884926Y5330342D01*
X5881624Y5323535D01*
X5876848Y5309819D01*
X5873648Y5298643D01*
X5869330Y5286959D01*
X5867755Y5277815D01*
X5862320Y5261864D01*
X5855868Y5249265D01*
X5849061Y5239105D01*
X5843930Y5233517D01*
X5843828Y5230977D01*
X5840476Y5235448D01*
X5834378Y5235448D01*
X5833465Y5217312D01*
X5834372Y5201920D01*
X5840171Y5201920D01*
X5841288Y5211572D01*
X5853531Y5232146D01*
X5855004Y5233263D01*
X5859881Y5242407D01*
X5865469Y5251551D01*
X5880100Y5277815D01*
X5887821Y5293817D01*
X5889244Y5294934D01*
X5893358Y5305806D01*
X5895035Y5305806D01*
X5897575Y5315966D01*
X5901283Y5318048D01*
X5901588Y5326278D01*
X5899302Y5326583D01*
X5896762Y5319115D01*
X5891987Y5317337D01*
X5890158Y5310378D01*
X5887872Y5309819D01*
X5887161Y5317083D01*
X5891885Y5319572D01*
X5891885Y5326430D01*
X5904026Y5350916D01*
X5915050Y5368036D01*
X5929680Y5385612D01*
X5945835Y5400598D01*
X5960313Y5410911D01*
X5976975Y5419902D01*
X5997549Y5426862D01*
X6024168Y5429504D01*
X6051194Y5427014D01*
X6061506Y5422341D01*
X6071819Y5422290D01*
X6080658Y5427065D01*
X6097676Y5430316D01*
X6111748Y5430012D01*
X6129274Y5427319D01*
X6136843Y5423611D01*
X6149441Y5417820D01*
X6160973Y5410301D01*
X6178753Y5395569D01*
X6193078Y5378348D01*
X6203340Y5362346D01*
X6214922Y5340654D01*
X6227876Y5311241D01*
X6229807Y5305247D01*
X6238036Y5283555D01*
X6244590Y5264099D01*
X6250686Y5243017D01*
X6253886Y5221884D01*
X6253937Y5207457D01*
X6251346Y5197246D01*
X6246571Y5193893D01*
X6212941Y5193893D01*
X6206845Y5196179D01*
X6208064Y5204714D01*
X6210757Y5218430D01*
X6209588Y5250434D01*
X6204610Y5278882D01*
X6197904Y5295696D01*
X6190183Y5307787D01*
X6178702Y5318963D01*
X6174486Y5322417D01*
X6162802Y5329631D01*
X6161430Y5328259D01*
X6161430Y5322722D01*
X6165799Y5316575D01*
X6167424Y5307533D01*
X6171031Y5300675D01*
X6170980Y5264099D01*
X6164732Y5246014D01*
X6156350Y5230977D01*
X6141212Y5216042D01*
X6128359Y5207508D01*
X6110681Y5198465D01*
X6105601Y5198465D01*
X6104178Y5203037D01*
X6107379Y5206238D01*
X6110325Y5213299D01*
X6111951Y5213299D01*
X6121654Y5234432D01*
X6124600Y5240121D01*
X6126226Y5249824D01*
X6122974Y5249824D01*
X6115304Y5237835D01*
X6098032Y5220512D01*
X6083198Y5210657D01*
X6062980Y5200548D01*
X6044133Y5197094D01*
X6000953Y5201920D01*
X5967831Y5207000D01*
X5967120Y5213451D01*
X5977229Y5225288D01*
X5991809Y5246979D01*
X6000902Y5261864D01*
X6015228Y5290007D01*
X6015228Y5294376D01*
X6012942Y5294376D01*
X6012942Y5289804D01*
X6008624Y5289804D01*
X6004560Y5283555D01*
X6001867Y5281269D01*
X5977128Y5250434D01*
X5949340Y5219598D01*
X5930900Y5202021D01*
X5918708Y5193995D01*
X5902604Y5191506D01*
X5849874Y5194858D01*
X5843168Y5198313D01*
X5840171Y5201920D01*
X5834372Y5201920D01*
X5834837Y5194452D01*
X5835004Y5185867D01*
X5924245Y5185867D01*
X5922721Y5184343D01*
X5921197Y5185867D01*
X5835004Y5185867D01*
X5835243Y5173624D01*
X5829683Y5167579D01*
X5865520Y5167579D01*
X5866180Y5180533D01*
X5871870Y5184597D01*
X5893612Y5182260D01*
X5920536Y5183581D01*
X5921705Y5180482D01*
X5914999Y5169916D01*
X5910986Y5150713D01*
X5912459Y5144922D01*
X5916980Y5143500D01*
X5919063Y5144770D01*
X5920689Y5159044D01*
X5926023Y5170779D01*
X5933338Y5179161D01*
X5939891Y5182514D01*
X5944514Y5180025D01*
X5943396Y5176164D01*
X5939840Y5160619D01*
X5939840Y5143550D01*
X5942385Y5133238D01*
X5953150Y5133238D01*
X5956096Y5136794D01*
X5957824Y5136794D01*
X5960160Y5133898D01*
X5958027Y5128361D01*
X5953150Y5133238D01*
X5942385Y5133238D01*
X5943650Y5128209D01*
X5950102Y5118709D01*
X5957824Y5113934D01*
X5966561Y5113934D01*
X5975197Y5119928D01*
X5981852Y5130495D01*
X5983173Y5135067D01*
X5985459Y5153761D01*
X5983224Y5173573D01*
X5977280Y5185613D01*
X5966714Y5193284D01*
X5939485Y5194452D01*
X5938621Y5196941D01*
X5947816Y5203037D01*
X5952236Y5203037D01*
X5958687Y5199786D01*
X5978093Y5197449D01*
X6022644Y5188966D01*
X6052769Y5187899D01*
X6071768Y5194808D01*
X6085484Y5202986D01*
X6092748Y5206390D01*
X6094171Y5208727D01*
X6100318Y5208676D01*
X6096304Y5206339D01*
X6096304Y5201970D01*
X6092291Y5199786D01*
X6090543Y5196535D01*
X6125972Y5196535D01*
X6140450Y5205882D01*
X6155690Y5218023D01*
X6165596Y5229860D01*
X6170422Y5237886D01*
X6177686Y5256022D01*
X6178854Y5283555D01*
X6176111Y5304078D01*
X6172809Y5310784D01*
X6174740Y5312765D01*
X6177686Y5309260D01*
X6180683Y5309260D01*
X6187186Y5299506D01*
X6193434Y5286959D01*
X6199124Y5267706D01*
X6199124Y5244236D01*
X6193180Y5225288D01*
X6190335Y5221884D01*
X6184392Y5211572D01*
X6174232Y5200091D01*
X6163157Y5194046D01*
X6143701Y5191404D01*
X6129985Y5192928D01*
X6125972Y5196535D01*
X6090543Y5196535D01*
X6087211Y5190337D01*
X6094628Y5187238D01*
X6128867Y5184597D01*
X6132982Y5179822D01*
X6131814Y5176774D01*
X6128004Y5156758D01*
X6129324Y5138470D01*
X6132931Y5126583D01*
X6140348Y5116779D01*
X6148273Y5112664D01*
X6157112Y5113782D01*
X6164935Y5121300D01*
X6170422Y5132882D01*
X6173165Y5148630D01*
X6171793Y5168188D01*
X6168136Y5180380D01*
X6168847Y5181142D01*
X6175095Y5182717D01*
X6188252Y5169306D01*
X6192266Y5154472D01*
X6193688Y5144668D01*
X6197803Y5142484D01*
X6199632Y5145328D01*
X6199428Y5163667D01*
X6192977Y5177332D01*
X6179515Y5191404D01*
X6183122Y5198364D01*
X6185966Y5200142D01*
X6193028Y5209286D01*
X6196888Y5216702D01*
X6200140Y5216702D01*
X6201664Y5214213D01*
X6198666Y5192522D01*
X6201054Y5188762D01*
X6206540Y5185918D01*
X6243523Y5185867D01*
X6247079Y5180838D01*
X6247079Y5169001D01*
X6238849Y5140198D01*
X6231280Y5111089D01*
X6222670Y5075021D01*
X6234582Y5075021D01*
X6247028Y5122519D01*
X6250990Y5134610D01*
X6254648Y5137861D01*
X6261912Y5135118D01*
X6266180Y5126024D01*
X6267196Y5134813D01*
X6263081Y5135880D01*
X6263081Y5139080D01*
X6256324Y5145328D01*
X6255715Y5151069D01*
X6258814Y5161991D01*
X6263589Y5165344D01*
X6267043Y5165191D01*
X6271768Y5163261D01*
X6284417Y5151678D01*
X6290767Y5129428D01*
X6289446Y5115610D01*
X6284518Y5097627D01*
X6276949Y5085943D01*
X6270294Y5079085D01*
X6265062Y5074869D01*
X6248958Y5069382D01*
X6236766Y5069382D01*
X6234582Y5075021D01*
X6222670Y5075021D01*
X6217310Y5055311D01*
X6208826Y5039207D01*
X6190538Y5020665D01*
X6174536Y5010251D01*
X6156299Y5000244D01*
X6139129Y4992573D01*
X6127496Y4987137D01*
X6125464Y4987137D01*
X6114034Y4982667D01*
X6094628Y4976977D01*
X6065774Y4972304D01*
X6047079Y4972304D01*
X6012383Y4977942D01*
X5979261Y4989220D01*
X5963259Y4995976D01*
X5939282Y5007813D01*
X5932424Y5011775D01*
X5922162Y5018328D01*
X5909462Y5028844D01*
X5899302Y5040934D01*
X5893308Y5052822D01*
X5886246Y5079085D01*
X5879236Y5108803D01*
X5874461Y5127091D01*
X5869076Y5146497D01*
X5865520Y5167579D01*
X5829683Y5167579D01*
X5820105Y5157216D01*
X5812637Y5138470D01*
X5812571Y5121351D01*
X5819800Y5121351D01*
X5821172Y5136388D01*
X5824169Y5147767D01*
X5830316Y5157063D01*
X5839612Y5164480D01*
X5849162Y5165598D01*
X5851499Y5162499D01*
X5855817Y5152491D01*
X5855360Y5146954D01*
X5852922Y5142382D01*
X5847334Y5140248D01*
X5847334Y5136083D01*
X5844590Y5133340D01*
X5849061Y5133340D01*
X5851906Y5137912D01*
X5856122Y5137912D01*
X5860084Y5133543D01*
X5866739Y5111089D01*
X5870041Y5096256D01*
X5874867Y5078526D01*
X5874156Y5069941D01*
X5862116Y5069281D01*
X5847892Y5074208D01*
X5837021Y5081066D01*
X5832043Y5088229D01*
X5830519Y5089398D01*
X5823305Y5103266D01*
X5819800Y5121351D01*
X5812571Y5121351D01*
X5812536Y5112207D01*
X5817920Y5096256D01*
X5825744Y5082082D01*
X5839510Y5069382D01*
X5853988Y5062626D01*
X5877407Y5060391D01*
X5879338Y5057394D01*
X5885078Y5039512D01*
X5894171Y5000294D01*
X5897473Y4984292D01*
X5901436Y4944313D01*
X5898537Y4911699D01*
X5904077Y4911699D01*
X5907887Y4923790D01*
X5909665Y4966563D01*
X5912154Y4969052D01*
X5913577Y4961483D01*
X5915964Y4938623D01*
X5914593Y4920335D01*
X5912307Y4913122D01*
X5906465Y4909312D01*
X5904077Y4911699D01*
X5898537Y4911699D01*
X5898033Y4908499D01*
X5944108Y4908499D01*
X5946343Y4910785D01*
X5949950Y4905298D01*
X5949086Y4852974D01*
X5947714Y4800447D01*
X5946444Y4795316D01*
X5944412Y4795316D01*
X5944209Y4798161D01*
X5944108Y4908499D01*
X5898033Y4908499D01*
X5896356Y4897526D01*
X5890615Y4885029D01*
X5881979Y4873548D01*
X5869279Y4852974D01*
X5851906Y4820158D01*
X5851906Y4818989D01*
X5843625Y4800650D01*
X5837631Y4795367D01*
X5823762Y4795316D01*
X5813094Y4798923D01*
X5809030Y4804054D01*
X5803950Y4806797D01*
X5803950Y4824222D01*
X5802731Y4823002D01*
X5802579Y4807813D01*
X5798058Y4805375D01*
X5793740Y4809286D01*
X5792419Y4813452D01*
X5786932Y4810963D01*
X5779922Y4813858D01*
X5768543Y4826304D01*
X5760720Y4840427D01*
X5755487Y4857546D01*
X5745184Y4857546D01*
X5750153Y4839258D01*
X5755538Y4828895D01*
X5762548Y4818684D01*
X5771692Y4809236D01*
X5783935Y4800244D01*
X5795365Y4794300D01*
X5809081Y4788662D01*
X5828487Y4784852D01*
X5832500Y4783734D01*
X5834938Y4779111D01*
X5828741Y4766411D01*
X5828025Y4756404D01*
X5835396Y4756404D01*
X5839612Y4768392D01*
X5843016Y4773574D01*
X5846013Y4773574D01*
X5849620Y4770018D01*
X5849620Y4774488D01*
X5846216Y4775809D01*
X5846216Y4785715D01*
X5848502Y4788001D01*
X5873800Y4838141D01*
X5886602Y4860950D01*
X5899861Y4880356D01*
X5913983Y4894681D01*
X5924956Y4901742D01*
X5935014Y4904740D01*
X5937808Y4899456D01*
X5936691Y4805019D01*
X5932881Y4792421D01*
X5931001Y4757013D01*
X5923838Y4727041D01*
X5916625Y4725619D01*
X5912358Y4730191D01*
X5909818Y4730191D01*
X5892546Y4738522D01*
X5889447Y4741621D01*
X5886602Y4741621D01*
X5877610Y4748377D01*
X5874816Y4748479D01*
X5872378Y4753051D01*
X5869178Y4753051D01*
X5866180Y4757267D01*
X5861050Y4758893D01*
X5860897Y4762754D01*
X5858662Y4757064D01*
X5861456Y4756150D01*
X5868466Y4749596D01*
X5876391Y4742738D01*
X5879236Y4742738D01*
X5881624Y4738319D01*
X5886754Y4736744D01*
X5893206Y4731359D01*
X5896152Y4731359D01*
X5901791Y4726889D01*
X5908446Y4725263D01*
X5918504Y4719929D01*
X5921806Y4717135D01*
X5920333Y4706010D01*
X5917742Y4701844D01*
X5909564Y4703114D01*
X5893409Y4709566D01*
X5871108Y4721047D01*
X5853633Y4733391D01*
X5840577Y4746548D01*
X5835396Y4756404D01*
X5828025Y4756404D01*
X5827623Y4750816D01*
X5835142Y4738420D01*
X5852972Y4722012D01*
X5854395Y4714494D01*
X5850686Y4672533D01*
X5844794Y4640529D01*
X5840679Y4625695D01*
X5839206Y4616551D01*
X5834888Y4598263D01*
X5832500Y4565142D01*
X5832500Y4489602D01*
X5830062Y4464659D01*
X5826760Y4450943D01*
X5819648Y4428083D01*
X5814009Y4402988D01*
X5812847Y4359605D01*
X5821730Y4359605D01*
X5821730Y4392676D01*
X5824575Y4409846D01*
X5833922Y4441799D01*
X5839510Y4463491D01*
X5841644Y4574286D01*
X5847435Y4610404D01*
X5849366Y4615434D01*
X5853125Y4634839D01*
X5855411Y4640275D01*
X5859983Y4669078D01*
X5864148Y4708093D01*
X5866231Y4711801D01*
X5893612Y4698492D01*
X5911799Y4691227D01*
X5914745Y4688789D01*
X5914694Y4677105D01*
X5911138Y4661103D01*
X5900928Y4607407D01*
X5898794Y4600549D01*
X5896356Y4584547D01*
X5892038Y4565142D01*
X5878271Y4493209D01*
X5878240Y4488078D01*
X5886196Y4488078D01*
X5886196Y4492040D01*
X5891885Y4514900D01*
X5891885Y4519574D01*
X5895492Y4533188D01*
X5899810Y4555998D01*
X5907938Y4594860D01*
X5920587Y4659934D01*
X5924854Y4679391D01*
X5926277Y4688484D01*
X5942279Y4766716D01*
X5948832Y4779873D01*
X5952794Y4788662D01*
X5957824Y4790948D01*
X5959449Y4814874D01*
X5955944Y4820158D01*
X5958281Y4855260D01*
X5957570Y4915001D01*
X5963107Y4920945D01*
X5967730Y4917846D01*
X5967927Y4903724D01*
X5971844Y4903724D01*
X5971844Y4911394D01*
X5978601Y4923790D01*
X5986424Y4929987D01*
X5997092Y4932629D01*
X5999581Y4930190D01*
X5999771Y4916220D01*
X6005931Y4916220D01*
X6008674Y4921300D01*
X6018428Y4933289D01*
X6023203Y4946142D01*
X6023254Y4951171D01*
X6025642Y4959858D01*
X6031382Y4962042D01*
X6051194Y4960061D01*
X6079896Y4959756D01*
X6083503Y4956911D01*
X6087110Y4940401D01*
X6091986Y4930648D01*
X6102045Y4917694D01*
X6102045Y4910632D01*
X6094933Y4898034D01*
X6085027Y4887823D01*
X6070600Y4880813D01*
X6054648Y4879035D01*
X6038646Y4880610D01*
X6023406Y4887569D01*
X6012789Y4898644D01*
X6007506Y4909210D01*
X6005931Y4916220D01*
X5999771Y4916220D01*
X5999937Y4906619D01*
X6006896Y4891786D01*
X6019241Y4879848D01*
X6027216Y4874463D01*
X6043218Y4868976D01*
X6066028Y4869027D01*
X6082538Y4875174D01*
X6091326Y4880711D01*
X6101435Y4891328D01*
X6109055Y4905502D01*
X6108293Y4929479D01*
X6110173Y4932324D01*
X6114034Y4932222D01*
X6122212Y4929327D01*
X6130594Y4922621D01*
X6133338Y4914646D01*
X6132931Y4899101D01*
X6130391Y4884928D01*
X6128308Y4882438D01*
X6125159Y4873498D01*
X6117945Y4862779D01*
X6105956Y4850688D01*
X6101435Y4847234D01*
X6088329Y4839817D01*
X6076340Y4837277D01*
X6073140Y4834686D01*
X6044031Y4833924D01*
X6036360Y4837379D01*
X6023102Y4840020D01*
X6010097Y4846726D01*
X6005779Y4849520D01*
X5996940Y4856784D01*
X5988405Y4865979D01*
X5984240Y4871872D01*
X5977991Y4883810D01*
X5974943Y4898644D01*
X5971844Y4903724D01*
X5967927Y4903724D01*
X5967984Y4898237D01*
X5970778Y4894884D01*
X5972200Y4882642D01*
X5980226Y4866690D01*
X5984544Y4860950D01*
X5990691Y4853330D01*
X6000546Y4843272D01*
X6002680Y4843272D01*
X6002680Y4840071D01*
X6006287Y4838700D01*
X6010960Y4838700D01*
X6018072Y4834331D01*
X6029452Y4832654D01*
X6037478Y4829200D01*
X6076340Y4828997D01*
X6084316Y4832858D01*
X6094628Y4835499D01*
X6098032Y4838395D01*
X6105550Y4842256D01*
X6110579Y4846116D01*
X6123178Y4858664D01*
X6131712Y4871415D01*
X6131712Y4874006D01*
X6136182Y4882642D01*
X6140145Y4903216D01*
X6140450Y4917084D01*
X6141974Y4919522D01*
X6146190Y4920589D01*
X6152235Y4917440D01*
X6153302Y4912360D01*
X6154887Y4858664D01*
X6160160Y4858664D01*
X6160871Y4912309D01*
X6164681Y4913071D01*
X6167221Y4908296D01*
X6167097Y4900726D01*
X6174790Y4900726D01*
X6179007Y4903774D01*
X6181445Y4903774D01*
X6198514Y4893665D01*
X6211214Y4881422D01*
X6227216Y4859832D01*
X6238748Y4840427D01*
X6254851Y4807305D01*
X6266688Y4780991D01*
X6265316Y4772507D01*
X6272987Y4769307D01*
X6275628Y4755896D01*
X6273241Y4747260D01*
X6254496Y4728311D01*
X6239002Y4717491D01*
X6224828Y4709414D01*
X6213398Y4704791D01*
X6197498Y4699355D01*
X6194958Y4699355D01*
X6190996Y4702251D01*
X6188913Y4711344D01*
X6191250Y4718659D01*
X6203391Y4722164D01*
X6206032Y4725365D01*
X6213703Y4726838D01*
X6216548Y4730242D01*
X6226505Y4734610D01*
X6226505Y4736795D01*
X6232144Y4738217D01*
X6234582Y4742738D01*
X6237478Y4742738D01*
X6247485Y4751832D01*
X6246063Y4753305D01*
X6240221Y4751832D01*
X6240221Y4748479D01*
X6237376Y4748377D01*
X6228384Y4741621D01*
X6225489Y4741621D01*
X6221374Y4737354D01*
X6212992Y4734661D01*
X6211874Y4731613D01*
X6203899Y4730140D01*
X6198006Y4725466D01*
X6190488Y4724247D01*
X6185357Y4728464D01*
X6181852Y4746752D01*
X6178296Y4762957D01*
X6179261Y4782159D01*
X6176162Y4818684D01*
X6174790Y4900726D01*
X6167097Y4900726D01*
X6166002Y4834229D01*
X6169456Y4832299D01*
X6170879Y4802581D01*
X6169202Y4793640D01*
X6167018Y4797602D01*
X6166154Y4830064D01*
X6162497Y4832705D01*
X6160160Y4858664D01*
X6154887Y4858664D01*
X6155791Y4828997D01*
X6157976Y4817567D01*
X6160465Y4793691D01*
X6163868Y4784445D01*
X6168390Y4768443D01*
X6171641Y4754727D01*
X6171692Y4748936D01*
X6175248Y4735322D01*
X6183122Y4695342D01*
X6186215Y4681220D01*
X6195466Y4681220D01*
X6196888Y4688941D01*
X6205372Y4691583D01*
X6223660Y4698390D01*
X6242761Y4708499D01*
X6244437Y4708499D01*
X6248146Y4704384D01*
X6251651Y4672533D01*
X6257594Y4639411D01*
X6261658Y4624527D01*
X6267754Y4599178D01*
X6270904Y4572000D01*
X6273444Y4468164D01*
X6275628Y4452467D01*
X6277660Y4448657D01*
X6281318Y4432300D01*
X6283604Y4426305D01*
X6289700Y4393844D01*
X6289700Y4361840D01*
X6285839Y4347006D01*
X6283350Y4340758D01*
X6281826Y4340758D01*
X6277762Y4333900D01*
X6272580Y4333900D01*
X6275171Y4353306D01*
X6277914Y4356049D01*
X6277711Y4366412D01*
X6274308Y4358436D01*
X6271107Y4355947D01*
X6268516Y4337862D01*
X6264554Y4333290D01*
X6260287Y4325874D01*
X6257950Y4325924D01*
X6254953Y4327804D01*
X6257188Y4337862D01*
X6258763Y4360164D01*
X6260795Y4361434D01*
X6260795Y4364736D01*
X6254445Y4364736D01*
X6250838Y4336135D01*
X6243167Y4324908D01*
X6237376Y4323791D01*
X6230518Y4327702D01*
X6227572Y4333290D01*
X6228638Y4343755D01*
X6234531Y4354779D01*
X6234531Y4360722D01*
X6237935Y4367276D01*
X6237935Y4374997D01*
X6235649Y4374997D01*
X6235649Y4370476D01*
X6231077Y4367580D01*
X6228435Y4353864D01*
X6220307Y4346143D01*
X6213906Y4353864D01*
X6211671Y4362094D01*
X6213906Y4373270D01*
X6225286Y4423562D01*
X6228994Y4442968D01*
X6234226Y4448657D01*
X6238138Y4454906D01*
X6238087Y4466234D01*
X6234582Y4477867D01*
X6234633Y4497781D01*
X6225184Y4541164D01*
X6221171Y4561738D01*
X6217462Y4577740D01*
X6208217Y4622241D01*
X6204762Y4640529D01*
X6201613Y4653076D01*
X6197854Y4673650D01*
X6195466Y4681220D01*
X6186215Y4681220D01*
X6191097Y4657648D01*
X6195771Y4633671D01*
X6197955Y4626813D01*
X6202578Y4602835D01*
X6213754Y4550308D01*
X6217462Y4532020D01*
X6221882Y4513783D01*
X6226556Y4489653D01*
X6223304Y4481779D01*
X6216548Y4475378D01*
X6192824Y4463135D01*
X6187135Y4461560D01*
X6182360Y4458563D01*
X6166561Y4454652D01*
X6164275Y4452924D01*
X6144869Y4449114D01*
X6138926Y4446828D01*
X6107176Y4442510D01*
X6090056Y4439920D01*
X6011214Y4440885D01*
X6003239Y4443425D01*
X5974689Y4446981D01*
X5965444Y4450232D01*
X5950864Y4451858D01*
X5943193Y4459528D01*
X5940094Y4459528D01*
X5938926Y4462627D01*
X5929020Y4464405D01*
X5922772Y4463897D01*
X5918149Y4465370D01*
X5918149Y4469536D01*
X5914542Y4470958D01*
X5910580Y4470958D01*
X5894476Y4478883D01*
X5886196Y4488078D01*
X5878240Y4488078D01*
X5878118Y4476089D01*
X5874867Y4466945D01*
X5874766Y4457090D01*
X5875932Y4454804D01*
X5885586Y4454804D01*
X5885586Y4471009D01*
X5889040Y4473194D01*
X5890463Y4473194D01*
X5893206Y4469892D01*
X5898184Y4468317D01*
X5904992Y4463338D01*
X5919876Y4456379D01*
X5931306Y4451705D01*
X5942685Y4447895D01*
X5961837Y4443476D01*
X5965647Y4441393D01*
X5984951Y4438802D01*
X5998972Y4435602D01*
X6031788Y4433265D01*
X6083198Y4433265D01*
X6115151Y4435500D01*
X6131153Y4439005D01*
X6150559Y4442307D01*
X6172250Y4447895D01*
X6188252Y4453636D01*
X6201562Y4459224D01*
X6204153Y4461814D01*
X6206490Y4461814D01*
X6219088Y4469536D01*
X6226454Y4471111D01*
X6228130Y4464659D01*
X6228029Y4454804D01*
X6224828Y4451604D01*
X6202375Y4440072D01*
X6200241Y4440072D01*
X6190538Y4435602D01*
X6174435Y4429861D01*
X6155131Y4424273D01*
X6128461Y4418330D01*
X6084316Y4412742D01*
X6027216Y4412742D01*
X5983122Y4418330D01*
X5962142Y4423206D01*
X5942685Y4428845D01*
X5920994Y4436465D01*
X5911850Y4440174D01*
X5891326Y4450486D01*
X5885586Y4454804D01*
X5875932Y4454804D01*
X5877356Y4452112D01*
X5884926Y4442714D01*
X5886224Y4432096D01*
X5895695Y4432096D01*
X5899708Y4435754D01*
X5904738Y4434128D01*
X5927953Y4423308D01*
X5935878Y4420616D01*
X5940552Y4413250D01*
X5952998Y4413707D01*
X5980125Y4408068D01*
X5981598Y4407154D01*
X6032906Y4401007D01*
X6037986Y4397857D01*
X6043879Y4397857D01*
X6049416Y4401464D01*
X6062624Y4400296D01*
X6070092Y4398721D01*
X6076340Y4401312D01*
X6125464Y4406798D01*
X6154775Y4412691D01*
X6168440Y4412691D01*
X6176772Y4420565D01*
X6182563Y4421987D01*
X6198514Y4428896D01*
X6206794Y4433062D01*
X6214719Y4435246D01*
X6217564Y4430725D01*
X6216091Y4421276D01*
X6211874Y4406392D01*
X6208420Y4389272D01*
X6203492Y4368698D01*
X6204305Y4355033D01*
X6209182Y4344720D01*
X6210757Y4339386D01*
X6206134Y4318457D01*
X6201359Y4292193D01*
X6196736Y4256989D01*
X6195872Y4255566D01*
X6191097Y4206544D01*
X6189980Y4200855D01*
X6187694Y4163161D01*
X6186271Y4157979D01*
X6179058Y4157979D01*
X6174130Y4161434D01*
X6167577Y4167733D01*
X6162751Y4171543D01*
X6161532Y4168343D01*
X6164834Y4164990D01*
X6164834Y4163060D01*
X6172460Y4152290D01*
X6183782Y4152290D01*
X6186525Y4155033D01*
X6186525Y4149547D01*
X6183782Y4152290D01*
X6172460Y4152290D01*
X6176111Y4147159D01*
X6185763Y4131564D01*
X6184290Y4078935D01*
X6187694Y4046626D01*
X6190945Y4034078D01*
X6199073Y4011218D01*
X6199124Y3996740D01*
X6192570Y3982669D01*
X6187592Y3978249D01*
X6157417Y3971696D01*
X6106007Y3971290D01*
X6094933Y3976928D01*
X6091732Y3981500D01*
X6091732Y3994251D01*
X6094730Y3998315D01*
X6106566Y3994810D01*
X6129985Y3992067D01*
X6164275Y3993489D01*
X6178905Y3996639D01*
X6181598Y4000296D01*
X6188252Y4003141D01*
X6179108Y4004005D01*
X6166561Y4001211D01*
X6119723Y4001109D01*
X6096914Y4006138D01*
X6093256Y4010456D01*
X6091732Y4055567D01*
X6091732Y4077715D01*
X6096304Y4081830D01*
X6096304Y4083913D01*
X6089599Y4098036D01*
X6087262Y4112869D01*
X6084773Y4155998D01*
X6082639Y4173423D01*
X6079134Y4213402D01*
X6075883Y4238498D01*
X6073444Y4265930D01*
X6070092Y4288790D01*
X6066383Y4324197D01*
X6066332Y4332681D01*
X6069076Y4336034D01*
X6075730Y4337507D01*
X6077153Y4339793D01*
X6069482Y4347210D01*
X6064351Y4353509D01*
X6064351Y4358741D01*
X6060694Y4361738D01*
X6058509Y4357878D01*
X6053480Y4352493D01*
X6041186Y4347565D01*
X6032906Y4347565D01*
X6016955Y4345990D01*
X6026099Y4344314D01*
X6043218Y4344162D01*
X6045860Y4339945D01*
X6042660Y4321911D01*
X6039104Y4295648D01*
X6036614Y4287621D01*
X6028944Y4271010D01*
X6028944Y4268216D01*
X6024676Y4265523D01*
X6023559Y4259630D01*
X6026505Y4259630D01*
X6029553Y4265930D01*
X6032804Y4265930D01*
X6034684Y4258564D01*
X6031230Y4236212D01*
X6027775Y4203090D01*
X6024321Y4174185D01*
X6021019Y4130801D01*
X6018784Y4111751D01*
X6016244Y4071772D01*
X6014161Y4053484D01*
X6012738Y4014165D01*
X6011062Y4007815D01*
X6005525Y4005072D01*
X5989523Y4001515D01*
X5930849Y4001515D01*
X5929426Y4003801D01*
X5922162Y4003598D01*
X5927852Y4002024D01*
X5928563Y3997299D01*
X5936996Y3994759D01*
X5968339Y3992016D01*
X5997498Y3994861D01*
X6009436Y3998874D01*
X6011468Y3997553D01*
X6014110Y3992524D01*
X6014110Y3986733D01*
X6010605Y3978097D01*
X6000953Y3972509D01*
X5954725Y3971645D01*
X5936996Y3974033D01*
X5917590Y3977538D01*
X5910275Y3985818D01*
X5907532Y3998671D01*
X5907786Y4010660D01*
X5913780Y4028033D01*
X5919317Y4047794D01*
X5921756Y4082034D01*
X5920181Y4177131D01*
X5922822Y4182008D01*
X5930138Y4178198D01*
X5943600Y4177995D01*
X5944514Y4180586D01*
X5929020Y4183430D01*
X5925566Y4186529D01*
X5919216Y4191711D01*
X5916015Y4214520D01*
X5913475Y4249928D01*
X5911240Y4264812D01*
X5907836Y4292193D01*
X5903468Y4316171D01*
X5899810Y4339285D01*
X5903569Y4350461D01*
X5906617Y4356354D01*
X5907989Y4367580D01*
X5899658Y4408678D01*
X5895695Y4432096D01*
X5886224Y4432096D01*
X5887313Y4423562D01*
X5890564Y4408678D01*
X5897880Y4369968D01*
X5896660Y4356760D01*
X5891834Y4348937D01*
X5888024Y4347514D01*
X5880455Y4355033D01*
X5877763Y4373626D01*
X5874715Y4372457D01*
X5872632Y4368596D01*
X5875832Y4351832D01*
X5879439Y4346346D01*
X5880760Y4335018D01*
X5874410Y4325823D01*
X5869025Y4324502D01*
X5863234Y4328312D01*
X5860491Y4334459D01*
X5857900Y4337202D01*
X5854954Y4368698D01*
X5850737Y4359605D01*
X5852058Y4339031D01*
X5855563Y4327194D01*
X5854750Y4324959D01*
X5846876Y4328718D01*
X5843422Y4337862D01*
X5840272Y4340301D01*
X5838291Y4357319D01*
X5838139Y4363008D01*
X5835345Y4358436D01*
X5835802Y4336034D01*
X5830925Y4336745D01*
X5824423Y4347819D01*
X5821730Y4359605D01*
X5812847Y4359605D01*
X5817768Y4341317D01*
X5822100Y4333900D01*
X5835802Y4333900D01*
X5837174Y4336186D01*
X5838190Y4336186D01*
X5838190Y4333900D01*
X5822100Y4333900D01*
X5823762Y4331055D01*
X5833872Y4321403D01*
X5846775Y4315256D01*
X5870244Y4314190D01*
X5877153Y4317085D01*
X5889345Y4330801D01*
X5891784Y4326229D01*
X5896356Y4303623D01*
X5898794Y4281932D01*
X5902045Y4263644D01*
X5903468Y4245356D01*
X5907786Y4208830D01*
X5910173Y4159707D01*
X5912662Y4098036D01*
X5911240Y4067860D01*
X5907938Y4039615D01*
X5903468Y4027220D01*
X5898286Y4011218D01*
X5898438Y3996385D01*
X5904687Y3978097D01*
X5907024Y3973677D01*
X5907511Y3954830D01*
X5917031Y3954830D01*
X5917031Y3964635D01*
X5920994Y3968038D01*
X5923280Y3969105D01*
X5936996Y3965854D01*
X6007963Y3965397D01*
X6010656Y3963720D01*
X6010656Y3955694D01*
X6008065Y3945432D01*
X6002578Y3941826D01*
X5989523Y3938727D01*
X5964428Y3938778D01*
X5927547Y3944061D01*
X5919114Y3949293D01*
X5917031Y3954830D01*
X5907511Y3954830D01*
X5907582Y3951782D01*
X5911088Y3944975D01*
X5917590Y3939032D01*
X5923838Y3935018D01*
X5922721Y3933240D01*
X5910021Y3926078D01*
X5904992Y3917594D01*
X5899658Y3905046D01*
X5895136Y3893718D01*
X5873191Y3847896D01*
X5863742Y3834231D01*
X5858865Y3825087D01*
X5853253Y3808882D01*
X5863336Y3808882D01*
X5863336Y3816654D01*
X5869228Y3829659D01*
X5882589Y3842207D01*
X5884164Y3849065D01*
X5892241Y3867353D01*
X5901893Y3884472D01*
X5909259Y3901592D01*
X5909564Y3914495D01*
X5913932Y3919270D01*
X5924194Y3925315D01*
X5941263Y3929583D01*
X5955284Y3929379D01*
X5957357Y3928719D01*
X5981547Y3928719D01*
X5987084Y3930802D01*
X5999835Y3932072D01*
X6004356Y3928414D01*
X5999835Y3924858D01*
X5990691Y3926230D01*
X5981547Y3928719D01*
X5957357Y3928719D01*
X5971235Y3924300D01*
X5975807Y3921658D01*
X5992977Y3915105D01*
X5999378Y3913530D01*
X6003747Y3903878D01*
X6003798Y3896207D01*
X6000191Y3882339D01*
X5994704Y3871417D01*
X5998210Y3858209D01*
X5998413Y3826205D01*
X5993231Y3812743D01*
X5983122Y3802583D01*
X5967831Y3795674D01*
X5936996Y3790848D01*
X5911850Y3790899D01*
X5882487Y3794658D01*
X5878728Y3797858D01*
X5869635Y3800551D01*
X5863336Y3808882D01*
X5853253Y3808882D01*
X5851347Y3803396D01*
X5851347Y3786022D01*
X5858611Y3786022D01*
X5861050Y3788460D01*
X5876442Y3783329D01*
X5893612Y3779824D01*
X5910732Y3777487D01*
X5959856Y3778504D01*
X5980379Y3784295D01*
X5993841Y3790340D01*
X6003645Y3797096D01*
X6009538Y3799332D01*
X6009538Y3791813D01*
X6004712Y3777640D01*
X5994755Y3767683D01*
X5982665Y3760876D01*
X5965545Y3755034D01*
X5934710Y3751122D01*
X5905957Y3752545D01*
X5885738Y3756050D01*
X5883300Y3757929D01*
X5872734Y3761892D01*
X5863488Y3771392D01*
X5858611Y3786022D01*
X5851347Y3786022D01*
X5851347Y3774846D01*
X5856986Y3765702D01*
X5865926Y3755999D01*
X5877610Y3749395D01*
X5897016Y3743502D01*
X5922162Y3740861D01*
X5948426Y3742334D01*
X5964428Y3745484D01*
X5982665Y3750462D01*
X5998260Y3758641D01*
X6009335Y3768598D01*
X6016548Y3781399D01*
X6018326Y3792524D01*
X6016548Y3813657D01*
X6011316Y3825087D01*
X6011773Y3931869D01*
X6018022Y3943858D01*
X6018682Y3969969D01*
X6021882Y3982669D01*
X6023406Y4036364D01*
X6026658Y4077462D01*
X6031230Y4141825D01*
X6032246Y4144873D01*
X6035852Y4189425D01*
X6039104Y4214520D01*
X6042660Y4252620D01*
X6043726Y4255668D01*
X6049568Y4301337D01*
X6053836Y4328363D01*
X6054953Y4329430D01*
X6056325Y4321911D01*
X6061913Y4279646D01*
X6065570Y4243070D01*
X6067602Y4229404D01*
X6069076Y4208830D01*
X6073343Y4172254D01*
X6074765Y4151731D01*
X6079134Y4106011D01*
X6082842Y4042054D01*
X6084722Y3978097D01*
X6087110Y3967835D01*
X6086092Y3956405D01*
X6095949Y3956405D01*
X6096508Y3963263D01*
X6099302Y3966159D01*
X6127191Y3963365D01*
X6173419Y3967124D01*
X6181902Y3970680D01*
X6186271Y3970680D01*
X6189370Y3966972D01*
X6189421Y3952798D01*
X6186373Y3947160D01*
X6179108Y3943299D01*
X6147155Y3939692D01*
X6117437Y3938473D01*
X6099200Y3943197D01*
X6096304Y3947160D01*
X6095949Y3956405D01*
X6086092Y3956405D01*
X6085789Y3953001D01*
X6088329Y3943654D01*
X6095288Y3934002D01*
X6096115Y3926738D01*
X6104331Y3926738D01*
X6104331Y3929634D01*
X6110173Y3931869D01*
X6112865Y3931665D01*
X6120587Y3929430D01*
X6116218Y3926382D01*
X6106261Y3923690D01*
X6104331Y3926738D01*
X6096115Y3926738D01*
X6097574Y3913479D01*
X6095311Y3905707D01*
X6102908Y3905707D01*
X6107176Y3910482D01*
X6118606Y3918864D01*
X6131001Y3925265D01*
X6149238Y3930700D01*
X6166561Y3930548D01*
X6185611Y3924757D01*
X6196279Y3917696D01*
X6199022Y3914140D01*
X6199124Y3904640D01*
X6197752Y3901135D01*
X6185966Y3906367D01*
X6169406Y3910431D01*
X6168136Y3912463D01*
X6159703Y3912412D01*
X6137757Y3901287D01*
X6131712Y3896055D01*
X6131712Y3894328D01*
X6138265Y3894328D01*
X6140297Y3896055D01*
X6146342Y3894734D01*
X6139688Y3888689D01*
X6138265Y3894328D01*
X6131712Y3894328D01*
X6131712Y3891076D01*
X6136284Y3885234D01*
X6136284Y3883101D01*
X6140754Y3879037D01*
X6146596Y3880510D01*
X6146596Y3884117D01*
X6158077Y3888943D01*
X6156502Y3892448D01*
X6155486Y3900576D01*
X6161532Y3903319D01*
X6170422Y3903319D01*
X6176264Y3901084D01*
X6176264Y3897782D01*
X6172860Y3894328D01*
X6179464Y3892905D01*
X6182817Y3889044D01*
X6184188Y3883456D01*
X6181699Y3880459D01*
X6166104Y3880459D01*
X6154013Y3877919D01*
X6151727Y3876090D01*
X6143701Y3875328D01*
X6142939Y3869893D01*
X6144908Y3865930D01*
X6150914Y3865930D01*
X6161989Y3872433D01*
X6163716Y3872484D01*
X6163716Y3871823D01*
X6173419Y3871823D01*
X6182614Y3873144D01*
X6188202Y3877056D01*
X6195669Y3877056D01*
X6195669Y3871620D01*
X6192266Y3868775D01*
X6173419Y3871823D01*
X6163716Y3871823D01*
X6163716Y3864711D01*
X6158280Y3863340D01*
X6150914Y3865930D01*
X6144908Y3865930D01*
X6150768Y3854043D01*
X6151727Y3854043D01*
X6154369Y3856736D01*
X6163818Y3858463D01*
X6168491Y3854653D01*
X6165291Y3852011D01*
X6156299Y3850640D01*
X6151727Y3854043D01*
X6150768Y3854043D01*
X6151118Y3853332D01*
X6151118Y3847642D01*
X6158280Y3846220D01*
X6191707Y3847490D01*
X6198920Y3848557D01*
X6200495Y3855618D01*
X6197092Y3858971D01*
X6192266Y3856431D01*
X6192266Y3854704D01*
X6172555Y3854246D01*
X6176264Y3858361D01*
X6176264Y3860800D01*
X6179870Y3862171D01*
X6197701Y3862171D01*
X6199225Y3866083D01*
X6197701Y3878173D01*
X6194552Y3878173D01*
X6194552Y3889451D01*
X6192418Y3895090D01*
X6197447Y3899814D01*
X6203492Y3894734D01*
X6223660Y3854754D01*
X6227673Y3845051D01*
X6227673Y3843172D01*
X6243675Y3826256D01*
X6245910Y3819347D01*
X6247892Y3808628D01*
X6243624Y3801618D01*
X6237376Y3799230D01*
X6230518Y3795776D01*
X6199682Y3790289D01*
X6172149Y3790238D01*
X6143701Y3795725D01*
X6128512Y3802634D01*
X6119215Y3811015D01*
X6114542Y3818534D01*
X6112306Y3830777D01*
X6110173Y3866184D01*
X6106261Y3877614D01*
X6103772Y3880764D01*
X6102908Y3905707D01*
X6095311Y3905707D01*
X6094018Y3901236D01*
X6094018Y3892448D01*
X6097422Y3876497D01*
X6097422Y3829659D01*
X6091783Y3813759D01*
X6088526Y3797655D01*
X6097320Y3797655D01*
X6100521Y3802024D01*
X6102045Y3799586D01*
X6115100Y3790950D01*
X6131102Y3784396D01*
X6155131Y3778250D01*
X6215684Y3778250D01*
X6241288Y3784600D01*
X6249365Y3788003D01*
X6251854Y3782618D01*
X6249212Y3772865D01*
X6238443Y3762095D01*
X6224828Y3755796D01*
X6199124Y3750259D01*
X6166815Y3750259D01*
X6139586Y3754932D01*
X6122162Y3761841D01*
X6108903Y3771137D01*
X6103518Y3778250D01*
X6098590Y3789476D01*
X6097320Y3797655D01*
X6088526Y3797655D01*
X6088126Y3795674D01*
X6090869Y3781094D01*
X6099403Y3766820D01*
X6112865Y3755745D01*
X6126581Y3749395D01*
X6144869Y3743451D01*
X6173419Y3739743D01*
X6203086Y3741115D01*
X6220866Y3744366D01*
X6237224Y3750614D01*
X6246926Y3757168D01*
X6256782Y3768191D01*
X6261963Y3782822D01*
X6261862Y3795369D01*
X6256121Y3817924D01*
X6248196Y3833063D01*
X6236817Y3849065D01*
X6219444Y3883304D01*
X6203188Y3918712D01*
X6200800Y3921861D01*
X6193942Y3928770D01*
X6185103Y3934358D01*
X6197142Y3944874D01*
X6200241Y3952341D01*
X6200241Y3975354D01*
X6205677Y3988409D01*
X6208471Y4005122D01*
X6206896Y4015790D01*
X6201156Y4032961D01*
X6195517Y4055770D01*
X6194298Y4112869D01*
X6196736Y4152849D01*
X6201359Y4217974D01*
X6203594Y4231690D01*
X6204813Y4241952D01*
X6207048Y4264812D01*
X6210503Y4284218D01*
X6213805Y4307027D01*
X6217361Y4323029D01*
X6219952Y4327956D01*
X6227114Y4318660D01*
X6233160Y4314190D01*
X6248806Y4313072D01*
X6265011Y4315358D01*
X6278168Y4321810D01*
X6289090Y4334052D01*
X6296761Y4351578D01*
X6296761Y4408678D01*
X6291376Y4431538D01*
X6287058Y4446371D01*
X6280962Y4469231D01*
X6279438Y4589119D01*
X6272022Y4624527D01*
X6269024Y4634839D01*
X6263081Y4662220D01*
X6258610Y4694224D01*
X6257036Y4716424D01*
X6260490Y4721606D01*
X6279642Y4741062D01*
X6284772Y4751578D01*
X6284671Y4761585D01*
X6279438Y4773676D01*
X6280454Y4780483D01*
X6285331Y4781448D01*
X6300266Y4782616D01*
X6317335Y4789474D01*
X6331000Y4796637D01*
X6345072Y4806645D01*
X6357924Y4820869D01*
X6365544Y4834686D01*
X6370269Y4850688D01*
X6371742Y4866792D01*
X6369253Y4884826D01*
X6364478Y4900930D01*
X6357874Y4916119D01*
X6348476Y4932934D01*
X6338824Y4947767D01*
X6324549Y4971338D01*
X6315862Y4990033D01*
X6309461Y5012842D01*
X6308547Y5048250D01*
X6310731Y5063134D01*
X6319418Y5116779D01*
X6320383Y5201310D01*
X6317996Y5229250D01*
X6314287Y5253837D01*
X6311087Y5269839D01*
X6305499Y5293817D01*
X6302146Y5306364D01*
X6296202Y5323890D01*
X6289090Y5341772D01*
X6277864Y5364632D01*
X6272784Y5373878D01*
X6261455Y5390896D01*
X6248501Y5406898D01*
X6235090Y5420664D01*
X6223660Y5430926D01*
X6214516Y5437886D01*
X6199073Y5448604D01*
X6177838Y5459628D01*
X6166561Y5463794D01*
X6164275Y5465318D01*
X6143701Y5472480D01*
X6128867Y5476189D01*
X6104890Y5480608D01*
X6082030Y5483758D01*
G37*
G36*
X6470548Y5459984D02*
G01*
X6472072Y5458460D01*
X6473596Y5459984D01*
G37*
G36*
X6533743Y5340096D02*
G01*
X6533743Y5338927D01*
X6534861Y5338927D01*
X6534861Y5340096D01*
G37*
G36*
X5906719Y5335625D02*
G01*
X5904534Y5334304D01*
X5905855Y5330952D01*
X5906719Y5330952D01*
G37*
G36*
X6436817Y5329783D02*
G01*
X6435394Y5327497D01*
X6437782Y5327497D01*
X6437782Y5329783D01*
G37*
G36*
X6723176Y5312714D02*
G01*
X6720840Y5311241D01*
X6723278Y5308803D01*
X6724700Y5310225D01*
G37*
G36*
X6140500Y5300675D02*
G01*
X6139586Y5293258D01*
X6140500Y5285841D01*
G37*
G36*
X6134912Y5278983D02*
G01*
X6133084Y5273243D01*
X6132880Y5265978D01*
X6135166Y5264556D01*
G37*
G36*
X6129020Y5261305D02*
G01*
X6127445Y5259527D01*
X6126073Y5252212D01*
X6128562Y5250688D01*
X6130544Y5253837D01*
X6130594Y5259730D01*
G37*
G36*
X6571742Y5243017D02*
G01*
X6552590Y5238343D01*
X6540042Y5232298D01*
X6530898Y5225389D01*
X6523228Y5217312D01*
X6519011Y5208219D01*
X6521450Y5205323D01*
X6524396Y5205323D01*
X6545834Y5215636D01*
X6570878Y5220106D01*
X6580936Y5220157D01*
X6601256Y5216245D01*
X6605117Y5218684D01*
X6605879Y5223865D01*
X6604508Y5230977D01*
X6598158Y5238597D01*
X6583425Y5242814D01*
G37*
G36*
X6750151Y5242966D02*
G01*
X6738061Y5239715D01*
X6732727Y5236260D01*
X6727647Y5228082D01*
X6726478Y5219039D01*
X6732981Y5216601D01*
X6748729Y5220157D01*
X6766153Y5220106D01*
X6787845Y5214721D01*
X6799275Y5208981D01*
X6808317Y5204155D01*
X6811518Y5207355D01*
X6809943Y5214518D01*
X6793585Y5231333D01*
X6777583Y5238597D01*
X6758178Y5242763D01*
G37*
G36*
X6570878Y5193944D02*
G01*
X6546900Y5193284D01*
X6534861Y5185867D01*
X6528054Y5178450D01*
X6520738Y5163667D01*
X6519773Y5145278D01*
X6523075Y5142534D01*
X6526784Y5145328D01*
X6530187Y5161838D01*
X6534607Y5171897D01*
X6543040Y5181193D01*
X6550812Y5183784D01*
X6553352Y5182209D01*
X6552184Y5176164D01*
X6548374Y5161330D01*
X6549339Y5137353D01*
X6551233Y5133136D01*
X6560870Y5133136D01*
X6562445Y5135626D01*
X6568744Y5135626D01*
X6570014Y5134356D01*
X6568846Y5129733D01*
X6562852Y5131206D01*
X6560870Y5133136D01*
X6551233Y5133136D01*
X6555638Y5123332D01*
X6564426Y5114747D01*
X6575501Y5113680D01*
X6587032Y5124094D01*
X6593687Y5138470D01*
X6593636Y5168188D01*
X6586677Y5183022D01*
X6577888Y5190744D01*
G37*
G36*
X6780987Y5193741D02*
G01*
X6760057Y5193334D01*
X6750354Y5186476D01*
X6743090Y5175859D01*
X6740296Y5161686D01*
X6740245Y5143042D01*
X6742992Y5131358D01*
X6759854Y5131358D01*
X6759854Y5135372D01*
X6763105Y5136642D01*
X6766763Y5133898D01*
X6763105Y5128666D01*
X6759854Y5131358D01*
X6742992Y5131358D01*
X6749846Y5120233D01*
X6756653Y5114747D01*
X6767677Y5113680D01*
X6776720Y5120944D01*
X6782460Y5131612D01*
X6786168Y5148072D01*
X6786067Y5159044D01*
X6781749Y5179618D01*
X6784746Y5182717D01*
X6789267Y5181244D01*
X6797852Y5172964D01*
X6804202Y5159502D01*
X6805777Y5143703D01*
X6808673Y5141315D01*
X6811822Y5145125D01*
X6811670Y5165090D01*
X6805218Y5178247D01*
X6796989Y5186680D01*
X6788200Y5191963D01*
G37*
G36*
X5843727Y5132781D02*
G01*
X5842609Y5129936D01*
X5843727Y5127091D01*
G37*
G36*
X6454749Y5131612D02*
G01*
X6453581Y5128768D01*
X6454749Y5125923D01*
G37*
G36*
X6675628Y5105958D02*
G01*
X6674053Y5095544D01*
X6670802Y5094274D01*
X6670802Y5092649D01*
X6677406Y5093614D01*
X6678574Y5099659D01*
X6677355Y5105958D01*
G37*
G36*
X6058763Y5102504D02*
G01*
X6057290Y5100116D01*
X6060033Y5096814D01*
X6065215Y5096814D01*
X6067856Y5100015D01*
X6061506Y5102352D01*
G37*
G36*
X6585153Y5083098D02*
G01*
X6585153Y5081981D01*
X6586270Y5081981D01*
X6586270Y5083098D01*
G37*
G36*
X6012992Y5060238D02*
G01*
X6015278Y5054244D01*
X6024930Y5045506D01*
X6027064Y5045405D01*
X6031941Y5040833D01*
X6043218Y5039410D01*
X6047435Y5035702D01*
X6072479Y5035702D01*
X6074714Y5039715D01*
X6083554Y5039715D01*
X6093460Y5047945D01*
X6095136Y5050536D01*
X6095034Y5055108D01*
X6092952Y5049977D01*
X6087262Y5049977D01*
X6084925Y5045557D01*
X6072327Y5042763D01*
X6072327Y5039715D01*
X6060338Y5039512D01*
X6047790Y5039817D01*
X6045454Y5042865D01*
X6032195Y5045608D01*
X6030976Y5048758D01*
X6023203Y5051602D01*
X6023203Y5054600D01*
X6016091Y5056022D01*
X6014974Y5060238D01*
G37*
G36*
X6616446Y5054549D02*
G01*
X6617360Y5046421D01*
X6625386Y5038648D01*
X6634988Y5033975D01*
X6663385Y5034076D01*
X6678726Y5036058D01*
X6682384Y5039715D01*
X6692392Y5039715D01*
X6703923Y5042154D01*
X6703923Y5044084D01*
X6715861Y5048046D01*
X6711340Y5049723D01*
X6704482Y5048453D01*
X6702196Y5045659D01*
X6679742Y5043068D01*
X6676644Y5039969D01*
X6645757Y5038344D01*
X6633870Y5039969D01*
X6623100Y5047691D01*
X6620256Y5054549D01*
G37*
G36*
X5843473Y5020868D02*
G01*
X5842660Y5007813D01*
X5843473Y4993436D01*
G37*
G36*
X6277508Y5016296D02*
G01*
X6276644Y5007711D01*
X6277508Y4999177D01*
G37*
G36*
X5877763Y5001463D02*
G01*
X5875883Y4993436D01*
X5877458Y4969459D01*
X5879185Y4979720D01*
G37*
G36*
X6283299Y4980889D02*
G01*
X6281521Y4976317D01*
X6281369Y4963769D01*
X6282893Y4954625D01*
X6284315Y4961483D01*
G37*
G36*
X5849467Y4978603D02*
G01*
X5847029Y4972862D01*
X5846826Y4942687D01*
X5849620Y4939893D01*
G37*
G36*
X5809335Y4963769D02*
G01*
X5807151Y4941214D01*
X5809488Y4936337D01*
G37*
G36*
X6226098Y4955743D02*
G01*
X6224473Y4950053D01*
X6224371Y4929479D01*
X6226098Y4925060D01*
X6227775Y4929428D01*
G37*
G36*
X6288989Y4950764D02*
G01*
X6287109Y4947767D01*
X6287109Y4939741D01*
X6289040Y4936642D01*
X6290411Y4938877D01*
G37*
G36*
X5877763Y4942027D02*
G01*
X5876036Y4932934D01*
X5875883Y4922215D01*
X5877966Y4920945D01*
X5879541Y4934508D01*
G37*
G36*
X5843371Y4939385D02*
G01*
X5841796Y4931816D01*
X5840272Y4916373D01*
X5843625Y4916373D01*
X5845048Y4923485D01*
X5845048Y4937658D01*
G37*
G36*
X6292748Y4934610D02*
G01*
X6292799Y4926076D01*
X6294932Y4922723D01*
X6296456Y4924247D01*
X6294882Y4934610D01*
G37*
G36*
X5803595Y4934051D02*
G01*
X5801817Y4929479D01*
X5801664Y4920945D01*
X5803696Y4920945D01*
X5805220Y4929022D01*
G37*
G36*
X6297625Y4923231D02*
G01*
X6299301Y4913985D01*
X6300774Y4912563D01*
X6302146Y4913934D01*
X6300571Y4923231D01*
G37*
G36*
X6232093Y4922113D02*
G01*
X6229959Y4920792D01*
X6230112Y4913477D01*
X6231839Y4909058D01*
X6233617Y4911953D01*
G37*
G36*
X5797956Y4918862D02*
G01*
X5795975Y4915763D01*
X5795924Y4909616D01*
X5797956Y4908397D01*
X5799277Y4916728D01*
G37*
G36*
X5872073Y4918659D02*
G01*
X5870194Y4915763D01*
X5870194Y4908346D01*
X5872226Y4908346D01*
X5873597Y4911953D01*
X5873597Y4917135D01*
G37*
G36*
X5837123Y4916373D02*
G01*
X5835751Y4910074D01*
X5833668Y4904943D01*
X5837936Y4904943D01*
X5839307Y4910074D01*
X5839358Y4916373D01*
G37*
G36*
X6306210Y4912766D02*
G01*
X6303365Y4911648D01*
X6304838Y4904384D01*
X6307632Y4904384D01*
X6307531Y4906060D01*
G37*
G36*
X6237681Y4908346D02*
G01*
X6235649Y4907076D01*
X6235649Y4902860D01*
X6237020Y4899202D01*
X6239103Y4899202D01*
X6239103Y4904740D01*
G37*
G36*
X5867908Y4907381D02*
G01*
X5865063Y4906467D01*
X5864250Y4900930D01*
X5861608Y4899253D01*
X5866485Y4899202D01*
X5867857Y4904384D01*
G37*
G36*
X5791606Y4906060D02*
G01*
X5790133Y4900015D01*
X5792266Y4897882D01*
X5793181Y4906060D01*
G37*
G36*
X5833618Y4903978D02*
G01*
X5830773Y4903063D01*
X5828639Y4895951D01*
X5824474Y4894884D01*
X5824474Y4890617D01*
X5817666Y4883099D01*
X5817666Y4878933D01*
X5813094Y4877714D01*
X5812485Y4870297D01*
X5815228Y4869383D01*
X5817717Y4878679D01*
X5820816Y4878679D01*
X5822238Y4882286D01*
X5822238Y4886655D01*
X5826607Y4886655D01*
X5829096Y4894173D01*
X5833618Y4898034D01*
G37*
G36*
X6310122Y4902657D02*
G01*
X6308902Y4899456D01*
X6312001Y4895240D01*
X6313576Y4896815D01*
X6312154Y4902657D01*
G37*
G36*
X5860999Y4898440D02*
G01*
X5857798Y4894072D01*
X5859881Y4891887D01*
X5862472Y4894478D01*
G37*
G36*
X6241389Y4896916D02*
G01*
X6241389Y4891786D01*
X6243370Y4888687D01*
X6244996Y4891379D01*
X6243624Y4896916D01*
G37*
G36*
X5786628Y4895240D02*
G01*
X5784291Y4888738D01*
X5786678Y4883810D01*
G37*
G36*
X6314440Y4894630D02*
G01*
X6315913Y4888382D01*
X6317691Y4886401D01*
X6320028Y4887874D01*
X6317640Y4894630D01*
G37*
G36*
X5855157Y4891328D02*
G01*
X5852058Y4888788D01*
X5853277Y4885537D01*
X5855106Y4885537D01*
X5856478Y4889144D01*
G37*
G36*
X6249060Y4887976D02*
G01*
X6246774Y4885690D01*
X6248349Y4879492D01*
X6250330Y4881524D01*
G37*
G36*
X6321450Y4885537D02*
G01*
X6320231Y4883607D01*
X6322517Y4875326D01*
X6325717Y4876546D01*
X6324904Y4879238D01*
X6323533Y4885537D01*
G37*
G36*
X5849366Y4884572D02*
G01*
X5847029Y4882235D01*
X5848654Y4878070D01*
X5850890Y4882083D01*
G37*
G36*
X5780938Y4881524D02*
G01*
X5779008Y4876749D01*
X5779008Y4837176D01*
X5780938Y4832400D01*
X5781192Y4835855D01*
X5781294Y4878070D01*
G37*
G36*
X6254800Y4877511D02*
G01*
X6252768Y4876241D01*
X6252768Y4872024D01*
X6254242Y4868214D01*
X6255816Y4870704D01*
G37*
G36*
X5843727Y4876952D02*
G01*
X5841390Y4870450D01*
X5843930Y4867910D01*
G37*
G36*
X6327241Y4875225D02*
G01*
X6326073Y4872177D01*
X6328410Y4861255D01*
X6330391Y4864404D01*
X6330442Y4870094D01*
X6329019Y4875225D01*
G37*
G36*
X5809386Y4868621D02*
G01*
X5807405Y4865522D01*
X5807354Y4859375D01*
X5809386Y4858105D01*
X5810910Y4866132D01*
G37*
G36*
X6260795Y4865319D02*
G01*
X6259423Y4863947D01*
X6259423Y4855667D01*
X6260795Y4854295D01*
G37*
G36*
X5837885Y4860950D02*
G01*
X5836920Y4855819D01*
X5837885Y4850688D01*
G37*
G36*
X6334963Y4858664D02*
G01*
X6332778Y4855260D01*
X6332880Y4828997D01*
X6334861Y4824425D01*
G37*
G36*
X5803544Y4855260D02*
G01*
X5801461Y4847285D01*
X5803341Y4832400D01*
X5804509Y4848402D01*
G37*
G36*
X6266180Y4843830D02*
G01*
X6265214Y4838700D01*
X6266180Y4833569D01*
G37*
G36*
X5786526Y4827828D02*
G01*
X5785510Y4823866D01*
X5786475Y4818684D01*
G37*
G36*
X6260795Y4769408D02*
G01*
X6259271Y4767884D01*
X6260795Y4766360D01*
G37*
G36*
X5854192Y4766716D02*
G01*
X5854192Y4762195D01*
X5858764Y4762195D01*
X5854750Y4766564D01*
G37*
G36*
X6253937Y4763312D02*
G01*
X6253937Y4758740D01*
X6254800Y4758740D01*
X6256020Y4763312D01*
G37*
G36*
X6247079Y4757623D02*
G01*
X6247130Y4755896D01*
X6249314Y4752441D01*
X6249365Y4755388D01*
X6254496Y4757470D01*
G37*
G36*
X6474358Y4718761D02*
G01*
X6474358Y4716729D01*
X6477762Y4715408D01*
X6489192Y4713884D01*
X6489192Y4717491D01*
X6484061Y4718456D01*
G37*
G36*
X5942888Y4466386D02*
G01*
X5944412Y4464862D01*
X5945936Y4466386D01*
G37*
G36*
X6816394Y4409236D02*
G01*
X6819392Y4407306D01*
X6824980Y4408373D01*
X6824980Y4409236D01*
G37*
G36*
X6481775Y4408982D02*
G01*
X6485788Y4407966D01*
X6489750Y4408982D01*
G37*
G36*
X6173419Y4408982D02*
G01*
X6177381Y4407966D01*
X6181394Y4408982D01*
G37*
G36*
X5925566Y4408982D02*
G01*
X5929579Y4407966D01*
X5933592Y4408982D01*
G37*
G36*
X6497980Y4403547D02*
G01*
X6499352Y4402175D01*
X6502349Y4403394D01*
G37*
G36*
X6802729Y4403293D02*
G01*
X6806692Y4402226D01*
X6810705Y4403293D01*
G37*
G36*
X6066383Y4393438D02*
G01*
X6063030Y4392117D01*
X6060541Y4392117D01*
X6064707Y4387545D01*
X6066383Y4387545D01*
X6067755Y4391202D01*
G37*
G36*
X6046622Y4391812D02*
G01*
X6051804Y4390847D01*
X6056934Y4391812D01*
G37*
G36*
X6066637Y4370832D02*
G01*
X6065113Y4369308D01*
X6066637Y4367784D01*
G37*
G36*
X6791655Y4356150D02*
G01*
X6790537Y4353356D01*
X6791604Y4349292D01*
G37*
G36*
X6767322Y4351883D02*
G01*
X6771284Y4350867D01*
X6775297Y4351883D01*
G37*
G36*
X6512052Y4348886D02*
G01*
X6509766Y4347464D01*
X6509816Y4342434D01*
X6512001Y4339031D01*
G37*
G36*
X6082588Y4346448D02*
G01*
X6082588Y4345279D01*
X6083757Y4345279D01*
X6083757Y4346448D01*
G37*
G36*
X6796430Y4340758D02*
G01*
X6796430Y4339590D01*
X6797548Y4339590D01*
X6797548Y4340758D01*
G37*
G36*
X6561734Y4340453D02*
G01*
X6565747Y4339437D01*
X6569709Y4340453D01*
G37*
G36*
X6506057Y4337354D02*
G01*
X6503060Y4334865D01*
X6504025Y4331614D01*
X6505549Y4327601D01*
X6507073Y4334459D01*
G37*
G36*
X6080455Y4336186D02*
G01*
X6079134Y4334002D01*
X6083604Y4331614D01*
X6085027Y4333900D01*
X6083604Y4336186D01*
G37*
G36*
X6087313Y4330446D02*
G01*
X6086043Y4328363D01*
X6088888Y4327347D01*
X6091936Y4328515D01*
X6088888Y4330446D01*
G37*
G36*
X6802120Y4329328D02*
G01*
X6802120Y4328160D01*
X6803288Y4328160D01*
X6803288Y4329328D01*
G37*
G36*
X6704482Y4328972D02*
G01*
X6710730Y4328007D01*
X6718198Y4328972D01*
G37*
G36*
X6497015Y4325874D02*
G01*
X6497777Y4320946D01*
X6500317Y4320082D01*
X6501790Y4323791D01*
X6500469Y4325874D01*
G37*
G36*
X6687108Y4324756D02*
G01*
X6672935Y4323283D01*
X6675932Y4321352D01*
X6689648Y4321352D01*
X6698691Y4322826D01*
X6694220Y4324604D01*
G37*
G36*
X6100876Y4324451D02*
G01*
X6095187Y4323334D01*
X6095187Y4322724D01*
X6100876Y4321657D01*
G37*
G36*
X6808978Y4319422D02*
G01*
X6807453Y4317898D01*
X6808978Y4316374D01*
G37*
G36*
X6523228Y4307840D02*
G01*
X6520942Y4305554D01*
X6522567Y4302861D01*
X6524853Y4305147D01*
G37*
G36*
X6593890Y4295038D02*
G01*
X6595262Y4293666D01*
X6598259Y4294886D01*
G37*
G36*
X6698030Y4280204D02*
G01*
X6698792Y4276293D01*
X6706209Y4274769D01*
X6706209Y4277461D01*
X6699910Y4279950D01*
G37*
G36*
X6713524Y4272229D02*
G01*
X6706768Y4272127D01*
X6710984Y4269689D01*
G37*
G36*
X6716115Y4266488D02*
G01*
X6717639Y4264964D01*
X6719163Y4266488D01*
G37*
G36*
X6020612Y4257649D02*
G01*
X6018530Y4253941D01*
X6020104Y4251350D01*
X6022187Y4255109D01*
G37*
G36*
X6014110Y4249369D02*
G01*
X6014110Y4245965D01*
X6014974Y4245965D01*
X6016294Y4249369D01*
G37*
G36*
X6008370Y4237939D02*
G01*
X6008370Y4236821D01*
X6009538Y4236821D01*
X6009538Y4237939D01*
G37*
G36*
X5946851Y4176268D02*
G01*
X5945530Y4174134D01*
X5958128Y4172610D01*
X5968949Y4174490D01*
X5956401Y4175912D01*
G37*
G36*
X6528054Y4089450D02*
G01*
X6528054Y4082643D01*
X6534708Y4082643D01*
X6539585Y4089450D01*
G37*
G36*
X6548018Y4089146D02*
G01*
X6553149Y4088180D01*
X6558280Y4089146D01*
G37*
G36*
X6791706Y4084929D02*
G01*
X6789521Y4083608D01*
X6790893Y4081424D01*
X6793026Y4082796D01*
G37*
G36*
X6785914Y4079392D02*
G01*
X6783425Y4076954D01*
X6784848Y4075531D01*
X6787337Y4077055D01*
G37*
G36*
X6098743Y4079189D02*
G01*
X6097778Y4077462D01*
X6100775Y4070604D01*
X6100876Y4079189D01*
G37*
G36*
X6780377Y4073398D02*
G01*
X6776872Y4072026D01*
X6779107Y4069791D01*
X6781596Y4071365D01*
G37*
G36*
X6106312Y4070197D02*
G01*
X6104077Y4068013D01*
X6105702Y4062984D01*
X6107684Y4064965D01*
G37*
G36*
X6774738Y4067454D02*
G01*
X6768998Y4066387D01*
X6768998Y4065473D01*
X6774738Y4065473D01*
G37*
G36*
X6760870Y4060901D02*
G01*
X6762242Y4058716D01*
X6765594Y4060037D01*
X6765594Y4060901D01*
G37*
G36*
X6110325Y4060901D02*
G01*
X6111443Y4055211D01*
X6112306Y4055211D01*
X6112306Y4060901D01*
G37*
G36*
X6116878Y4049522D02*
G01*
X6116878Y4048353D01*
X6117996Y4048353D01*
X6117996Y4049522D01*
G37*
G36*
X6703822Y4011828D02*
G01*
X6702602Y4008577D01*
X6706057Y4002125D01*
X6712000Y3995826D01*
X6714032Y3995826D01*
X6717639Y3994454D01*
X6717639Y3999229D01*
X6714185Y3999229D01*
X6714185Y4001617D01*
X6706209Y4009593D01*
X6706209Y4011828D01*
G37*
G36*
X5946698Y3912260D02*
G01*
X5939282Y3909974D01*
X5932424Y3908196D01*
X5917590Y3903116D01*
X5914796Y3900779D01*
X5918047Y3894480D01*
X5914796Y3890162D01*
X5914745Y3876344D01*
X5911392Y3871925D01*
X5911381Y3871264D01*
X5921552Y3871264D01*
X5921552Y3877919D01*
X5928715Y3879342D01*
X5931560Y3879342D01*
X5937656Y3873246D01*
X5936792Y3870756D01*
X5927852Y3868877D01*
X5921552Y3871264D01*
X5911381Y3871264D01*
X5911291Y3865727D01*
X5915710Y3863340D01*
X5925413Y3863340D01*
X5939637Y3860850D01*
X5940704Y3856736D01*
X5952439Y3855110D01*
X5951118Y3853078D01*
X5943854Y3853078D01*
X5936996Y3856685D01*
X5923991Y3857040D01*
X5916879Y3851757D01*
X5908446Y3848760D01*
X5915304Y3847033D01*
X5923330Y3843020D01*
X5927750Y3846220D01*
X5946140Y3846220D01*
X5954572Y3848557D01*
X5959246Y3854500D01*
X5959246Y3864356D01*
X5950762Y3865067D01*
X5948070Y3870502D01*
X5944971Y3872433D01*
X5948781Y3872484D01*
X5952185Y3873804D01*
X5953709Y3869029D01*
X5962599Y3864711D01*
X5964783Y3867353D01*
X5966206Y3873042D01*
X5963259Y3876751D01*
X5940348Y3880459D01*
X5935370Y3880459D01*
X5933592Y3883406D01*
X5927140Y3887470D01*
X5928004Y3890162D01*
X5935878Y3894074D01*
X5948426Y3894480D01*
X5936284Y3895953D01*
X5934151Y3899306D01*
X5934151Y3901135D01*
X5942482Y3904640D01*
X5949746Y3903268D01*
X5953658Y3900424D01*
X5951626Y3894886D01*
X5955198Y3888587D01*
X5967272Y3888587D01*
X5967272Y3892905D01*
X5969304Y3894175D01*
X5970574Y3889197D01*
X5969406Y3887266D01*
X5967272Y3888587D01*
X5955198Y3888587D01*
X5959246Y3887165D01*
X5965240Y3879342D01*
X5969050Y3879342D01*
X5978550Y3889044D01*
X5980023Y3895140D01*
X5972403Y3899052D01*
X5971235Y3900525D01*
X5951829Y3910177D01*
X5947968Y3910177D01*
G37*
G36*
X508000Y0D02*
G01*
X508000Y-762000D01*
X8636000Y-762000D01*
X8636000Y0D01*
G37*
D10*
G01*
X3556001Y1269998D03*
D11*
G01*
X3556000Y1524000D03*
G01*
X3556000Y1778000D03*
G01*
X3556000Y2032000D03*
G01*
X3556000Y2286000D03*
G01*
X3556000Y2540000D03*
G01*
X3556000Y2794000D03*
G01*
X3556000Y3048000D03*
G01*
X3556000Y3302000D03*
G01*
X3556000Y3556000D03*
G01*
X3556000Y3810000D03*
G01*
X3556000Y4064000D03*
G01*
X3556000Y4318000D03*
G01*
X3556000Y4572000D03*
G01*
X5080000Y4572000D03*
G01*
X5080000Y4318000D03*
G01*
X5080000Y4064000D03*
G01*
X5080000Y3810000D03*
G01*
X5080000Y3556000D03*
G01*
X5080000Y3302000D03*
G01*
X5080000Y3048000D03*
G01*
X5080000Y2794000D03*
G01*
X5080000Y2540000D03*
G01*
X5080000Y2286000D03*
G01*
X5080000Y2032000D03*
G01*
X5080000Y1778000D03*
G01*
X5080000Y1524000D03*
G01*
X5080000Y1270000D03*
D10*
G01*
X2032001Y1269998D03*
D11*
G01*
X2032000Y1778000D03*
G01*
X2032000Y2032000D03*
G01*
X2032000Y2286000D03*
G01*
X2032000Y2540000D03*
G01*
X2032000Y2794000D03*
G01*
X2032000Y3048000D03*
G01*
X2794000Y3048000D03*
G01*
X2794000Y2540000D03*
G01*
X2794000Y2286000D03*
G01*
X2794000Y1524000D03*
G01*
X2794000Y1270000D03*
D10*
G01*
X5842001Y1269998D03*
D11*
G01*
X5842000Y1524000D03*
G01*
X5842000Y1778000D03*
G01*
X5842000Y2032000D03*
G01*
X5842000Y2286000D03*
G01*
X5842000Y2540000D03*
G01*
X5842000Y2794000D03*
G01*
X6604000Y2794000D03*
D10*
G01*
X6604001Y2539998D03*
D11*
G01*
X6604000Y2286000D03*
G01*
X6604000Y2032000D03*
G01*
X6604000Y1778000D03*
G01*
X6604000Y1524000D03*
G01*
X6604000Y1270000D03*
G01*
X7874000Y1270000D03*
D10*
G01*
X7112001Y1269998D03*
D11*
G01*
X7112000Y1524000D03*
G01*
X7874000Y1524000D03*
G01*
X7874000Y1778000D03*
G01*
X7112000Y1778000D03*
G01*
X7112000Y2032000D03*
G01*
X7874000Y2032000D03*
G01*
X7874000Y2286000D03*
G01*
X7112000Y2286000D03*
G01*
X7112000Y2540000D03*
G01*
X7874000Y2540000D03*
G01*
X7874000Y2794000D03*
G01*
X7112000Y2794000D03*
G01*
X9144000Y1270000D03*
D10*
G01*
X8382001Y1269998D03*
D11*
G01*
X8382000Y1524000D03*
G01*
X9144000Y1524000D03*
G01*
X9144000Y1778000D03*
G01*
X8382000Y1778000D03*
G01*
X8382000Y2032000D03*
G01*
X9144000Y2032000D03*
G01*
X9144000Y2286000D03*
G01*
X8382000Y2286000D03*
G01*
X8382000Y2540000D03*
G01*
X9144000Y2540000D03*
G01*
X9144000Y2794000D03*
G01*
X8382000Y2794000D03*
D12*
G01*
X2159000Y635000D03*
G01*
X2413000Y635000D03*
G01*
X2667000Y635000D03*
G01*
X2921000Y635000D03*
G01*
X3175000Y635000D03*
G01*
X3175000Y381000D03*
G01*
X2921000Y381000D03*
G01*
X2667000Y381000D03*
G01*
X2413000Y381000D03*
G01*
X2159000Y381000D03*
D13*
G01*
X9144000Y3809998D03*
D14*
G01*
X8890000Y3810000D03*
G01*
X8636000Y3810000D03*
G01*
X8382000Y3810000D03*
G01*
X8128000Y3810000D03*
G01*
X7874000Y3810000D03*
G01*
X7620000Y3810000D03*
G01*
X7620000Y4572000D03*
D13*
G01*
X8128000Y4571998D03*
G01*
X8382000Y4571998D03*
D14*
G01*
X8636000Y4572000D03*
G01*
X8890000Y4572000D03*
G01*
X9144000Y4572000D03*
D11*
G01*
X5334000Y5588000D03*
D15*
G01*
X4572001Y5588000D03*
D11*
G01*
X5334000Y5842000D03*
G01*
X4572000Y5842000D03*
G01*
X5334000Y6096000D03*
G01*
X4572000Y6096000D03*
G01*
X5334000Y6350000D03*
G01*
X4572000Y6350000D03*
G01*
X5334000Y6604000D03*
G01*
X4572000Y6604000D03*
G01*
X5334000Y6858000D03*
G01*
X4572000Y6858000D03*
G01*
X5334000Y7112000D03*
G01*
X4572000Y7112000D03*
G01*
X5334000Y7366000D03*
G01*
X4572000Y7366000D03*
G01*
X5334000Y7620000D03*
G01*
X4572000Y7620000D03*
G01*
X5334000Y7874000D03*
G01*
X4572000Y7874000D03*
D15*
G01*
X9144001Y5588000D03*
G01*
X8382001Y5588000D03*
G01*
X9144001Y5842000D03*
D11*
G01*
X8382000Y5842000D03*
D15*
G01*
X9144001Y6096000D03*
D11*
G01*
X8382000Y6096000D03*
G01*
X9144000Y6350000D03*
G01*
X8382000Y6350000D03*
G01*
X9144000Y6604000D03*
G01*
X8382000Y6604000D03*
G01*
X9144000Y6858000D03*
G01*
X8382000Y6858000D03*
G01*
X9144000Y7112000D03*
G01*
X8382000Y7112000D03*
G01*
X9144000Y7366000D03*
G01*
X8382000Y7366000D03*
G01*
X9144000Y7620000D03*
G01*
X8382000Y7620000D03*
G01*
X9144000Y7874000D03*
G01*
X8382000Y7874000D03*
D15*
G01*
X7874001Y5588000D03*
G01*
X7112001Y5588000D03*
G01*
X7874001Y5842000D03*
G01*
X7112001Y5842000D03*
D11*
G01*
X7874000Y6096000D03*
D15*
G01*
X7112001Y6096000D03*
D11*
G01*
X7874000Y6350000D03*
G01*
X7112000Y6350000D03*
G01*
X7874000Y6604000D03*
G01*
X7112000Y6604000D03*
G01*
X7874000Y6858000D03*
G01*
X7112000Y6858000D03*
G01*
X7874000Y7112000D03*
G01*
X7112000Y7112000D03*
G01*
X7874000Y7366000D03*
G01*
X7112000Y7366000D03*
G01*
X7874000Y7620000D03*
G01*
X7112000Y7620000D03*
G01*
X7874000Y7874000D03*
G01*
X7112000Y7874000D03*
G01*
X6604000Y5588000D03*
D15*
G01*
X5842001Y5588000D03*
D11*
G01*
X6604000Y5842000D03*
G01*
X5842000Y5842000D03*
G01*
X6604000Y6096000D03*
G01*
X5842000Y6096000D03*
G01*
X6604000Y6350000D03*
G01*
X5842000Y6350000D03*
G01*
X6604000Y6604000D03*
G01*
X5842000Y6604000D03*
G01*
X6604000Y6858000D03*
G01*
X5842000Y6858000D03*
G01*
X6604000Y7112000D03*
G01*
X5842000Y7112000D03*
G01*
X6604000Y7366000D03*
G01*
X5842000Y7366000D03*
D15*
G01*
X6604001Y7620000D03*
D11*
G01*
X5842000Y7620000D03*
G01*
X6604000Y7874000D03*
D15*
G01*
X5842001Y7874000D03*
D11*
G01*
X4064000Y5588000D03*
D15*
G01*
X3302001Y5588000D03*
D11*
G01*
X4064000Y5842000D03*
G01*
X3302000Y5842000D03*
G01*
X4064000Y6096000D03*
G01*
X3302000Y6096000D03*
G01*
X4064000Y6350000D03*
G01*
X3302000Y6350000D03*
G01*
X4064000Y6604000D03*
G01*
X3302000Y6604000D03*
G01*
X4064000Y6858000D03*
G01*
X3302000Y6858000D03*
G01*
X4064000Y7112000D03*
G01*
X3302000Y7112000D03*
G01*
X4064000Y7366000D03*
G01*
X3302000Y7366000D03*
G01*
X4064000Y7620000D03*
G01*
X3302000Y7620000D03*
G01*
X4064000Y7874000D03*
G01*
X3302000Y7874000D03*
G01*
X2794000Y5588000D03*
D15*
G01*
X2032001Y5588000D03*
D11*
G01*
X2794000Y5842000D03*
G01*
X2032000Y5842000D03*
G01*
X2794000Y6096000D03*
G01*
X2032000Y6096000D03*
G01*
X2794000Y6350000D03*
G01*
X2032000Y6350000D03*
G01*
X2794000Y6604000D03*
G01*
X2032000Y6604000D03*
G01*
X2794000Y6858000D03*
G01*
X2032000Y6858000D03*
G01*
X2794000Y7112000D03*
G01*
X2032000Y7112000D03*
G01*
X2794000Y7366000D03*
G01*
X2032000Y7366000D03*
G01*
X2794000Y7620000D03*
G01*
X2032000Y7620000D03*
G01*
X2794000Y7874000D03*
G01*
X2032000Y7874000D03*
D17*
G01*
X1016001Y9905998D03*
D18*
G01*
X1270000Y9906000D03*
G01*
X1016000Y9652000D03*
G01*
X1270000Y9652000D03*
G01*
X1016000Y9398000D03*
G01*
X1270000Y9398000D03*
G01*
X1270000Y9144000D03*
G01*
X1270000Y8890000D03*
D17*
G01*
X1016001Y8635998D03*
D18*
G01*
X1270000Y8636000D03*
D17*
G01*
X1016001Y8381998D03*
G01*
X1016001Y8127998D03*
D18*
G01*
X1270000Y8128000D03*
D17*
G01*
X1016001Y7873998D03*
D18*
G01*
X1270000Y7874000D03*
D17*
G01*
X1016001Y7619998D03*
D18*
G01*
X1016000Y7366000D03*
D17*
G01*
X1270001Y7365998D03*
D18*
G01*
X1016000Y7112000D03*
G01*
X1270000Y7112000D03*
G01*
X1016000Y6858000D03*
G01*
X1270000Y6858000D03*
G01*
X1016000Y6604000D03*
G01*
X1270000Y6604000D03*
G01*
X1016000Y6350000D03*
G01*
X1270000Y6350000D03*
G01*
X1016000Y6096000D03*
G01*
X1270000Y6096000D03*
G01*
X1016000Y5842000D03*
G01*
X1270000Y5842000D03*
G01*
X1016000Y5588000D03*
G01*
X1270000Y5588000D03*
G01*
X1016000Y5334000D03*
G01*
X1270000Y5334000D03*
D17*
G01*
X1016001Y5079998D03*
D18*
G01*
X1269644Y5080000D03*
D17*
G01*
X2286001Y8381998D03*
D18*
G01*
X2794000Y8382000D03*
D17*
G01*
X3556001Y8381998D03*
D18*
G01*
X4064000Y8382000D03*
D17*
G01*
X6096001Y8381998D03*
D18*
G01*
X6604000Y8382000D03*
D17*
G01*
X7366001Y8381998D03*
D18*
G01*
X7874000Y8382000D03*
D17*
G01*
X8636001Y8381998D03*
D18*
G01*
X9144000Y8382000D03*
D17*
G01*
X4826001Y8381998D03*
D18*
G01*
X5334000Y8382000D03*
G01*
X7112000Y4572000D03*
D17*
G01*
X7112001Y4063998D03*
D18*
G01*
X5588000Y4572000D03*
D17*
G01*
X5588001Y4063998D03*
D18*
G01*
X2794000Y3556000D03*
D17*
G01*
X2286001Y3555998D03*
D18*
G01*
X7874000Y3302000D03*
D17*
G01*
X7366001Y3301998D03*
D18*
G01*
X6604000Y3302000D03*
D17*
G01*
X6096001Y3301998D03*
D18*
G01*
X9144000Y3302000D03*
D17*
G01*
X8636001Y3301998D03*
D19*
G01*
X9144000Y8763000D03*
G01*
X9144000Y9017000D03*
G01*
X9144000Y9271000D03*
G01*
X9144000Y9525000D03*
G01*
X9144000Y9779000D03*
D20*
G01*
X8763000Y9779000D03*
G01*
X8763000Y9017000D03*
D14*
G01*
X8763000Y8763000D03*
G01*
X8509000Y8763000D03*
D20*
G01*
X8509000Y9017000D03*
G01*
X8509000Y9779000D03*
G01*
X8255000Y9779000D03*
G01*
X8001000Y9779000D03*
G01*
X7747000Y9779000D03*
G01*
X7493000Y9779000D03*
G01*
X7239000Y9779000D03*
G01*
X6985000Y9779000D03*
G01*
X6985000Y9017000D03*
G01*
X7239000Y9017000D03*
G01*
X7493000Y9017000D03*
G01*
X7747000Y9017000D03*
G01*
X8001000Y9017000D03*
G01*
X8255000Y9017000D03*
D14*
G01*
X8255000Y8763000D03*
G01*
X8001000Y8763000D03*
G01*
X7747000Y8763000D03*
G01*
X7493000Y8763000D03*
G01*
X7239000Y8763000D03*
G01*
X6985000Y8763000D03*
G01*
X6223000Y8763000D03*
G01*
X5969000Y8763000D03*
G01*
X5715000Y8763000D03*
G01*
X5461000Y8763000D03*
G01*
X5207000Y8763000D03*
G01*
X4953000Y8763000D03*
D20*
G01*
X4953000Y9017000D03*
G01*
X5207000Y9017000D03*
G01*
X5461000Y9017000D03*
G01*
X5715000Y9017000D03*
G01*
X5969000Y9017000D03*
G01*
X6223000Y9017000D03*
G01*
X6223000Y9779000D03*
G01*
X5969000Y9779000D03*
G01*
X5715000Y9779000D03*
G01*
X5461000Y9779000D03*
G01*
X5207000Y9779000D03*
G01*
X4953000Y9779000D03*
D21*
G01*
X4150359Y9148013D03*
G01*
X4485360Y9148013D03*
G01*
X4150461Y9398000D03*
G01*
X4485487Y9398000D03*
G01*
X4485360Y9648012D03*
G01*
X4150359Y9648012D03*
D17*
G01*
X1292200Y1269998D03*
D18*
G01*
X1092200Y1270000D03*
G01*
X9883749Y1270000D03*
D17*
G01*
X10083798Y1270001D03*
D18*
G01*
X1778000Y9651974D03*
G01*
X2032000Y9652000D03*
D17*
G01*
X2794006Y9651998D03*
D18*
G01*
X2540000Y9652000D03*
G01*
X2794000Y9144000D03*
G01*
X2794000Y8890000D03*
G01*
X2286000Y8890000D03*
G01*
X2286000Y9144000D03*
G01*
X1270000Y3308095D03*
D17*
G01*
X1270001Y3557979D03*
G01*
X1270001Y3807992D03*
D18*
G01*
X1270000Y4057904D03*
D22*
G01*
X4953000Y8763000D03*
G01*
X5207000Y8763000D03*
G01*
X5461000Y8763000D03*
G01*
X5715000Y8763000D03*
G01*
X5969000Y8763000D03*
G01*
X6223000Y8763000D03*
D23*
G01*
X1092200Y1270000D03*
G01*
X1292199Y1270000D03*
G01*
X9883775Y1270000D03*
G01*
X10083774Y1270000D03*
G01*
X2286000Y8382000D03*
G01*
X2794000Y8382000D03*
G01*
X3556000Y8382000D03*
G01*
X4064000Y8382000D03*
G01*
X6096000Y8382000D03*
G01*
X6604000Y8382000D03*
G01*
X8636000Y3302000D03*
G01*
X9144000Y3302000D03*
G01*
X6096000Y3302000D03*
G01*
X6604000Y3302000D03*
G01*
X7366000Y3302000D03*
G01*
X7874000Y3302000D03*
G01*
X2286000Y3556000D03*
G01*
X2794000Y3556000D03*
G01*
X7366000Y8382000D03*
G01*
X7874000Y8382000D03*
G01*
X5588000Y4064000D03*
G01*
X5588000Y4572000D03*
G01*
X8636000Y8382000D03*
G01*
X9144000Y8382000D03*
G01*
X4826000Y8382000D03*
G01*
X5334000Y8382000D03*
G01*
X7112000Y4064000D03*
G01*
X7112000Y4572000D03*
D24*
G01*
X1270000Y3307994D03*
G01*
X1270000Y3557981D03*
G01*
X1270000Y3807993D03*
G01*
X1270000Y4057980D03*
D25*
G01*
X2540000Y9652000D03*
G01*
X2794000Y9652000D03*
D26*
G01*
X1016000Y9906000D03*
G01*
X1270000Y9906000D03*
G01*
X1016000Y9652000D03*
G01*
X1270000Y9652000D03*
G01*
X1016000Y9398000D03*
G01*
X1270000Y9398000D03*
G01*
X1016000Y9144000D03*
G01*
X1270000Y9144000D03*
G01*
X1016000Y8890000D03*
G01*
X1270000Y8890000D03*
G01*
X1016000Y8636000D03*
G01*
X1270000Y8636000D03*
G01*
X1016000Y8382000D03*
G01*
X1270000Y8382000D03*
G01*
X1016000Y8128000D03*
G01*
X1270000Y8128000D03*
G01*
X1016000Y7874000D03*
G01*
X1270000Y7874000D03*
G01*
X1016000Y7620000D03*
G01*
X1270000Y7620000D03*
G01*
X1016000Y7366000D03*
G01*
X1270000Y7366000D03*
G01*
X1016000Y7112000D03*
G01*
X1270000Y7112000D03*
G01*
X1016000Y6858000D03*
G01*
X1270000Y6858000D03*
G01*
X1016000Y6604000D03*
G01*
X1270000Y6604000D03*
G01*
X1016000Y6350000D03*
G01*
X1270000Y6350000D03*
G01*
X1016000Y6096000D03*
G01*
X1270000Y6096000D03*
G01*
X1016000Y5842000D03*
G01*
X1270000Y5842000D03*
G01*
X1016000Y5588000D03*
G01*
X1270000Y5588000D03*
G01*
X1016000Y5334000D03*
G01*
X1270000Y5334000D03*
G01*
X1016000Y5080000D03*
G01*
X1269644Y5080000D03*
D27*
G01*
X3175000Y635000D03*
G01*
X3175000Y381000D03*
G01*
X2921000Y635000D03*
G01*
X2921000Y381000D03*
G01*
X2667000Y635000D03*
G01*
X2667000Y381000D03*
G01*
X2413000Y635000D03*
G01*
X2413000Y381000D03*
G01*
X2159000Y635000D03*
G01*
X2159000Y381000D03*
D23*
G01*
X1778000Y9651974D03*
G01*
X2032000Y9651974D03*
D28*
G01*
X2286000Y9143974D03*
G01*
X2794000Y9143974D03*
G01*
X2286000Y8889974D03*
G01*
X2794000Y8889974D03*
D22*
G01*
X8255000Y8763000D03*
G01*
X8001000Y8763000D03*
G01*
X7747000Y8763000D03*
G01*
X7493000Y8763000D03*
G01*
X7239000Y8763000D03*
G01*
X6985000Y8763000D03*
G01*
X8509000Y8763000D03*
G01*
X8763000Y8763000D03*
D29*
G01*
X9144000Y9779000D03*
G01*
X9144000Y9525000D03*
G01*
X9144000Y9271000D03*
G01*
X9144000Y9017000D03*
G01*
X9144000Y8763000D03*
D30*
G01*
X4485360Y9148013D03*
G01*
X4485360Y9398000D03*
G01*
X4485360Y9648012D03*
G01*
X4150359Y9148013D03*
G01*
X4150359Y9398000D03*
G01*
X4150359Y9648012D03*
D31*
G01*
X4953000Y9779000D03*
G01*
X5207000Y9779000D03*
G01*
X5461000Y9779000D03*
G01*
X5715000Y9779000D03*
G01*
X5969000Y9779000D03*
G01*
X6223000Y9779000D03*
G01*
X6223000Y9017000D03*
G01*
X5969000Y9017000D03*
G01*
X5715000Y9017000D03*
G01*
X5461000Y9017000D03*
G01*
X5207000Y9017000D03*
G01*
X4953000Y9017000D03*
G01*
X6985000Y9779000D03*
G01*
X7239000Y9779000D03*
G01*
X7493000Y9779000D03*
G01*
X7747000Y9779000D03*
G01*
X7747000Y9017000D03*
G01*
X7493000Y9017000D03*
G01*
X7239000Y9017000D03*
G01*
X6985000Y9017000D03*
G01*
X8001000Y9017000D03*
G01*
X8255000Y9017000D03*
G01*
X8509000Y9017000D03*
G01*
X8509000Y9779000D03*
G01*
X8255000Y9779000D03*
G01*
X8001000Y9779000D03*
G01*
X8763000Y9779000D03*
G01*
X8763000Y9017000D03*
D32*
G01*
X2032000Y7874000D03*
G01*
X2794000Y7874000D03*
G01*
X2032000Y7620000D03*
G01*
X2794000Y7620000D03*
G01*
X2032000Y7366000D03*
G01*
X2794000Y7366000D03*
G01*
X2032000Y7112000D03*
G01*
X2794000Y7112000D03*
G01*
X2032000Y6858000D03*
G01*
X2794000Y6858000D03*
G01*
X2032000Y6604000D03*
G01*
X2794000Y6604000D03*
G01*
X2032000Y6350000D03*
G01*
X2794000Y6350000D03*
G01*
X2032000Y6096000D03*
G01*
X2794000Y6096000D03*
G01*
X2032000Y5842000D03*
G01*
X2794000Y5842000D03*
G01*
X2032000Y5588000D03*
G01*
X2794000Y5588000D03*
G01*
X3302000Y7874000D03*
G01*
X4064000Y7874000D03*
G01*
X3302000Y7620000D03*
G01*
X4064000Y7620000D03*
G01*
X3302000Y7366000D03*
G01*
X4064000Y7366000D03*
G01*
X3302000Y7112000D03*
G01*
X4064000Y7112000D03*
G01*
X3302000Y6858000D03*
G01*
X4064000Y6858000D03*
G01*
X3302000Y6604000D03*
G01*
X4064000Y6604000D03*
G01*
X3302000Y6350000D03*
G01*
X4064000Y6350000D03*
G01*
X3302000Y6096000D03*
G01*
X4064000Y6096000D03*
G01*
X3302000Y5842000D03*
G01*
X4064000Y5842000D03*
G01*
X3302000Y5588000D03*
G01*
X4064000Y5588000D03*
G01*
X5842000Y7874000D03*
G01*
X6604000Y7874000D03*
G01*
X5842000Y7620000D03*
G01*
X6604000Y7620000D03*
G01*
X5842000Y7366000D03*
G01*
X6604000Y7366000D03*
G01*
X5842000Y7112000D03*
G01*
X6604000Y7112000D03*
G01*
X5842000Y6858000D03*
G01*
X6604000Y6858000D03*
G01*
X5842000Y6604000D03*
G01*
X6604000Y6604000D03*
G01*
X5842000Y6350000D03*
G01*
X6604000Y6350000D03*
G01*
X5842000Y6096000D03*
G01*
X6604000Y6096000D03*
G01*
X5842000Y5842000D03*
G01*
X6604000Y5842000D03*
G01*
X5842000Y5588000D03*
G01*
X6604000Y5588000D03*
G01*
X7112000Y7874000D03*
G01*
X7874000Y7874000D03*
G01*
X7112000Y7620000D03*
G01*
X7874000Y7620000D03*
G01*
X7112000Y7366000D03*
G01*
X7874000Y7366000D03*
G01*
X7112000Y7112000D03*
G01*
X7874000Y7112000D03*
G01*
X7112000Y6858000D03*
G01*
X7874000Y6858000D03*
G01*
X7112000Y6604000D03*
G01*
X7874000Y6604000D03*
G01*
X7112000Y6350000D03*
G01*
X7874000Y6350000D03*
G01*
X7112000Y6096000D03*
G01*
X7874000Y6096000D03*
G01*
X7112000Y5842000D03*
G01*
X7874000Y5842000D03*
G01*
X7112000Y5588000D03*
G01*
X7874000Y5588000D03*
G01*
X8382000Y7874000D03*
G01*
X9144000Y7874000D03*
G01*
X8382000Y7620000D03*
G01*
X9144000Y7620000D03*
G01*
X8382000Y7366000D03*
G01*
X9144000Y7366000D03*
G01*
X8382000Y7112000D03*
G01*
X9144000Y7112000D03*
G01*
X8382000Y6858000D03*
G01*
X9144000Y6858000D03*
G01*
X8382000Y6604000D03*
G01*
X9144000Y6604000D03*
G01*
X8382000Y6350000D03*
G01*
X9144000Y6350000D03*
G01*
X8382000Y6096000D03*
G01*
X9144000Y6096000D03*
G01*
X8382000Y5842000D03*
G01*
X9144000Y5842000D03*
G01*
X8382000Y5588000D03*
G01*
X9144000Y5588000D03*
G01*
X4572000Y7874000D03*
G01*
X5334000Y7874000D03*
G01*
X4572000Y7620000D03*
G01*
X5334000Y7620000D03*
G01*
X4572000Y7366000D03*
G01*
X5334000Y7366000D03*
G01*
X4572000Y7112000D03*
G01*
X5334000Y7112000D03*
G01*
X4572000Y6858000D03*
G01*
X5334000Y6858000D03*
G01*
X4572000Y6604000D03*
G01*
X5334000Y6604000D03*
G01*
X4572000Y6350000D03*
G01*
X5334000Y6350000D03*
G01*
X4572000Y6096000D03*
G01*
X5334000Y6096000D03*
G01*
X4572000Y5842000D03*
G01*
X5334000Y5842000D03*
G01*
X4572000Y5588000D03*
G01*
X5334000Y5588000D03*
G01*
X8382000Y2794000D03*
G01*
X8382000Y2540000D03*
G01*
X8382000Y2286000D03*
G01*
X8382000Y2032000D03*
G01*
X8382000Y1778000D03*
G01*
X8382000Y1524000D03*
G01*
X8382000Y1270000D03*
G01*
X9144000Y2794000D03*
G01*
X9144000Y2540000D03*
G01*
X9144000Y2286000D03*
G01*
X9144000Y2032000D03*
G01*
X9144000Y1778000D03*
G01*
X9144000Y1524000D03*
G01*
X9144000Y1270000D03*
G01*
X5842000Y2794000D03*
G01*
X5842000Y2540000D03*
G01*
X5842000Y2286000D03*
G01*
X5842000Y2032000D03*
G01*
X5842000Y1778000D03*
G01*
X5842000Y1524000D03*
G01*
X5842000Y1270000D03*
G01*
X6604000Y2794000D03*
G01*
X6604000Y2540000D03*
G01*
X6604000Y2286000D03*
G01*
X6604000Y2032000D03*
G01*
X6604000Y1778000D03*
G01*
X6604000Y1524000D03*
G01*
X6604000Y1270000D03*
G01*
X7112000Y2794000D03*
G01*
X7112000Y2540000D03*
G01*
X7112000Y2286000D03*
G01*
X7112000Y2032000D03*
G01*
X7112000Y1778000D03*
G01*
X7112000Y1524000D03*
G01*
X7112000Y1270000D03*
G01*
X7874000Y2794000D03*
G01*
X7874000Y2540000D03*
G01*
X7874000Y2286000D03*
G01*
X7874000Y2032000D03*
G01*
X7874000Y1778000D03*
G01*
X7874000Y1524000D03*
G01*
X7874000Y1270000D03*
D22*
G01*
X7620000Y3810000D03*
G01*
X7874000Y3810000D03*
G01*
X8128000Y3810000D03*
G01*
X8382000Y3810000D03*
G01*
X8636000Y3810000D03*
G01*
X8890000Y3810000D03*
G01*
X9144000Y3810000D03*
G01*
X7620000Y4572000D03*
G01*
X7874000Y4572000D03*
G01*
X8128000Y4572000D03*
G01*
X8382000Y4572000D03*
G01*
X8636000Y4572000D03*
G01*
X8890000Y4572000D03*
G01*
X9144000Y4572000D03*
D32*
G01*
X2794000Y3048000D03*
G01*
X2794000Y2794000D03*
G01*
X2794000Y2540000D03*
G01*
X2794000Y2286000D03*
G01*
X2794000Y2032000D03*
G01*
X2794000Y1778000D03*
G01*
X2794000Y1524000D03*
G01*
X2794000Y1270000D03*
G01*
X2032000Y1270000D03*
G01*
X2032000Y1524000D03*
G01*
X2032000Y1778000D03*
G01*
X2032000Y2032000D03*
G01*
X2032000Y2286000D03*
G01*
X2032000Y2540000D03*
G01*
X2032000Y2794000D03*
G01*
X2032000Y3048000D03*
G01*
X5080000Y4572000D03*
G01*
X5080000Y4318000D03*
G01*
X5080000Y4064000D03*
G01*
X5080000Y3810000D03*
G01*
X5080000Y3556000D03*
G01*
X5080000Y3302000D03*
G01*
X5080000Y3048000D03*
G01*
X5080000Y2794000D03*
G01*
X5080000Y2540000D03*
G01*
X5080000Y2286000D03*
G01*
X5080000Y2032000D03*
G01*
X5080000Y1778000D03*
G01*
X5080000Y1524000D03*
G01*
X5080000Y1270000D03*
G01*
X3556000Y1270000D03*
G01*
X3556000Y1524000D03*
G01*
X3556000Y1778000D03*
G01*
X3556000Y2032000D03*
G01*
X3556000Y2286000D03*
G01*
X3556000Y2540000D03*
G01*
X3556000Y2794000D03*
G01*
X3556000Y3302000D03*
G01*
X3556000Y3556000D03*
G01*
X3556000Y3810000D03*
G01*
X3556000Y4064000D03*
G01*
X3556000Y4318000D03*
G01*
X3556000Y3048000D03*
G01*
X3556000Y4572000D03*
D25*
G01*
X914400Y2540000D03*
G01*
X914400Y2286000D03*
M02*
