G04 Layer: TopLayer*
G04 EasyEDA v6.5.54, 2026-05-14 14:21:07*
G04 0c5b4b3912a54398864f23029d2967d4,3d3f09d9cea3496b8cca675c4301f38a,10*
G04 Gerber Generator version 0.2*
G04 Scale: 100 percent, Rotated: No, Reflected: No *
G04 Dimensions in millimeters *
G04 leading zeros omitted , absolute positions ,4 integer and 5 decimal *
%FSLAX45Y45*%
%MOMM*%

%ADD10C,0.2540*%
%ADD11C,1.5240*%
%ADD12C,0.8000*%
%ADD13C,0.5080*%
%ADD14C,1.0160*%
%ADD15O,1.524X7.499985*%
%ADD16C,1.7000*%
%ADD17R,1.7000X1.7000*%
%ADD18O,0.899998X0.499999*%
%ADD19O,0.013X0.499999*%
%ADD20C,1.2000*%
%ADD21C,0.9000*%
%ADD22C,1.0000*%
%ADD23C,0.6000*%
%ADD24O,0.499999X0.899998*%
%ADD25O,0.399999X0.799998*%
%ADD26C,0.6200*%

%LPD*%
G36*
X8763000Y812800D02*
G01*
X8445500Y635000D01*
X8763000Y457200D01*
X9080500Y635000D01*
G37*
G36*
X1714500Y9994900D02*
G01*
X1714500Y9982200D01*
X1765300Y9931400D01*
X1790700Y9931400D01*
X1803400Y9945370D01*
X1808581Y9950551D01*
X1841500Y9969500D01*
X1841500Y9994900D01*
G37*
D10*
X7124700Y7696200D02*
G01*
X7061200Y7696200D01*
X7112000Y6350000D02*
G01*
X7112000Y6502400D01*
X7048500Y6565900D01*
X7048500Y6680200D01*
X7226300Y6858000D01*
X7226300Y7594600D01*
X7848587Y6273787D02*
G01*
X7086587Y6273787D01*
X7874000Y6350000D02*
G01*
X7874000Y6299200D01*
X6997687Y6362687D02*
G01*
X6997687Y7505682D01*
X6883394Y7619974D01*
X6794500Y7619974D01*
X1612900Y8394700D02*
G01*
X1612900Y9309100D01*
X1270000Y9652000D01*
X5448300Y8305800D02*
G01*
X1701800Y8305800D01*
X1562100Y8382000D02*
G01*
X1562100Y9296400D01*
X1308100Y9550400D01*
X1117600Y9550400D01*
X1016000Y9652000D01*
X5435600Y8255000D02*
G01*
X1689100Y8255000D01*
X1511300Y8369300D02*
G01*
X1511300Y9283700D01*
X1295400Y9499600D01*
X1117600Y9499600D01*
X1016000Y9398000D01*
X5422900Y8204200D02*
G01*
X1676400Y8204200D01*
X1460500Y8356600D02*
G01*
X1460500Y9271000D01*
X1333500Y9398000D01*
X1270000Y9398000D01*
X5410200Y8153400D02*
G01*
X1663700Y8153400D01*
X5397500Y8102600D02*
G01*
X1651000Y8102600D01*
X8382000Y7112000D02*
G01*
X8382000Y7200900D01*
X8318487Y7264417D01*
X8318487Y7746982D01*
X8115274Y7950187D01*
X7416787Y7950187D01*
X8382000Y7620000D02*
G01*
X8382000Y7746969D01*
X8127974Y8000987D01*
X7378687Y8000987D01*
X7226287Y8051787D02*
G01*
X9347161Y8051787D01*
X9347174Y8051774D01*
X7112000Y7874000D02*
G01*
X7112000Y7937500D01*
X8242300Y6858000D02*
G01*
X8242300Y7759700D01*
X8204200Y7797800D01*
X7086600Y7797800D01*
X7874000Y7366000D02*
G01*
X7874000Y7493000D01*
X7620000Y7747000D01*
X7073900Y7747000D01*
X6273800Y8293100D02*
G01*
X6273800Y8445500D01*
X6235700Y8547100D02*
G01*
X5575300Y8547100D01*
X5359400Y8763000D01*
X5207000Y8763000D01*
X6324600Y8305800D02*
G01*
X6324600Y8458200D01*
X6248400Y8597900D02*
G01*
X5778500Y8597900D01*
X5613400Y8763000D01*
X5461000Y8763000D01*
X6375400Y8318500D02*
G01*
X6375400Y8470900D01*
X6261100Y8648700D02*
G01*
X5981700Y8648700D01*
X5867400Y8763000D01*
X5715000Y8763000D01*
X6426200Y8331200D02*
G01*
X6426200Y8483600D01*
X6273800Y8699500D02*
G01*
X6172200Y8699500D01*
X6108700Y8763000D01*
X5969000Y8763000D01*
X6477000Y8343900D02*
G01*
X6477000Y8496300D01*
X6273800Y8763000D02*
G01*
X6223000Y8763000D01*
X6527800Y8356600D02*
G01*
X6527800Y8509000D01*
D11*
X1016000Y10058400D02*
G01*
X9055100Y10058400D01*
D10*
X9144000Y4572000D02*
G01*
X9042400Y4572000D01*
X8382000Y3911600D01*
X8382000Y3810000D01*
X8890000Y4572000D02*
G01*
X8966200Y4572000D01*
X9029700Y4635500D01*
X9486900Y4635500D01*
X9512300Y4660900D01*
X9512300Y8813800D01*
X9144000Y9182100D01*
X9144000Y9271000D01*
X9182100Y3873500D02*
G01*
X8851900Y3873500D01*
X8788400Y3810000D01*
X8636000Y3810000D01*
X9486900Y2717800D02*
G01*
X9486900Y3568700D01*
X7962900Y5575300D02*
G01*
X7962900Y5867400D01*
X7874000Y5956300D01*
X7874000Y6096000D01*
X3924300Y5257800D02*
G01*
X7645400Y5257800D01*
X8013700Y5562600D02*
G01*
X8013700Y6375400D01*
X7874000Y6515100D01*
X7874000Y6604000D01*
X3937000Y5207000D02*
G01*
X7658100Y5207000D01*
X8064500Y5549900D02*
G01*
X8064500Y6769100D01*
X7874000Y6959600D01*
X7874000Y7112000D01*
X3949700Y5156200D02*
G01*
X7670800Y5156200D01*
X3962400Y5105400D02*
G01*
X7683500Y5105400D01*
X8166087Y5524487D02*
G01*
X8166087Y6629387D01*
X8166074Y6629400D01*
X8166074Y7734274D01*
X3975100Y5054600D02*
G01*
X7696200Y5054600D01*
X8216900Y5511800D02*
G01*
X8216900Y6616700D01*
X8382000Y6781800D01*
X8382000Y6858000D01*
X4737100Y5003800D02*
G01*
X7708900Y5003800D01*
X8267700Y5499100D02*
G01*
X8267700Y6604000D01*
X8445500Y6781800D01*
X8445500Y7200900D01*
X8382000Y7264400D01*
X8382000Y7366000D01*
X4749800Y4953000D02*
G01*
X7721600Y4953000D01*
X9207500Y5549900D02*
G01*
X9207500Y6134100D01*
X9144000Y6197600D01*
X9144000Y6350000D01*
X4762500Y4902200D02*
G01*
X8559800Y4902200D01*
X9258300Y5537200D02*
G01*
X9258300Y6654800D01*
X9144000Y6769100D01*
X9144000Y6858000D01*
X4775200Y4851400D02*
G01*
X8572500Y4851400D01*
X9309100Y5524500D02*
G01*
X9309100Y7112000D01*
X9144000Y7277100D01*
X9144000Y7366000D01*
X4787900Y4800600D02*
G01*
X8585200Y4800600D01*
X4800600Y4749800D02*
G01*
X8597900Y4749800D01*
X5080000Y4064000D02*
G01*
X5080000Y4216400D01*
X4965700Y4330700D01*
X4965700Y4622800D01*
X5041900Y4699000D01*
X8610600Y4699000D01*
X5080000Y4318000D02*
G01*
X5080000Y4470400D01*
X5016500Y4533900D01*
X5016500Y4610100D01*
X5054600Y4648200D01*
X8623300Y4648200D01*
X4064000Y6096000D02*
G01*
X3403600Y6096000D01*
X3327400Y6172200D01*
X2768600Y6172200D01*
X2692400Y6096000D01*
X2032000Y6096000D01*
X5448300Y1816100D02*
G01*
X5448300Y2019287D01*
X5334000Y2133587D01*
X5334000Y2362200D01*
X5397500Y1803400D02*
G01*
X5397500Y2006587D01*
X5270500Y2133587D01*
X5270500Y2235200D01*
X5346700Y1790700D02*
G01*
X5346700Y1993887D01*
X5207000Y2133587D01*
X5207000Y2425700D01*
X6731000Y596900D02*
G01*
X6731000Y254000D01*
X3441700Y1371600D02*
G01*
X3441700Y2374900D01*
X1816100Y1346200D02*
G01*
X3416300Y1346200D01*
X3492500Y1358900D02*
G01*
X3492500Y2095500D01*
X3556000Y2159000D01*
X3556000Y2286000D01*
X1295400Y1168400D02*
G01*
X3302000Y1168400D01*
X1765300Y1231900D02*
G01*
X1765300Y1295400D01*
X3365487Y596900D02*
G01*
X3733800Y596900D01*
X3289300Y4686300D02*
G01*
X3289300Y3060700D01*
X3009900Y2781300D01*
X2908300Y2781300D01*
X6604000Y5842000D02*
G01*
X6605015Y5693663D01*
X6225286Y5308600D01*
X3911600Y5308600D01*
X3556000Y3302000D02*
G01*
X3556000Y3390900D01*
X3340100Y3606800D01*
X3340100Y4673600D01*
X3556000Y3556000D02*
G01*
X3556000Y3644900D01*
X3390900Y3810000D01*
X3390900Y4660900D01*
X3556000Y3810000D02*
G01*
X3556000Y3898900D01*
X3441700Y4013200D01*
X3441700Y4648200D01*
X3556000Y4064000D02*
G01*
X3492500Y4127500D01*
X3492500Y4635500D01*
X3556000Y4572000D02*
G01*
X3556000Y4635500D01*
X4584700Y1447800D02*
G01*
X4584700Y2070100D01*
X4610100Y2095500D01*
X4610100Y4000500D01*
X4406900Y4203700D01*
X4406900Y4356100D01*
X4533900Y1435100D02*
G01*
X4533900Y2082800D01*
X4559300Y2108200D01*
X4559300Y3987800D01*
X4356100Y4191000D01*
X4356100Y4368800D01*
X4483100Y1422400D02*
G01*
X4483100Y2095500D01*
X4508500Y2120900D01*
X4508500Y3975100D01*
X4305300Y4178300D01*
X4305300Y4381500D01*
X4432300Y419100D02*
G01*
X4432300Y2108200D01*
X4457700Y2133600D01*
X4457700Y3962400D01*
X4254500Y4165600D01*
X4254500Y4394200D01*
X4381500Y406400D02*
G01*
X4381500Y2120900D01*
X4406900Y2146300D01*
X4406900Y3949700D01*
X4203700Y4152900D01*
X4203700Y4406900D01*
X4330700Y393700D02*
G01*
X4330700Y2133600D01*
X4356100Y2159000D01*
X4356100Y3937000D01*
X4152900Y4140200D01*
X4152900Y4419600D01*
X8623300Y2667000D02*
G01*
X7404100Y2667000D01*
X7112000Y2374900D01*
X6794500Y2374900D01*
X6604000Y2184400D01*
X6604000Y2032000D01*
X9144000Y1524000D02*
G01*
X9144000Y1676400D01*
X9080500Y1739900D01*
X9080500Y2209800D01*
X7937500Y2616200D02*
G01*
X7416800Y2616200D01*
X7112000Y2311400D01*
X7112000Y2286000D01*
X8255000Y254000D02*
G01*
X8255000Y2298700D01*
X2032000Y2946400D02*
G01*
X2032000Y2794000D01*
X3086100Y2971800D02*
G01*
X2057400Y2971800D01*
X2057400Y2717800D02*
G01*
X3009900Y2717800D01*
X3365500Y3073400D01*
X3365500Y3263900D01*
X2032000Y2540000D02*
G01*
X2032000Y2692400D01*
X2032000Y2438400D02*
G01*
X2032000Y2286000D01*
X3314700Y2921000D02*
G01*
X3276600Y2921000D01*
X2819400Y2463800D01*
X2057400Y2463800D01*
X2057400Y2209800D02*
G01*
X2819400Y2209800D01*
X3429000Y2819400D01*
X3429000Y3213100D01*
X2032000Y2032000D02*
G01*
X2032000Y2184400D01*
X6997700Y1574800D02*
G01*
X6997700Y1485900D01*
X6959600Y1447800D01*
X5816600Y1447800D01*
X7874000Y2540000D02*
G01*
X7874000Y2387600D01*
X7747000Y2260600D01*
X7747000Y1879600D01*
X7531100Y1663700D01*
X7086600Y1663700D01*
X7048500Y1562100D02*
G01*
X7048500Y1473200D01*
X6972300Y1397000D01*
X5803900Y1397000D01*
X7874000Y2286000D02*
G01*
X7874000Y2133600D01*
X7810500Y2070100D01*
X7810500Y1879600D01*
X7543800Y1612900D01*
X7099300Y1612900D01*
X6604000Y1587500D02*
G01*
X6604000Y1524000D01*
X6604000Y1714500D02*
G01*
X6604000Y1778000D01*
X7112000Y1524000D02*
G01*
X7112000Y1473200D01*
X6985000Y1346200D01*
X5791200Y1346200D01*
X7569200Y1193800D02*
G01*
X5346700Y1193800D01*
X8128000Y-306070D02*
G01*
X8128000Y635000D01*
X7366000Y1143000D02*
G01*
X5334000Y1143000D01*
X7874000Y-306070D02*
G01*
X7874000Y635000D01*
X7162800Y1092200D02*
G01*
X5321300Y1092200D01*
X7620000Y-306070D02*
G01*
X7620000Y635000D01*
X6959600Y1041400D02*
G01*
X5308600Y1041400D01*
X7366000Y-306070D02*
G01*
X7366000Y635000D01*
X6756400Y990600D02*
G01*
X5295900Y990600D01*
X7112000Y-306070D02*
G01*
X7112000Y635000D01*
X6553200Y939800D02*
G01*
X5283200Y939800D01*
X6858000Y-306070D02*
G01*
X6858000Y635000D01*
X6350000Y889000D02*
G01*
X5270500Y889000D01*
X6604000Y-306070D02*
G01*
X6604000Y635000D01*
X6146800Y838200D02*
G01*
X5257800Y838200D01*
X6350000Y-306070D02*
G01*
X6350000Y635000D01*
X5689600Y787400D02*
G01*
X5245100Y787400D01*
X5842000Y-306070D02*
G01*
X5842000Y635000D01*
X5486400Y736600D02*
G01*
X5232400Y736600D01*
X5588000Y-306070D02*
G01*
X5588000Y635000D01*
X5283200Y685800D02*
G01*
X5219700Y685800D01*
X5334000Y-306070D02*
G01*
X5334000Y635000D01*
X5295900Y1244600D02*
G01*
X5295900Y1981200D01*
X5080000Y2197100D01*
X5080000Y2286000D01*
X5245100Y1231900D02*
G01*
X5245100Y1778000D01*
X5080000Y1943100D01*
X5080000Y2032000D01*
X5194300Y1219200D02*
G01*
X5194300Y1574800D01*
X5080000Y1689100D01*
X5080000Y1778000D01*
X5143500Y1206500D02*
G01*
X5143500Y1371600D01*
X5080000Y1435100D01*
X5080000Y1524000D01*
X5080000Y1206500D02*
G01*
X5080000Y1270000D01*
X4762500Y1460500D02*
G01*
X4762500Y1524000D01*
X4699000Y1460500D02*
G01*
X4699000Y1778000D01*
X4635500Y1460500D02*
G01*
X4635500Y2019300D01*
X4648200Y2032000D01*
X4127500Y419100D02*
G01*
X4127500Y2184400D01*
X4152900Y2209800D01*
X4152900Y3238500D01*
X4089400Y3302000D01*
X3695700Y393700D02*
G01*
X4102100Y393700D01*
X4178300Y406400D02*
G01*
X4178300Y2171700D01*
X4203700Y2197100D01*
X4203700Y3848100D01*
X4127500Y3924300D01*
X3797300Y3924300D01*
X3556000Y4165600D01*
X3556000Y4318000D01*
X3898900Y342900D02*
G01*
X4114800Y342900D01*
X4229100Y393700D02*
G01*
X4229100Y2159000D01*
X4254500Y2184400D01*
X4254500Y3911600D01*
X4102100Y4064000D01*
X4038600Y4064000D01*
X4102100Y292100D02*
G01*
X4127500Y292100D01*
X4940300Y393700D02*
G01*
X4457700Y393700D01*
X4737100Y342900D02*
G01*
X4445000Y342900D01*
X4533900Y292100D02*
G01*
X4432300Y292100D01*
X5080000Y-306070D02*
G01*
X5080000Y254000D01*
X4826000Y-306070D02*
G01*
X4826000Y254000D01*
X4572000Y-306070D02*
G01*
X4572000Y254000D01*
X4064000Y-306070D02*
G01*
X4064000Y254000D01*
X3810000Y-306070D02*
G01*
X3810000Y254000D01*
X3556000Y-306070D02*
G01*
X3556000Y254000D01*
X4318000Y-306070D02*
G01*
X4318000Y254000D01*
X4279900Y292100D01*
X4279900Y2146300D01*
X4305300Y2171700D01*
X4305300Y3924300D01*
X4102100Y4127500D01*
X3848100Y4127500D01*
X3556000Y4419600D01*
X3556000Y4572000D01*
X3619500Y1231900D02*
G01*
X3619500Y2387600D01*
X3556000Y2451100D01*
X3556000Y2540000D01*
X1498600Y1117600D02*
G01*
X3505200Y1117600D01*
X3670300Y1219200D02*
G01*
X3670300Y2527300D01*
X3556000Y2641600D01*
X3556000Y2794000D01*
X1701800Y1066800D02*
G01*
X3517900Y1066800D01*
X3721100Y1206500D02*
G01*
X3721100Y2794000D01*
X3556000Y2959100D01*
X3556000Y3048000D01*
X1905000Y1016000D02*
G01*
X3530600Y1016000D01*
X3771900Y1193800D02*
G01*
X3771900Y2997200D01*
X3556000Y3213100D01*
X3556000Y3302000D01*
X2108200Y965200D02*
G01*
X3543300Y965200D01*
X3822700Y1181100D02*
G01*
X3822700Y3200400D01*
X3556000Y3467100D01*
X3556000Y3556000D01*
X2311400Y914400D02*
G01*
X3556000Y914400D01*
X3873500Y1168400D02*
G01*
X3873500Y3403600D01*
X3556000Y3721100D01*
X3556000Y3810000D01*
X2514600Y863600D02*
G01*
X3568700Y863600D01*
X3924300Y1155700D02*
G01*
X3924300Y3606800D01*
X3556000Y3975100D01*
X3556000Y4064000D01*
X2717800Y812800D02*
G01*
X3581400Y812800D01*
X3975100Y1143000D02*
G01*
X3975100Y3810000D01*
X2921000Y762000D02*
G01*
X3594100Y762000D01*
X4025900Y1130300D02*
G01*
X4025900Y3517900D01*
X4064000Y3556000D01*
X3136900Y711200D02*
G01*
X3606800Y711200D01*
X4076700Y1117600D02*
G01*
X4076700Y2781300D01*
X4089400Y2794000D01*
X3327400Y660400D02*
G01*
X3619500Y660400D01*
X3302000Y-306070D02*
G01*
X3302000Y635000D01*
X3048000Y-306070D02*
G01*
X3048000Y622300D01*
X2794000Y-306070D02*
G01*
X2794000Y635000D01*
X2540000Y-306070D02*
G01*
X2540000Y635000D01*
X2286000Y-306070D02*
G01*
X2286000Y635000D01*
X2032000Y-306070D02*
G01*
X2032000Y635000D01*
X1778000Y-306070D02*
G01*
X1778000Y635000D01*
X1524000Y-306070D02*
G01*
X1524000Y635000D01*
X1270000Y-306070D02*
G01*
X1270000Y635000D01*
X1016000Y-306070D02*
G01*
X1016000Y635000D01*
X762000Y-306070D02*
G01*
X762000Y635000D01*
X7493000Y9779000D02*
G01*
X7645400Y9779000D01*
X8102600Y9321800D01*
X8102600Y8966200D01*
X8001000Y8864600D01*
X8001000Y8763000D01*
X7747000Y9779000D02*
G01*
X7899400Y9779000D01*
X8153400Y9525000D01*
X8153400Y8966200D01*
X8255000Y8864600D01*
X8255000Y8763000D01*
X8382000Y6604000D02*
G01*
X8382000Y6654800D01*
X8775674Y7048474D01*
X8775674Y7988274D01*
X8382000Y6350000D02*
G01*
X8382000Y6426200D01*
X8902674Y6946874D01*
X8902674Y7988274D01*
X9144000Y7112000D02*
G01*
X9144000Y7200900D01*
X9080500Y7264400D01*
X9080500Y7658100D01*
X9144000Y7721600D01*
X9144000Y7874000D01*
D12*
X4064000Y8610600D02*
G01*
X4064000Y8638341D01*
X4064000Y8610600D02*
G01*
X4064000Y8657724D01*
D13*
X6604000Y9144000D02*
G01*
X6604000Y9183131D01*
X6604000Y9144000D02*
G01*
X6604000Y9186504D01*
D10*
X5372100Y8001000D02*
G01*
X1397000Y8001000D01*
X1270000Y7874000D01*
X5359400Y7950200D02*
G01*
X1473200Y7950200D01*
X1168400Y7645400D01*
X1168400Y5321300D01*
X1269745Y5219954D01*
X1269745Y5080000D01*
X5842000Y5842000D02*
G01*
X5842000Y5994400D01*
X5422900Y6413500D01*
X5422900Y7886700D01*
X5842000Y6096000D02*
G01*
X5842000Y6248400D01*
X5473700Y6616700D01*
X5473700Y7899400D01*
X5384800Y8051800D02*
G01*
X1346200Y8051800D01*
X1270000Y8128000D01*
X5842000Y6350000D02*
G01*
X5842000Y6502400D01*
X5524500Y6819900D01*
X5524500Y7912100D01*
X5842000Y6604000D02*
G01*
X5842000Y6756400D01*
X5575300Y7023100D01*
X5575300Y7924800D01*
X5842000Y6858000D02*
G01*
X5842000Y7010400D01*
X5626100Y7226300D01*
X5626100Y7937500D01*
X5842000Y7112000D02*
G01*
X5842000Y7264400D01*
X5676900Y7429500D01*
X5676900Y7950200D01*
X5842000Y7366000D02*
G01*
X5842000Y7518400D01*
X5727700Y7632700D01*
X5727700Y7962900D01*
X5842000Y7620000D02*
G01*
X5842000Y7772400D01*
X5778500Y7835900D01*
X5778500Y7975600D01*
D13*
X1270000Y8636000D02*
G01*
X1117600Y8788400D01*
X876300Y8788400D01*
X850900Y8813800D01*
X850900Y8765832D01*
D11*
X1054100Y2489200D02*
G01*
X1054100Y3175000D01*
X914400Y2286000D02*
G01*
X1054191Y2425791D01*
X1054191Y2489200D01*
D13*
X1016000Y7366000D02*
G01*
X914400Y7264400D01*
X914400Y2540000D01*
D10*
X2794000Y7620000D02*
G01*
X3302000Y7620000D01*
X2794000Y7366000D02*
G01*
X3302000Y7366000D01*
X2794000Y7112000D02*
G01*
X3302000Y7112000D01*
X2794000Y6858000D02*
G01*
X3302000Y6858000D01*
X2794000Y6604000D02*
G01*
X3302000Y6604000D01*
X2794000Y6350000D02*
G01*
X3302000Y6350000D01*
X2794000Y6096000D02*
G01*
X3302000Y6096000D01*
X2794000Y5842000D02*
G01*
X3302000Y5842000D01*
X8382000Y2540000D02*
G01*
X8382000Y2286000D01*
X2032000Y5842000D02*
G01*
X1651000Y5842000D01*
X1409700Y5600700D01*
X2032000Y6096000D02*
G01*
X1651000Y6096000D01*
X1409700Y5854700D01*
X2032000Y6350000D02*
G01*
X1651000Y6350000D01*
X1409700Y6108700D01*
X2032000Y6604000D02*
G01*
X1651000Y6604000D01*
X1409700Y6362700D01*
X2032000Y6858000D02*
G01*
X1651000Y6858000D01*
X1409700Y6616700D01*
X2032000Y7112000D02*
G01*
X1651000Y7112000D01*
X1409700Y6870700D01*
X2032000Y7366000D02*
G01*
X1651000Y7366000D01*
X1409700Y7124700D01*
X2032000Y7620000D02*
G01*
X1651000Y7620000D01*
X1409700Y7378700D01*
X9486900Y1104900D02*
G01*
X9486900Y2717800D01*
X4064000Y5842000D02*
G01*
X3403600Y5842000D01*
X3327400Y5918200D01*
X2768600Y5918200D01*
X2692400Y5842000D01*
X2032000Y5842000D01*
X4064000Y6350000D02*
G01*
X3403600Y6350000D01*
X3327400Y6426200D01*
X2768600Y6426200D01*
X2692400Y6350000D01*
X2032000Y6350000D01*
X4064000Y6604000D02*
G01*
X3403600Y6604000D01*
X3327400Y6680200D01*
X2768600Y6680200D01*
X2692400Y6604000D01*
X2032000Y6604000D01*
X4064000Y6858000D02*
G01*
X3403600Y6858000D01*
X3327400Y6934200D01*
X2768600Y6934200D01*
X2692400Y6858000D01*
X2032000Y6858000D01*
X4064000Y7112000D02*
G01*
X3403600Y7112000D01*
X3327400Y7188200D01*
X2768600Y7188200D01*
X2692400Y7112000D01*
X2032000Y7112000D01*
X4064000Y7366000D02*
G01*
X3403600Y7366000D01*
X3327400Y7442200D01*
X2768600Y7442200D01*
X2692400Y7366000D01*
X2032000Y7366000D01*
X4064000Y7620000D02*
G01*
X3403600Y7620000D01*
X3327400Y7696200D01*
X2768600Y7696200D01*
X2692400Y7620000D01*
X2032000Y7620000D01*
X9613900Y1003300D02*
G01*
X9613900Y3937000D01*
X7112000Y2540000D02*
G01*
X7112000Y2590800D01*
X7086600Y2616200D01*
X5867400Y2616200D01*
X5842000Y2590800D01*
X5842000Y2540000D01*
X5842000Y2794000D02*
G01*
X5842000Y2654300D01*
X5778500Y2590800D01*
X5778500Y1993900D01*
X5842000Y1930400D01*
X5842000Y1778000D01*
X7112000Y2794000D02*
G01*
X7112000Y2654300D01*
X7175500Y2590800D01*
X7175500Y2501900D01*
X7112000Y2438400D01*
X6096000Y2438400D01*
X5842000Y2184400D01*
X5842000Y2032000D01*
X6604000Y1270000D02*
G01*
X6972300Y1270000D01*
X7264400Y1562100D01*
X7556500Y1562100D01*
X7874000Y1879600D01*
X7874000Y2032000D01*
X3911600Y7874000D02*
G01*
X3302000Y7874000D01*
X9804400Y2286000D02*
G01*
X9804400Y6705574D01*
X9804374Y6705574D01*
X9931374Y6603974D02*
G01*
X9931374Y2438400D01*
X9931400Y2438400D01*
X10058400Y2184400D02*
G01*
X10058400Y6502400D01*
X10058400Y6502400D01*
X10248900Y2374900D02*
G01*
X10248900Y6349974D01*
X10248874Y6349974D01*
X9740900Y901700D02*
G01*
X9740900Y4432300D01*
X6096000Y254000D02*
G01*
X6096000Y596900D01*
X5969000Y254000D02*
G01*
X5969000Y596900D01*
X5715000Y254000D02*
G01*
X5715000Y596900D01*
X5461000Y254000D02*
G01*
X5461000Y596900D01*
X5207000Y254000D02*
G01*
X5207000Y596900D01*
D11*
X774700Y9817100D02*
G01*
X774700Y2425700D01*
X914400Y2286000D01*
X1187195Y3308095D02*
G01*
X1270000Y3308095D01*
D10*
X9144000Y1270000D02*
G01*
X9144000Y1422400D01*
X9207500Y1485900D01*
X9207500Y2324100D01*
X9144000Y2387600D01*
X9144000Y2540000D01*
X1358900Y5080000D02*
G01*
X1358900Y5283200D01*
X1765300Y5689600D01*
X2362200Y5689600D01*
X1270000Y8890000D02*
G01*
X1358900Y8801100D01*
X1358900Y8343900D01*
X1117600Y8102600D01*
X1117600Y5308600D01*
X1181100Y5245100D01*
X1181100Y5080000D01*
X6225793Y8760205D02*
G01*
X6223000Y8763000D01*
D14*
X4942989Y9017000D02*
G01*
X6603987Y9017000D01*
X7756984Y9017000D02*
G01*
X6603987Y9017000D01*
D11*
X6604000Y9099981D02*
G01*
X6604000Y9398000D01*
X6604000Y9906000D01*
D10*
X9144000Y6604000D02*
G01*
X9144000Y6692900D01*
X9080500Y6756400D01*
X9080500Y6908800D01*
X9144000Y6972300D01*
X9144000Y7112000D01*
D14*
X4953000Y9017000D02*
G01*
X4140200Y9017000D01*
X4064000Y8940800D02*
G01*
X4064000Y8496300D01*
D12*
X4178300Y8496300D02*
G01*
X5270500Y8496300D01*
X5334000Y8432800D02*
G01*
X5334000Y8382000D01*
X3949700Y8496300D02*
G01*
X2857500Y8496300D01*
X7988300Y8496300D02*
G01*
X9080500Y8496300D01*
X9144000Y8432800D02*
G01*
X9144000Y8382000D01*
X6604000Y8432800D02*
G01*
X6604000Y8382000D01*
X7759700Y8496300D02*
G01*
X6667500Y8496300D01*
X2794000Y8432800D02*
G01*
X2794000Y8382000D01*
X2794000Y3556000D02*
G01*
X2794000Y3492500D01*
X2609595Y3308095D02*
G01*
X1270000Y3308095D01*
X7112000Y4572000D02*
G01*
X5588000Y4572000D01*
D11*
X9256522Y3151378D02*
G01*
X6437122Y3151378D01*
X6350000Y3238500D02*
G01*
X6350000Y4489957D01*
X9883902Y1270000D02*
G01*
X9883902Y866902D01*
X9791700Y774700D02*
G01*
X9436100Y774700D01*
X9343897Y866902D02*
G01*
X9343897Y3064002D01*
D10*
X8382000Y5842000D02*
G01*
X8382000Y5994400D01*
X8966174Y6578574D01*
X8966174Y7937474D01*
X7239000Y8763000D02*
G01*
X7086600Y8763000D01*
X6934200Y8915400D01*
X6311900Y8915400D01*
X2286000Y9144000D02*
G01*
X1841500Y9144000D01*
X1358900Y9626600D01*
X1358900Y9817100D01*
X1270000Y9906000D01*
X1778000Y9652000D02*
G01*
X1778000Y9931400D01*
X3556000Y2286000D02*
G01*
X3556000Y2374900D01*
X3492487Y2438405D01*
X3492487Y3162300D01*
X3492500Y3162300D01*
X2794000Y1524000D02*
G01*
X2794000Y1676400D01*
X2857500Y1739900D01*
X2857500Y2184400D01*
X3390900Y2717800D01*
X3429000Y2717800D01*
X2032000Y9652000D02*
G01*
X2413000Y9652000D01*
X2794000Y9271000D01*
X2794000Y9144000D01*
X2794000Y8890000D02*
G01*
X2857500Y8953500D01*
X2857500Y9271000D01*
X2540000Y9588500D01*
X2540000Y9652000D01*
X8382000Y6096000D02*
G01*
X8382000Y6248400D01*
X8318500Y6311900D01*
X8318500Y6426200D01*
X8839200Y6946900D01*
X8839200Y7937500D01*
X5080000Y2286000D02*
G01*
X5080000Y2438400D01*
X5016500Y2501900D01*
X5016500Y4102100D01*
X4914900Y4203700D01*
X4914900Y4673600D01*
X5080000Y2032000D02*
G01*
X5080000Y2120900D01*
X4965700Y2235200D01*
X4965700Y4089400D01*
X4851400Y4203700D01*
X4851400Y4622800D01*
X5080000Y1778000D02*
G01*
X5080000Y1866900D01*
X4914900Y2032000D01*
X4914900Y4076700D01*
X4787900Y4203700D01*
X4787900Y4572000D01*
X5080000Y1524000D02*
G01*
X5080000Y1612900D01*
X4864100Y1828800D01*
X4864100Y4064000D01*
X4724400Y4203700D01*
X4724400Y4521200D01*
X5080000Y1270000D02*
G01*
X5080000Y1358900D01*
X4813300Y1625600D01*
X4813300Y4051300D01*
X4660900Y4203700D01*
X4660900Y4470400D01*
X4762500Y1524000D02*
G01*
X4762500Y1752600D01*
X4762500Y4038600D01*
X4597400Y4203700D01*
X4597400Y4419600D01*
X4699000Y1778000D02*
G01*
X4699000Y1993900D01*
X4711700Y2006600D01*
X4711700Y4025900D01*
X4533900Y4203700D01*
X4533900Y4368800D01*
X4648200Y2032000D02*
G01*
X4648200Y2070100D01*
X4660900Y2082800D01*
X4660900Y4013200D01*
X4470400Y4203700D01*
X4470400Y4318000D01*
X9550400Y1054100D02*
G01*
X9550400Y4508500D01*
X9677400Y4635500D01*
X9677400Y6248400D01*
X8890000Y4572000D02*
G01*
X8801100Y4572000D01*
X8102600Y3873500D01*
X7835900Y3873500D01*
X7772400Y3810000D01*
X7620000Y3810000D01*
X8128000Y3810000D02*
G01*
X8280400Y3810000D01*
X8343900Y3746500D01*
X8470900Y3746500D01*
X9232900Y4508500D01*
X9486900Y4508500D01*
X9613900Y4635500D01*
X9613900Y7594600D01*
X9639274Y7619974D01*
X9867900Y6654800D02*
G01*
X9867900Y2184400D01*
X9804400Y2120900D01*
X9804400Y1930400D02*
G01*
X9994900Y2120900D01*
X9994900Y6553200D01*
X9804400Y1701800D02*
G01*
X10121900Y2019300D01*
X10121900Y6451600D01*
X10185400Y6400800D02*
G01*
X10185400Y1993900D01*
X10058400Y1866900D01*
D11*
X10375900Y8737600D02*
G01*
X10375900Y2006600D01*
X9883902Y1514602D01*
X9883902Y1270000D01*
D10*
X6565900Y1625600D02*
G01*
X5702300Y1625600D01*
X5499100Y1828800D02*
G01*
X5499100Y2032000D01*
X5397500Y2133600D01*
X5397500Y2184400D01*
X6565900Y1676400D02*
G01*
X5715000Y1676400D01*
X5549887Y1841512D02*
G01*
X5549887Y2070112D01*
X5511800Y2108200D01*
D14*
X7747000Y9017000D02*
G01*
X7797800Y9017000D01*
X7874000Y8940800D02*
G01*
X7874000Y8483600D01*
D10*
X9144000Y4572000D02*
G01*
X9486900Y4572000D01*
X9563100Y4648200D01*
X9563100Y8826500D01*
X9410700Y8978900D01*
X9410700Y9017000D01*
X6223000Y8496300D02*
G01*
X5562600Y8496300D01*
X5359400Y8699500D01*
X4533900Y8699500D01*
X1409700Y8343900D02*
G01*
X1409700Y9004300D01*
X1270000Y9144000D01*
X4572000Y7874000D02*
G01*
X4572000Y7810500D01*
X4559287Y7797787D01*
X2540012Y7797787D01*
X2425700Y7683474D01*
X5334000Y7620000D02*
G01*
X5334000Y7670800D01*
X5257800Y7747000D02*
G01*
X2616225Y7747000D01*
X2552700Y7683474D01*
X5334000Y7416800D02*
G01*
X5334000Y7366000D01*
X5334000Y7162800D02*
G01*
X5334000Y7112000D01*
X5334000Y6908800D02*
G01*
X5334000Y6858000D01*
X5334000Y6654800D02*
G01*
X5334000Y6604000D01*
X5334000Y6400800D02*
G01*
X5334000Y6350000D01*
X5334000Y6146800D02*
G01*
X5334000Y6096000D01*
X5334000Y5892800D02*
G01*
X5334000Y5842000D01*
X5334000Y5638800D02*
G01*
X5334000Y5588000D01*
X3302000Y7620000D02*
G01*
X3302000Y7569200D01*
X3340100Y7531100D02*
G01*
X5219700Y7531100D01*
X2794000Y7620000D02*
G01*
X2794000Y7569200D01*
X2768600Y7543800D02*
G01*
X1701800Y7543800D01*
X1270000Y7112000D01*
X2794000Y7366000D02*
G01*
X2794000Y7315200D01*
X2768600Y7289800D02*
G01*
X1701800Y7289800D01*
X1270000Y6858000D01*
X3302000Y7366000D02*
G01*
X3302000Y7315200D01*
X3327400Y7289800D02*
G01*
X5207000Y7289800D01*
X3302000Y7112000D02*
G01*
X3302000Y7061200D01*
X3327400Y7035800D02*
G01*
X5207000Y7035800D01*
X2794000Y7112000D02*
G01*
X2794000Y7061200D01*
X2768600Y7035800D02*
G01*
X1701800Y7035800D01*
X1270000Y6604000D01*
X2794000Y6858000D02*
G01*
X2794000Y6807200D01*
X2768600Y6781800D02*
G01*
X1701800Y6781800D01*
X1270000Y6350000D01*
X3302000Y6858000D02*
G01*
X3302000Y6807200D01*
X3327400Y6781800D02*
G01*
X5207000Y6781800D01*
X2794000Y6604000D02*
G01*
X2794000Y6553200D01*
X2768600Y6527800D02*
G01*
X1701800Y6527800D01*
X1270000Y6096000D01*
X3302000Y6604000D02*
G01*
X3302000Y6553200D01*
X3327400Y6527800D02*
G01*
X5207000Y6527800D01*
X3302000Y6350000D02*
G01*
X3302000Y6299200D01*
X3327400Y6273800D02*
G01*
X5207000Y6273800D01*
X2794000Y6350000D02*
G01*
X2794000Y6299200D01*
X2768600Y6273800D02*
G01*
X1701800Y6273800D01*
X1270000Y5842000D01*
X2794000Y6096000D02*
G01*
X2794000Y6045200D01*
X2768600Y6019800D02*
G01*
X1701800Y6019800D01*
X1270000Y5588000D01*
X3302000Y6096000D02*
G01*
X3302000Y6045200D01*
X3327400Y6019800D02*
G01*
X5207000Y6019800D01*
X3302000Y5842000D02*
G01*
X3302000Y5791200D01*
X3327400Y5765800D02*
G01*
X5207000Y5765800D01*
X2794000Y5842000D02*
G01*
X2794000Y5791200D01*
X2768600Y5765800D02*
G01*
X1701800Y5765800D01*
X1270000Y5334000D01*
X9359900Y5511800D02*
G01*
X9359900Y8001000D01*
X9347200Y8013700D01*
X9347200Y8051800D01*
X8509000Y9017000D02*
G01*
X8534400Y9017000D01*
X8712200Y8839200D01*
X9296400Y8839200D01*
X9359900Y8775700D01*
X9359900Y8102600D01*
X9347200Y8089900D01*
X9347200Y8051800D01*
X9144000Y9461500D02*
G01*
X9144000Y9525000D01*
X9461500Y5486400D02*
G01*
X9461500Y8801100D01*
X9321800Y8940800D01*
X8737600Y8940800D01*
X8686800Y8991600D01*
X8686800Y9042400D01*
X9067800Y9423400D02*
G01*
X9105900Y9423400D01*
X8964929Y9257029D02*
G01*
X8964929Y9130029D01*
X8851900Y9017000D02*
G01*
X8763000Y9017000D01*
X9410700Y5499100D02*
G01*
X9410700Y8788400D01*
X9309100Y8890000D01*
X8724900Y8890000D01*
X8636000Y8978900D01*
X8636000Y9017000D01*
X8572500Y9080500D02*
G01*
X8445500Y9080500D01*
X8382000Y9017000D01*
X8255000Y9017000D01*
X8509000Y9779000D02*
G01*
X8661400Y9779000D01*
X8724900Y9842500D01*
X8801100Y9842500D01*
X8864600Y9779000D01*
X9144000Y9779000D01*
X9677400Y952500D02*
G01*
X9677400Y4572000D01*
X9740900Y4635500D01*
X9740900Y8915400D01*
X9283700Y9372600D02*
G01*
X9080500Y9372600D01*
X8115300Y5537200D02*
G01*
X8115300Y6781800D01*
X7937500Y6959600D01*
X7937500Y7137400D01*
X7886700Y7188200D02*
G01*
X7620000Y7188200D01*
X7112000Y6680200D01*
X7112000Y6604000D01*
X6896100Y7797800D02*
G01*
X6896100Y7734300D01*
X7175500Y7454900D01*
X7175500Y7073900D01*
X7112000Y7010400D01*
X7112000Y6858000D01*
X6845300Y7785100D02*
G01*
X6845300Y7721600D01*
X7112000Y7454900D01*
X7112000Y7366000D01*
X6718300Y7848600D02*
G01*
X6718300Y6870700D01*
X6604000Y6756400D01*
X6604000Y6604000D01*
X4485386Y9647936D02*
G01*
X4485386Y9565386D01*
X4150359Y9230360D01*
X4150359Y9148063D01*
D15*
G01*
X8128000Y-305993D03*
G01*
X7874000Y-305993D03*
G01*
X7620000Y-305993D03*
G01*
X7366000Y-305993D03*
G01*
X7112000Y-305993D03*
G01*
X6858000Y-305993D03*
G01*
X6604000Y-305993D03*
G01*
X6350000Y-305993D03*
G01*
X5842000Y-305993D03*
G01*
X5588000Y-305993D03*
G01*
X5334000Y-305993D03*
G01*
X5080000Y-305993D03*
G01*
X4826000Y-305993D03*
G01*
X4572000Y-305993D03*
G01*
X4318000Y-305993D03*
G01*
X4064000Y-305993D03*
G01*
X3810000Y-305993D03*
G01*
X3556000Y-305993D03*
G01*
X3302000Y-305993D03*
G01*
X3048000Y-305993D03*
G01*
X2794000Y-305993D03*
G01*
X2540000Y-305993D03*
G01*
X2286000Y-305993D03*
G01*
X2032000Y-305993D03*
G01*
X1778000Y-305993D03*
G01*
X1524000Y-305993D03*
G01*
X1270000Y-305993D03*
G01*
X1016000Y-305993D03*
G01*
X762000Y-305993D03*
D16*
G01*
X1270000Y3308095D03*
D17*
G01*
X1270000Y3557879D03*
G01*
X1270000Y3807891D03*
D16*
G01*
X1270000Y4057904D03*
D10*
G75*
G01*
X6515100Y8051800D02*
G02*
X6718300Y7848600I0J-203200D01*
G75*
G01*
X6527800Y8102600D02*
G02*
X6845300Y7785100I0J-317500D01*
G75*
G01*
X6540500Y8153400D02*
G02*
X6896100Y7797800I0J-355600D01*
G75*
G01*
X6553200Y8204200D02*
G02*
X6946900Y7810500I0J-393700D01*
G75*
G01*
X6565900Y8255000D02*
G02*
X6997700Y7823200I0J-431800D01*
G75*
G01*
X6578600Y8305800D02*
G02*
X7048500Y7835900I0J-469900D01*
G75*
G01*
X7886700Y7188200D02*
G02*
X7937500Y7137400I0J-50800D01*
G75*
G01*
X9283700Y9372600D02*
G02*
X9740900Y8915400I0J-457200D01*
G75*
G01*
X8572500Y9080500D02*
G02*
X8636000Y9017000I0J-63500D01*
G75*
G01*
X8964930Y9130030D02*
G02*
X8851900Y9017000I-113030J0D01*
G75*
G01*
X8964930Y9257030D02*
G02*
X9080500Y9372600I115570J0D01*
G75*
G01*
X8686800Y9042400D02*
G02*
X9067800Y9423400I381000J0D01*
G75*
G01*
X9144000Y9461500D02*
G02*
X9105900Y9423400I-38100J0D01*
G75*
G01*
X2794000Y5791200D02*
G02*
X2768600Y5765800I-25400J0D01*
G75*
G01*
X3327400Y5765800D02*
G02*
X3302000Y5791200I0J25400D01*
G75*
G01*
X3327400Y6019800D02*
G02*
X3302000Y6045200I0J25400D01*
G75*
G01*
X3327400Y6273800D02*
G02*
X3302000Y6299200I0J25400D01*
G75*
G01*
X2794000Y6045200D02*
G02*
X2768600Y6019800I-25400J0D01*
G75*
G01*
X2794000Y6299200D02*
G02*
X2768600Y6273800I-25400J0D01*
G75*
G01*
X3327400Y6527800D02*
G02*
X3302000Y6553200I0J25400D01*
G75*
G01*
X2794000Y6553200D02*
G02*
X2768600Y6527800I-25400J0D01*
G75*
G01*
X2794000Y6807200D02*
G02*
X2768600Y6781800I-25400J0D01*
G75*
G01*
X3327400Y6781800D02*
G02*
X3302000Y6807200I0J25400D01*
G75*
G01*
X2794000Y7061200D02*
G02*
X2768600Y7035800I-25400J0D01*
G75*
G01*
X3327400Y7035800D02*
G02*
X3302000Y7061200I0J25400D01*
G75*
G01*
X3327400Y7289800D02*
G02*
X3302000Y7315200I0J25400D01*
G75*
G01*
X2794000Y7315200D02*
G02*
X2768600Y7289800I-25400J0D01*
G75*
G01*
X2794000Y7569200D02*
G02*
X2768600Y7543800I-25400J0D01*
G75*
G01*
X3340100Y7531100D02*
G02*
X3302000Y7569200I0J38100D01*
G75*
G01*
X5257800Y7747000D02*
G02*
X5334000Y7670800I0J-76200D01*
G75*
G01*
X5219700Y7531100D02*
G02*
X5334000Y7416800I0J-114300D01*
G75*
G01*
X5207000Y7289800D02*
G02*
X5334000Y7162800I0J-127000D01*
G75*
G01*
X5207000Y7035800D02*
G02*
X5334000Y6908800I0J-127000D01*
G75*
G01*
X5207000Y6781800D02*
G02*
X5334000Y6654800I0J-127000D01*
G75*
G01*
X5207000Y6527800D02*
G02*
X5334000Y6400800I0J-127000D01*
G75*
G01*
X5207000Y6273800D02*
G02*
X5334000Y6146800I0J-127000D01*
G75*
G01*
X5207000Y6019800D02*
G02*
X5334000Y5892800I0J-127000D01*
G75*
G01*
X5207000Y5765800D02*
G02*
X5334000Y5638800I0J-127000D01*
G75*
G01*
X4318000Y8915375D02*
G03*
X4533875Y8699500I215875J0D01*
D14*
G75*
G01*
X7797800Y9017000D02*
G02*
X7874000Y8940800I0J-76200D01*
D10*
G75*
G01*
X5702300Y1625600D02*
G02*
X5499100Y1828800I0J203200D01*
G75*
G01*
X5715000Y1676400D02*
G02*
X5549887Y1841513I0J165113D01*
G75*
G01*
X1777997Y9867880D02*
G02*
X1904997Y9994880I127000J0D01*
G75*
G01*
X1777997Y9867880D02*
G03*
X1650997Y9994880I-127000J0D01*
D11*
G75*
G01*
X9436100Y774700D02*
G02*
X9343898Y866902I0J92202D01*
G75*
G01*
X9883902Y866902D02*
G02*
X9791700Y774700I-92202J0D01*
G75*
G01*
X6350000Y3238500D02*
G03*
X6437122Y3151378I87122J0D01*
G75*
G01*
X9256522Y3151378D02*
G02*
X9343898Y3064002I0J-87376D01*
D12*
G75*
G01*
X9144000Y3302000D02*
G02*
X9029700Y3187700I-114300J0D01*
G75*
G01*
X9144000Y3302000D02*
G03*
X9258300Y3187700I114300J0D01*
G75*
G01*
X6604000Y3302000D02*
G02*
X6489700Y3187700I-114300J0D01*
G75*
G01*
X6604000Y3302000D02*
G03*
X6718300Y3187700I114300J0D01*
G75*
G01*
X7874000Y3302000D02*
G03*
X7988300Y3187700I114300J0D01*
G75*
G01*
X6199386Y4571990D02*
G02*
X6313686Y4457690I0J-114300D01*
G75*
G01*
X6500487Y4571990D02*
G03*
X6386187Y4457690I0J-114300D01*
G75*
G01*
X2794000Y3492500D02*
G02*
X2609596Y3308096I-184404J0D01*
G75*
G01*
X7874000Y3302000D02*
G02*
X7759700Y3187700I-114300J0D01*
G75*
G01*
X2794000Y8432800D02*
G02*
X2857500Y8496300I63500J0D01*
G75*
G01*
X9080500Y8496300D02*
G02*
X9144000Y8432800I0J-63500D01*
G75*
G01*
X6604000Y8432800D02*
G02*
X6667500Y8496300I63500J0D01*
G75*
G01*
X7759700Y8496300D02*
G03*
X7874000Y8610600I0J114300D01*
G75*
G01*
X7988300Y8496300D02*
G02*
X7874000Y8610600I0J114300D01*
G75*
G01*
X5270500Y8496300D02*
G02*
X5334000Y8432800I0J-63500D01*
G75*
G01*
X4178300Y8496300D02*
G02*
X4064000Y8610600I0J114300D01*
G75*
G01*
X3949700Y8496300D02*
G03*
X4064000Y8610600I0J114300D01*
G75*
G01*
X7874000Y8382000D02*
G03*
X7759700Y8496300I-114300J0D01*
G75*
G01*
X7874000Y8382000D02*
G02*
X7988300Y8496300I114300J0D01*
G75*
G01*
X4064000Y8382000D02*
G02*
X4178300Y8496300I114300J0D01*
G75*
G01*
X4064000Y8382000D02*
G03*
X3949700Y8496300I-114300J0D01*
D14*
G75*
G01*
X4064000Y8940800D02*
G02*
X4140200Y9017000I76200J0D01*
G75*
G01*
X6451600Y9017000D02*
G03*
X6578600Y9144000I0J127000D01*
G75*
G01*
X6756400Y9017000D02*
G02*
X6629400Y9144000I0J127000D01*
D11*
G75*
G01*
X6604000Y9906000D02*
G02*
X6756400Y10058400I152400J0D01*
G75*
G01*
X6604000Y9906000D02*
G03*
X6451600Y10058400I-152400J0D01*
D10*
G75*
G01*
X1270000Y4991100D02*
G02*
X1181100Y5080000I0J88900D01*
G75*
G01*
X1358900Y5080000D02*
G02*
X1270000Y4991100I-88900J0D01*
D11*
G75*
G01*
X1054100Y3175000D02*
G02*
X1187196Y3308096I133096J0D01*
G75*
G01*
X774700Y2489200D02*
G03*
X1054191Y2489200I139746J0D01*
D13*
G75*
G01*
X977900Y8788400D02*
G02*
X825500Y8940800I0J152400D01*
G75*
G01*
X977900Y8788400D02*
G03*
X825500Y8636000I0J-152400D01*
D11*
G75*
G01*
X774700Y9817100D02*
G02*
X1016000Y10058400I241300J0D01*
D10*
G75*
G01*
X5448300Y8305800D02*
G02*
X5778500Y7975600I0J-330200D01*
G75*
G01*
X5435600Y8255000D02*
G02*
X5727700Y7962900I0J-292100D01*
G75*
G01*
X5422900Y8204200D02*
G02*
X5676900Y7950200I0J-254000D01*
G75*
G01*
X5410200Y8153400D02*
G02*
X5626100Y7937500I0J-215900D01*
G75*
G01*
X5397500Y8102600D02*
G02*
X5575300Y7924800I0J-177800D01*
G75*
G01*
X5384800Y8051800D02*
G02*
X5524500Y7912100I0J-139700D01*
G75*
G01*
X5372100Y8001000D02*
G02*
X5473700Y7899400I0J-101600D01*
G75*
G01*
X5359400Y7950200D02*
G02*
X5422900Y7886700I0J-63500D01*
G75*
G01*
X762000Y635000D02*
G02*
X1295400Y1168400I533400J0D01*
G75*
G01*
X1016000Y635000D02*
G02*
X1498600Y1117600I482600J0D01*
G75*
G01*
X1270000Y635000D02*
G02*
X1701800Y1066800I431800J0D01*
G75*
G01*
X1524000Y635000D02*
G02*
X1905000Y1016000I381000J0D01*
G75*
G01*
X1778000Y635000D02*
G02*
X2108200Y965200I330200J0D01*
G75*
G01*
X2032000Y635000D02*
G02*
X2311400Y914400I279400J0D01*
G75*
G01*
X2286000Y635000D02*
G02*
X2514600Y863600I228600J0D01*
G75*
G01*
X2540000Y635000D02*
G02*
X2717800Y812800I177800J0D01*
G75*
G01*
X2794000Y635000D02*
G02*
X2921000Y762000I127000J0D01*
G75*
G01*
X3048000Y622300D02*
G02*
X3136900Y711200I88900J0D01*
G75*
G01*
X3302000Y635000D02*
G02*
X3327400Y660400I25400J0D01*
G75*
G01*
X4076700Y1117600D02*
G02*
X3619500Y660400I-457200J0D01*
G75*
G01*
X4025900Y1130300D02*
G02*
X3606800Y711200I-419100J0D01*
G75*
G01*
X3975100Y1143000D02*
G02*
X3594100Y762000I-381000J0D01*
G75*
G01*
X3924300Y1155700D02*
G02*
X3581400Y812800I-342900J0D01*
G75*
G01*
X3873500Y1168400D02*
G02*
X3568700Y863600I-304800J0D01*
G75*
G01*
X3822700Y1181100D02*
G02*
X3556000Y914400I-266700J0D01*
G75*
G01*
X3771900Y1193800D02*
G02*
X3543300Y965200I-228600J0D01*
G75*
G01*
X3721100Y1206500D02*
G02*
X3530600Y1016000I-190500J0D01*
G75*
G01*
X3670300Y1219200D02*
G02*
X3517900Y1066800I-152400J0D01*
G75*
G01*
X3619500Y1231900D02*
G02*
X3505200Y1117600I-114300J0D01*
G75*
G01*
X3556000Y254000D02*
G02*
X3695700Y393700I139700J0D01*
G75*
G01*
X3810000Y254000D02*
G02*
X3898900Y342900I88900J0D01*
G75*
G01*
X4533900Y292100D02*
G02*
X4572000Y254000I0J-38100D01*
G75*
G01*
X4737100Y342900D02*
G02*
X4826000Y254000I0J-88900D01*
G75*
G01*
X4940300Y393700D02*
G02*
X5080000Y254000I0J-139700D01*
G75*
G01*
X4064000Y254000D02*
G02*
X4102100Y292100I38100J0D01*
G75*
G01*
X4457700Y393700D02*
G02*
X4432300Y419100I0J25400D01*
G75*
G01*
X4445000Y342900D02*
G02*
X4381500Y406400I0J63500D01*
G75*
G01*
X4432300Y292100D02*
G02*
X4330700Y393700I0J101600D01*
G75*
G01*
X4229100Y393700D02*
G02*
X4127500Y292100I-101600J0D01*
G75*
G01*
X4178300Y406400D02*
G02*
X4114800Y342900I-63500J0D01*
G75*
G01*
X4127500Y419100D02*
G02*
X4102100Y393700I-25400J0D01*
G75*
G01*
X5219700Y685800D02*
G02*
X4483100Y1422400I0J736600D01*
G75*
G01*
X5232400Y736600D02*
G02*
X4533900Y1435100I0J698500D01*
G75*
G01*
X5245100Y787400D02*
G02*
X4584700Y1447800I0J660400D01*
G75*
G01*
X5257800Y838200D02*
G02*
X4635500Y1460500I0J622300D01*
G75*
G01*
X5270500Y889000D02*
G02*
X4699000Y1460500I0J571500D01*
G75*
G01*
X5283200Y939800D02*
G02*
X4762500Y1460500I0J520700D01*
G75*
G01*
X5295900Y990600D02*
G02*
X5080000Y1206500I0J215900D01*
G75*
G01*
X5308600Y1041400D02*
G02*
X5143500Y1206500I0J165100D01*
G75*
G01*
X5321300Y1092200D02*
G02*
X5194300Y1219200I0J127000D01*
G75*
G01*
X5334000Y1143000D02*
G02*
X5245100Y1231900I0J88900D01*
G75*
G01*
X5346700Y1193800D02*
G02*
X5295900Y1244600I0J50800D01*
G75*
G01*
X5791200Y1346200D02*
G02*
X5346700Y1790700I0J444500D01*
G75*
G01*
X5803900Y1397000D02*
G02*
X5397500Y1803400I0J406400D01*
G75*
G01*
X5816600Y1447800D02*
G02*
X5448300Y1816100I0J368300D01*
G75*
G01*
X6604000Y1714500D02*
G02*
X6565900Y1676400I-38100J0D01*
G75*
G01*
X6565900Y1625600D02*
G02*
X6604000Y1587500I0J-38100D01*
G75*
G01*
X5283200Y685800D02*
G02*
X5334000Y635000I0J-50800D01*
G75*
G01*
X5486400Y736600D02*
G02*
X5588000Y635000I0J-101600D01*
G75*
G01*
X5689600Y787400D02*
G02*
X5842000Y635000I0J-152400D01*
G75*
G01*
X6146800Y838200D02*
G02*
X6350000Y635000I0J-203200D01*
G75*
G01*
X6350000Y889000D02*
G02*
X6604000Y635000I0J-254000D01*
G75*
G01*
X6553200Y939800D02*
G02*
X6858000Y635000I0J-304800D01*
G75*
G01*
X6756400Y990600D02*
G02*
X7112000Y635000I0J-355600D01*
G75*
G01*
X6959600Y1041400D02*
G02*
X7366000Y635000I0J-406400D01*
G75*
G01*
X7162800Y1092200D02*
G02*
X7620000Y635000I0J-457200D01*
G75*
G01*
X7366000Y1143000D02*
G02*
X7874000Y635000I0J-508000D01*
G75*
G01*
X7569200Y1193800D02*
G02*
X8128000Y635000I0J-558800D01*
G75*
G01*
X7048500Y1562100D02*
G02*
X7099300Y1612900I50800J0D01*
G75*
G01*
X6997700Y1574800D02*
G02*
X7086600Y1663700I88900J0D01*
G75*
G01*
X2032000Y2184400D02*
G02*
X2057400Y2209800I25400J0D01*
G75*
G01*
X2032000Y2438400D02*
G02*
X2057400Y2463800I25400J0D01*
G75*
G01*
X2032000Y2692400D02*
G02*
X2057400Y2717800I25400J0D01*
G75*
G01*
X2032000Y2946400D02*
G02*
X2057400Y2971800I25400J0D01*
G75*
G01*
X8623300Y2667000D02*
G02*
X9080500Y2209800I0J-457200D01*
G75*
G01*
X7937500Y2616200D02*
G02*
X8255000Y2298700I0J-317500D01*
G75*
G01*
X4406900Y4356100D02*
G02*
X4800600Y4749800I393700J0D01*
G75*
G01*
X4356100Y4368800D02*
G02*
X4787900Y4800600I431800J0D01*
G75*
G01*
X4305300Y4381500D02*
G02*
X4775200Y4851400I469900J0D01*
G75*
G01*
X4254500Y4394200D02*
G02*
X4762500Y4902200I508000J0D01*
G75*
G01*
X4203700Y4406900D02*
G02*
X4749800Y4953000I546100J0D01*
G75*
G01*
X4152900Y4419600D02*
G02*
X4737100Y5003800I584200J0D01*
G75*
G01*
X3556000Y4635500D02*
G02*
X3975100Y5054600I419100J0D01*
G75*
G01*
X3492500Y4635500D02*
G02*
X3962400Y5105400I469900J0D01*
G75*
G01*
X3441700Y4648200D02*
G02*
X3949700Y5156200I508000J0D01*
G75*
G01*
X3390900Y4660900D02*
G02*
X3937000Y5207000I546100J0D01*
G75*
G01*
X3340100Y4673600D02*
G02*
X3924300Y5257800I584200J0D01*
G75*
G01*
X3289300Y4686300D02*
G02*
X3911600Y5308600I622300J0D01*
G75*
G01*
X1765300Y1295400D02*
G02*
X1816100Y1346200I50800J0D01*
G75*
G01*
X3492500Y1358900D02*
G02*
X3302000Y1168400I-190500J0D01*
G75*
G01*
X3441700Y1371600D02*
G02*
X3416300Y1346200I-25400J0D01*
G75*
G01*
X9461500Y5486400D02*
G02*
X8623300Y4648200I-838200J0D01*
G75*
G01*
X9410700Y5499100D02*
G02*
X8610600Y4699000I-800100J0D01*
G75*
G01*
X9359900Y5511800D02*
G02*
X8597900Y4749800I-762000J0D01*
G75*
G01*
X9309100Y5524500D02*
G02*
X8585200Y4800600I-723900J0D01*
G75*
G01*
X9258300Y5537200D02*
G02*
X8572500Y4851400I-685800J0D01*
G75*
G01*
X9207500Y5549900D02*
G02*
X8559800Y4902200I-647700J0D01*
G75*
G01*
X8267700Y5499100D02*
G02*
X7721600Y4953000I-546100J0D01*
G75*
G01*
X8216900Y5511800D02*
G02*
X7708900Y5003800I-508000J0D01*
G75*
G01*
X8166087Y5524487D02*
G02*
X7696200Y5054600I-469887J0D01*
G75*
G01*
X8115300Y5537200D02*
G02*
X7683500Y5105400I-431800J0D01*
G75*
G01*
X8064500Y5549900D02*
G02*
X7670800Y5156200I-393700J0D01*
G75*
G01*
X8013700Y5562600D02*
G02*
X7658100Y5207000I-355600J0D01*
G75*
G01*
X7962900Y5575300D02*
G02*
X7645400Y5257800I-317500J0D01*
G75*
G01*
X9182100Y3873500D02*
G02*
X9486900Y3568700I0J-304800D01*
D11*
G75*
G01*
X9055100Y10058400D02*
G02*
X10375900Y8737600I0J-1320800D01*
D10*
G75*
G01*
X6578600Y8305800D02*
G02*
X6527800Y8356600I0J50800D01*
G75*
G01*
X6565900Y8255000D02*
G02*
X6477000Y8343900I0J88900D01*
G75*
G01*
X6553200Y8204200D02*
G02*
X6426200Y8331200I0J127000D01*
G75*
G01*
X6540500Y8153400D02*
G02*
X6375400Y8318500I0J165100D01*
G75*
G01*
X6527800Y8102600D02*
G02*
X6324600Y8305800I0J203200D01*
G75*
G01*
X6515100Y8051800D02*
G02*
X6273800Y8293100I0J241300D01*
G75*
G01*
X6273800Y8763000D02*
G02*
X6527800Y8509000I0J-254000D01*
G75*
G01*
X6273800Y8699500D02*
G02*
X6477000Y8496300I0J-203200D01*
G75*
G01*
X6261100Y8648700D02*
G02*
X6426200Y8483600I0J-165100D01*
G75*
G01*
X6248400Y8597900D02*
G02*
X6375400Y8470900I0J-127000D01*
G75*
G01*
X6235700Y8547100D02*
G02*
X6324600Y8458200I0J-88900D01*
G75*
G01*
X6223000Y8496300D02*
G02*
X6273800Y8445500I0J-50800D01*
G75*
G01*
X7086600Y7797800D02*
G02*
X7048500Y7835900I0J38100D01*
G75*
G01*
X7073900Y7747000D02*
G02*
X6997700Y7823200I0J76200D01*
G75*
G01*
X7061200Y7696200D02*
G02*
X6946900Y7810500I0J114300D01*
G75*
G01*
X7112000Y7937500D02*
G02*
X7226287Y8051787I114287J0D01*
G75*
G01*
X7251675Y7873975D02*
G02*
X7378687Y8000987I127012J0D01*
G75*
G01*
X7340575Y7873975D02*
G02*
X7416787Y7950187I76212J0D01*
G75*
G01*
X1701800Y8305800D02*
G02*
X1612900Y8394700I0J88900D01*
G75*
G01*
X1689100Y8255000D02*
G02*
X1562100Y8382000I0J127000D01*
G75*
G01*
X1676400Y8204200D02*
G02*
X1511300Y8369300I0J165100D01*
G75*
G01*
X1663700Y8153400D02*
G02*
X1460500Y8356600I0J203200D01*
G75*
G01*
X1651000Y8102600D02*
G02*
X1409700Y8343900I0J241300D01*
G75*
G01*
X7086587Y6273787D02*
G02*
X6997687Y6362687I0J88900D01*
G75*
G01*
X7874000Y6299200D02*
G02*
X7848587Y6273787I-25413J0D01*
G75*
G01*
X7124700Y7696200D02*
G02*
X7226300Y7594600I0J-101600D01*
D18*
G01*
X4953000Y8763000D03*
G01*
X5207000Y8763000D03*
G01*
X5461000Y8763000D03*
G01*
X5715000Y8763000D03*
G01*
X5969000Y8763000D03*
G01*
X6223000Y8763000D03*
D12*
G01*
X1092200Y1270000D03*
G01*
X1292199Y1270000D03*
G01*
X9883775Y1270000D03*
G01*
X10083774Y1270000D03*
G01*
X2286000Y8382000D03*
G01*
X2794000Y8382000D03*
G01*
X3556000Y8382000D03*
G01*
X4064000Y8382000D03*
G01*
X6096000Y8382000D03*
G01*
X6604000Y8382000D03*
G01*
X8636000Y3302000D03*
G01*
X9144000Y3302000D03*
G01*
X6096000Y3302000D03*
G01*
X6604000Y3302000D03*
G01*
X7366000Y3302000D03*
G01*
X7874000Y3302000D03*
G01*
X2286000Y3556000D03*
G01*
X2794000Y3556000D03*
G01*
X7366000Y8382000D03*
G01*
X7874000Y8382000D03*
G01*
X5588000Y4064000D03*
G01*
X5588000Y4572000D03*
G01*
X8636000Y8382000D03*
G01*
X9144000Y8382000D03*
G01*
X4826000Y8382000D03*
G01*
X5334000Y8382000D03*
G01*
X7112000Y4064000D03*
G01*
X7112000Y4572000D03*
D20*
G01*
X1270000Y3307994D03*
G01*
X1270000Y3557981D03*
G01*
X1270000Y3807993D03*
G01*
X1270000Y4057980D03*
D21*
G01*
X2540000Y9652000D03*
G01*
X2794000Y9652000D03*
D22*
G01*
X1016000Y9906000D03*
G01*
X1270000Y9906000D03*
G01*
X1016000Y9652000D03*
G01*
X1270000Y9652000D03*
G01*
X1016000Y9398000D03*
G01*
X1270000Y9398000D03*
G01*
X1016000Y9144000D03*
G01*
X1270000Y9144000D03*
G01*
X1016000Y8890000D03*
G01*
X1270000Y8890000D03*
G01*
X1016000Y8636000D03*
G01*
X1270000Y8636000D03*
G01*
X1016000Y8382000D03*
G01*
X1270000Y8382000D03*
G01*
X1016000Y8128000D03*
G01*
X1270000Y8128000D03*
G01*
X1016000Y7874000D03*
G01*
X1270000Y7874000D03*
G01*
X1016000Y7620000D03*
G01*
X1270000Y7620000D03*
G01*
X1016000Y7366000D03*
G01*
X1270000Y7366000D03*
G01*
X1016000Y7112000D03*
G01*
X1270000Y7112000D03*
G01*
X1016000Y6858000D03*
G01*
X1270000Y6858000D03*
G01*
X1016000Y6604000D03*
G01*
X1270000Y6604000D03*
G01*
X1016000Y6350000D03*
G01*
X1270000Y6350000D03*
G01*
X1016000Y6096000D03*
G01*
X1270000Y6096000D03*
G01*
X1016000Y5842000D03*
G01*
X1270000Y5842000D03*
G01*
X1016000Y5588000D03*
G01*
X1270000Y5588000D03*
G01*
X1016000Y5334000D03*
G01*
X1270000Y5334000D03*
G01*
X1016000Y5080000D03*
G01*
X1269644Y5080000D03*
D21*
G01*
X3175000Y635000D03*
G01*
X3175000Y381000D03*
G01*
X2921000Y635000D03*
G01*
X2921000Y381000D03*
G01*
X2667000Y635000D03*
G01*
X2667000Y381000D03*
G01*
X2413000Y635000D03*
G01*
X2413000Y381000D03*
G01*
X2159000Y635000D03*
G01*
X2159000Y381000D03*
D12*
G01*
X1778000Y9651974D03*
G01*
X2032000Y9651974D03*
D23*
G01*
X2286000Y9143974D03*
G01*
X2794000Y9143974D03*
G01*
X2286000Y8889974D03*
G01*
X2794000Y8889974D03*
D18*
G01*
X8255000Y8763000D03*
G01*
X8001000Y8763000D03*
G01*
X7747000Y8763000D03*
G01*
X7493000Y8763000D03*
G01*
X7239000Y8763000D03*
G01*
X6985000Y8763000D03*
G01*
X8509000Y8763000D03*
G01*
X8763000Y8763000D03*
D24*
G01*
X9144000Y9779000D03*
G01*
X9144000Y9525000D03*
G01*
X9144000Y9271000D03*
G01*
X9144000Y9017000D03*
G01*
X9144000Y8763000D03*
D25*
G01*
X4485360Y9148013D03*
G01*
X4485360Y9398000D03*
G01*
X4485360Y9648012D03*
G01*
X4150359Y9148013D03*
G01*
X4150359Y9398000D03*
G01*
X4150359Y9648012D03*
D18*
G01*
X4953000Y9779000D03*
G01*
X5207000Y9779000D03*
G01*
X5461000Y9779000D03*
G01*
X5715000Y9779000D03*
G01*
X5969000Y9779000D03*
G01*
X6223000Y9779000D03*
G01*
X6223000Y9017000D03*
G01*
X5969000Y9017000D03*
G01*
X5715000Y9017000D03*
G01*
X5461000Y9017000D03*
G01*
X5207000Y9017000D03*
G01*
X4953000Y9017000D03*
G01*
X6985000Y9779000D03*
G01*
X7239000Y9779000D03*
G01*
X7493000Y9779000D03*
G01*
X7747000Y9779000D03*
G01*
X7747000Y9017000D03*
G01*
X7493000Y9017000D03*
G01*
X7239000Y9017000D03*
G01*
X6985000Y9017000D03*
G01*
X8001000Y9017000D03*
G01*
X8255000Y9017000D03*
G01*
X8509000Y9017000D03*
G01*
X8509000Y9779000D03*
G01*
X8255000Y9779000D03*
G01*
X8001000Y9779000D03*
G01*
X8763000Y9779000D03*
G01*
X8763000Y9017000D03*
D24*
G01*
X2032000Y7874000D03*
G01*
X2794000Y7874000D03*
G01*
X2032000Y7620000D03*
G01*
X2794000Y7620000D03*
G01*
X2032000Y7366000D03*
G01*
X2794000Y7366000D03*
G01*
X2032000Y7112000D03*
G01*
X2794000Y7112000D03*
G01*
X2032000Y6858000D03*
G01*
X2794000Y6858000D03*
G01*
X2032000Y6604000D03*
G01*
X2794000Y6604000D03*
G01*
X2032000Y6350000D03*
G01*
X2794000Y6350000D03*
G01*
X2032000Y6096000D03*
G01*
X2794000Y6096000D03*
G01*
X2032000Y5842000D03*
G01*
X2794000Y5842000D03*
G01*
X2032000Y5588000D03*
G01*
X2794000Y5588000D03*
G01*
X3302000Y7874000D03*
G01*
X4064000Y7874000D03*
G01*
X3302000Y7620000D03*
G01*
X4064000Y7620000D03*
G01*
X3302000Y7366000D03*
G01*
X4064000Y7366000D03*
G01*
X3302000Y7112000D03*
G01*
X4064000Y7112000D03*
G01*
X3302000Y6858000D03*
G01*
X4064000Y6858000D03*
G01*
X3302000Y6604000D03*
G01*
X4064000Y6604000D03*
G01*
X3302000Y6350000D03*
G01*
X4064000Y6350000D03*
G01*
X3302000Y6096000D03*
G01*
X4064000Y6096000D03*
G01*
X3302000Y5842000D03*
G01*
X4064000Y5842000D03*
G01*
X3302000Y5588000D03*
G01*
X4064000Y5588000D03*
G01*
X5842000Y7874000D03*
G01*
X6604000Y7874000D03*
G01*
X5842000Y7620000D03*
G01*
X6604000Y7620000D03*
G01*
X5842000Y7366000D03*
G01*
X6604000Y7366000D03*
G01*
X5842000Y7112000D03*
G01*
X6604000Y7112000D03*
G01*
X5842000Y6858000D03*
G01*
X6604000Y6858000D03*
G01*
X5842000Y6604000D03*
G01*
X6604000Y6604000D03*
G01*
X5842000Y6350000D03*
G01*
X6604000Y6350000D03*
G01*
X5842000Y6096000D03*
G01*
X6604000Y6096000D03*
G01*
X5842000Y5842000D03*
G01*
X6604000Y5842000D03*
G01*
X5842000Y5588000D03*
G01*
X6604000Y5588000D03*
G01*
X7112000Y7874000D03*
G01*
X7874000Y7874000D03*
G01*
X7112000Y7620000D03*
G01*
X7874000Y7620000D03*
G01*
X7112000Y7366000D03*
G01*
X7874000Y7366000D03*
G01*
X7112000Y7112000D03*
G01*
X7874000Y7112000D03*
G01*
X7112000Y6858000D03*
G01*
X7874000Y6858000D03*
G01*
X7112000Y6604000D03*
G01*
X7874000Y6604000D03*
G01*
X7112000Y6350000D03*
G01*
X7874000Y6350000D03*
G01*
X7112000Y6096000D03*
G01*
X7874000Y6096000D03*
G01*
X7112000Y5842000D03*
G01*
X7874000Y5842000D03*
G01*
X7112000Y5588000D03*
G01*
X7874000Y5588000D03*
G01*
X8382000Y7874000D03*
G01*
X9144000Y7874000D03*
G01*
X8382000Y7620000D03*
G01*
X9144000Y7620000D03*
G01*
X8382000Y7366000D03*
G01*
X9144000Y7366000D03*
G01*
X8382000Y7112000D03*
G01*
X9144000Y7112000D03*
G01*
X8382000Y6858000D03*
G01*
X9144000Y6858000D03*
G01*
X8382000Y6604000D03*
G01*
X9144000Y6604000D03*
G01*
X8382000Y6350000D03*
G01*
X9144000Y6350000D03*
G01*
X8382000Y6096000D03*
G01*
X9144000Y6096000D03*
G01*
X8382000Y5842000D03*
G01*
X9144000Y5842000D03*
G01*
X8382000Y5588000D03*
G01*
X9144000Y5588000D03*
G01*
X4572000Y7874000D03*
G01*
X5334000Y7874000D03*
G01*
X4572000Y7620000D03*
G01*
X5334000Y7620000D03*
G01*
X4572000Y7366000D03*
G01*
X5334000Y7366000D03*
G01*
X4572000Y7112000D03*
G01*
X5334000Y7112000D03*
G01*
X4572000Y6858000D03*
G01*
X5334000Y6858000D03*
G01*
X4572000Y6604000D03*
G01*
X5334000Y6604000D03*
G01*
X4572000Y6350000D03*
G01*
X5334000Y6350000D03*
G01*
X4572000Y6096000D03*
G01*
X5334000Y6096000D03*
G01*
X4572000Y5842000D03*
G01*
X5334000Y5842000D03*
G01*
X4572000Y5588000D03*
G01*
X5334000Y5588000D03*
G01*
X8382000Y2794000D03*
G01*
X8382000Y2540000D03*
G01*
X8382000Y2286000D03*
G01*
X8382000Y2032000D03*
G01*
X8382000Y1778000D03*
G01*
X8382000Y1524000D03*
G01*
X8382000Y1270000D03*
G01*
X9144000Y2794000D03*
G01*
X9144000Y2540000D03*
G01*
X9144000Y2286000D03*
G01*
X9144000Y2032000D03*
G01*
X9144000Y1778000D03*
G01*
X9144000Y1524000D03*
G01*
X9144000Y1270000D03*
G01*
X5842000Y2794000D03*
G01*
X5842000Y2540000D03*
G01*
X5842000Y2286000D03*
G01*
X5842000Y2032000D03*
G01*
X5842000Y1778000D03*
G01*
X5842000Y1524000D03*
G01*
X5842000Y1270000D03*
G01*
X6604000Y2794000D03*
G01*
X6604000Y2540000D03*
G01*
X6604000Y2286000D03*
G01*
X6604000Y2032000D03*
G01*
X6604000Y1778000D03*
G01*
X6604000Y1524000D03*
G01*
X6604000Y1270000D03*
G01*
X7112000Y2794000D03*
G01*
X7112000Y2540000D03*
G01*
X7112000Y2286000D03*
G01*
X7112000Y2032000D03*
G01*
X7112000Y1778000D03*
G01*
X7112000Y1524000D03*
G01*
X7112000Y1270000D03*
G01*
X7874000Y2794000D03*
G01*
X7874000Y2540000D03*
G01*
X7874000Y2286000D03*
G01*
X7874000Y2032000D03*
G01*
X7874000Y1778000D03*
G01*
X7874000Y1524000D03*
G01*
X7874000Y1270000D03*
D18*
G01*
X7620000Y3810000D03*
G01*
X7874000Y3810000D03*
G01*
X8128000Y3810000D03*
G01*
X8382000Y3810000D03*
G01*
X8636000Y3810000D03*
G01*
X8890000Y3810000D03*
G01*
X9144000Y3810000D03*
G01*
X7620000Y4572000D03*
G01*
X7874000Y4572000D03*
G01*
X8128000Y4572000D03*
G01*
X8382000Y4572000D03*
G01*
X8636000Y4572000D03*
G01*
X8890000Y4572000D03*
G01*
X9144000Y4572000D03*
D24*
G01*
X2794000Y3048000D03*
G01*
X2794000Y2794000D03*
G01*
X2794000Y2540000D03*
G01*
X2794000Y2286000D03*
G01*
X2794000Y2032000D03*
G01*
X2794000Y1778000D03*
G01*
X2794000Y1524000D03*
G01*
X2794000Y1270000D03*
G01*
X2032000Y1270000D03*
G01*
X2032000Y1524000D03*
G01*
X2032000Y1778000D03*
G01*
X2032000Y2032000D03*
G01*
X2032000Y2286000D03*
G01*
X2032000Y2540000D03*
G01*
X2032000Y2794000D03*
G01*
X2032000Y3048000D03*
G01*
X5080000Y4572000D03*
G01*
X5080000Y4318000D03*
G01*
X5080000Y4064000D03*
G01*
X5080000Y3810000D03*
G01*
X5080000Y3556000D03*
G01*
X5080000Y3302000D03*
G01*
X5080000Y3048000D03*
G01*
X5080000Y2794000D03*
G01*
X5080000Y2540000D03*
G01*
X5080000Y2286000D03*
G01*
X5080000Y2032000D03*
G01*
X5080000Y1778000D03*
G01*
X5080000Y1524000D03*
G01*
X5080000Y1270000D03*
G01*
X3556000Y1270000D03*
G01*
X3556000Y1524000D03*
G01*
X3556000Y1778000D03*
G01*
X3556000Y2032000D03*
G01*
X3556000Y2286000D03*
G01*
X3556000Y2540000D03*
G01*
X3556000Y2794000D03*
G01*
X3556000Y3302000D03*
G01*
X3556000Y3556000D03*
G01*
X3556000Y3810000D03*
G01*
X3556000Y4064000D03*
G01*
X3556000Y4318000D03*
G01*
X3556000Y3048000D03*
G01*
X3556000Y4572000D03*
D21*
G01*
X914400Y2540000D03*
G01*
X914400Y2286000D03*
D26*
G01*
X1409700Y7378700D03*
G01*
X1409700Y5600700D03*
G01*
X1409700Y5854700D03*
G01*
X1409700Y6108700D03*
G01*
X1409700Y6362700D03*
G01*
X1409700Y6616700D03*
G01*
X1409700Y6870700D03*
G01*
X1409700Y7124700D03*
G01*
X8255000Y254000D03*
G01*
X3975100Y3810000D03*
G01*
X4064000Y3556000D03*
G01*
X4089400Y2794000D03*
G01*
X4089400Y3302000D03*
G01*
X4038600Y4064000D03*
G01*
X4648200Y2032000D03*
G01*
X4699000Y1778000D03*
G01*
X4762500Y1524000D03*
G01*
X4914900Y4673600D03*
G01*
X4851400Y4622800D03*
G01*
X4787900Y4572000D03*
G01*
X4724400Y4521200D03*
G01*
X4660900Y4470400D03*
G01*
X4597400Y4419600D03*
G01*
X4533900Y4368800D03*
G01*
X4470400Y4318000D03*
G01*
X5397500Y2184400D03*
G01*
X5511800Y2108200D03*
G01*
X9740900Y901700D03*
G01*
X9677400Y952500D03*
G01*
X9613900Y1003300D03*
G01*
X9486900Y1104900D03*
G01*
X3492500Y3162300D03*
G01*
X3429000Y3213100D03*
G01*
X3365500Y3263900D03*
G01*
X6731000Y596900D03*
G01*
X6731000Y254000D03*
G01*
X2425700Y7683474D03*
G01*
X3086100Y2971800D03*
G01*
X9550400Y1054100D03*
G01*
X9804400Y2286000D03*
G01*
X9486900Y2717800D03*
G01*
X9613900Y3937000D03*
G01*
X9740900Y4432300D03*
G01*
X9639274Y7619974D03*
G01*
X9804374Y6705574D03*
G01*
X9677374Y6248374D03*
G01*
X9867874Y6654774D03*
G01*
X9804374Y1701800D03*
G01*
X10121874Y6451574D03*
G01*
X10185374Y6400774D03*
G01*
X10058374Y1866900D03*
G01*
X9804374Y2120900D03*
G01*
X5334000Y2362200D03*
G01*
X5270500Y2235200D03*
G01*
X5207000Y2425700D03*
G01*
X10248874Y6349974D03*
G01*
X10248900Y2374900D03*
G01*
X10058374Y6502374D03*
G01*
X10058374Y2184400D03*
G01*
X9931374Y6603974D03*
G01*
X9931400Y2438400D03*
G01*
X9994874Y6553174D03*
G01*
X9804374Y1930400D03*
G01*
X2552700Y7683474D03*
G01*
X3314700Y2921000D03*
G01*
X2908300Y2781300D03*
G01*
X3429000Y2717800D03*
G01*
X3911600Y7874000D03*
G01*
X5969000Y254000D03*
G01*
X5715000Y254000D03*
G01*
X5461000Y254000D03*
G01*
X5207000Y254000D03*
G01*
X6096000Y254000D03*
G01*
X6096000Y596900D03*
G01*
X5969000Y596900D03*
G01*
X5715000Y596900D03*
G01*
X5461000Y596900D03*
G01*
X5207000Y596900D03*
G01*
X1765300Y1231900D03*
G01*
X2362200Y5689600D03*
G01*
X3441700Y2374900D03*
G01*
X8166074Y7734274D03*
G01*
X7251674Y7873974D03*
G01*
X7340574Y7873974D03*
G01*
X9347174Y8051774D03*
G01*
X8775674Y7988274D03*
G01*
X8839174Y7937474D03*
G01*
X8902674Y7988274D03*
G01*
X8966174Y7937474D03*
G01*
X4318000Y8915374D03*
G01*
X6794500Y7619974D03*
G01*
X8242274Y6857974D03*
G01*
X6311900Y8915374D03*
G01*
X3365500Y596900D03*
G01*
X3733800Y596900D03*
G01*
X9410674Y9016974D03*
M02*
